<?xml version="1.0" encoding="UTF-8" standalone="no"?>
<!DOCTYPE svg PUBLIC "-//W3C//DTD SVG 1.1//EN" "http://www.w3.org/Graphics/SVG/1.1/DTD/svg11.dtd">
<svg xmlns="http://www.w3.org/2000/svg" version="1.1" viewBox="0.00 0.00 300.00 300.00" width="300.00" height="300.00">
<g stroke-width="2.00" fill="none" stroke-linecap="butt">
<path stroke="#808080" vector-effect="non-scaling-stroke" d="
  M 221.10 51.12
  Q 237.02 53.61 255.11 58.41
  A 2.75 2.74 -0.9 0 1 257.05 60.28
  Q 258.32 64.45 261.99 73.62
  C 264.14 78.97 261.28 85.38 259.40 90.82
  A 0.75 0.74 -73.8 0 0 259.92 91.78
  L 270.94 94.48
  A 2.39 2.38 49.2 0 0 271.75 94.54
  Q 274.44 94.27 275.70 93.76
  Q 289.97 88.01 293.07 71.77
  A 0.36 0.36 0.0 0 0 292.62 71.35
  C 290.44 71.94 286.60 73.59 285.92 70.39
  A 1.85 1.77 -41.9 0 1 286.00 69.34
  Q 290.05 58.82 287.26 45.96
  C 283.24 27.42 270.09 11.27 251.42 7.48
  Q 239.70 5.10 227.75 10.72
  C 218.82 14.93 210.77 21.72 207.13 31.14
  Q 206.31 33.26 206.27 34.38
  A 0.37 0.36 73.9 0 0 206.84 34.70
  C 209.08 33.14 211.79 31.24 214.64 31.87
  Q 220.92 33.25 222.99 38.63
  Q 225.76 45.87 220.95 50.67
  A 0.27 0.26 26.8 0 0 221.10 51.12"
/>
<path stroke="#808080" vector-effect="non-scaling-stroke" d="
  M 150.46 113.26
  Q 168.39 98.45 191.54 95.25
  A 0.96 0.95 5.4 0 0 192.32 94.61
  Q 192.91 92.96 193.94 91.85
  A 0.92 0.90 50.6 0 0 194.04 90.74
  Q 189.94 84.45 188.63 83.32
  Q 181.53 77.20 171.82 75.86
  C 163.82 74.76 157.13 80.25 153.02 86.15
  A 0.68 0.68 0.0 0 1 151.79 85.75
  Q 151.81 82.40 154.41 79.88
  C 159.90 74.57 163.96 71.26 172.50 72.05
  Q 185.14 73.23 192.89 83.20
  A 4.81 4.38 1.4 0 0 193.86 84.13
  Q 195.99 85.64 197.20 87.60
  A 0.13 0.12 -30.0 0 0 197.36 87.64
  L 206.38 82.74
  A 4.85 4.72 -65.3 0 1 207.60 82.27
  Q 217.37 79.87 227.51 84.24
  C 229.61 85.15 232.13 87.62 233.94 89.14
  A 2.47 2.46 -49.6 0 0 237.39 88.86
  Q 238.56 87.50 239.22 85.18
  C 242.06 75.19 235.03 65.74 225.73 62.15
  A 0.88 0.88 0.0 0 1 225.80 60.48
  C 227.14 60.08 229.45 60.35 230.70 60.93
  Q 243.19 66.68 244.68 80.99
  Q 244.90 83.09 242.67 89.34
  A 0.32 0.31 87.4 0 0 243.10 89.74
  L 243.89 89.36
  A 0.07 0.07 0.0 0 0 243.94 89.31
  Q 248.19 76.13 249.38 72.40
  Q 250.96 67.46 253.07 63.27
  A 0.77 0.76 20.2 0 0 252.56 62.19
  C 223.79 55.21 194.59 50.74 165.48 46.29
  Q 153.05 44.39 140.31 41.98
  A 0.46 0.45 -76.9 0 0 139.79 42.31
  L 128.72 84.51
  A 0.47 0.46 -76.0 0 0 129.06 85.08
  Q 132.73 85.95 135.76 86.49
  Q 140.22 87.30 145.98 91.56
  C 152.97 96.72 154.07 105.50 150.30 113.13
  A 0.11 0.10 83.4 0 0 150.46 113.26"
/>
<path stroke="#808080" vector-effect="non-scaling-stroke" d="
  M 135.14 45.51
  C 126.80 48.90 117.99 54.11 114.91 62.62
  C 112.08 70.44 116.06 78.81 125.31 78.00
  A 0.44 0.42 4.9 0 0 125.68 77.70
  L 135.39 45.74
  A 0.19 0.19 0.0 0 0 135.14 45.51"
/>
<path stroke="#6d6d6d" vector-effect="non-scaling-stroke" d="
  M 255.38 67.35
  L 248.68 89.44
  A 0.36 0.35 13.7 0 0 248.96 89.89
  L 253.92 90.75
  A 0.97 0.97 0.0 0 0 255.02 90.08
  L 258.42 78.88
  A 4.66 4.62 45.5 0 0 258.43 76.23
  L 255.81 67.35
  A 0.23 0.22 -44.8 0 0 255.38 67.35"
/>
<path stroke="#808080" vector-effect="non-scaling-stroke" d="
  M 223.39 116.16
  C 227.21 114.69 231.32 112.49 232.86 108.52
  Q 235.43 101.87 232.22 95.02
  C 229.76 89.78 226.06 88.40 220.11 85.71
  A 3.63 3.34 -24.2 0 0 219.42 85.48
  Q 212.34 84.00 204.93 87.60
  C 197.57 91.19 193.78 97.36 195.14 105.55
  C 196.35 112.82 203.89 117.24 210.50 117.75
  A 0.52 0.51 0.5 0 0 211.05 117.21
  L 210.88 113.75
  A 1.26 1.24 77.2 0 1 211.63 112.54
  L 212.08 112.34
  A 1.13 1.13 0.0 0 1 213.67 113.32
  L 213.87 117.25
  A 0.50 0.50 0.0 0 0 214.40 117.73
  L 219.18 117.50
  A 0.61 0.61 0.0 0 0 219.73 116.72
  Q 219.07 114.53 219.85 112.82
  A 0.90 0.89 14.6 0 1 220.75 112.30
  Q 222.99 112.49 222.69 115.63
  A 0.52 0.52 0.0 0 0 223.39 116.16"
/>
<path stroke="#808080" vector-effect="non-scaling-stroke" d="
  M 118.24 117.90
  Q 118.13 115.23 119.30 113.51
  A 1.01 1.01 0.0 0 1 121.14 114.06
  Q 121.20 116.66 120.53 118.48
  A 0.67 0.66 15.1 0 0 121.04 119.36
  L 129.65 120.85
  A 0.72 0.71 -77.3 0 0 130.47 120.33
  L 131.46 116.78
  A 1.37 1.37 0.0 0 1 133.91 116.36
  Q 134.81 117.56 134.29 119.97
  A 0.55 0.55 0.0 0 0 134.93 120.63
  Q 140.03 119.70 143.27 115.74
  C 155.42 100.90 143.39 90.34 128.66 88.60
  Q 119.37 87.50 113.80 92.69
  C 111.48 94.86 108.51 100.18 107.91 102.64
  Q 105.58 112.18 113.89 116.87
  Q 115.81 117.95 117.68 118.37
  A 0.46 0.46 0.0 0 0 118.24 117.90"
/>
<path stroke="#808080" vector-effect="non-scaling-stroke" d="
  M 21.76 100.57
  Q 21.92 101.10 21.86 101.75
  Q 20.42 117.93 20.91 131.25
  C 21.80 155.52 23.05 172.88 24.42 199.42
  Q 25.66 223.47 27.53 243.50
  Q 28.96 258.83 30.97 267.62
  A 0.28 0.28 0.0 0 0 31.44 267.75
  Q 33.57 265.56 35.83 264.56
  C 55.12 256.04 77.49 254.92 98.47 257.79
  A 0.64 0.63 2.3 0 0 99.19 257.13
  L 98.97 252.69
  A 1.66 1.66 0.0 0 1 101.36 251.12
  Q 105.47 253.14 109.48 255.97
  Q 110.81 256.90 117.17 258.95
  C 125.36 261.58 134.09 264.06 142.25 265.27
  Q 154.25 267.04 166.89 261.35
  C 170.10 259.90 172.35 257.28 174.53 254.76
  Q 176.03 253.02 176.80 249.27
  Q 178.93 238.84 170.87 232.95
  Q 166.56 229.80 163.38 228.46
  Q 151.39 223.42 138.52 223.63
  Q 123.28 223.87 106.37 228.37
  Q 101.85 229.58 101.32 230.47
  A 0.69 0.68 24.5 0 1 100.51 230.77
  Q 98.88 230.21 98.12 229.25
  A 1.62 1.57 25.6 0 1 97.78 228.33
  Q 96.61 198.84 97.19 168.00
  Q 97.29 162.51 97.86 157.63
  A 2.04 2.04 0.0 0 1 100.21 155.85
  Q 102.00 156.15 103.66 156.14
  C 124.22 156.01 141.73 155.17 161.78 155.67
  C 180.06 156.13 190.92 156.13 200.39 157.10
  Q 202.89 157.36 204.04 160.27
  A 5.37 5.18 35.0 0 1 204.42 162.23
  L 204.42 182.10
  A 2.07 2.07 0.0 0 1 202.35 184.17
  L 130.17 184.17
  A 0.29 0.29 0.0 0 0 129.88 184.48
  L 130.39 194.85
  A 0.54 0.54 0.0 0 0 131.08 195.34
  Q 134.54 194.28 143.99 194.16
  Q 158.79 193.98 171.96 197.78
  C 189.37 202.81 205.28 215.96 209.18 234.15
  Q 211.82 246.50 207.83 257.52
  A 0.40 0.40 0.0 0 0 208.25 258.05
  C 225.86 256.25 244.66 258.06 261.29 264.72
  Q 264.59 266.05 267.41 268.51
  A 0.37 0.37 0.0 0 0 268.01 268.32
  Q 270.00 259.74 270.88 250.63
  Q 273.45 224.16 274.66 199.57
  C 275.88 174.79 277.46 153.44 278.11 131.27
  Q 278.52 117.67 277.04 101.26
  A 0.83 0.83 0.0 0 0 276.50 100.56
  Q 266.32 96.86 253.89 94.98
  C 249.56 94.32 245.29 94.62 241.27 93.91
  Q 240.81 93.83 237.49 94.83
  A 0.61 0.61 0.0 0 0 237.06 95.51
  Q 237.16 96.13 237.67 98.03
  C 239.31 104.24 237.62 112.43 231.82 116.56
  Q 224.63 121.69 214.79 122.34
  Q 206.81 122.86 199.91 118.69
  Q 190.21 112.82 190.86 101.13
  A 0.77 0.77 0.0 0 0 189.98 100.33
  C 175.21 102.46 163.14 109.03 150.82 117.33
  Q 150.35 117.65 147.68 118.45
  A 2.56 2.44 -73.9 0 0 146.67 119.04
  C 143.89 121.75 141.22 124.22 137.25 124.58
  Q 126.01 125.61 115.86 122.17
  Q 100.70 117.02 104.30 101.41
  A 0.66 0.66 0.0 0 0 103.92 100.66
  Q 100.25 99.03 97.68 98.34
  Q 86.10 95.26 74.49 93.82
  Q 47.72 90.51 22.24 99.63
  A 0.76 0.76 0.0 0 0 21.76 100.57"
/>
<path stroke="#4d291a" vector-effect="non-scaling-stroke" d="
  M 16.20 110.77
  L 8.91 112.92
  A 0.30 0.28 -7.3 0 0 8.70 113.18
  C 8.54 118.28 9.26 124.06 9.12 128.93
  Q 8.95 135.05 9.41 161.51
  Q 9.97 193.13 13.29 227.70
  C 14.77 243.08 14.85 252.64 16.89 265.83
  Q 17.48 269.67 19.55 287.03
  A 0.45 0.44 73.2 0 0 20.19 287.38
  Q 32.37 281.33 46.84 278.68
  Q 72.51 273.98 98.89 275.22
  A 0.58 0.57 1.4 0 0 99.50 274.65
  L 99.50 263.21
  A 1.22 1.22 0.0 0 0 98.41 262.00
  C 80.74 260.11 63.75 260.18 46.73 264.69
  Q 43.32 265.59 35.62 268.85
  A 2.25 2.18 -77.6 0 0 34.94 269.30
  L 32.41 271.84
  A 1.47 1.47 0.0 0 1 30.37 271.88
  Q 28.79 270.44 28.23 268.50
  Q 25.65 259.50 24.53 250.24
  C 22.63 234.51 20.98 214.92 20.06 196.22
  C 18.81 170.58 15.86 139.20 16.49 110.99
  A 0.23 0.22 -7.5 0 0 16.20 110.77"
/>
<path stroke="#4d291a" vector-effect="non-scaling-stroke" d="
  M 196.42 276.41
  Q 212.63 275.42 228.46 276.61
  C 247.27 278.03 263.75 280.62 279.72 288.36
  A 0.53 0.52 16.0 0 0 280.47 287.95
  Q 282.16 272.85 284.17 258.99
  C 285.30 251.18 285.44 241.48 286.37 232.00
  Q 291.16 183.56 290.86 133.79
  C 290.82 126.12 291.40 120.08 291.35 114.13
  A 0.35 0.34 7.8 0 0 291.09 113.80
  L 282.71 111.60
  A 0.20 0.20 0.0 0 0 282.46 111.80
  Q 283.01 129.75 281.71 150.00
  Q 279.78 180.19 277.91 214.50
  Q 277.63 219.76 274.92 247.38
  C 274.25 254.21 272.92 261.93 271.28 267.76
  Q 270.48 270.65 269.09 272.57
  A 1.64 1.63 -50.5 0 1 266.65 272.81
  Q 262.27 268.70 255.70 266.71
  Q 232.11 259.58 206.32 262.61
  A 1.24 1.23 9.0 0 0 205.34 263.32
  Q 202.85 268.73 198.22 273.72
  Q 197.17 274.85 196.19 275.93
  A 0.29 0.29 0.0 0 0 196.42 276.41"
/>
<path stroke="#793d06" vector-effect="non-scaling-stroke" d="
  M 102.99 257.00
  A 0.24 0.23 -72.2 0 0 102.61 257.20
  L 103.73 280.00
  A 0.62 0.62 0.0 0 0 104.16 280.56
  C 112.14 283.03 120.09 285.64 127.03 286.83
  Q 147.29 290.29 167.16 286.16
  Q 186.45 282.15 197.71 267.01
  Q 209.82 250.72 204.04 231.10
  C 199.48 215.59 182.97 204.65 168.05 200.93
  C 155.49 197.80 142.12 197.76 129.43 198.75
  A 1.35 1.34 -28.1 0 1 128.50 198.47
  Q 126.18 196.67 126.01 195.08
  Q 125.41 189.32 126.38 182.34
  A 1.76 1.74 -88.1 0 1 127.97 180.84
  Q 138.86 179.96 147.99 180.18
  Q 163.09 180.55 166.11 180.44
  Q 184.70 179.77 199.24 180.14
  A 0.64 0.64 0.0 0 0 199.90 179.50
  L 199.90 161.65
  A 0.99 0.99 0.0 0 0 198.94 160.66
  C 186.42 160.27 177.37 159.37 165.64 159.56
  Q 134.72 160.08 103.02 159.71
  A 0.72 0.72 0.0 0 0 102.31 160.30
  Q 101.69 163.77 101.59 167.77
  Q 100.84 198.43 101.47 225.35
  A 0.81 0.81 0.0 0 0 102.55 226.10
  Q 119.74 220.01 137.77 219.49
  Q 151.48 219.10 165.11 224.42
  C 171.89 227.06 179.99 232.91 181.44 240.70
  Q 183.51 251.77 176.52 259.75
  A 5.19 4.89 -85.4 0 1 175.68 260.51
  Q 158.76 272.67 138.70 269.06
  Q 131.77 267.81 124.01 265.56
  C 116.19 263.30 108.96 261.69 102.99 257.00"
/>
<path stroke="#808080" vector-effect="non-scaling-stroke" d="
  M 158.8261 70.1656
  A 4.93 3.56 -24.5 0 0 152.8637 68.9705
  A 4.93 3.56 -24.5 0 0 149.8539 74.2544
  A 4.93 3.56 -24.5 0 0 155.8163 75.4495
  A 4.93 3.56 -24.5 0 0 158.8261 70.1656"
/>
<path stroke="#808080" vector-effect="non-scaling-stroke" d="
  M 199.25 85.45
  C 201.08 84.87 203.05 84.22 202.81 81.84
  Q 202.44 78.30 198.80 76.96
  C 196.74 76.21 195.39 77.91 194.64 79.49
  A 1.14 1.12 45.6 0 0 194.64 80.46
  C 195.71 82.67 196.33 84.89 198.55 84.62
  A 0.16 0.16 0.0 0 1 198.73 84.78
  L 198.73 85.07
  A 0.40 0.40 0.0 0 0 199.25 85.45"
/>
<path stroke="#808080" vector-effect="non-scaling-stroke" d="
  M 166.92 78.93
  C 166.20 80.74 167.88 83.48 168.86 84.61
  C 170.92 87.00 174.56 84.53 176.61 83.12
  Q 177.88 82.25 178.07 81.38
  A 2.31 2.30 15.2 0 0 176.53 78.70
  Q 173.35 77.65 170.02 77.30
  Q 167.67 77.05 166.92 78.93"
/>
<path stroke="#808080" vector-effect="non-scaling-stroke" d="
  M 156.97 71.49
  A 1.28 1.28 0.0 0 0 155.69 70.21
  A 1.28 1.28 0.0 0 0 154.41 71.49
  A 1.28 1.28 0.0 0 0 155.69 72.77
  A 1.28 1.28 0.0 0 0 156.97 71.49"
/>
<path stroke="#808080" vector-effect="non-scaling-stroke" d="
  M 196.4720 79.3827
  A 1.29 1.07 -169.4 0 0 197.5432 80.6717
  A 1.29 1.07 -169.4 0 0 199.0080 79.8573
  A 1.29 1.07 -169.4 0 0 197.9368 78.5683
  A 1.29 1.07 -169.4 0 0 196.4720 79.3827"
/>
<path stroke="#808080" vector-effect="non-scaling-stroke" d="
  M 168.8006 79.7570
  A 1.54 0.89 -178.4 0 0 170.3151 80.6897
  A 1.54 0.89 -178.4 0 0 171.8794 79.8430
  A 1.54 0.89 -178.4 0 0 170.3649 78.9103
  A 1.54 0.89 -178.4 0 0 168.8006 79.7570"
/>
</g>
<path fill="#000000" d="
  M 292.56 66.23
  Q 294.08 64.66 295.61 65.70
  A 1.98 1.94 -87.4 0 1 296.20 66.36
  Q 298.04 69.66 297.57 72.49
  Q 294.68 90.15 278.93 97.51
  A 0.30 0.29 53.9 0 0 278.86 97.99
  Q 281.06 100.04 281.40 102.13
  Q 281.58 103.22 282.08 106.76
  A 0.73 0.73 0.0 0 0 282.70 107.39
  Q 289.20 108.34 294.76 111.17
  A 1.56 1.55 23.7 0 1 295.52 113.10
  Q 295.19 113.99 295.06 115.50
  C 294.08 126.74 294.67 141.84 294.33 154.84
  Q 293.64 181.09 293.33 187.45
  Q 292.44 205.48 290.73 223.25
  Q 289.02 241.05 288.38 251.27
  C 287.69 262.42 284.97 275.16 283.89 286.08
  C 283.74 287.60 282.80 289.48 282.83 291.34
  A 1.44 1.43 11.6 0 1 280.81 292.67
  Q 262.25 284.32 241.99 282.07
  Q 218.83 279.50 196.51 280.67
  Q 193.34 280.83 190.47 281.47
  A 5.76 5.72 -68.2 0 0 188.44 282.35
  C 178.97 288.88 166.87 291.88 154.51 292.58
  Q 136.90 293.58 123.48 290.80
  Q 120.28 290.14 106.86 286.24
  C 104.81 285.64 102.90 284.38 101.47 283.85
  A 1.53 1.53 0.0 0 1 100.71 283.21
  Q 99.90 281.80 99.90 280.62
  A 1.34 1.33 -89.6 0 0 98.59 279.28
  Q 78.52 278.95 58.99 281.00
  Q 38.29 283.17 19.52 291.61
  C 18.37 292.13 16.94 291.29 17.10 289.91
  Q 17.19 289.17 16.98 288.20
  Q 16.01 283.87 15.83 282.47
  Q 14.73 273.98 12.57 259.98
  C 11.41 252.43 10.88 238.98 10.20 232.00
  Q 7.63 205.84 7.02 194.00
  Q 6.66 186.95 5.82 162.06
  Q 5.37 148.48 5.38 138.92
  Q 5.38 120.83 5.10 115.78
  C 5.01 114.06 4.32 112.66 4.39 111.34
  A 1.15 1.14 -15.3 0 1 4.91 110.44
  C 8.10 108.30 13.27 107.02 16.31 106.37
  A 0.77 0.76 -1.7 0 0 16.91 105.74
  C 17.35 102.88 17.01 98.51 20.76 96.75
  Q 26.27 94.15 28.30 93.51
  Q 52.78 85.89 79.17 89.91
  Q 90.15 91.58 99.12 93.97
  C 101.53 94.61 103.73 95.72 105.51 96.46
  A 0.95 0.94 -63.2 0 0 106.67 96.07
  C 107.53 94.63 109.07 92.09 109.87 91.25
  Q 115.45 85.32 124.29 85.16
  A 0.07 0.07 0.0 0 0 124.36 85.10
  Q 124.72 83.91 124.30 82.79
  A 0.18 0.18 0.0 0 0 124.13 82.67
  Q 115.29 82.60 111.79 75.35
  C 107.31 66.03 112.07 55.75 119.81 49.79
  Q 127.02 44.23 135.76 41.82
  A 2.90 2.89 -82.9 0 0 137.50 40.46
  C 138.92 37.94 142.42 38.56 144.14 38.84
  C 168.32 42.69 191.04 45.59 214.12 49.78
  A 1.13 1.13 0.0 0 0 215.24 49.31
  Q 215.97 48.27 217.51 47.19
  C 220.00 45.44 219.29 41.33 218.02 39.28
  C 215.00 34.37 209.50 34.68 205.51 38.86
  A 0.72 0.70 -53.0 0 1 204.64 38.99
  Q 203.21 38.18 202.97 36.55
  C 201.89 28.96 208.98 19.42 214.43 14.89
  C 218.91 11.17 224.95 7.22 230.74 5.26
  C 256.86 -3.55 280.24 12.20 289.38 36.36
  Q 294.85 50.85 292.04 65.96
  A 0.31 0.31 0.0 0 0 292.56 66.23
  Z
  M 221.10 51.12
  Q 237.02 53.61 255.11 58.41
  A 2.75 2.74 -0.9 0 1 257.05 60.28
  Q 258.32 64.45 261.99 73.62
  C 264.14 78.97 261.28 85.38 259.40 90.82
  A 0.75 0.74 -73.8 0 0 259.92 91.78
  L 270.94 94.48
  A 2.39 2.38 49.2 0 0 271.75 94.54
  Q 274.44 94.27 275.70 93.76
  Q 289.97 88.01 293.07 71.77
  A 0.36 0.36 0.0 0 0 292.62 71.35
  C 290.44 71.94 286.60 73.59 285.92 70.39
  A 1.85 1.77 -41.9 0 1 286.00 69.34
  Q 290.05 58.82 287.26 45.96
  C 283.24 27.42 270.09 11.27 251.42 7.48
  Q 239.70 5.10 227.75 10.72
  C 218.82 14.93 210.77 21.72 207.13 31.14
  Q 206.31 33.26 206.27 34.38
  A 0.37 0.36 73.9 0 0 206.84 34.70
  C 209.08 33.14 211.79 31.24 214.64 31.87
  Q 220.92 33.25 222.99 38.63
  Q 225.76 45.87 220.95 50.67
  A 0.27 0.26 26.8 0 0 221.10 51.12
  Z
  M 150.46 113.26
  Q 168.39 98.45 191.54 95.25
  A 0.96 0.95 5.4 0 0 192.32 94.61
  Q 192.91 92.96 193.94 91.85
  A 0.92 0.90 50.6 0 0 194.04 90.74
  Q 189.94 84.45 188.63 83.32
  Q 181.53 77.20 171.82 75.86
  C 163.82 74.76 157.13 80.25 153.02 86.15
  A 0.68 0.68 0.0 0 1 151.79 85.75
  Q 151.81 82.40 154.41 79.88
  C 159.90 74.57 163.96 71.26 172.50 72.05
  Q 185.14 73.23 192.89 83.20
  A 4.81 4.38 1.4 0 0 193.86 84.13
  Q 195.99 85.64 197.20 87.60
  A 0.13 0.12 -30.0 0 0 197.36 87.64
  L 206.38 82.74
  A 4.85 4.72 -65.3 0 1 207.60 82.27
  Q 217.37 79.87 227.51 84.24
  C 229.61 85.15 232.13 87.62 233.94 89.14
  A 2.47 2.46 -49.6 0 0 237.39 88.86
  Q 238.56 87.50 239.22 85.18
  C 242.06 75.19 235.03 65.74 225.73 62.15
  A 0.88 0.88 0.0 0 1 225.80 60.48
  C 227.14 60.08 229.45 60.35 230.70 60.93
  Q 243.19 66.68 244.68 80.99
  Q 244.90 83.09 242.67 89.34
  A 0.32 0.31 87.4 0 0 243.10 89.74
  L 243.89 89.36
  A 0.07 0.07 0.0 0 0 243.94 89.31
  Q 248.19 76.13 249.38 72.40
  Q 250.96 67.46 253.07 63.27
  A 0.77 0.76 20.2 0 0 252.56 62.19
  C 223.79 55.21 194.59 50.74 165.48 46.29
  Q 153.05 44.39 140.31 41.98
  A 0.46 0.45 -76.9 0 0 139.79 42.31
  L 128.72 84.51
  A 0.47 0.46 -76.0 0 0 129.06 85.08
  Q 132.73 85.95 135.76 86.49
  Q 140.22 87.30 145.98 91.56
  C 152.97 96.72 154.07 105.50 150.30 113.13
  A 0.11 0.10 83.4 0 0 150.46 113.26
  Z
  M 135.14 45.51
  C 126.80 48.90 117.99 54.11 114.91 62.62
  C 112.08 70.44 116.06 78.81 125.31 78.00
  A 0.44 0.42 4.9 0 0 125.68 77.70
  L 135.39 45.74
  A 0.19 0.19 0.0 0 0 135.14 45.51
  Z
  M 255.38 67.35
  L 248.68 89.44
  A 0.36 0.35 13.7 0 0 248.96 89.89
  L 253.92 90.75
  A 0.97 0.97 0.0 0 0 255.02 90.08
  L 258.42 78.88
  A 4.66 4.62 45.5 0 0 258.43 76.23
  L 255.81 67.35
  A 0.23 0.22 -44.8 0 0 255.38 67.35
  Z
  M 223.39 116.16
  C 227.21 114.69 231.32 112.49 232.86 108.52
  Q 235.43 101.87 232.22 95.02
  C 229.76 89.78 226.06 88.40 220.11 85.71
  A 3.63 3.34 -24.2 0 0 219.42 85.48
  Q 212.34 84.00 204.93 87.60
  C 197.57 91.19 193.78 97.36 195.14 105.55
  C 196.35 112.82 203.89 117.24 210.50 117.75
  A 0.52 0.51 0.5 0 0 211.05 117.21
  L 210.88 113.75
  A 1.26 1.24 77.2 0 1 211.63 112.54
  L 212.08 112.34
  A 1.13 1.13 0.0 0 1 213.67 113.32
  L 213.87 117.25
  A 0.50 0.50 0.0 0 0 214.40 117.73
  L 219.18 117.50
  A 0.61 0.61 0.0 0 0 219.73 116.72
  Q 219.07 114.53 219.85 112.82
  A 0.90 0.89 14.6 0 1 220.75 112.30
  Q 222.99 112.49 222.69 115.63
  A 0.52 0.52 0.0 0 0 223.39 116.16
  Z
  M 118.24 117.90
  Q 118.13 115.23 119.30 113.51
  A 1.01 1.01 0.0 0 1 121.14 114.06
  Q 121.20 116.66 120.53 118.48
  A 0.67 0.66 15.1 0 0 121.04 119.36
  L 129.65 120.85
  A 0.72 0.71 -77.3 0 0 130.47 120.33
  L 131.46 116.78
  A 1.37 1.37 0.0 0 1 133.91 116.36
  Q 134.81 117.56 134.29 119.97
  A 0.55 0.55 0.0 0 0 134.93 120.63
  Q 140.03 119.70 143.27 115.74
  C 155.42 100.90 143.39 90.34 128.66 88.60
  Q 119.37 87.50 113.80 92.69
  C 111.48 94.86 108.51 100.18 107.91 102.64
  Q 105.58 112.18 113.89 116.87
  Q 115.81 117.95 117.68 118.37
  A 0.46 0.46 0.0 0 0 118.24 117.90
  Z
  M 21.76 100.57
  Q 21.92 101.10 21.86 101.75
  Q 20.42 117.93 20.91 131.25
  C 21.80 155.52 23.05 172.88 24.42 199.42
  Q 25.66 223.47 27.53 243.50
  Q 28.96 258.83 30.97 267.62
  A 0.28 0.28 0.0 0 0 31.44 267.75
  Q 33.57 265.56 35.83 264.56
  C 55.12 256.04 77.49 254.92 98.47 257.79
  A 0.64 0.63 2.3 0 0 99.19 257.13
  L 98.97 252.69
  A 1.66 1.66 0.0 0 1 101.36 251.12
  Q 105.47 253.14 109.48 255.97
  Q 110.81 256.90 117.17 258.95
  C 125.36 261.58 134.09 264.06 142.25 265.27
  Q 154.25 267.04 166.89 261.35
  C 170.10 259.90 172.35 257.28 174.53 254.76
  Q 176.03 253.02 176.80 249.27
  Q 178.93 238.84 170.87 232.95
  Q 166.56 229.80 163.38 228.46
  Q 151.39 223.42 138.52 223.63
  Q 123.28 223.87 106.37 228.37
  Q 101.85 229.58 101.32 230.47
  A 0.69 0.68 24.5 0 1 100.51 230.77
  Q 98.88 230.21 98.12 229.25
  A 1.62 1.57 25.6 0 1 97.78 228.33
  Q 96.61 198.84 97.19 168.00
  Q 97.29 162.51 97.86 157.63
  A 2.04 2.04 0.0 0 1 100.21 155.85
  Q 102.00 156.15 103.66 156.14
  C 124.22 156.01 141.73 155.17 161.78 155.67
  C 180.06 156.13 190.92 156.13 200.39 157.10
  Q 202.89 157.36 204.04 160.27
  A 5.37 5.18 35.0 0 1 204.42 162.23
  L 204.42 182.10
  A 2.07 2.07 0.0 0 1 202.35 184.17
  L 130.17 184.17
  A 0.29 0.29 0.0 0 0 129.88 184.48
  L 130.39 194.85
  A 0.54 0.54 0.0 0 0 131.08 195.34
  Q 134.54 194.28 143.99 194.16
  Q 158.79 193.98 171.96 197.78
  C 189.37 202.81 205.28 215.96 209.18 234.15
  Q 211.82 246.50 207.83 257.52
  A 0.40 0.40 0.0 0 0 208.25 258.05
  C 225.86 256.25 244.66 258.06 261.29 264.72
  Q 264.59 266.05 267.41 268.51
  A 0.37 0.37 0.0 0 0 268.01 268.32
  Q 270.00 259.74 270.88 250.63
  Q 273.45 224.16 274.66 199.57
  C 275.88 174.79 277.46 153.44 278.11 131.27
  Q 278.52 117.67 277.04 101.26
  A 0.83 0.83 0.0 0 0 276.50 100.56
  Q 266.32 96.86 253.89 94.98
  C 249.56 94.32 245.29 94.62 241.27 93.91
  Q 240.81 93.83 237.49 94.83
  A 0.61 0.61 0.0 0 0 237.06 95.51
  Q 237.16 96.13 237.67 98.03
  C 239.31 104.24 237.62 112.43 231.82 116.56
  Q 224.63 121.69 214.79 122.34
  Q 206.81 122.86 199.91 118.69
  Q 190.21 112.82 190.86 101.13
  A 0.77 0.77 0.0 0 0 189.98 100.33
  C 175.21 102.46 163.14 109.03 150.82 117.33
  Q 150.35 117.65 147.68 118.45
  A 2.56 2.44 -73.9 0 0 146.67 119.04
  C 143.89 121.75 141.22 124.22 137.25 124.58
  Q 126.01 125.61 115.86 122.17
  Q 100.70 117.02 104.30 101.41
  A 0.66 0.66 0.0 0 0 103.92 100.66
  Q 100.25 99.03 97.68 98.34
  Q 86.10 95.26 74.49 93.82
  Q 47.72 90.51 22.24 99.63
  A 0.76 0.76 0.0 0 0 21.76 100.57
  Z
  M 16.20 110.77
  L 8.91 112.92
  A 0.30 0.28 -7.3 0 0 8.70 113.18
  C 8.54 118.28 9.26 124.06 9.12 128.93
  Q 8.95 135.05 9.41 161.51
  Q 9.97 193.13 13.29 227.70
  C 14.77 243.08 14.85 252.64 16.89 265.83
  Q 17.48 269.67 19.55 287.03
  A 0.45 0.44 73.2 0 0 20.19 287.38
  Q 32.37 281.33 46.84 278.68
  Q 72.51 273.98 98.89 275.22
  A 0.58 0.57 1.4 0 0 99.50 274.65
  L 99.50 263.21
  A 1.22 1.22 0.0 0 0 98.41 262.00
  C 80.74 260.11 63.75 260.18 46.73 264.69
  Q 43.32 265.59 35.62 268.85
  A 2.25 2.18 -77.6 0 0 34.94 269.30
  L 32.41 271.84
  A 1.47 1.47 0.0 0 1 30.37 271.88
  Q 28.79 270.44 28.23 268.50
  Q 25.65 259.50 24.53 250.24
  C 22.63 234.51 20.98 214.92 20.06 196.22
  C 18.81 170.58 15.86 139.20 16.49 110.99
  A 0.23 0.22 -7.5 0 0 16.20 110.77
  Z
  M 196.42 276.41
  Q 212.63 275.42 228.46 276.61
  C 247.27 278.03 263.75 280.62 279.72 288.36
  A 0.53 0.52 16.0 0 0 280.47 287.95
  Q 282.16 272.85 284.17 258.99
  C 285.30 251.18 285.44 241.48 286.37 232.00
  Q 291.16 183.56 290.86 133.79
  C 290.82 126.12 291.40 120.08 291.35 114.13
  A 0.35 0.34 7.8 0 0 291.09 113.80
  L 282.71 111.60
  A 0.20 0.20 0.0 0 0 282.46 111.80
  Q 283.01 129.75 281.71 150.00
  Q 279.78 180.19 277.91 214.50
  Q 277.63 219.76 274.92 247.38
  C 274.25 254.21 272.92 261.93 271.28 267.76
  Q 270.48 270.65 269.09 272.57
  A 1.64 1.63 -50.5 0 1 266.65 272.81
  Q 262.27 268.70 255.70 266.71
  Q 232.11 259.58 206.32 262.61
  A 1.24 1.23 9.0 0 0 205.34 263.32
  Q 202.85 268.73 198.22 273.72
  Q 197.17 274.85 196.19 275.93
  A 0.29 0.29 0.0 0 0 196.42 276.41
  Z
  M 102.99 257.00
  A 0.24 0.23 -72.2 0 0 102.61 257.20
  L 103.73 280.00
  A 0.62 0.62 0.0 0 0 104.16 280.56
  C 112.14 283.03 120.09 285.64 127.03 286.83
  Q 147.29 290.29 167.16 286.16
  Q 186.45 282.15 197.71 267.01
  Q 209.82 250.72 204.04 231.10
  C 199.48 215.59 182.97 204.65 168.05 200.93
  C 155.49 197.80 142.12 197.76 129.43 198.75
  A 1.35 1.34 -28.1 0 1 128.50 198.47
  Q 126.18 196.67 126.01 195.08
  Q 125.41 189.32 126.38 182.34
  A 1.76 1.74 -88.1 0 1 127.97 180.84
  Q 138.86 179.96 147.99 180.18
  Q 163.09 180.55 166.11 180.44
  Q 184.70 179.77 199.24 180.14
  A 0.64 0.64 0.0 0 0 199.90 179.50
  L 199.90 161.65
  A 0.99 0.99 0.0 0 0 198.94 160.66
  C 186.42 160.27 177.37 159.37 165.64 159.56
  Q 134.72 160.08 103.02 159.71
  A 0.72 0.72 0.0 0 0 102.31 160.30
  Q 101.69 163.77 101.59 167.77
  Q 100.84 198.43 101.47 225.35
  A 0.81 0.81 0.0 0 0 102.55 226.10
  Q 119.74 220.01 137.77 219.49
  Q 151.48 219.10 165.11 224.42
  C 171.89 227.06 179.99 232.91 181.44 240.70
  Q 183.51 251.77 176.52 259.75
  A 5.19 4.89 -85.4 0 1 175.68 260.51
  Q 158.76 272.67 138.70 269.06
  Q 131.77 267.81 124.01 265.56
  C 116.19 263.30 108.96 261.69 102.99 257.00
  Z"
/>
<path fill="#ffffff" d="
  M 220.95 50.67
  Q 225.76 45.87 222.99 38.63
  Q 220.92 33.25 214.64 31.87
  C 211.79 31.24 209.08 33.14 206.84 34.70
  A 0.37 0.36 73.9 0 1 206.27 34.38
  Q 206.31 33.26 207.13 31.14
  C 210.77 21.72 218.82 14.93 227.75 10.72
  Q 239.70 5.10 251.42 7.48
  C 270.09 11.27 283.24 27.42 287.26 45.96
  Q 290.05 58.82 286.00 69.34
  A 1.85 1.77 -41.9 0 0 285.92 70.39
  C 286.60 73.59 290.44 71.94 292.62 71.35
  A 0.36 0.36 0.0 0 1 293.07 71.77
  Q 289.97 88.01 275.70 93.76
  Q 274.44 94.27 271.75 94.54
  A 2.39 2.38 49.2 0 1 270.94 94.48
  L 259.92 91.78
  A 0.75 0.74 -73.8 0 1 259.40 90.82
  C 261.28 85.38 264.14 78.97 261.99 73.62
  Q 258.32 64.45 257.05 60.28
  A 2.75 2.74 -0.9 0 0 255.11 58.41
  Q 237.02 53.61 221.10 51.12
  A 0.27 0.26 26.8 0 1 220.95 50.67
  Z"
/>
<path fill="#ffffff" d="
  M 150.30 113.13
  C 154.07 105.50 152.97 96.72 145.98 91.56
  Q 140.22 87.30 135.76 86.49
  Q 132.73 85.95 129.06 85.08
  A 0.47 0.46 -76.0 0 1 128.72 84.51
  L 139.79 42.31
  A 0.46 0.45 -76.9 0 1 140.31 41.98
  Q 153.05 44.39 165.48 46.29
  C 194.59 50.74 223.79 55.21 252.56 62.19
  A 0.77 0.76 20.2 0 1 253.07 63.27
  Q 250.96 67.46 249.38 72.40
  Q 248.19 76.13 243.94 89.31
  A 0.07 0.07 0.0 0 1 243.89 89.36
  L 243.10 89.74
  A 0.32 0.31 87.4 0 1 242.67 89.34
  Q 244.90 83.09 244.68 80.99
  Q 243.19 66.68 230.70 60.93
  C 229.45 60.35 227.14 60.08 225.80 60.48
  A 0.88 0.88 0.0 0 0 225.73 62.15
  C 235.03 65.74 242.06 75.19 239.22 85.18
  Q 238.56 87.50 237.39 88.86
  A 2.47 2.46 -49.6 0 1 233.94 89.14
  C 232.13 87.62 229.61 85.15 227.51 84.24
  Q 217.37 79.87 207.60 82.27
  A 4.85 4.72 -65.3 0 0 206.38 82.74
  L 197.36 87.64
  A 0.13 0.12 -30.0 0 1 197.20 87.60
  Q 195.99 85.64 193.86 84.13
  A 4.81 4.38 1.4 0 1 192.89 83.20
  Q 185.14 73.23 172.50 72.05
  C 163.96 71.26 159.90 74.57 154.41 79.88
  Q 151.81 82.40 151.79 85.75
  A 0.68 0.68 0.0 0 0 153.02 86.15
  C 157.13 80.25 163.82 74.76 171.82 75.86
  Q 181.53 77.20 188.63 83.32
  Q 189.94 84.45 194.04 90.74
  A 0.92 0.90 50.6 0 1 193.94 91.85
  Q 192.91 92.96 192.32 94.61
  A 0.96 0.95 5.4 0 1 191.54 95.25
  Q 168.39 98.45 150.46 113.26
  A 0.11 0.10 83.4 0 1 150.30 113.13
  Z
  M 158.8261 70.1656
  A 4.93 3.56 -24.5 0 0 152.8637 68.9705
  A 4.93 3.56 -24.5 0 0 149.8539 74.2544
  A 4.93 3.56 -24.5 0 0 155.8163 75.4495
  A 4.93 3.56 -24.5 0 0 158.8261 70.1656
  Z
  M 199.25 85.45
  C 201.08 84.87 203.05 84.22 202.81 81.84
  Q 202.44 78.30 198.80 76.96
  C 196.74 76.21 195.39 77.91 194.64 79.49
  A 1.14 1.12 45.6 0 0 194.64 80.46
  C 195.71 82.67 196.33 84.89 198.55 84.62
  A 0.16 0.16 0.0 0 1 198.73 84.78
  L 198.73 85.07
  A 0.40 0.40 0.0 0 0 199.25 85.45
  Z
  M 166.92 78.93
  C 166.20 80.74 167.88 83.48 168.86 84.61
  C 170.92 87.00 174.56 84.53 176.61 83.12
  Q 177.88 82.25 178.07 81.38
  A 2.31 2.30 15.2 0 0 176.53 78.70
  Q 173.35 77.65 170.02 77.30
  Q 167.67 77.05 166.92 78.93
  Z"
/>
<path fill="#ffffff" d="
  M 135.14 45.51
  A 0.19 0.19 0.0 0 1 135.39 45.74
  L 125.68 77.70
  A 0.44 0.42 4.9 0 1 125.31 78.00
  C 116.06 78.81 112.08 70.44 114.91 62.62
  C 117.99 54.11 126.80 48.90 135.14 45.51
  Z"
/>
<path fill="#d9d9d9" d="
  M 255.81 67.35
  L 258.43 76.23
  A 4.66 4.62 45.5 0 1 258.42 78.88
  L 255.02 90.08
  A 0.97 0.97 0.0 0 1 253.92 90.75
  L 248.96 89.89
  A 0.36 0.35 13.7 0 1 248.68 89.44
  L 255.38 67.35
  A 0.23 0.22 -44.8 0 1 255.81 67.35
  Z"
/>
<path fill="#000000" d="
  M 158.8261 70.1656
  A 4.93 3.56 -24.5 0 1 155.8163 75.4495
  A 4.93 3.56 -24.5 0 1 149.8539 74.2544
  A 4.93 3.56 -24.5 0 1 152.8637 68.9705
  A 4.93 3.56 -24.5 0 1 158.8261 70.1656
  Z
  M 156.97 71.49
  A 1.28 1.28 0.0 0 0 155.69 70.21
  A 1.28 1.28 0.0 0 0 154.41 71.49
  A 1.28 1.28 0.0 0 0 155.69 72.77
  A 1.28 1.28 0.0 0 0 156.97 71.49
  Z"
/>
<circle fill="#ffffff" cx="155.69" cy="71.49" r="1.28"/>
<path fill="#000000" d="
  M 198.73 85.07
  L 198.73 84.78
  A 0.16 0.16 0.0 0 0 198.55 84.62
  C 196.33 84.89 195.71 82.67 194.64 80.46
  A 1.14 1.12 45.6 0 1 194.64 79.49
  C 195.39 77.91 196.74 76.21 198.80 76.96
  Q 202.44 78.30 202.81 81.84
  C 203.05 84.22 201.08 84.87 199.25 85.45
  A 0.40 0.40 0.0 0 1 198.73 85.07
  Z
  M 196.4720 79.3827
  A 1.29 1.07 -169.4 0 0 197.5432 80.6717
  A 1.29 1.07 -169.4 0 0 199.0080 79.8573
  A 1.29 1.07 -169.4 0 0 197.9368 78.5683
  A 1.29 1.07 -169.4 0 0 196.4720 79.3827
  Z"
/>
<path fill="#000000" d="
  M 166.92 78.93
  Q 167.67 77.05 170.02 77.30
  Q 173.35 77.65 176.53 78.70
  A 2.31 2.30 15.2 0 1 178.07 81.38
  Q 177.88 82.25 176.61 83.12
  C 174.56 84.53 170.92 87.00 168.86 84.61
  C 167.88 83.48 166.20 80.74 166.92 78.93
  Z
  M 168.8006 79.7570
  A 1.54 0.89 -178.4 0 0 170.3151 80.6897
  A 1.54 0.89 -178.4 0 0 171.8794 79.8430
  A 1.54 0.89 -178.4 0 0 170.3649 78.9103
  A 1.54 0.89 -178.4 0 0 168.8006 79.7570
  Z"
/>
<ellipse fill="#ffffff" cx="0.00" cy="0.00" transform="translate(197.74,79.62) rotate(-169.4)" rx="1.29" ry="1.07"/>
<ellipse fill="#ffffff" cx="0.00" cy="0.00" transform="translate(170.34,79.80) rotate(-178.4)" rx="1.54" ry="0.89"/>
<path fill="#ffffff" d="
  M 223.39 116.16
  A 0.52 0.52 0.0 0 1 222.69 115.63
  Q 222.99 112.49 220.75 112.30
  A 0.90 0.89 14.6 0 0 219.85 112.82
  Q 219.07 114.53 219.73 116.72
  A 0.61 0.61 0.0 0 1 219.18 117.50
  L 214.40 117.73
  A 0.50 0.50 0.0 0 1 213.87 117.25
  L 213.67 113.32
  A 1.13 1.13 0.0 0 0 212.08 112.34
  L 211.63 112.54
  A 1.26 1.24 77.2 0 0 210.88 113.75
  L 211.05 117.21
  A 0.52 0.51 0.5 0 1 210.50 117.75
  C 203.89 117.24 196.35 112.82 195.14 105.55
  C 193.78 97.36 197.57 91.19 204.93 87.60
  Q 212.34 84.00 219.42 85.48
  A 3.63 3.34 -24.2 0 1 220.11 85.71
  C 226.06 88.40 229.76 89.78 232.22 95.02
  Q 235.43 101.87 232.86 108.52
  C 231.32 112.49 227.21 114.69 223.39 116.16
  Z"
/>
<path fill="#ffffff" d="
  M 117.68 118.37
  Q 115.81 117.95 113.89 116.87
  Q 105.58 112.18 107.91 102.64
  C 108.51 100.18 111.48 94.86 113.80 92.69
  Q 119.37 87.50 128.66 88.60
  C 143.39 90.34 155.42 100.90 143.27 115.74
  Q 140.03 119.70 134.93 120.63
  A 0.55 0.55 0.0 0 1 134.29 119.97
  Q 134.81 117.56 133.91 116.36
  A 1.37 1.37 0.0 0 0 131.46 116.78
  L 130.47 120.33
  A 0.72 0.71 -77.3 0 1 129.65 120.85
  L 121.04 119.36
  A 0.67 0.66 15.1 0 1 120.53 118.48
  Q 121.20 116.66 121.14 114.06
  A 1.01 1.01 0.0 0 0 119.30 113.51
  Q 118.13 115.23 118.24 117.90
  A 0.46 0.46 0.0 0 1 117.68 118.37
  Z"
/>
<path fill="#ffffff" d="
  M 21.76 100.57
  A 0.76 0.76 0.0 0 1 22.24 99.63
  Q 47.72 90.51 74.49 93.82
  Q 86.10 95.26 97.68 98.34
  Q 100.25 99.03 103.92 100.66
  A 0.66 0.66 0.0 0 1 104.30 101.41
  Q 100.70 117.02 115.86 122.17
  Q 126.01 125.61 137.25 124.58
  C 141.22 124.22 143.89 121.75 146.67 119.04
  A 2.56 2.44 -73.9 0 1 147.68 118.45
  Q 150.35 117.65 150.82 117.33
  C 163.14 109.03 175.21 102.46 189.98 100.33
  A 0.77 0.77 0.0 0 1 190.86 101.13
  Q 190.21 112.82 199.91 118.69
  Q 206.81 122.86 214.79 122.34
  Q 224.63 121.69 231.82 116.56
  C 237.62 112.43 239.31 104.24 237.67 98.03
  Q 237.16 96.13 237.06 95.51
  A 0.61 0.61 0.0 0 1 237.49 94.83
  Q 240.81 93.83 241.27 93.91
  C 245.29 94.62 249.56 94.32 253.89 94.98
  Q 266.32 96.86 276.50 100.56
  A 0.83 0.83 0.0 0 1 277.04 101.26
  Q 278.52 117.67 278.11 131.27
  C 277.46 153.44 275.88 174.79 274.66 199.57
  Q 273.45 224.16 270.88 250.63
  Q 270.00 259.74 268.01 268.32
  A 0.37 0.37 0.0 0 1 267.41 268.51
  Q 264.59 266.05 261.29 264.72
  C 244.66 258.06 225.86 256.25 208.25 258.05
  A 0.40 0.40 0.0 0 1 207.83 257.52
  Q 211.82 246.50 209.18 234.15
  C 205.28 215.96 189.37 202.81 171.96 197.78
  Q 158.79 193.98 143.99 194.16
  Q 134.54 194.28 131.08 195.34
  A 0.54 0.54 0.0 0 1 130.39 194.85
  L 129.88 184.48
  A 0.29 0.29 0.0 0 1 130.17 184.17
  L 202.35 184.17
  A 2.07 2.07 0.0 0 0 204.42 182.10
  L 204.42 162.23
  A 5.37 5.18 35.0 0 0 204.04 160.27
  Q 202.89 157.36 200.39 157.10
  C 190.92 156.13 180.06 156.13 161.78 155.67
  C 141.73 155.17 124.22 156.01 103.66 156.14
  Q 102.00 156.15 100.21 155.85
  A 2.04 2.04 0.0 0 0 97.86 157.63
  Q 97.29 162.51 97.19 168.00
  Q 96.61 198.84 97.78 228.33
  A 1.62 1.57 25.6 0 0 98.12 229.25
  Q 98.88 230.21 100.51 230.77
  A 0.69 0.68 24.5 0 0 101.32 230.47
  Q 101.85 229.58 106.37 228.37
  Q 123.28 223.87 138.52 223.63
  Q 151.39 223.42 163.38 228.46
  Q 166.56 229.80 170.87 232.95
  Q 178.93 238.84 176.80 249.27
  Q 176.03 253.02 174.53 254.76
  C 172.35 257.28 170.10 259.90 166.89 261.35
  Q 154.25 267.04 142.25 265.27
  C 134.09 264.06 125.36 261.58 117.17 258.95
  Q 110.81 256.90 109.48 255.97
  Q 105.47 253.14 101.36 251.12
  A 1.66 1.66 0.0 0 0 98.97 252.69
  L 99.19 257.13
  A 0.64 0.63 2.3 0 1 98.47 257.79
  C 77.49 254.92 55.12 256.04 35.83 264.56
  Q 33.57 265.56 31.44 267.75
  A 0.28 0.28 0.0 0 1 30.97 267.62
  Q 28.96 258.83 27.53 243.50
  Q 25.66 223.47 24.42 199.42
  C 23.05 172.88 21.80 155.52 20.91 131.25
  Q 20.42 117.93 21.86 101.75
  Q 21.92 101.10 21.76 100.57
  Z"
/>
<path fill="#9a5234" d="
  M 16.20 110.77
  A 0.23 0.22 -7.5 0 1 16.49 110.99
  C 15.86 139.20 18.81 170.58 20.06 196.22
  C 20.98 214.92 22.63 234.51 24.53 250.24
  Q 25.65 259.50 28.23 268.50
  Q 28.79 270.44 30.37 271.88
  A 1.47 1.47 0.0 0 0 32.41 271.84
  L 34.94 269.30
  A 2.25 2.18 -77.6 0 1 35.62 268.85
  Q 43.32 265.59 46.73 264.69
  C 63.75 260.18 80.74 260.11 98.41 262.00
  A 1.22 1.22 0.0 0 1 99.50 263.21
  L 99.50 274.65
  A 0.58 0.57 1.4 0 1 98.89 275.22
  Q 72.51 273.98 46.84 278.68
  Q 32.37 281.33 20.19 287.38
  A 0.45 0.44 73.2 0 1 19.55 287.03
  Q 17.48 269.67 16.89 265.83
  C 14.85 252.64 14.77 243.08 13.29 227.70
  Q 9.97 193.13 9.41 161.51
  Q 8.95 135.05 9.12 128.93
  C 9.26 124.06 8.54 118.28 8.70 113.18
  A 0.30 0.28 -7.3 0 1 8.91 112.92
  L 16.20 110.77
  Z"
/>
<path fill="#9a5234" d="
  M 196.19 275.93
  Q 197.17 274.85 198.22 273.72
  Q 202.85 268.73 205.34 263.32
  A 1.24 1.23 9.0 0 1 206.32 262.61
  Q 232.11 259.58 255.70 266.71
  Q 262.27 268.70 266.65 272.81
  A 1.64 1.63 -50.5 0 0 269.09 272.57
  Q 270.48 270.65 271.28 267.76
  C 272.92 261.93 274.25 254.21 274.92 247.38
  Q 277.63 219.76 277.91 214.50
  Q 279.78 180.19 281.71 150.00
  Q 283.01 129.75 282.46 111.80
  A 0.20 0.20 0.0 0 1 282.71 111.60
  L 291.09 113.80
  A 0.35 0.34 7.8 0 1 291.35 114.13
  C 291.40 120.08 290.82 126.12 290.86 133.79
  Q 291.16 183.56 286.37 232.00
  C 285.44 241.48 285.30 251.18 284.17 258.99
  Q 282.16 272.85 280.47 287.95
  A 0.53 0.52 16.0 0 1 279.72 288.36
  C 263.75 280.62 247.27 278.03 228.46 276.61
  Q 212.63 275.42 196.42 276.41
  A 0.29 0.29 0.0 0 1 196.19 275.93
  Z"
/>
<path fill="#f17a0c" d="
  M 102.99 257.00
  C 108.96 261.69 116.19 263.30 124.01 265.56
  Q 131.77 267.81 138.70 269.06
  Q 158.76 272.67 175.68 260.51
  A 5.19 4.89 -85.4 0 0 176.52 259.75
  Q 183.51 251.77 181.44 240.70
  C 179.99 232.91 171.89 227.06 165.11 224.42
  Q 151.48 219.10 137.77 219.49
  Q 119.74 220.01 102.55 226.10
  A 0.81 0.81 0.0 0 1 101.47 225.35
  Q 100.84 198.43 101.59 167.77
  Q 101.69 163.77 102.31 160.30
  A 0.72 0.72 0.0 0 1 103.02 159.71
  Q 134.72 160.08 165.64 159.56
  C 177.37 159.37 186.42 160.27 198.94 160.66
  A 0.99 0.99 0.0 0 1 199.90 161.65
  L 199.90 179.50
  A 0.64 0.64 0.0 0 1 199.24 180.14
  Q 184.70 179.77 166.11 180.44
  Q 163.09 180.55 147.99 180.18
  Q 138.86 179.96 127.97 180.84
  A 1.76 1.74 -88.1 0 0 126.38 182.34
  Q 125.41 189.32 126.01 195.08
  Q 126.18 196.67 128.50 198.47
  A 1.35 1.34 -28.1 0 0 129.43 198.75
  C 142.12 197.76 155.49 197.80 168.05 200.93
  C 182.97 204.65 199.48 215.59 204.04 231.10
  Q 209.82 250.72 197.71 267.01
  Q 186.45 282.15 167.16 286.16
  Q 147.29 290.29 127.03 286.83
  C 120.09 285.64 112.14 283.03 104.16 280.56
  A 0.62 0.62 0.0 0 1 103.73 280.00
  L 102.61 257.20
  A 0.24 0.23 -72.2 0 1 102.99 257.00
  Z"
/>
</svg>
