<?xml version="1.0" encoding="UTF-8" standalone="no"?>
<!DOCTYPE svg PUBLIC "-//W3C//DTD SVG 1.1//EN" "http://www.w3.org/Graphics/SVG/1.1/DTD/svg11.dtd">
<svg xmlns="http://www.w3.org/2000/svg" version="1.1" viewBox="0.00 0.00 300.00 300.00" width="300.00" height="300.00">
<g stroke-width="2.00" fill="none" stroke-linecap="butt">
<path stroke="#808080" vector-effect="non-scaling-stroke" d="
  M 220.79 51.07
  Q 237.17 53.62 255.06 58.40
  C 257.56 59.06 257.22 61.50 257.89 63.14
  Q 260.64 69.88 262.43 75.06
  C 263.91 79.34 260.77 86.92 259.38 90.86
  A 0.77 0.77 0.0 0 0 259.97 91.87
  Q 264.85 92.81 269.19 94.10
  C 271.44 94.77 273.81 94.53 275.65 93.78
  Q 290.08 87.94 293.05 71.75
  A 0.34 0.34 0.0 0 0 292.63 71.36
  C 290.80 71.85 286.59 73.63 285.92 70.43
  A 1.99 1.97 -41.1 0 1 286.00 69.33
  C 292.78 51.71 284.58 29.36 270.87 17.32
  C 261.97 9.51 250.12 5.26 238.57 7.26
  C 224.63 9.68 209.89 19.99 206.23 34.13
  A 0.47 0.47 0.0 0 0 206.95 34.63
  C 209.21 33.04 212.13 31.11 214.91 31.89
  Q 224.52 34.60 223.84 45.06
  Q 223.62 48.40 220.71 50.77
  A 0.17 0.17 0.0 0 0 220.79 51.07"
/>
<path stroke="#808080" vector-effect="non-scaling-stroke" d="
  M 150.46 113.26
  Q 168.41 98.44 191.53 95.26
  A 1.01 1.00 5.3 0 0 192.33 94.60
  Q 192.89 92.98 193.92 91.88
  A 0.93 0.93 0.0 0 0 194.03 90.73
  Q 189.89 84.34 188.37 83.07
  Q 181.28 77.17 171.82 75.87
  C 163.82 74.76 157.16 80.23 153.01 86.15
  A 0.69 0.68 62.7 0 1 151.77 85.75
  C 151.77 81.54 155.17 79.02 158.26 76.40
  C 162.92 72.43 167.73 71.24 174.03 72.20
  Q 185.89 74.00 192.99 83.33
  A 3.30 3.28 88.1 0 0 193.83 84.12
  Q 195.86 85.48 197.22 87.61
  A 0.10 0.10 0.0 0 0 197.36 87.65
  L 206.19 82.82
  A 4.36 4.25 22.6 0 1 207.25 82.40
  Q 218.08 79.53 228.83 84.98
  A 3.64 3.42 -9.9 0 1 229.53 85.44
  L 234.00 89.16
  A 2.50 2.49 -55.5 0 0 237.79 88.45
  C 243.63 77.86 236.24 66.08 225.75 62.17
  A 0.91 0.90 -41.1 0 1 225.87 60.44
  C 227.08 60.16 229.43 60.32 230.44 60.78
  Q 242.48 66.34 244.50 79.28
  Q 245.14 83.44 242.55 89.43
  A 0.27 0.27 0.0 0 0 242.90 89.79
  L 243.83 89.42
  A 0.23 0.21 -4.4 0 0 243.94 89.30
  Q 248.18 76.06 249.51 72.01
  Q 251.14 67.07 253.01 63.38
  A 0.89 0.89 0.0 0 0 252.42 62.11
  Q 222.77 55.08 189.71 50.08
  Q 160.68 45.69 140.14 41.99
  A 0.28 0.27 -76.5 0 0 139.82 42.19
  L 128.72 84.51
  A 0.49 0.49 0.0 0 0 129.10 85.11
  C 135.62 86.41 140.36 87.25 146.05 91.59
  C 152.94 96.85 154.14 105.64 150.28 113.12
  A 0.12 0.12 0.0 0 0 150.46 113.26"
/>
<path stroke="#808080" vector-effect="non-scaling-stroke" d="
  M 135.14 45.51
  C 126.80 48.90 117.99 54.11 114.91 62.62
  C 112.08 70.44 116.06 78.81 125.31 78.00
  A 0.44 0.42 4.9 0 0 125.68 77.70
  L 135.39 45.74
  A 0.19 0.19 0.0 0 0 135.14 45.51"
/>
<path stroke="#6d6d6d" vector-effect="non-scaling-stroke" d="
  M 255.38 67.35
  L 248.65 89.52
  A 0.58 0.58 0.0 0 0 249.19 90.27
  L 254.37 90.44
  A 0.70 0.69 -80.1 0 0 255.06 89.95
  L 258.42 78.88
  A 4.66 4.62 45.5 0 0 258.43 76.23
  L 255.81 67.35
  A 0.23 0.22 -44.8 0 0 255.38 67.35"
/>
<path stroke="#808080" vector-effect="non-scaling-stroke" d="
  M 223.39 116.16
  C 227.13 114.72 231.27 112.51 232.80 108.68
  Q 235.45 102.00 232.29 95.18
  Q 230.28 90.84 226.30 88.65
  Q 223.25 86.98 219.95 85.64
  A 4.51 4.23 59.4 0 0 219.09 85.39
  C 206.90 83.19 191.45 92.44 195.43 106.83
  Q 197.05 112.68 203.54 115.78
  Q 207.60 117.73 210.65 117.75
  A 0.50 0.50 0.0 0 0 211.15 117.20
  L 210.79 114.06
  A 1.51 1.51 0.0 0 1 211.72 112.49
  L 212.03 112.36
  A 1.10 1.10 0.0 0 1 213.54 113.25
  L 214.01 117.46
  A 0.46 0.46 0.0 0 0 214.53 117.87
  L 219.25 117.34
  A 0.54 0.54 0.0 0 0 219.71 116.66
  Q 219.08 114.50 219.85 112.82
  A 0.90 0.89 14.6 0 1 220.75 112.30
  Q 222.98 112.49 222.69 115.63
  A 0.52 0.52 0.0 0 0 223.39 116.16"
/>
<path stroke="#808080" vector-effect="non-scaling-stroke" d="
  M 118.24 117.79
  Q 118.29 114.94 119.25 113.53
  A 1.04 1.04 0.0 0 1 121.15 114.11
  Q 121.16 116.80 120.53 118.48
  A 0.66 0.66 0.0 0 0 121.04 119.36
  L 129.60 120.84
  A 0.74 0.73 13.5 0 0 130.43 120.34
  L 131.50 116.79
  A 1.38 1.38 0.0 0 1 133.92 116.36
  Q 134.80 117.54 134.30 119.86
  A 0.66 0.66 0.0 0 0 135.09 120.65
  C 143.40 118.84 150.00 108.87 147.72 100.56
  C 146.15 94.87 139.32 90.91 133.94 89.63
  C 126.99 87.98 122.01 87.50 115.77 91.15
  C 112.31 93.16 109.68 98.07 108.29 101.73
  C 105.27 109.72 109.75 115.93 117.47 118.35
  A 0.60 0.59 8.8 0 0 118.24 117.79"
/>
<path stroke="#808080" vector-effect="non-scaling-stroke" d="
  M 31.56 267.56
  Q 34.59 264.77 38.97 263.16
  Q 59.89 255.47 82.94 256.54
  A 0.97 0.96 -87.0 0 0 83.95 255.62
  Q 84.27 249.07 83.66 239.75
  C 83.48 236.95 83.92 232.56 83.75 229.40
  Q 82.87 213.05 83.60 198.52
  A 0.34 0.34 0.0 0 0 83.07 198.22
  Q 79.85 200.42 76.08 203.04
  C 69.49 207.63 61.35 210.69 52.89 210.35
  A 0.65 0.65 0.0 0 1 52.27 209.71
  Q 52.10 194.51 53.39 180.96
  A 1.17 1.16 -3.9 0 1 54.29 179.94
  C 60.86 178.46 67.84 175.30 73.69 170.97
  C 79.85 166.42 84.25 163.24 88.16 157.29
  A 3.73 3.71 17.5 0 1 91.37 155.63
  L 115.34 156.41
  A 1.79 1.79 0.0 0 1 117.07 158.17
  Q 117.30 170.70 117.84 183.38
  Q 118.45 197.90 118.43 208.65
  Q 118.37 243.15 118.36 246.50
  Q 118.35 253.60 118.49 259.97
  A 0.63 0.63 0.0 0 0 119.13 260.58
  Q 132.54 260.37 146.54 261.43
  Q 149.40 261.65 149.68 264.59
  Q 149.91 266.94 150.17 271.35
  A 1.61 1.60 76.6 0 0 152.41 272.73
  L 160.12 269.40
  A 0.56 0.55 62.8 0 0 160.37 268.60
  Q 156.81 262.67 154.74 255.49
  C 149.33 236.79 149.70 214.74 154.62 196.34
  Q 155.04 194.75 157.99 186.73
  C 159.81 181.76 163.12 176.32 165.76 172.74
  C 171.70 164.66 182.75 155.79 193.03 154.81
  Q 196.30 154.50 202.69 154.65
  C 207.38 154.77 210.39 155.45 214.60 157.17
  C 230.04 163.48 240.05 176.80 246.04 192.21
  C 248.13 197.58 248.55 202.56 249.68 208.44
  Q 253.70 229.36 249.16 250.10
  C 248.44 253.38 246.84 257.15 246.05 259.49
  A 0.55 0.54 15.3 0 0 246.46 260.19
  C 253.47 261.61 261.98 263.90 267.36 268.54
  A 0.43 0.43 0.0 0 0 268.06 268.32
  Q 270.10 259.96 271.43 245.00
  Q 273.78 218.53 274.85 196.26
  C 276.08 170.66 277.28 156.39 278.05 133.25
  Q 278.59 117.10 277.02 101.25
  A 0.81 0.81 0.0 0 0 276.48 100.56
  Q 265.96 96.74 253.23 94.88
  C 249.27 94.30 244.99 94.62 241.26 93.91
  Q 240.82 93.82 237.49 94.81
  A 0.62 0.61 -13.4 0 0 237.06 95.50
  Q 237.19 96.24 237.71 98.24
  C 239.38 104.63 237.28 113.41 230.99 117.23
  C 220.96 123.32 208.02 124.72 198.37 117.64
  C 192.58 113.39 190.51 108.02 190.86 101.01
  A 0.66 0.66 0.0 0 0 190.11 100.32
  C 175.42 102.39 163.58 108.84 151.31 117.04
  A 6.26 6.10 18.1 0 1 149.78 117.79
  L 147.13 118.69
  A 1.36 1.30 10.9 0 0 146.57 119.05
  Q 143.51 122.30 140.35 123.86
  A 5.37 5.25 27.2 0 1 138.70 124.37
  Q 129.72 125.58 121.56 123.68
  C 114.42 122.02 109.11 120.47 105.52 114.45
  Q 102.14 108.76 104.43 101.54
  A 0.63 0.62 21.0 0 0 104.09 100.78
  Q 100.19 99.01 98.45 98.54
  Q 80.00 93.55 63.52 93.00
  Q 42.98 92.32 22.42 99.55
  A 0.83 0.83 0.0 0 0 21.87 100.27
  Q 20.74 117.19 20.75 121.50
  Q 20.82 136.13 21.95 154.42
  Q 22.86 169.26 24.31 197.84
  C 25.18 215.09 26.42 230.72 27.66 244.87
  Q 28.94 259.37 30.98 267.39
  A 0.35 0.35 0.0 0 0 31.56 267.56"
/>
<path stroke="#565b64" vector-effect="non-scaling-stroke" d="
  M 37.57 267.99
  Q 34.59 269.31 32.62 271.64
  A 1.72 1.72 0.0 0 1 29.89 271.51
  Q 28.18 269.06 27.37 265.62
  Q 25.28 256.65 24.52 250.25
  C 22.62 234.19 20.97 214.75 20.02 195.54
  C 18.73 169.23 15.91 138.75 16.49 110.97
  A 0.23 0.22 -7.5 0 0 16.20 110.75
  L 8.80 112.94
  A 0.24 0.23 -8.5 0 0 8.63 113.16
  C 8.68 119.93 9.13 125.50 9.12 133.60
  Q 9.06 166.22 10.88 198.05
  C 11.80 214.23 14.06 233.71 15.16 250.82
  Q 15.55 256.82 16.83 265.42
  C 18.03 273.46 18.53 279.79 19.63 287.23
  A 0.30 0.30 0.0 0 0 20.05 287.46
  C 30.28 282.44 41.00 279.62 52.38 277.58
  A 0.78 0.77 -5.4 0 0 53.02 276.82
  L 53.02 263.84
  A 0.49 0.49 0.0 0 0 52.43 263.36
  Q 45.46 264.72 38.98 267.43"
/>
<path stroke="#565b64" vector-effect="non-scaling-stroke" d="
  M 280.48 287.86
  Q 282.17 272.48 283.61 263.13
  Q 284.49 257.44 284.95 250.65
  C 285.72 239.35 286.16 233.53 287.49 219.39
  Q 289.72 195.63 290.34 170.00
  Q 291.05 140.87 290.86 130.94
  C 290.75 124.99 291.43 119.53 291.35 114.11
  A 0.33 0.32 8.5 0 0 291.11 113.80
  L 282.67 111.59
  A 0.17 0.17 0.0 0 0 282.46 111.76
  C 283.13 134.79 281.38 156.08 279.84 180.94
  Q 279.68 183.48 278.67 201.58
  Q 277.14 229.13 274.37 251.73
  Q 273.46 259.16 271.41 267.39
  Q 270.71 270.21 269.15 272.42
  A 1.80 1.79 -50.6 0 1 266.45 272.69
  C 264.77 271.08 263.38 269.83 261.37 268.96
  Q 253.53 265.58 244.76 263.93
  A 0.78 0.77 17.3 0 0 243.91 264.37
  Q 242.53 267.38 239.94 270.02
  A 0.63 0.58 87.8 0 0 239.82 270.16
  L 235.16 276.74
  A 0.35 0.34 -70.7 0 0 235.42 277.29
  Q 258.92 278.71 279.76 288.27
  A 0.51 0.51 0.0 0 0 280.48 287.86"
/>
<path stroke="#02517f" vector-effect="non-scaling-stroke" d="
  M 225.32 168.68
  C 219.41 163.42 210.34 158.74 201.82 158.59
  Q 194.54 158.46 190.88 159.64
  C 176.46 164.28 167.12 175.47 161.23 189.08
  Q 159.83 192.32 158.45 199.17
  Q 156.76 207.61 156.50 209.49
  Q 154.23 226.02 156.57 242.21
  C 158.67 256.73 163.87 268.69 174.24 279.25
  Q 176.83 281.90 180.49 284.04
  C 185.82 287.16 190.83 289.86 194.48 290.14
  Q 200.13 290.57 207.15 288.83
  C 228.80 283.46 242.91 264.78 246.17 243.15
  Q 249.95 218.06 242.02 194.17
  Q 237.02 179.09 225.32 168.68"
/>
<path stroke="#02517f" vector-effect="non-scaling-stroke" d="
  M 144.86 288.27
  L 145.56 266.56
  A 0.38 0.38 0.0 0 0 145.19 266.16
  L 114.85 265.17
  A 1.41 1.40 1.1 0 1 113.49 263.77
  L 113.49 161.44
  A 0.89 0.88 1.0 0 0 112.63 160.56
  L 92.36 159.90
  A 0.86 0.86 0.0 0 0 91.58 160.33
  Q 89.11 164.61 83.90 168.91
  Q 76.19 175.28 69.23 179.24
  Q 65.86 181.15 57.18 183.55
  A 0.51 0.50 82.6 0 0 56.81 184.04
  L 56.81 205.79
  A 0.70 0.69 -6.9 0 0 57.67 206.46
  Q 65.17 204.56 71.57 200.58
  Q 78.99 195.97 85.58 190.38
  A 1.23 1.22 57.0 0 1 87.48 190.79
  Q 88.28 192.49 88.22 193.75
  C 87.93 199.50 87.77 205.02 88.02 210.75
  Q 89.23 237.61 88.57 264.28
  A 0.43 0.43 0.0 0 1 88.14 264.70
  C 85.28 264.67 83.32 264.30 80.36 264.54
  C 73.33 265.11 65.53 263.96 58.41 263.65
  A 0.54 0.54 0.0 0 0 57.84 264.19
  L 57.84 287.24
  A 0.67 0.67 0.0 0 0 58.50 287.91
  Q 59.84 287.95 60.78 287.92
  Q 94.02 286.91 114.75 287.71
  Q 137.85 288.61 144.18 288.90
  A 0.66 0.66 0.0 0 0 144.86 288.27"
/>
<path stroke="#565b64" vector-effect="non-scaling-stroke" d="
  M 163.19 273.33
  A 0.46 0.45 -27.3 0 0 162.70 273.18
  Q 158.29 274.54 154.08 278.00
  Q 152.25 279.50 150.63 278.70
  A 0.55 0.55 0.0 0 0 149.83 279.18
  L 149.69 283.30
  A 1.03 1.02 -89.2 0 0 150.71 284.36
  Q 152.83 284.35 153.57 284.13
  Q 164.14 280.90 168.54 280.26
  A 0.06 0.06 0.0 0 0 168.58 280.17
  L 163.19 273.33"
/>
<path stroke="#808080" vector-effect="non-scaling-stroke" d="
  M 158.8261 70.1656
  A 4.93 3.56 -24.5 0 0 152.8637 68.9705
  A 4.93 3.56 -24.5 0 0 149.8539 74.2544
  A 4.93 3.56 -24.5 0 0 155.8163 75.4495
  A 4.93 3.56 -24.5 0 0 158.8261 70.1656"
/>
<path stroke="#808080" vector-effect="non-scaling-stroke" d="
  M 199.24 85.45
  C 201.08 84.87 203.06 84.22 202.81 81.84
  Q 202.44 78.30 198.80 76.96
  C 196.74 76.21 195.39 77.91 194.64 79.49
  A 1.14 1.12 45.6 0 0 194.64 80.46
  C 195.71 82.67 196.33 84.89 198.56 84.62
  A 0.16 0.16 0.0 0 1 198.74 84.78
  L 198.73 85.07
  A 0.39 0.39 0.0 0 0 199.24 85.45"
/>
<path stroke="#808080" vector-effect="non-scaling-stroke" d="
  M 170.98 85.66
  Q 173.53 85.22 175.87 83.58
  C 176.59 83.08 177.85 82.50 178.08 81.33
  A 2.40 2.29 15.7 0 0 176.53 78.71
  C 174.14 77.84 166.15 75.24 166.84 80.47
  Q 167.22 83.32 169.82 85.37
  A 1.44 1.43 -30.6 0 0 170.98 85.66"
/>
<path stroke="#808080" vector-effect="non-scaling-stroke" d="
  M 156.97 71.49
  A 1.28 1.28 0.0 0 0 155.69 70.21
  A 1.28 1.28 0.0 0 0 154.41 71.49
  A 1.28 1.28 0.0 0 0 155.69 72.77
  A 1.28 1.28 0.0 0 0 156.97 71.49"
/>
<path stroke="#808080" vector-effect="non-scaling-stroke" d="
  M 196.4720 79.3827
  A 1.29 1.07 -169.4 0 0 197.5432 80.6717
  A 1.29 1.07 -169.4 0 0 199.0080 79.8573
  A 1.29 1.07 -169.4 0 0 197.9368 78.5683
  A 1.29 1.07 -169.4 0 0 196.4720 79.3827"
/>
<path stroke="#808080" vector-effect="non-scaling-stroke" d="
  M 168.8006 79.7570
  A 1.54 0.89 -178.4 0 0 170.3151 80.6897
  A 1.54 0.89 -178.4 0 0 171.8794 79.8430
  A 1.54 0.89 -178.4 0 0 170.3649 78.9103
  A 1.54 0.89 -178.4 0 0 168.8006 79.7570"
/>
<path stroke="#02517f" vector-effect="non-scaling-stroke" d="
  M 221.56 200.89
  Q 221.06 199.73 219.28 195.47
  Q 215.91 187.43 208.10 183.92
  C 203.41 181.82 198.60 183.02 194.11 185.44
  C 190.35 187.46 185.97 195.17 184.93 198.43
  Q 179.75 214.66 179.57 231.50
  Q 179.41 246.04 185.29 255.99
  C 188.12 260.78 191.04 263.07 195.67 265.59
  C 204.73 270.53 213.98 261.27 218.16 253.85
  C 224.28 243.00 225.65 230.96 223.83 218.86
  A 12.07 11.42 43.4 0 1 223.71 216.70
  C 223.89 211.97 223.57 205.53 221.56 200.89"
/>
<path stroke="#808080" vector-effect="non-scaling-stroke" d="
  M 197.24 188.42
  C 193.45 191.09 190.34 196.56 189.07 200.50
  Q 183.06 219.01 184.70 239.52
  C 185.14 244.97 188.23 254.91 193.02 258.79
  A 2.89 2.88 60.6 0 0 195.20 259.40
  Q 200.11 258.75 208.01 258.00
  Q 209.97 257.81 211.10 256.31
  Q 220.43 243.96 220.31 227.73
  Q 220.27 222.89 219.59 214.87
  Q 218.94 207.14 215.63 198.16
  Q 213.65 192.76 209.17 188.99
  A 3.49 3.41 74.8 0 0 208.15 188.39
  Q 203.59 186.68 198.14 188.01
  A 2.88 2.63 -67.0 0 0 197.24 188.42"
/>
</g>
<path fill="#000000" d="
  M 292.58 66.19
  Q 294.06 64.73 295.45 65.59
  A 2.48 2.45 -0.4 0 1 296.22 66.34
  Q 298.63 69.96 296.87 76.08
  Q 293.04 89.44 282.65 95.52
  C 281.37 96.27 279.59 96.90 278.91 97.53
  A 0.45 0.45 0.0 0 0 278.95 98.22
  C 281.90 100.35 281.58 104.23 282.09 106.80
  A 0.74 0.74 0.0 0 0 282.70 107.39
  Q 289.05 108.31 294.69 111.12
  A 1.66 1.66 0.0 0 1 295.51 113.17
  Q 295.11 114.30 294.99 116.01
  Q 294.55 122.86 294.57 134.51
  C 294.59 148.91 294.23 157.16 293.67 177.32
  Q 293.35 188.99 292.82 196.16
  C 292.14 205.28 291.94 213.12 290.86 221.26
  Q 290.41 224.68 288.36 251.00
  C 287.46 262.55 284.91 275.45 283.91 285.81
  C 283.75 287.49 282.92 289.21 282.86 291.30
  A 1.50 1.50 0.0 0 1 280.68 292.59
  Q 277.94 291.20 272.72 289.31
  Q 252.92 282.16 232.08 281.24
  A 3.64 3.61 26.4 0 0 229.62 282.06
  Q 215.63 293.67 197.25 294.67
  C 193.57 294.87 189.17 293.12 185.00 291.32
  Q 178.12 288.37 173.23 284.48
  A 2.11 2.09 57.4 0 0 171.47 284.08
  Q 163.93 285.77 151.69 289.12
  Q 150.68 289.40 150.16 288.80
  A 0.30 0.30 0.0 0 0 149.64 288.92
  C 148.98 291.35 150.05 293.53 146.26 293.68
  Q 141.01 293.89 134.21 293.36
  C 121.61 292.39 109.69 292.45 95.91 292.06
  C 84.10 291.72 71.61 292.22 60.25 292.27
  Q 56.88 292.28 54.32 291.51
  A 0.84 0.84 0.0 0 1 53.73 290.80
  L 52.78 282.39
  A 0.56 0.55 -8.0 0 0 52.14 281.91
  Q 34.72 284.64 19.54 291.65
  C 18.28 292.23 16.87 291.16 17.10 289.68
  C 17.33 288.24 16.31 285.64 16.16 284.54
  C 14.49 271.97 12.38 261.34 11.59 250.13
  Q 10.44 233.76 9.33 222.85
  C 7.42 203.97 6.46 185.19 5.98 167.37
  C 5.73 158.07 5.31 149.87 5.35 144.87
  Q 5.51 124.21 5.07 115.77
  C 4.98 113.99 4.34 112.68 4.40 111.38
  A 1.22 1.21 -15.8 0 1 4.93 110.44
  C 8.13 108.27 12.58 107.29 16.34 106.34
  A 0.82 0.82 0.0 0 0 16.96 105.61
  Q 17.07 104.19 17.57 101.10
  Q 18.06 98.01 20.76 96.74
  Q 26.29 94.14 28.30 93.52
  Q 52.77 85.89 79.17 89.91
  Q 90.16 91.58 99.12 93.97
  C 101.53 94.61 103.73 95.72 105.51 96.46
  A 0.95 0.94 -63.2 0 0 106.67 96.07
  C 107.54 94.63 109.07 92.09 109.87 91.25
  Q 115.45 85.32 124.29 85.16
  A 0.07 0.07 0.0 0 0 124.36 85.10
  Q 124.72 83.91 124.31 82.80
  A 0.20 0.20 0.0 0 0 124.12 82.67
  Q 115.01 82.69 111.50 74.70
  C 107.48 65.54 112.40 55.33 119.93 49.69
  C 125.39 45.59 130.28 43.53 136.51 41.51
  A 1.26 1.25 -86.6 0 0 137.27 40.83
  C 138.55 37.98 142.00 38.50 144.33 38.88
  Q 160.34 41.45 183.24 44.71
  C 195.13 46.41 201.09 47.53 214.10 49.76
  A 1.18 1.17 22.8 0 0 215.26 49.29
  Q 216.10 48.14 217.51 47.19
  C 220.01 45.48 219.27 41.31 218.03 39.28
  C 215.00 34.37 209.50 34.68 205.51 38.86
  A 0.72 0.70 -53.0 0 1 204.64 38.99
  Q 203.21 38.18 202.97 36.55
  C 201.90 28.96 208.98 19.42 214.43 14.89
  C 218.91 11.17 224.95 7.22 230.74 5.26
  C 268.28 -7.41 298.67 30.79 292.04 65.90
  A 0.32 0.32 0.0 0 0 292.58 66.19
  Z
  M 220.79 51.07
  Q 237.17 53.62 255.06 58.40
  C 257.56 59.06 257.22 61.50 257.89 63.14
  Q 260.64 69.88 262.43 75.06
  C 263.91 79.34 260.77 86.92 259.38 90.86
  A 0.77 0.77 0.0 0 0 259.97 91.87
  Q 264.85 92.81 269.19 94.10
  C 271.44 94.77 273.81 94.53 275.65 93.78
  Q 290.08 87.94 293.05 71.75
  A 0.34 0.34 0.0 0 0 292.63 71.36
  C 290.80 71.85 286.59 73.63 285.92 70.43
  A 1.99 1.97 -41.1 0 1 286.00 69.33
  C 292.78 51.71 284.58 29.36 270.87 17.32
  C 261.97 9.51 250.12 5.26 238.57 7.26
  C 224.63 9.68 209.89 19.99 206.23 34.13
  A 0.47 0.47 0.0 0 0 206.95 34.63
  C 209.21 33.04 212.13 31.11 214.91 31.89
  Q 224.52 34.60 223.84 45.06
  Q 223.62 48.40 220.71 50.77
  A 0.17 0.17 0.0 0 0 220.79 51.07
  Z
  M 150.46 113.26
  Q 168.41 98.44 191.53 95.26
  A 1.01 1.00 5.3 0 0 192.33 94.60
  Q 192.89 92.98 193.92 91.88
  A 0.93 0.93 0.0 0 0 194.03 90.73
  Q 189.89 84.34 188.37 83.07
  Q 181.28 77.17 171.82 75.87
  C 163.82 74.76 157.16 80.23 153.01 86.15
  A 0.69 0.68 62.7 0 1 151.77 85.75
  C 151.77 81.54 155.17 79.02 158.26 76.40
  C 162.92 72.43 167.73 71.24 174.03 72.20
  Q 185.89 74.00 192.99 83.33
  A 3.30 3.28 88.1 0 0 193.83 84.12
  Q 195.86 85.48 197.22 87.61
  A 0.10 0.10 0.0 0 0 197.36 87.65
  L 206.19 82.82
  A 4.36 4.25 22.6 0 1 207.25 82.40
  Q 218.08 79.53 228.83 84.98
  A 3.64 3.42 -9.9 0 1 229.53 85.44
  L 234.00 89.16
  A 2.50 2.49 -55.5 0 0 237.79 88.45
  C 243.63 77.86 236.24 66.08 225.75 62.17
  A 0.91 0.90 -41.1 0 1 225.87 60.44
  C 227.08 60.16 229.43 60.32 230.44 60.78
  Q 242.48 66.34 244.50 79.28
  Q 245.14 83.44 242.55 89.43
  A 0.27 0.27 0.0 0 0 242.90 89.79
  L 243.83 89.42
  A 0.23 0.21 -4.4 0 0 243.94 89.30
  Q 248.18 76.06 249.51 72.01
  Q 251.14 67.07 253.01 63.38
  A 0.89 0.89 0.0 0 0 252.42 62.11
  Q 222.77 55.08 189.71 50.08
  Q 160.68 45.69 140.14 41.99
  A 0.28 0.27 -76.5 0 0 139.82 42.19
  L 128.72 84.51
  A 0.49 0.49 0.0 0 0 129.10 85.11
  C 135.62 86.41 140.36 87.25 146.05 91.59
  C 152.94 96.85 154.14 105.64 150.28 113.12
  A 0.12 0.12 0.0 0 0 150.46 113.26
  Z
  M 135.14 45.51
  C 126.80 48.90 117.99 54.11 114.91 62.62
  C 112.08 70.44 116.06 78.81 125.31 78.00
  A 0.44 0.42 4.9 0 0 125.68 77.70
  L 135.39 45.74
  A 0.19 0.19 0.0 0 0 135.14 45.51
  Z
  M 255.38 67.35
  L 248.65 89.52
  A 0.58 0.58 0.0 0 0 249.19 90.27
  L 254.37 90.44
  A 0.70 0.69 -80.1 0 0 255.06 89.95
  L 258.42 78.88
  A 4.66 4.62 45.5 0 0 258.43 76.23
  L 255.81 67.35
  A 0.23 0.22 -44.8 0 0 255.38 67.35
  Z
  M 223.39 116.16
  C 227.13 114.72 231.27 112.51 232.80 108.68
  Q 235.45 102.00 232.29 95.18
  Q 230.28 90.84 226.30 88.65
  Q 223.25 86.98 219.95 85.64
  A 4.51 4.23 59.4 0 0 219.09 85.39
  C 206.90 83.19 191.45 92.44 195.43 106.83
  Q 197.05 112.68 203.54 115.78
  Q 207.60 117.73 210.65 117.75
  A 0.50 0.50 0.0 0 0 211.15 117.20
  L 210.79 114.06
  A 1.51 1.51 0.0 0 1 211.72 112.49
  L 212.03 112.36
  A 1.10 1.10 0.0 0 1 213.54 113.25
  L 214.01 117.46
  A 0.46 0.46 0.0 0 0 214.53 117.87
  L 219.25 117.34
  A 0.54 0.54 0.0 0 0 219.71 116.66
  Q 219.08 114.50 219.85 112.82
  A 0.90 0.89 14.6 0 1 220.75 112.30
  Q 222.98 112.49 222.69 115.63
  A 0.52 0.52 0.0 0 0 223.39 116.16
  Z
  M 118.24 117.79
  Q 118.29 114.94 119.25 113.53
  A 1.04 1.04 0.0 0 1 121.15 114.11
  Q 121.16 116.80 120.53 118.48
  A 0.66 0.66 0.0 0 0 121.04 119.36
  L 129.60 120.84
  A 0.74 0.73 13.5 0 0 130.43 120.34
  L 131.50 116.79
  A 1.38 1.38 0.0 0 1 133.92 116.36
  Q 134.80 117.54 134.30 119.86
  A 0.66 0.66 0.0 0 0 135.09 120.65
  C 143.40 118.84 150.00 108.87 147.72 100.56
  C 146.15 94.87 139.32 90.91 133.94 89.63
  C 126.99 87.98 122.01 87.50 115.77 91.15
  C 112.31 93.16 109.68 98.07 108.29 101.73
  C 105.27 109.72 109.75 115.93 117.47 118.35
  A 0.60 0.59 8.8 0 0 118.24 117.79
  Z
  M 31.56 267.56
  Q 34.59 264.77 38.97 263.16
  Q 59.89 255.47 82.94 256.54
  A 0.97 0.96 -87.0 0 0 83.95 255.62
  Q 84.27 249.07 83.66 239.75
  C 83.48 236.95 83.92 232.56 83.75 229.40
  Q 82.87 213.05 83.60 198.52
  A 0.34 0.34 0.0 0 0 83.07 198.22
  Q 79.85 200.42 76.08 203.04
  C 69.49 207.63 61.35 210.69 52.89 210.35
  A 0.65 0.65 0.0 0 1 52.27 209.71
  Q 52.10 194.51 53.39 180.96
  A 1.17 1.16 -3.9 0 1 54.29 179.94
  C 60.86 178.46 67.84 175.30 73.69 170.97
  C 79.85 166.42 84.25 163.24 88.16 157.29
  A 3.73 3.71 17.5 0 1 91.37 155.63
  L 115.34 156.41
  A 1.79 1.79 0.0 0 1 117.07 158.17
  Q 117.30 170.70 117.84 183.38
  Q 118.45 197.90 118.43 208.65
  Q 118.37 243.15 118.36 246.50
  Q 118.35 253.60 118.49 259.97
  A 0.63 0.63 0.0 0 0 119.13 260.58
  Q 132.54 260.37 146.54 261.43
  Q 149.40 261.65 149.68 264.59
  Q 149.91 266.94 150.17 271.35
  A 1.61 1.60 76.6 0 0 152.41 272.73
  L 160.12 269.40
  A 0.56 0.55 62.8 0 0 160.37 268.60
  Q 156.81 262.67 154.74 255.49
  C 149.33 236.79 149.70 214.74 154.62 196.34
  Q 155.04 194.75 157.99 186.73
  C 159.81 181.76 163.12 176.32 165.76 172.74
  C 171.70 164.66 182.75 155.79 193.03 154.81
  Q 196.30 154.50 202.69 154.65
  C 207.38 154.77 210.39 155.45 214.60 157.17
  C 230.04 163.48 240.05 176.80 246.04 192.21
  C 248.13 197.58 248.55 202.56 249.68 208.44
  Q 253.70 229.36 249.16 250.10
  C 248.44 253.38 246.84 257.15 246.05 259.49
  A 0.55 0.54 15.3 0 0 246.46 260.19
  C 253.47 261.61 261.98 263.90 267.36 268.54
  A 0.43 0.43 0.0 0 0 268.06 268.32
  Q 270.10 259.96 271.43 245.00
  Q 273.78 218.53 274.85 196.26
  C 276.08 170.66 277.28 156.39 278.05 133.25
  Q 278.59 117.10 277.02 101.25
  A 0.81 0.81 0.0 0 0 276.48 100.56
  Q 265.96 96.74 253.23 94.88
  C 249.27 94.30 244.99 94.62 241.26 93.91
  Q 240.82 93.82 237.49 94.81
  A 0.62 0.61 -13.4 0 0 237.06 95.50
  Q 237.19 96.24 237.71 98.24
  C 239.38 104.63 237.28 113.41 230.99 117.23
  C 220.96 123.32 208.02 124.72 198.37 117.64
  C 192.58 113.39 190.51 108.02 190.86 101.01
  A 0.66 0.66 0.0 0 0 190.11 100.32
  C 175.42 102.39 163.58 108.84 151.31 117.04
  A 6.26 6.10 18.1 0 1 149.78 117.79
  L 147.13 118.69
  A 1.36 1.30 10.9 0 0 146.57 119.05
  Q 143.51 122.30 140.35 123.86
  A 5.37 5.25 27.2 0 1 138.70 124.37
  Q 129.72 125.58 121.56 123.68
  C 114.42 122.02 109.11 120.47 105.52 114.45
  Q 102.14 108.76 104.43 101.54
  A 0.63 0.62 21.0 0 0 104.09 100.78
  Q 100.19 99.01 98.45 98.54
  Q 80.00 93.55 63.52 93.00
  Q 42.98 92.32 22.42 99.55
  A 0.83 0.83 0.0 0 0 21.87 100.27
  Q 20.74 117.19 20.75 121.50
  Q 20.82 136.13 21.95 154.42
  Q 22.86 169.26 24.31 197.84
  C 25.18 215.09 26.42 230.72 27.66 244.87
  Q 28.94 259.37 30.98 267.39
  A 0.35 0.35 0.0 0 0 31.56 267.56
  Z
  M 38.98 267.43
  Q 38.20 267.12 37.57 267.99
  Q 34.59 269.31 32.62 271.64
  A 1.72 1.72 0.0 0 1 29.89 271.51
  Q 28.18 269.06 27.37 265.62
  Q 25.28 256.65 24.52 250.25
  C 22.62 234.19 20.97 214.75 20.02 195.54
  C 18.73 169.23 15.91 138.75 16.49 110.97
  A 0.23 0.22 -7.5 0 0 16.20 110.75
  L 8.80 112.94
  A 0.24 0.23 -8.5 0 0 8.63 113.16
  C 8.68 119.93 9.13 125.50 9.12 133.60
  Q 9.06 166.22 10.88 198.05
  C 11.80 214.23 14.06 233.71 15.16 250.82
  Q 15.55 256.82 16.83 265.42
  C 18.03 273.46 18.53 279.79 19.63 287.23
  A 0.30 0.30 0.0 0 0 20.05 287.46
  C 30.28 282.44 41.00 279.62 52.38 277.58
  A 0.78 0.77 -5.4 0 0 53.02 276.82
  L 53.02 263.84
  A 0.49 0.49 0.0 0 0 52.43 263.36
  Q 45.46 264.72 38.98 267.43
  Z
  M 280.48 287.86
  Q 282.17 272.48 283.61 263.13
  Q 284.49 257.44 284.95 250.65
  C 285.72 239.35 286.16 233.53 287.49 219.39
  Q 289.72 195.63 290.34 170.00
  Q 291.05 140.87 290.86 130.94
  C 290.75 124.99 291.43 119.53 291.35 114.11
  A 0.33 0.32 8.5 0 0 291.11 113.80
  L 282.67 111.59
  A 0.17 0.17 0.0 0 0 282.46 111.76
  C 283.13 134.79 281.38 156.08 279.84 180.94
  Q 279.68 183.48 278.67 201.58
  Q 277.14 229.13 274.37 251.73
  Q 273.46 259.16 271.41 267.39
  Q 270.71 270.21 269.15 272.42
  A 1.80 1.79 -50.6 0 1 266.45 272.69
  C 264.77 271.08 263.38 269.83 261.37 268.96
  Q 253.53 265.58 244.76 263.93
  A 0.78 0.77 17.3 0 0 243.91 264.37
  Q 242.53 267.38 239.94 270.02
  A 0.63 0.58 87.8 0 0 239.82 270.16
  L 235.16 276.74
  A 0.35 0.34 -70.7 0 0 235.42 277.29
  Q 258.92 278.71 279.76 288.27
  A 0.51 0.51 0.0 0 0 280.48 287.86
  Z
  M 225.32 168.68
  C 219.41 163.42 210.34 158.74 201.82 158.59
  Q 194.54 158.46 190.88 159.64
  C 176.46 164.28 167.12 175.47 161.23 189.08
  Q 159.83 192.32 158.45 199.17
  Q 156.76 207.61 156.50 209.49
  Q 154.23 226.02 156.57 242.21
  C 158.67 256.73 163.87 268.69 174.24 279.25
  Q 176.83 281.90 180.49 284.04
  C 185.82 287.16 190.83 289.86 194.48 290.14
  Q 200.13 290.57 207.15 288.83
  C 228.80 283.46 242.91 264.78 246.17 243.15
  Q 249.95 218.06 242.02 194.17
  Q 237.02 179.09 225.32 168.68
  Z
  M 144.86 288.27
  L 145.56 266.56
  A 0.38 0.38 0.0 0 0 145.19 266.16
  L 114.85 265.17
  A 1.41 1.40 1.1 0 1 113.49 263.77
  L 113.49 161.44
  A 0.89 0.88 1.0 0 0 112.63 160.56
  L 92.36 159.90
  A 0.86 0.86 0.0 0 0 91.58 160.33
  Q 89.11 164.61 83.90 168.91
  Q 76.19 175.28 69.23 179.24
  Q 65.86 181.15 57.18 183.55
  A 0.51 0.50 82.6 0 0 56.81 184.04
  L 56.81 205.79
  A 0.70 0.69 -6.9 0 0 57.67 206.46
  Q 65.17 204.56 71.57 200.58
  Q 78.99 195.97 85.58 190.38
  A 1.23 1.22 57.0 0 1 87.48 190.79
  Q 88.28 192.49 88.22 193.75
  C 87.93 199.50 87.77 205.02 88.02 210.75
  Q 89.23 237.61 88.57 264.28
  A 0.43 0.43 0.0 0 1 88.14 264.70
  C 85.28 264.67 83.32 264.30 80.36 264.54
  C 73.33 265.11 65.53 263.96 58.41 263.65
  A 0.54 0.54 0.0 0 0 57.84 264.19
  L 57.84 287.24
  A 0.67 0.67 0.0 0 0 58.50 287.91
  Q 59.84 287.95 60.78 287.92
  Q 94.02 286.91 114.75 287.71
  Q 137.85 288.61 144.18 288.90
  A 0.66 0.66 0.0 0 0 144.86 288.27
  Z
  M 163.19 273.33
  A 0.46 0.45 -27.3 0 0 162.70 273.18
  Q 158.29 274.54 154.08 278.00
  Q 152.25 279.50 150.63 278.70
  A 0.55 0.55 0.0 0 0 149.83 279.18
  L 149.69 283.30
  A 1.03 1.02 -89.2 0 0 150.71 284.36
  Q 152.83 284.35 153.57 284.13
  Q 164.14 280.90 168.54 280.26
  A 0.06 0.06 0.0 0 0 168.58 280.17
  L 163.19 273.33
  Z"
/>
<path fill="#ffffff" d="
  M 220.79 51.07
  A 0.17 0.17 0.0 0 1 220.71 50.77
  Q 223.62 48.40 223.84 45.06
  Q 224.52 34.60 214.91 31.89
  C 212.13 31.11 209.21 33.04 206.95 34.63
  A 0.47 0.47 0.0 0 1 206.23 34.13
  C 209.89 19.99 224.63 9.68 238.57 7.26
  C 250.12 5.26 261.97 9.51 270.87 17.32
  C 284.58 29.36 292.78 51.71 286.00 69.33
  A 1.99 1.97 -41.1 0 0 285.92 70.43
  C 286.59 73.63 290.80 71.85 292.63 71.36
  A 0.34 0.34 0.0 0 1 293.05 71.75
  Q 290.08 87.94 275.65 93.78
  C 273.81 94.53 271.44 94.77 269.19 94.10
  Q 264.85 92.81 259.97 91.87
  A 0.77 0.77 0.0 0 1 259.38 90.86
  C 260.77 86.92 263.91 79.34 262.43 75.06
  Q 260.64 69.88 257.89 63.14
  C 257.22 61.50 257.56 59.06 255.06 58.40
  Q 237.17 53.62 220.79 51.07
  Z"
/>
<path fill="#ffffff" d="
  M 150.28 113.12
  C 154.14 105.64 152.94 96.85 146.05 91.59
  C 140.36 87.25 135.62 86.41 129.10 85.11
  A 0.49 0.49 0.0 0 1 128.72 84.51
  L 139.82 42.19
  A 0.28 0.27 -76.5 0 1 140.14 41.99
  Q 160.68 45.69 189.71 50.08
  Q 222.77 55.08 252.42 62.11
  A 0.89 0.89 0.0 0 1 253.01 63.38
  Q 251.14 67.07 249.51 72.01
  Q 248.18 76.06 243.94 89.30
  A 0.23 0.21 -4.4 0 1 243.83 89.42
  L 242.90 89.79
  A 0.27 0.27 0.0 0 1 242.55 89.43
  Q 245.14 83.44 244.50 79.28
  Q 242.48 66.34 230.44 60.78
  C 229.43 60.32 227.08 60.16 225.87 60.44
  A 0.91 0.90 -41.1 0 0 225.75 62.17
  C 236.24 66.08 243.63 77.86 237.79 88.45
  A 2.50 2.49 -55.5 0 1 234.00 89.16
  L 229.53 85.44
  A 3.64 3.42 -9.9 0 0 228.83 84.98
  Q 218.08 79.53 207.25 82.40
  A 4.36 4.25 22.6 0 0 206.19 82.82
  L 197.36 87.65
  A 0.10 0.10 0.0 0 1 197.22 87.61
  Q 195.86 85.48 193.83 84.12
  A 3.30 3.28 88.1 0 1 192.99 83.33
  Q 185.89 74.00 174.03 72.20
  C 167.73 71.24 162.92 72.43 158.26 76.40
  C 155.17 79.02 151.77 81.54 151.77 85.75
  A 0.69 0.68 62.7 0 0 153.01 86.15
  C 157.16 80.23 163.82 74.76 171.82 75.87
  Q 181.28 77.17 188.37 83.07
  Q 189.89 84.34 194.03 90.73
  A 0.93 0.93 0.0 0 1 193.92 91.88
  Q 192.89 92.98 192.33 94.60
  A 1.01 1.00 5.3 0 1 191.53 95.26
  Q 168.41 98.44 150.46 113.26
  A 0.12 0.12 0.0 0 1 150.28 113.12
  Z
  M 158.8261 70.1656
  A 4.93 3.56 -24.5 0 0 152.8637 68.9705
  A 4.93 3.56 -24.5 0 0 149.8539 74.2544
  A 4.93 3.56 -24.5 0 0 155.8163 75.4495
  A 4.93 3.56 -24.5 0 0 158.8261 70.1656
  Z
  M 199.24 85.45
  C 201.08 84.87 203.06 84.22 202.81 81.84
  Q 202.44 78.30 198.80 76.96
  C 196.74 76.21 195.39 77.91 194.64 79.49
  A 1.14 1.12 45.6 0 0 194.64 80.46
  C 195.71 82.67 196.33 84.89 198.56 84.62
  A 0.16 0.16 0.0 0 1 198.74 84.78
  L 198.73 85.07
  A 0.39 0.39 0.0 0 0 199.24 85.45
  Z
  M 170.98 85.66
  Q 173.53 85.22 175.87 83.58
  C 176.59 83.08 177.85 82.50 178.08 81.33
  A 2.40 2.29 15.7 0 0 176.53 78.71
  C 174.14 77.84 166.15 75.24 166.84 80.47
  Q 167.22 83.32 169.82 85.37
  A 1.44 1.43 -30.6 0 0 170.98 85.66
  Z"
/>
<path fill="#ffffff" d="
  M 135.14 45.51
  A 0.19 0.19 0.0 0 1 135.39 45.74
  L 125.68 77.70
  A 0.44 0.42 4.9 0 1 125.31 78.00
  C 116.06 78.81 112.08 70.44 114.91 62.62
  C 117.99 54.11 126.80 48.90 135.14 45.51
  Z"
/>
<path fill="#d9d9d9" d="
  M 255.81 67.35
  L 258.43 76.23
  A 4.66 4.62 45.5 0 1 258.42 78.88
  L 255.06 89.95
  A 0.70 0.69 -80.1 0 1 254.37 90.44
  L 249.19 90.27
  A 0.58 0.58 0.0 0 1 248.65 89.52
  L 255.38 67.35
  A 0.23 0.22 -44.8 0 1 255.81 67.35
  Z"
/>
<path fill="#000000" d="
  M 158.8261 70.1656
  A 4.93 3.56 -24.5 0 1 155.8163 75.4495
  A 4.93 3.56 -24.5 0 1 149.8539 74.2544
  A 4.93 3.56 -24.5 0 1 152.8637 68.9705
  A 4.93 3.56 -24.5 0 1 158.8261 70.1656
  Z
  M 156.97 71.49
  A 1.28 1.28 0.0 0 0 155.69 70.21
  A 1.28 1.28 0.0 0 0 154.41 71.49
  A 1.28 1.28 0.0 0 0 155.69 72.77
  A 1.28 1.28 0.0 0 0 156.97 71.49
  Z"
/>
<circle fill="#ffffff" cx="155.69" cy="71.49" r="1.28"/>
<path fill="#000000" d="
  M 198.73 85.07
  L 198.74 84.78
  A 0.16 0.16 0.0 0 0 198.56 84.62
  C 196.33 84.89 195.71 82.67 194.64 80.46
  A 1.14 1.12 45.6 0 1 194.64 79.49
  C 195.39 77.91 196.74 76.21 198.80 76.96
  Q 202.44 78.30 202.81 81.84
  C 203.06 84.22 201.08 84.87 199.24 85.45
  A 0.39 0.39 0.0 0 1 198.73 85.07
  Z
  M 196.4720 79.3827
  A 1.29 1.07 -169.4 0 0 197.5432 80.6717
  A 1.29 1.07 -169.4 0 0 199.0080 79.8573
  A 1.29 1.07 -169.4 0 0 197.9368 78.5683
  A 1.29 1.07 -169.4 0 0 196.4720 79.3827
  Z"
/>
<path fill="#000000" d="
  M 169.82 85.37
  Q 167.22 83.32 166.84 80.47
  C 166.15 75.24 174.14 77.84 176.53 78.71
  A 2.40 2.29 15.7 0 1 178.08 81.33
  C 177.85 82.50 176.59 83.08 175.87 83.58
  Q 173.53 85.22 170.98 85.66
  A 1.44 1.43 -30.6 0 1 169.82 85.37
  Z
  M 168.8006 79.7570
  A 1.54 0.89 -178.4 0 0 170.3151 80.6897
  A 1.54 0.89 -178.4 0 0 171.8794 79.8430
  A 1.54 0.89 -178.4 0 0 170.3649 78.9103
  A 1.54 0.89 -178.4 0 0 168.8006 79.7570
  Z"
/>
<ellipse fill="#ffffff" cx="0.00" cy="0.00" transform="translate(197.74,79.62) rotate(-169.4)" rx="1.29" ry="1.07"/>
<ellipse fill="#ffffff" cx="0.00" cy="0.00" transform="translate(170.34,79.80) rotate(-178.4)" rx="1.54" ry="0.89"/>
<path fill="#ffffff" d="
  M 223.39 116.16
  A 0.52 0.52 0.0 0 1 222.69 115.63
  Q 222.98 112.49 220.75 112.30
  A 0.90 0.89 14.6 0 0 219.85 112.82
  Q 219.08 114.50 219.71 116.66
  A 0.54 0.54 0.0 0 1 219.25 117.34
  L 214.53 117.87
  A 0.46 0.46 0.0 0 1 214.01 117.46
  L 213.54 113.25
  A 1.10 1.10 0.0 0 0 212.03 112.36
  L 211.72 112.49
  A 1.51 1.51 0.0 0 0 210.79 114.06
  L 211.15 117.20
  A 0.50 0.50 0.0 0 1 210.65 117.75
  Q 207.60 117.73 203.54 115.78
  Q 197.05 112.68 195.43 106.83
  C 191.45 92.44 206.90 83.19 219.09 85.39
  A 4.51 4.23 59.4 0 1 219.95 85.64
  Q 223.25 86.98 226.30 88.65
  Q 230.28 90.84 232.29 95.18
  Q 235.45 102.00 232.80 108.68
  C 231.27 112.51 227.13 114.72 223.39 116.16
  Z"
/>
<path fill="#ffffff" d="
  M 117.47 118.35
  C 109.75 115.93 105.27 109.72 108.29 101.73
  C 109.68 98.07 112.31 93.16 115.77 91.15
  C 122.01 87.50 126.99 87.98 133.94 89.63
  C 139.32 90.91 146.15 94.87 147.72 100.56
  C 150.00 108.87 143.40 118.84 135.09 120.65
  A 0.66 0.66 0.0 0 1 134.30 119.86
  Q 134.80 117.54 133.92 116.36
  A 1.38 1.38 0.0 0 0 131.50 116.79
  L 130.43 120.34
  A 0.74 0.73 13.5 0 1 129.60 120.84
  L 121.04 119.36
  A 0.66 0.66 0.0 0 1 120.53 118.48
  Q 121.16 116.80 121.15 114.11
  A 1.04 1.04 0.0 0 0 119.25 113.53
  Q 118.29 114.94 118.24 117.79
  A 0.60 0.59 8.8 0 1 117.47 118.35
  Z"
/>
<path fill="#ffffff" d="
  M 30.98 267.39
  Q 28.94 259.37 27.66 244.87
  C 26.42 230.72 25.18 215.09 24.31 197.84
  Q 22.86 169.26 21.95 154.42
  Q 20.82 136.13 20.75 121.50
  Q 20.74 117.19 21.87 100.27
  A 0.83 0.83 0.0 0 1 22.42 99.55
  Q 42.98 92.32 63.52 93.00
  Q 80.00 93.55 98.45 98.54
  Q 100.19 99.01 104.09 100.78
  A 0.63 0.62 21.0 0 1 104.43 101.54
  Q 102.14 108.76 105.52 114.45
  C 109.11 120.47 114.42 122.02 121.56 123.68
  Q 129.72 125.58 138.70 124.37
  A 5.37 5.25 27.2 0 0 140.35 123.86
  Q 143.51 122.30 146.57 119.05
  A 1.36 1.30 10.9 0 1 147.13 118.69
  L 149.78 117.79
  A 6.26 6.10 18.1 0 0 151.31 117.04
  C 163.58 108.84 175.42 102.39 190.11 100.32
  A 0.66 0.66 0.0 0 1 190.86 101.01
  C 190.51 108.02 192.58 113.39 198.37 117.64
  C 208.02 124.72 220.96 123.32 230.99 117.23
  C 237.28 113.41 239.38 104.63 237.71 98.24
  Q 237.19 96.24 237.06 95.50
  A 0.62 0.61 -13.4 0 1 237.49 94.81
  Q 240.82 93.82 241.26 93.91
  C 244.99 94.62 249.27 94.30 253.23 94.88
  Q 265.96 96.74 276.48 100.56
  A 0.81 0.81 0.0 0 1 277.02 101.25
  Q 278.59 117.10 278.05 133.25
  C 277.28 156.39 276.08 170.66 274.85 196.26
  Q 273.78 218.53 271.43 245.00
  Q 270.10 259.96 268.06 268.32
  A 0.43 0.43 0.0 0 1 267.36 268.54
  C 261.98 263.90 253.47 261.61 246.46 260.19
  A 0.55 0.54 15.3 0 1 246.05 259.49
  C 246.84 257.15 248.44 253.38 249.16 250.10
  Q 253.70 229.36 249.68 208.44
  C 248.55 202.56 248.13 197.58 246.04 192.21
  C 240.05 176.80 230.04 163.48 214.60 157.17
  C 210.39 155.45 207.38 154.77 202.69 154.65
  Q 196.30 154.50 193.03 154.81
  C 182.75 155.79 171.70 164.66 165.76 172.74
  C 163.12 176.32 159.81 181.76 157.99 186.73
  Q 155.04 194.75 154.62 196.34
  C 149.70 214.74 149.33 236.79 154.74 255.49
  Q 156.81 262.67 160.37 268.60
  A 0.56 0.55 62.8 0 1 160.12 269.40
  L 152.41 272.73
  A 1.61 1.60 76.6 0 1 150.17 271.35
  Q 149.91 266.94 149.68 264.59
  Q 149.40 261.65 146.54 261.43
  Q 132.54 260.37 119.13 260.58
  A 0.63 0.63 0.0 0 1 118.49 259.97
  Q 118.35 253.60 118.36 246.50
  Q 118.37 243.15 118.43 208.65
  Q 118.45 197.90 117.84 183.38
  Q 117.30 170.70 117.07 158.17
  A 1.79 1.79 0.0 0 0 115.34 156.41
  L 91.37 155.63
  A 3.73 3.71 17.5 0 0 88.16 157.29
  C 84.25 163.24 79.85 166.42 73.69 170.97
  C 67.84 175.30 60.86 178.46 54.29 179.94
  A 1.17 1.16 -3.9 0 0 53.39 180.96
  Q 52.10 194.51 52.27 209.71
  A 0.65 0.65 0.0 0 0 52.89 210.35
  C 61.35 210.69 69.49 207.63 76.08 203.04
  Q 79.85 200.42 83.07 198.22
  A 0.34 0.34 0.0 0 1 83.60 198.52
  Q 82.87 213.05 83.75 229.40
  C 83.92 232.56 83.48 236.95 83.66 239.75
  Q 84.27 249.07 83.95 255.62
  A 0.97 0.96 -87.0 0 1 82.94 256.54
  Q 59.89 255.47 38.97 263.16
  Q 34.59 264.77 31.56 267.56
  A 0.35 0.35 0.0 0 1 30.98 267.39
  Z"
/>
<path fill="#acb6c8" d="
  M 37.57 267.99
  Q 38.32 267.92 38.98 267.43
  Q 45.46 264.72 52.43 263.36
  A 0.49 0.49 0.0 0 1 53.02 263.84
  L 53.02 276.82
  A 0.78 0.77 -5.4 0 1 52.38 277.58
  C 41.00 279.62 30.28 282.44 20.05 287.46
  A 0.30 0.30 0.0 0 1 19.63 287.23
  C 18.53 279.79 18.03 273.46 16.83 265.42
  Q 15.55 256.82 15.16 250.82
  C 14.06 233.71 11.80 214.23 10.88 198.05
  Q 9.06 166.22 9.12 133.60
  C 9.13 125.50 8.68 119.93 8.63 113.16
  A 0.24 0.23 -8.5 0 1 8.80 112.94
  L 16.20 110.75
  A 0.23 0.22 -7.5 0 1 16.49 110.97
  C 15.91 138.75 18.73 169.23 20.02 195.54
  C 20.97 214.75 22.62 234.19 24.52 250.25
  Q 25.28 256.65 27.37 265.62
  Q 28.18 269.06 29.89 271.51
  A 1.72 1.72 0.0 0 0 32.62 271.64
  Q 34.59 269.31 37.57 267.99
  Z"
/>
<path fill="#acb6c8" d="
  M 279.76 288.27
  Q 258.92 278.71 235.42 277.29
  A 0.35 0.34 -70.7 0 1 235.16 276.74
  L 239.82 270.16
  A 0.63 0.58 87.8 0 1 239.94 270.02
  Q 242.53 267.38 243.91 264.37
  A 0.78 0.77 17.3 0 1 244.76 263.93
  Q 253.53 265.58 261.37 268.96
  C 263.38 269.83 264.77 271.08 266.45 272.69
  A 1.80 1.79 -50.6 0 0 269.15 272.42
  Q 270.71 270.21 271.41 267.39
  Q 273.46 259.16 274.37 251.73
  Q 277.14 229.13 278.67 201.58
  Q 279.68 183.48 279.84 180.94
  C 281.38 156.08 283.13 134.79 282.46 111.76
  A 0.17 0.17 0.0 0 1 282.67 111.59
  L 291.11 113.80
  A 0.33 0.32 8.5 0 1 291.35 114.11
  C 291.43 119.53 290.75 124.99 290.86 130.94
  Q 291.05 140.87 290.34 170.00
  Q 289.72 195.63 287.49 219.39
  C 286.16 233.53 285.72 239.35 284.95 250.65
  Q 284.49 257.44 283.61 263.13
  Q 282.17 272.48 280.48 287.86
  A 0.51 0.51 0.0 0 1 279.76 288.27
  Z"
/>
<path fill="#03a1fe" d="
  M 225.32 168.68
  Q 237.02 179.09 242.02 194.17
  Q 249.95 218.06 246.17 243.15
  C 242.91 264.78 228.80 283.46 207.15 288.83
  Q 200.13 290.57 194.48 290.14
  C 190.83 289.86 185.82 287.16 180.49 284.04
  Q 176.83 281.90 174.24 279.25
  C 163.87 268.69 158.67 256.73 156.57 242.21
  Q 154.23 226.02 156.50 209.49
  Q 156.76 207.61 158.45 199.17
  Q 159.83 192.32 161.23 189.08
  C 167.12 175.47 176.46 164.28 190.88 159.64
  Q 194.54 158.46 201.82 158.59
  C 210.34 158.74 219.41 163.42 225.32 168.68
  Z
  M 221.56 200.89
  Q 221.06 199.73 219.28 195.47
  Q 215.91 187.43 208.10 183.92
  C 203.41 181.82 198.60 183.02 194.11 185.44
  C 190.35 187.46 185.97 195.17 184.93 198.43
  Q 179.75 214.66 179.57 231.50
  Q 179.41 246.04 185.29 255.99
  C 188.12 260.78 191.04 263.07 195.67 265.59
  C 204.73 270.53 213.98 261.27 218.16 253.85
  C 224.28 243.00 225.65 230.96 223.83 218.86
  A 12.07 11.42 43.4 0 1 223.71 216.70
  C 223.89 211.97 223.57 205.53 221.56 200.89
  Z"
/>
<path fill="#03a1fe" d="
  M 144.18 288.90
  Q 137.85 288.61 114.75 287.71
  Q 94.02 286.91 60.78 287.92
  Q 59.84 287.95 58.50 287.91
  A 0.67 0.67 0.0 0 1 57.84 287.24
  L 57.84 264.19
  A 0.54 0.54 0.0 0 1 58.41 263.65
  C 65.53 263.96 73.33 265.11 80.36 264.54
  C 83.32 264.30 85.28 264.67 88.14 264.70
  A 0.43 0.43 0.0 0 0 88.57 264.28
  Q 89.23 237.61 88.02 210.75
  C 87.77 205.02 87.93 199.50 88.22 193.75
  Q 88.28 192.49 87.48 190.79
  A 1.23 1.22 57.0 0 0 85.58 190.38
  Q 78.99 195.97 71.57 200.58
  Q 65.17 204.56 57.67 206.46
  A 0.70 0.69 -6.9 0 1 56.81 205.79
  L 56.81 184.04
  A 0.51 0.50 82.6 0 1 57.18 183.55
  Q 65.86 181.15 69.23 179.24
  Q 76.19 175.28 83.90 168.91
  Q 89.11 164.61 91.58 160.33
  A 0.86 0.86 0.0 0 1 92.36 159.90
  L 112.63 160.56
  A 0.89 0.88 1.0 0 1 113.49 161.44
  L 113.49 263.77
  A 1.41 1.40 1.1 0 0 114.85 265.17
  L 145.19 266.16
  A 0.38 0.38 0.0 0 1 145.56 266.56
  L 144.86 288.27
  A 0.66 0.66 0.0 0 1 144.18 288.90
  Z"
/>
<path fill="#000000" d="
  M 221.56 200.89
  C 223.57 205.53 223.89 211.97 223.71 216.70
  A 12.07 11.42 43.4 0 0 223.83 218.86
  C 225.65 230.96 224.28 243.00 218.16 253.85
  C 213.98 261.27 204.73 270.53 195.67 265.59
  C 191.04 263.07 188.12 260.78 185.29 255.99
  Q 179.41 246.04 179.57 231.50
  Q 179.75 214.66 184.93 198.43
  C 185.97 195.17 190.35 187.46 194.11 185.44
  C 198.60 183.02 203.41 181.82 208.10 183.92
  Q 215.91 187.43 219.28 195.47
  Q 221.06 199.73 221.56 200.89
  Z
  M 197.24 188.42
  C 193.45 191.09 190.34 196.56 189.07 200.50
  Q 183.06 219.01 184.70 239.52
  C 185.14 244.97 188.23 254.91 193.02 258.79
  A 2.89 2.88 60.6 0 0 195.20 259.40
  Q 200.11 258.75 208.01 258.00
  Q 209.97 257.81 211.10 256.31
  Q 220.43 243.96 220.31 227.73
  Q 220.27 222.89 219.59 214.87
  Q 218.94 207.14 215.63 198.16
  Q 213.65 192.76 209.17 188.99
  A 3.49 3.41 74.8 0 0 208.15 188.39
  Q 203.59 186.68 198.14 188.01
  A 2.88 2.63 -67.0 0 0 197.24 188.42
  Z"
/>
<path fill="#ffffff" d="
  M 198.14 188.01
  Q 203.59 186.68 208.15 188.39
  A 3.49 3.41 74.8 0 1 209.17 188.99
  Q 213.65 192.76 215.63 198.16
  Q 218.94 207.14 219.59 214.87
  Q 220.27 222.89 220.31 227.73
  Q 220.43 243.96 211.10 256.31
  Q 209.97 257.81 208.01 258.00
  Q 200.11 258.75 195.20 259.40
  A 2.89 2.88 60.6 0 1 193.02 258.79
  C 188.23 254.91 185.14 244.97 184.70 239.52
  Q 183.06 219.01 189.07 200.50
  C 190.34 196.56 193.45 191.09 197.24 188.42
  A 2.88 2.63 -67.0 0 1 198.14 188.01
  Z"
/>
<path fill="#acb6c8" d="
  M 168.54 280.26
  Q 164.14 280.90 153.57 284.13
  Q 152.83 284.35 150.71 284.36
  A 1.03 1.02 -89.2 0 1 149.69 283.30
  L 149.83 279.18
  A 0.55 0.55 0.0 0 1 150.63 278.70
  Q 152.25 279.50 154.08 278.00
  Q 158.29 274.54 162.70 273.18
  A 0.46 0.45 -27.3 0 1 163.19 273.33
  L 168.58 280.17
  A 0.06 0.06 0.0 0 1 168.54 280.26
  Z"
/>
</svg>
