<?xml version="1.0" encoding="UTF-8" standalone="no"?>
<!DOCTYPE svg PUBLIC "-//W3C//DTD SVG 1.1//EN" "http://www.w3.org/Graphics/SVG/1.1/DTD/svg11.dtd">
<svg xmlns="http://www.w3.org/2000/svg" version="1.1" viewBox="0.00 0.00 300.00 300.00" width="300.00" height="300.00">
<g stroke-width="2.00" fill="none" stroke-linecap="butt">
<path stroke="#6d6d6d" vector-effect="non-scaling-stroke" d="
  M 240.38 235.21
  Q 242.42 247.46 238.15 257.39
  C 233.27 268.74 221.58 275.81 208.82 273.06
  C 203.78 271.98 199.44 270.87 197.00 265.95
  A 0.42 0.41 52.7 0 0 196.31 265.85
  Q 194.57 267.80 190.75 267.84
  Q 184.72 267.91 178.43 267.86
  A 1.32 1.30 -67.9 0 0 177.48 268.27
  Q 176.84 268.94 176.43 270.24
  A 0.17 0.09 -28.2 0 1 176.39 270.30
  L 172.93 274.96
  A 2.86 2.82 0.4 0 1 172.26 275.61
  Q 161.66 282.99 152.66 284.54
  Q 140.51 286.64 127.72 280.71
  C 121.41 277.78 115.83 271.07 113.25 264.53
  A 0.71 0.70 80.4 0 0 112.65 264.10
  L 61.88 260.63
  A 2.19 2.18 -64.3 0 0 60.23 261.21
  Q 52.27 268.62 40.38 271.99"
/>
<path stroke="#808080" vector-effect="non-scaling-stroke" d="
  M 132.02 93.37
  A 0.29 0.28 2.0 0 0 132.38 93.75
  C 138.38 91.58 144.05 93.74 147.93 98.81
  C 153.82 106.49 157.61 117.02 155.59 126.53
  Q 154.36 132.30 150.19 138.50
  A 0.30 0.29 -70.8 0 0 150.41 138.96
  C 174.96 141.09 200.29 144.43 226.51 146.73
  Q 228.51 146.91 230.95 147.66
  A 1.81 1.80 7.5 0 1 232.21 149.29
  Q 232.65 157.53 232.62 172.04
  C 232.61 176.05 233.51 179.59 233.66 182.77
  A 3.37 3.36 -34.6 0 1 233.39 184.23
  L 227.57 197.56
  A 0.43 0.42 -73.7 0 0 227.89 198.16
  Q 228.29 198.22 229.06 198.07
  C 237.71 196.39 248.43 191.25 253.98 184.27
  Q 260.33 176.27 261.98 166.46
  Q 263.04 160.16 263.10 154.83
  A 0.33 0.33 0.0 0 0 262.62 154.53
  C 259.15 156.40 251.83 158.65 249.05 155.00
  A 1.96 1.95 51.2 0 1 249.34 152.32
  C 253.96 148.45 257.50 145.34 260.27 140.41
  C 277.54 109.77 252.60 71.59 221.37 63.16
  C 191.92 55.21 152.19 65.39 133.81 90.54
  Q 132.49 92.35 132.02 93.37"
/>
<path stroke="#808080" vector-effect="non-scaling-stroke" d="
  M 43.52 206.16
  C 57.30 203.72 69.42 213.06 72.78 225.99
  C 73.98 230.64 73.33 234.71 72.30 239.38
  A 0.56 0.56 0.0 0 0 72.81 240.06
  L 111.26 242.69
  A 0.93 0.92 10.2 0 0 112.21 242.03
  Q 117.14 225.47 133.48 219.76
  Q 141.74 216.88 148.04 217.76
  Q 157.90 219.13 167.80 224.38
  A 5.68 5.45 78.9 0 1 168.91 225.16
  Q 178.96 234.31 179.99 246.75
  A 0.73 0.72 -2.1 0 0 180.72 247.42
  L 189.90 247.42
  A 0.99 0.98 12.0 0 0 190.80 246.84
  Q 197.42 231.93 203.59 218.22
  C 213.98 195.15 220.99 174.48 227.87 151.36
  A 0.28 0.28 0.0 0 0 227.63 151.00
  Q 202.37 148.91 175.75 145.73
  Q 144.46 142.01 94.00 138.84
  Q 78.64 137.88 63.47 137.75
  A 1.20 1.19 13.2 0 0 62.38 138.42
  L 46.66 170.92
  A 2.00 1.99 43.0 0 0 46.73 172.77
  Q 52.30 182.36 48.19 192.50
  Q 45.80 198.38 41.71 202.02
  A 0.60 0.59 42.2 0 0 41.76 202.95
  Q 43.06 203.87 42.83 205.49
  A 0.59 0.59 0.0 0 0 43.52 206.16"
/>
<path stroke="#6d6d6d" vector-effect="non-scaling-stroke" d="
  M 42.17 166.64
  Q 42.44 167.54 42.94 167.19
  Q 43.21 167.00 43.04 166.60"
/>
<path stroke="#808080" vector-effect="non-scaling-stroke" d="
  M 43.04 166.60
  Q 43.54 166.64 43.82 166.09
  Q 50.89 152.20 56.33 140.84
  A 0.17 0.16 5.8 0 0 56.14 140.61
  C 41.73 144.12 27.40 149.46 16.25 159.26
  Q 12.40 162.64 10.69 167.04
  A 0.38 0.37 82.6 0 0 11.26 167.48
  C 18.47 162.23 25.41 161.26 34.22 162.60
  Q 38.78 163.29 42.17 166.64"
/>
<path stroke="#ececec" vector-effect="non-scaling-stroke" d="
  M 43.04 166.60
  Q 42.64 166.51 42.17 166.64"
/>
<path stroke="#6d6d6d" vector-effect="non-scaling-stroke" d="
  M 228.42 163.10
  Q 228.11 163.91 227.24 166.76
  C 222.11 183.68 216.30 199.56 207.86 218.57
  Q 201.42 233.08 195.04 247.71
  A 2.40 2.32 -35.9 0 0 194.84 248.83
  L 195.57 258.62
  A 0.54 0.54 0.0 0 0 196.48 258.97
  Q 197.17 258.31 197.81 256.79
  Q 212.34 222.01 229.30 183.29
  A 2.58 2.53 52.1 0 0 229.47 181.81
  Q 227.95 173.17 228.75 163.18
  A 0.17 0.17 0.0 0 0 228.42 163.10"
/>
<path stroke="#6d6d6d" vector-effect="non-scaling-stroke" d="
  M 34.87 167.49
  C 30.79 166.24 23.55 166.09 18.74 168.16
  C 14.40 170.02 10.78 172.33 9.38 176.40
  C 7.37 182.22 6.34 191.40 9.34 196.78
  C 12.40 202.26 18.35 205.28 24.69 205.16
  A 1.84 0.92 16.1 0 0 24.90 205.13
  L 32.27 203.18
  A 1.82 1.43 14.9 0 0 32.64 203.02
  C 41.63 197.95 47.84 188.19 44.28 177.96
  C 43.47 175.65 41.49 173.08 39.97 170.91
  A 3.72 3.70 3.2 0 0 39.34 170.21
  Q 36.90 168.11 34.87 167.49"
/>
<path stroke="#808080" vector-effect="non-scaling-stroke" d="
  M 39.29 206.84
  L 38.64 205.34
  A 0.21 0.21 0.0 0 0 38.36 205.23
  L 37.43 205.63
  A 3.57 0.87 -23.3 0 0 34.49 207.84
  L 34.62 208.14
  A 3.57 0.87 -23.3 0 0 38.24 207.52
  L 39.18 207.12
  A 0.21 0.21 0.0 0 0 39.29 206.84"
/>
<path stroke="#808080" vector-effect="non-scaling-stroke" d="
  M 28.43 211.68
  Q 28.71 211.96 30.68 210.38
  Q 31.31 209.87 30.75 209.32
  Q 30.20 208.77 29.70 209.41
  Q 28.15 211.41 28.43 211.68"
/>
<path stroke="#808080" vector-effect="non-scaling-stroke" d="
  M 67.94 229.59
  Q 67.03 230.21 62.44 233.59
  A 1.77 1.57 -26.3 0 1 59.75 232.86
  C 59.11 230.13 64.87 226.32 66.80 225.29
  A 1.16 1.15 61.0 0 0 67.25 223.69
  L 64.43 218.80
  A 1.25 1.24 -30.9 0 0 62.70 218.37
  C 59.04 220.62 55.73 223.09 54.00 222.89
  A 1.33 1.33 0.0 0 1 53.12 220.73
  Q 55.64 217.63 60.08 215.39
  A 0.43 0.43 0.0 0 0 60.16 214.67
  C 48.76 205.58 33.40 212.76 23.51 220.75
  C 17.10 225.93 9.44 233.85 8.76 242.25
  C 7.90 252.83 13.11 261.55 22.74 265.88
  Q 30.46 269.36 39.31 267.54
  A 8.23 7.85 25.5 0 0 41.11 266.95
  Q 45.85 264.73 47.45 264.13
  C 54.00 261.66 59.13 256.41 63.57 250.74
  C 65.27 248.57 67.01 244.73 67.39 242.38
  Q 68.59 235.15 68.89 230.13
  A 0.61 0.61 0.0 0 0 67.94 229.59"
/>
<path stroke="#6d6d6d" vector-effect="non-scaling-stroke" d="
  M 229.05 255.35
  L 229.10 251.23"
/>
<path stroke="#808080" vector-effect="non-scaling-stroke" d="
  M 229.10 251.23
  Q 230.81 245.88 235.98 243.95
  A 1.07 1.07 0.0 0 0 236.03 241.96
  C 228.40 238.65 221.94 233.21 220.90 224.63
  Q 220.19 218.84 222.81 213.58
  A 0.68 0.67 -65.0 0 0 222.48 212.66
  L 222.21 212.54
  A 0.79 0.78 -66.2 0 0 221.17 212.95
  L 199.56 262.43
  A 0.25 0.24 43.6 0 0 199.57 262.63
  Q 201.31 265.89 204.43 267.19
  A 2.11 1.56 53.6 0 0 204.69 267.27
  Q 207.22 267.75 209.25 268.69
  A 2.75 2.65 60.1 0 0 210.15 268.95
  Q 221.36 270.17 229.31 262.62
  Q 230.26 261.72 231.21 259.95
  A 0.75 0.73 39.4 0 0 231.12 259.12
  Q 229.62 257.33 229.05 255.35"
/>
<path stroke="#ececec" vector-effect="non-scaling-stroke" d="
  M 229.10 251.23
  Q 227.78 253.21 229.05 255.35"
/>
<path stroke="#6d6d6d" vector-effect="non-scaling-stroke" d="
  M 226.35 228.10
  C 228.08 231.95 231.80 234.79 235.49 236.79
  A 0.21 0.21 0.0 0 0 235.80 236.58
  Q 235.14 231.39 232.42 225.36
  Q 229.69 219.33 226.24 215.40
  A 0.21 0.21 0.0 0 0 225.88 215.50
  C 224.93 219.59 224.61 224.26 226.35 228.10"
/>
<path stroke="#808080" vector-effect="non-scaling-stroke" d="
  M 154.30 279.12
  Q 155.65 279.06 156.02 278.91
  Q 161.19 276.80 168.55 272.74
  A 2.18 2.11 -83.6 0 0 169.19 272.21
  L 173.39 267.13
  A 1.92 1.88 78.1 0 0 173.67 266.69
  Q 176.86 260.32 176.10 252.33
  Q 175.98 251.03 175.48 247.09
  Q 175.02 243.44 174.50 241.85
  Q 171.57 232.82 163.47 226.64
  A 6.14 6.13 -17.1 0 0 161.62 225.66
  Q 151.59 222.38 147.46 221.98
  Q 140.31 221.29 130.60 225.61
  A 0.48 0.48 0.0 0 0 130.47 226.41
  C 132.04 227.83 135.95 231.50 135.74 233.64
  Q 135.57 235.32 134.15 235.12
  C 131.57 234.76 128.71 230.82 127.05 228.71
  A 0.92 0.92 0.0 0 0 125.64 228.66
  L 119.82 235.21
  A 1.33 1.32 -47.9 0 0 119.91 237.07
  Q 123.36 240.28 124.45 241.28
  Q 125.37 242.13 125.23 242.69
  A 2.11 1.97 15.1 0 1 122.65 244.06
  Q 119.62 243.21 118.28 241.12
  A 1.11 1.11 0.0 0 0 116.25 241.57
  Q 115.10 250.45 115.93 258.16
  Q 116.09 259.71 117.70 262.99
  A 5.31 4.99 26.5 0 1 118.06 263.96
  C 119.22 268.36 122.54 270.75 125.51 274.01
  A 3.24 3.20 84.6 0 0 126.24 274.62
  Q 131.43 277.82 138.86 279.59
  Q 139.73 279.79 142.37 280.05
  Q 146.80 280.49 153.76 279.73
  A 0.17 0.16 -73.8 0 0 153.86 279.67
  Q 154.09 279.41 154.10 279.32
  A 0.21 0.20 -88.5 0 1 154.30 279.12"
/>
<path stroke="#6d6d6d" vector-effect="non-scaling-stroke" d="
  M 110.80 246.93
  L 71.76 244.26
  A 0.78 0.77 10.5 0 0 70.97 244.80
  Q 69.02 250.90 64.63 256.19
  A 0.31 0.31 0.0 0 0 64.85 256.70
  L 110.84 259.85
  A 0.31 0.30 -88.3 0 0 111.16 259.54
  L 111.16 247.31
  A 0.38 0.38 0.0 0 0 110.80 246.93"
/>
<path stroke="#6d6d6d" vector-effect="non-scaling-stroke" d="
  M 234.22 255.27
  L 236.05 249.12
  A 0.15 0.15 0.0 0 0 235.95 248.94
  L 235.83 248.90
  A 3.23 1.47 -73.4 0 0 233.50 251.58
  L 233.43 251.83
  A 3.23 1.47 -73.4 0 0 233.92 255.34
  L 234.03 255.38
  A 0.15 0.15 0.0 0 0 234.22 255.27"
/>
<path stroke="#6d6d6d" vector-effect="non-scaling-stroke" d="
  M 180.35 252.15
  Q 180.71 257.78 179.38 263.06
  A 0.48 0.48 0.0 0 0 179.85 263.66
  L 190.61 263.66
  A 0.50 0.50 0.0 0 0 191.11 263.16
  L 191.11 251.91
  A 0.52 0.52 0.0 0 0 190.59 251.39
  L 181.06 251.39
  A 0.71 0.71 0.0 0 0 180.35 252.15"
/>
<path stroke="#808080" vector-effect="non-scaling-stroke" d="
  M 162.08 186.84
  C 160.31 188.23 162.13 192.35 163.04 193.74
  Q 167.29 200.22 173.61 203.09
  C 182.53 207.14 193.34 208.10 200.72 201.00
  Q 210.22 191.85 208.42 180.46
  C 206.69 169.59 201.34 158.68 191.60 152.42
  Q 186.76 149.31 180.68 150.56
  A 0.94 0.92 12.6 0 0 180.13 150.90
  L 179.30 152.02
  A 0.73 0.73 0.0 0 0 179.81 153.18
  Q 191.10 154.44 197.42 164.19
  Q 202.22 171.61 203.87 180.96
  C 204.64 185.30 203.91 189.02 201.64 192.70
  C 198.77 197.34 194.30 201.43 188.83 201.57
  Q 171.57 202.04 164.80 187.45
  A 1.80 1.76 -31.7 0 0 162.08 186.84"
/>
<path stroke="#808080" vector-effect="non-scaling-stroke" d="
  M 83.8404 182.5259
  A 5.35 3.39 -22.0 0 0 77.6101 181.3868
  A 5.35 3.39 -22.0 0 0 73.9196 186.5341
  A 5.35 3.39 -22.0 0 0 80.1499 187.6732
  A 5.35 3.39 -22.0 0 0 83.8404 182.5259"
/>
<path stroke="#808080" vector-effect="non-scaling-stroke" d="
  M 66.65 209.42
  A 1.10 1.09 67.7 0 0 68.43 210.17
  L 69.10 209.62
  A 1.68 1.67 84.2 0 0 69.53 209.09
  C 73.23 201.89 80.65 193.63 88.79 191.23
  Q 108.28 185.49 124.51 197.79
  Q 129.82 201.82 137.98 211.40
  A 1.75 1.75 0.0 0 0 140.74 211.29
  L 140.81 211.19
  A 2.90 2.90 0.0 0 0 140.68 207.65
  C 130.16 194.93 117.26 184.03 99.62 185.01
  C 91.12 185.48 84.22 186.53 77.66 192.41
  Q 70.00 199.26 67.60 204.84
  Q 66.47 207.47 66.65 209.42"
/>
<path stroke="#808080" vector-effect="non-scaling-stroke" d="
  M 144.16 192.74
  Q 142.06 185.51 133.95 186.46
  C 132.19 186.67 130.94 189.22 132.64 190.55
  C 135.27 192.61 141.13 197.22 143.96 193.71
  A 1.07 1.04 -34.3 0 0 144.16 192.74"
/>
<path stroke="#808080" vector-effect="non-scaling-stroke" d="
  M 103.32 195.26
  Q 103.22 194.93 103.18 194.90
  C 100.31 192.53 95.74 192.91 92.45 193.60
  A 1.67 1.65 16.3 0 0 91.58 194.07
  Q 90.44 195.25 90.86 196.88
  Q 92.10 201.67 96.41 201.55
  A 2.53 2.50 29.7 0 0 97.50 201.26
  Q 101.57 199.14 103.39 197.21
  Q 103.78 196.80 103.54 195.98
  A 6.92 0.57 69.1 0 0 103.32 195.26"
/>
<path stroke="#6d6d6d" vector-effect="non-scaling-stroke" d="
  M 33.73 169.27
  Q 33.51 169.03 33.10 168.90
  Q 28.24 167.30 23.31 168.95
  C 15.58 171.53 9.68 178.08 9.11 186.65
  Q 8.38 197.59 18.46 201.53
  Q 25.94 204.46 32.40 201.08
  Q 39.58 197.33 43.28 189.11
  Q 45.17 184.92 44.57 182.48
  Q 42.86 175.52 37.92 171.34
  Q 36.86 170.44 34.36 169.73
  A 1.41 0.52 56.5 0 1 33.73 169.27"
/>
<path stroke="#808080" vector-effect="non-scaling-stroke" d="
  M 32.20 190.71
  L 37.59 178.38
  A 1.11 1.11 0.0 0 0 37.38 177.18
  Q 29.28 168.66 19.50 175.80
  Q 13.11 180.47 12.73 188.72
  A 2.22 2.22 0.0 0 0 13.71 190.67
  C 17.97 193.52 22.47 194.24 27.25 192.36
  Q 30.14 191.22 31.67 191.10
  A 0.65 0.65 0.0 0 0 32.20 190.71"
/>
<path stroke="#808080" vector-effect="non-scaling-stroke" d="
  M 79.3256 183.1065
  A 1.21 0.95 -170.8 0 0 80.3681 184.2378
  A 1.21 0.95 -170.8 0 0 81.7144 183.4935
  A 1.21 0.95 -170.8 0 0 80.6719 182.3622
  A 1.21 0.95 -170.8 0 0 79.3256 183.1065"
/>
<path stroke="#808080" vector-effect="non-scaling-stroke" d="
  M 134.61 189.35
  Q 136.21 189.18 136.43 189.03
  A 0.77 0.61 28.5 0 0 135.93 187.85
  Q 134.43 187.57 134.13 188.81
  A 0.45 0.44 3.7 0 0 134.61 189.35"
/>
<path stroke="#808080" vector-effect="non-scaling-stroke" d="
  M 95.20 195.41
  A 1.17 1.17 0.0 0 0 94.03 194.24
  A 1.17 1.17 0.0 0 0 92.86 195.41
  A 1.17 1.17 0.0 0 0 94.03 196.58
  A 1.17 1.17 0.0 0 0 95.20 195.41"
/>
</g>
<path fill="#010101" d="
  M 240.38 235.21
  Q 242.42 247.46 238.15 257.39
  C 233.27 268.74 221.58 275.81 208.82 273.06
  C 203.78 271.98 199.44 270.87 197.00 265.95
  A 0.42 0.41 52.7 0 0 196.31 265.85
  Q 194.57 267.80 190.75 267.84
  Q 184.72 267.91 178.43 267.86
  A 1.32 1.30 -67.9 0 0 177.48 268.27
  Q 176.84 268.94 176.43 270.24
  A 0.17 0.09 -28.2 0 1 176.39 270.30
  L 172.93 274.96
  A 2.86 2.82 0.4 0 1 172.26 275.61
  Q 161.66 282.99 152.66 284.54
  Q 140.51 286.64 127.72 280.71
  C 121.41 277.78 115.83 271.07 113.25 264.53
  A 0.71 0.70 80.4 0 0 112.65 264.10
  L 61.88 260.63
  A 2.19 2.18 -64.3 0 0 60.23 261.21
  Q 52.27 268.62 40.38 271.99
  Q 33.36 272.84 27.00 272.24
  Q 19.50 271.54 14.41 265.22
  A 3.34 3.31 84.7 0 0 13.49 264.45
  Q 12.49 263.89 11.93 263.30
  C 7.19 258.25 4.34 251.70 4.49 244.75
  C 4.76 232.91 11.72 224.14 20.82 216.98
  A 4.10 4.04 83.1 0 0 22.03 215.41
  L 24.26 210.30
  A 0.42 0.42 0.0 0 0 23.87 209.71
  Q 18.28 209.84 13.62 207.22
  C 3.01 201.25 2.02 191.18 4.11 180.16
  A 2.39 2.37 -50.9 0 0 3.98 178.86
  Q 2.09 174.12 4.25 168.97
  C 9.41 156.64 18.69 150.32 30.97 144.34
  Q 39.03 140.42 52.05 137.05
  Q 57.52 135.64 57.89 135.97
  A 0.66 0.65 38.9 0 0 58.63 135.90
  L 59.74 134.95
  A 1.79 1.79 0.0 0 1 60.71 134.53
  Q 61.77 134.37 65.38 134.18
  Q 74.49 133.70 95.00 134.83
  Q 121.60 136.31 144.70 138.33
  A 1.50 1.50 0.0 0 0 146.07 137.69
  Q 156.57 122.72 147.66 106.53
  C 145.65 102.88 143.24 98.94 139.51 97.77
  C 136.54 96.85 133.46 97.55 131.14 99.81
  C 128.75 102.13 128.49 103.20 127.52 106.67
  A 1.00 1.00 0.0 0 1 126.81 107.38
  Q 125.36 107.77 124.74 107.49
  A 3.12 2.70 -75.7 0 1 123.19 104.40
  C 125.06 88.62 140.34 74.84 153.57 67.77
  Q 175.66 55.96 201.49 55.95
  C 219.24 55.94 234.57 61.07 248.06 72.77
  Q 267.72 89.81 270.23 115.02
  Q 272.28 135.69 257.15 151.88
  A 0.19 0.19 0.0 0 0 257.34 152.20
  Q 261.03 151.09 263.79 148.32
  Q 264.95 147.16 266.09 147.34
  A 2.12 2.11 -85.0 0 1 267.87 149.47
  Q 267.84 151.94 267.21 161.21
  C 266.55 170.83 264.18 177.71 259.23 185.09
  C 253.01 194.37 241.06 200.04 229.70 202.69
  Q 228.38 202.99 226.69 202.08
  A 0.94 0.94 0.0 0 0 225.38 202.53
  L 223.43 206.99
  A 1.12 1.12 0.0 0 0 223.94 208.43
  C 233.53 213.43 238.09 225.14 240.38 235.21
  Z
  M 132.02 93.37
  A 0.29 0.28 2.0 0 0 132.38 93.75
  C 138.38 91.58 144.05 93.74 147.93 98.81
  C 153.82 106.49 157.61 117.02 155.59 126.53
  Q 154.36 132.30 150.19 138.50
  A 0.30 0.29 -70.8 0 0 150.41 138.96
  C 174.96 141.09 200.29 144.43 226.51 146.73
  Q 228.51 146.91 230.95 147.66
  A 1.81 1.80 7.5 0 1 232.21 149.29
  Q 232.65 157.53 232.62 172.04
  C 232.61 176.05 233.51 179.59 233.66 182.77
  A 3.37 3.36 -34.6 0 1 233.39 184.23
  L 227.57 197.56
  A 0.43 0.42 -73.7 0 0 227.89 198.16
  Q 228.29 198.22 229.06 198.07
  C 237.71 196.39 248.43 191.25 253.98 184.27
  Q 260.33 176.27 261.98 166.46
  Q 263.04 160.16 263.10 154.83
  A 0.33 0.33 0.0 0 0 262.62 154.53
  C 259.15 156.40 251.83 158.65 249.05 155.00
  A 1.96 1.95 51.2 0 1 249.34 152.32
  C 253.96 148.45 257.50 145.34 260.27 140.41
  C 277.54 109.77 252.60 71.59 221.37 63.16
  C 191.92 55.21 152.19 65.39 133.81 90.54
  Q 132.49 92.35 132.02 93.37
  Z
  M 43.52 206.16
  C 57.30 203.72 69.42 213.06 72.78 225.99
  C 73.98 230.64 73.33 234.71 72.30 239.38
  A 0.56 0.56 0.0 0 0 72.81 240.06
  L 111.26 242.69
  A 0.93 0.92 10.2 0 0 112.21 242.03
  Q 117.14 225.47 133.48 219.76
  Q 141.74 216.88 148.04 217.76
  Q 157.90 219.13 167.80 224.38
  A 5.68 5.45 78.9 0 1 168.91 225.16
  Q 178.96 234.31 179.99 246.75
  A 0.73 0.72 -2.1 0 0 180.72 247.42
  L 189.90 247.42
  A 0.99 0.98 12.0 0 0 190.80 246.84
  Q 197.42 231.93 203.59 218.22
  C 213.98 195.15 220.99 174.48 227.87 151.36
  A 0.28 0.28 0.0 0 0 227.63 151.00
  Q 202.37 148.91 175.75 145.73
  Q 144.46 142.01 94.00 138.84
  Q 78.64 137.88 63.47 137.75
  A 1.20 1.19 13.2 0 0 62.38 138.42
  L 46.66 170.92
  A 2.00 1.99 43.0 0 0 46.73 172.77
  Q 52.30 182.36 48.19 192.50
  Q 45.80 198.38 41.71 202.02
  A 0.60 0.59 42.2 0 0 41.76 202.95
  Q 43.06 203.87 42.83 205.49
  A 0.59 0.59 0.0 0 0 43.52 206.16
  Z
  M 42.17 166.64
  Q 42.44 167.54 42.94 167.19
  Q 43.21 167.00 43.04 166.60
  Q 43.54 166.64 43.82 166.09
  Q 50.89 152.20 56.33 140.84
  A 0.17 0.16 5.8 0 0 56.14 140.61
  C 41.73 144.12 27.40 149.46 16.25 159.26
  Q 12.40 162.64 10.69 167.04
  A 0.38 0.37 82.6 0 0 11.26 167.48
  C 18.47 162.23 25.41 161.26 34.22 162.60
  Q 38.78 163.29 42.17 166.64
  Z
  M 228.42 163.10
  Q 228.11 163.91 227.24 166.76
  C 222.11 183.68 216.30 199.56 207.86 218.57
  Q 201.42 233.08 195.04 247.71
  A 2.40 2.32 -35.9 0 0 194.84 248.83
  L 195.57 258.62
  A 0.54 0.54 0.0 0 0 196.48 258.97
  Q 197.17 258.31 197.81 256.79
  Q 212.34 222.01 229.30 183.29
  A 2.58 2.53 52.1 0 0 229.47 181.81
  Q 227.95 173.17 228.75 163.18
  A 0.17 0.17 0.0 0 0 228.42 163.10
  Z
  M 34.87 167.49
  C 30.79 166.24 23.55 166.09 18.74 168.16
  C 14.40 170.02 10.78 172.33 9.38 176.40
  C 7.37 182.22 6.34 191.40 9.34 196.78
  C 12.40 202.26 18.35 205.28 24.69 205.16
  A 1.84 0.92 16.1 0 0 24.90 205.13
  L 32.27 203.18
  A 1.82 1.43 14.9 0 0 32.64 203.02
  C 41.63 197.95 47.84 188.19 44.28 177.96
  C 43.47 175.65 41.49 173.08 39.97 170.91
  A 3.72 3.70 3.2 0 0 39.34 170.21
  Q 36.90 168.11 34.87 167.49
  Z
  M 39.29 206.84
  L 38.64 205.34
  A 0.21 0.21 0.0 0 0 38.36 205.23
  L 37.43 205.63
  A 3.57 0.87 -23.3 0 0 34.49 207.84
  L 34.62 208.14
  A 3.57 0.87 -23.3 0 0 38.24 207.52
  L 39.18 207.12
  A 0.21 0.21 0.0 0 0 39.29 206.84
  Z
  M 28.43 211.68
  Q 28.71 211.96 30.68 210.38
  Q 31.31 209.87 30.75 209.32
  Q 30.20 208.77 29.70 209.41
  Q 28.15 211.41 28.43 211.68
  Z
  M 67.94 229.59
  Q 67.03 230.21 62.44 233.59
  A 1.77 1.57 -26.3 0 1 59.75 232.86
  C 59.11 230.13 64.87 226.32 66.80 225.29
  A 1.16 1.15 61.0 0 0 67.25 223.69
  L 64.43 218.80
  A 1.25 1.24 -30.9 0 0 62.70 218.37
  C 59.04 220.62 55.73 223.09 54.00 222.89
  A 1.33 1.33 0.0 0 1 53.12 220.73
  Q 55.64 217.63 60.08 215.39
  A 0.43 0.43 0.0 0 0 60.16 214.67
  C 48.76 205.58 33.40 212.76 23.51 220.75
  C 17.10 225.93 9.44 233.85 8.76 242.25
  C 7.90 252.83 13.11 261.55 22.74 265.88
  Q 30.46 269.36 39.31 267.54
  A 8.23 7.85 25.5 0 0 41.11 266.95
  Q 45.85 264.73 47.45 264.13
  C 54.00 261.66 59.13 256.41 63.57 250.74
  C 65.27 248.57 67.01 244.73 67.39 242.38
  Q 68.59 235.15 68.89 230.13
  A 0.61 0.61 0.0 0 0 67.94 229.59
  Z
  M 229.05 255.35
  L 229.10 251.23
  Q 230.81 245.88 235.98 243.95
  A 1.07 1.07 0.0 0 0 236.03 241.96
  C 228.40 238.65 221.94 233.21 220.90 224.63
  Q 220.19 218.84 222.81 213.58
  A 0.68 0.67 -65.0 0 0 222.48 212.66
  L 222.21 212.54
  A 0.79 0.78 -66.2 0 0 221.17 212.95
  L 199.56 262.43
  A 0.25 0.24 43.6 0 0 199.57 262.63
  Q 201.31 265.89 204.43 267.19
  A 2.11 1.56 53.6 0 0 204.69 267.27
  Q 207.22 267.75 209.25 268.69
  A 2.75 2.65 60.1 0 0 210.15 268.95
  Q 221.36 270.17 229.31 262.62
  Q 230.26 261.72 231.21 259.95
  A 0.75 0.73 39.4 0 0 231.12 259.12
  Q 229.62 257.33 229.05 255.35
  Z
  M 226.35 228.10
  C 228.08 231.95 231.80 234.79 235.49 236.79
  A 0.21 0.21 0.0 0 0 235.80 236.58
  Q 235.14 231.39 232.42 225.36
  Q 229.69 219.33 226.24 215.40
  A 0.21 0.21 0.0 0 0 225.88 215.50
  C 224.93 219.59 224.61 224.26 226.35 228.10
  Z
  M 154.30 279.12
  Q 155.65 279.06 156.02 278.91
  Q 161.19 276.80 168.55 272.74
  A 2.18 2.11 -83.6 0 0 169.19 272.21
  L 173.39 267.13
  A 1.92 1.88 78.1 0 0 173.67 266.69
  Q 176.86 260.32 176.10 252.33
  Q 175.98 251.03 175.48 247.09
  Q 175.02 243.44 174.50 241.85
  Q 171.57 232.82 163.47 226.64
  A 6.14 6.13 -17.1 0 0 161.62 225.66
  Q 151.59 222.38 147.46 221.98
  Q 140.31 221.29 130.60 225.61
  A 0.48 0.48 0.0 0 0 130.47 226.41
  C 132.04 227.83 135.95 231.50 135.74 233.64
  Q 135.57 235.32 134.15 235.12
  C 131.57 234.76 128.71 230.82 127.05 228.71
  A 0.92 0.92 0.0 0 0 125.64 228.66
  L 119.82 235.21
  A 1.33 1.32 -47.9 0 0 119.91 237.07
  Q 123.36 240.28 124.45 241.28
  Q 125.37 242.13 125.23 242.69
  A 2.11 1.97 15.1 0 1 122.65 244.06
  Q 119.62 243.21 118.28 241.12
  A 1.11 1.11 0.0 0 0 116.25 241.57
  Q 115.10 250.45 115.93 258.16
  Q 116.09 259.71 117.70 262.99
  A 5.31 4.99 26.5 0 1 118.06 263.96
  C 119.22 268.36 122.54 270.75 125.51 274.01
  A 3.24 3.20 84.6 0 0 126.24 274.62
  Q 131.43 277.82 138.86 279.59
  Q 139.73 279.79 142.37 280.05
  Q 146.80 280.49 153.76 279.73
  A 0.17 0.16 -73.8 0 0 153.86 279.67
  Q 154.09 279.41 154.10 279.32
  A 0.21 0.20 -88.5 0 1 154.30 279.12
  Z
  M 110.80 246.93
  L 71.76 244.26
  A 0.78 0.77 10.5 0 0 70.97 244.80
  Q 69.02 250.90 64.63 256.19
  A 0.31 0.31 0.0 0 0 64.85 256.70
  L 110.84 259.85
  A 0.31 0.30 -88.3 0 0 111.16 259.54
  L 111.16 247.31
  A 0.38 0.38 0.0 0 0 110.80 246.93
  Z
  M 234.22 255.27
  L 236.05 249.12
  A 0.15 0.15 0.0 0 0 235.95 248.94
  L 235.83 248.90
  A 3.23 1.47 -73.4 0 0 233.50 251.58
  L 233.43 251.83
  A 3.23 1.47 -73.4 0 0 233.92 255.34
  L 234.03 255.38
  A 0.15 0.15 0.0 0 0 234.22 255.27
  Z
  M 180.35 252.15
  Q 180.71 257.78 179.38 263.06
  A 0.48 0.48 0.0 0 0 179.85 263.66
  L 190.61 263.66
  A 0.50 0.50 0.0 0 0 191.11 263.16
  L 191.11 251.91
  A 0.52 0.52 0.0 0 0 190.59 251.39
  L 181.06 251.39
  A 0.71 0.71 0.0 0 0 180.35 252.15
  Z"
/>
<path fill="#ffffff" d="
  M 132.02 93.37
  Q 132.49 92.35 133.81 90.54
  C 152.19 65.39 191.92 55.21 221.37 63.16
  C 252.60 71.59 277.54 109.77 260.27 140.41
  C 257.50 145.34 253.96 148.45 249.34 152.32
  A 1.96 1.95 51.2 0 0 249.05 155.00
  C 251.83 158.65 259.15 156.40 262.62 154.53
  A 0.33 0.33 0.0 0 1 263.10 154.83
  Q 263.04 160.16 261.98 166.46
  Q 260.33 176.27 253.98 184.27
  C 248.43 191.25 237.71 196.39 229.06 198.07
  Q 228.29 198.22 227.89 198.16
  A 0.43 0.42 -73.7 0 1 227.57 197.56
  L 233.39 184.23
  A 3.37 3.36 -34.6 0 0 233.66 182.77
  C 233.51 179.59 232.61 176.05 232.62 172.04
  Q 232.65 157.53 232.21 149.29
  A 1.81 1.80 7.5 0 0 230.95 147.66
  Q 228.51 146.91 226.51 146.73
  C 200.29 144.43 174.96 141.09 150.41 138.96
  A 0.30 0.29 -70.8 0 1 150.19 138.50
  Q 154.36 132.30 155.59 126.53
  C 157.61 117.02 153.82 106.49 147.93 98.81
  C 144.05 93.74 138.38 91.58 132.38 93.75
  A 0.29 0.28 2.0 0 1 132.02 93.37
  Z"
/>
<path fill="#ffffff" d="
  M 42.83 205.49
  Q 43.06 203.87 41.76 202.95
  A 0.60 0.59 42.2 0 1 41.71 202.02
  Q 45.80 198.38 48.19 192.50
  Q 52.30 182.36 46.73 172.77
  A 2.00 1.99 43.0 0 1 46.66 170.92
  L 62.38 138.42
  A 1.20 1.19 13.2 0 1 63.47 137.75
  Q 78.64 137.88 94.00 138.84
  Q 144.46 142.01 175.75 145.73
  Q 202.37 148.91 227.63 151.00
  A 0.28 0.28 0.0 0 1 227.87 151.36
  C 220.99 174.48 213.98 195.15 203.59 218.22
  Q 197.42 231.93 190.80 246.84
  A 0.99 0.98 12.0 0 1 189.90 247.42
  L 180.72 247.42
  A 0.73 0.72 -2.1 0 1 179.99 246.75
  Q 178.96 234.31 168.91 225.16
  A 5.68 5.45 78.9 0 0 167.80 224.38
  Q 157.90 219.13 148.04 217.76
  Q 141.74 216.88 133.48 219.76
  Q 117.14 225.47 112.21 242.03
  A 0.93 0.92 10.2 0 1 111.26 242.69
  L 72.81 240.06
  A 0.56 0.56 0.0 0 1 72.30 239.38
  C 73.33 234.71 73.98 230.64 72.78 225.99
  C 69.42 213.06 57.30 203.72 43.52 206.16
  A 0.59 0.59 0.0 0 1 42.83 205.49
  Z
  M 162.08 186.84
  C 160.31 188.23 162.13 192.35 163.04 193.74
  Q 167.29 200.22 173.61 203.09
  C 182.53 207.14 193.34 208.10 200.72 201.00
  Q 210.22 191.85 208.42 180.46
  C 206.69 169.59 201.34 158.68 191.60 152.42
  Q 186.76 149.31 180.68 150.56
  A 0.94 0.92 12.6 0 0 180.13 150.90
  L 179.30 152.02
  A 0.73 0.73 0.0 0 0 179.81 153.18
  Q 191.10 154.44 197.42 164.19
  Q 202.22 171.61 203.87 180.96
  C 204.64 185.30 203.91 189.02 201.64 192.70
  C 198.77 197.34 194.30 201.43 188.83 201.57
  Q 171.57 202.04 164.80 187.45
  A 1.80 1.76 -31.7 0 0 162.08 186.84
  Z
  M 83.8404 182.5259
  A 5.35 3.39 -22.0 0 0 77.6101 181.3868
  A 5.35 3.39 -22.0 0 0 73.9196 186.5341
  A 5.35 3.39 -22.0 0 0 80.1499 187.6732
  A 5.35 3.39 -22.0 0 0 83.8404 182.5259
  Z
  M 66.65 209.42
  A 1.10 1.09 67.7 0 0 68.43 210.17
  L 69.10 209.62
  A 1.68 1.67 84.2 0 0 69.53 209.09
  C 73.23 201.89 80.65 193.63 88.79 191.23
  Q 108.28 185.49 124.51 197.79
  Q 129.82 201.82 137.98 211.40
  A 1.75 1.75 0.0 0 0 140.74 211.29
  L 140.81 211.19
  A 2.90 2.90 0.0 0 0 140.68 207.65
  C 130.16 194.93 117.26 184.03 99.62 185.01
  C 91.12 185.48 84.22 186.53 77.66 192.41
  Q 70.00 199.26 67.60 204.84
  Q 66.47 207.47 66.65 209.42
  Z
  M 144.16 192.74
  Q 142.06 185.51 133.95 186.46
  C 132.19 186.67 130.94 189.22 132.64 190.55
  C 135.27 192.61 141.13 197.22 143.96 193.71
  A 1.07 1.04 -34.3 0 0 144.16 192.74
  Z
  M 103.32 195.26
  Q 103.22 194.93 103.18 194.90
  C 100.31 192.53 95.74 192.91 92.45 193.60
  A 1.67 1.65 16.3 0 0 91.58 194.07
  Q 90.44 195.25 90.86 196.88
  Q 92.10 201.67 96.41 201.55
  A 2.53 2.50 29.7 0 0 97.50 201.26
  Q 101.57 199.14 103.39 197.21
  Q 103.78 196.80 103.54 195.98
  A 6.92 0.57 69.1 0 0 103.32 195.26
  Z"
/>
<path fill="#ffffff" d="
  M 43.04 166.60
  Q 42.64 166.51 42.17 166.64
  Q 38.78 163.29 34.22 162.60
  C 25.41 161.26 18.47 162.23 11.26 167.48
  A 0.38 0.37 82.6 0 1 10.69 167.04
  Q 12.40 162.64 16.25 159.26
  C 27.40 149.46 41.73 144.12 56.14 140.61
  A 0.17 0.16 5.8 0 1 56.33 140.84
  Q 50.89 152.20 43.82 166.09
  Q 43.54 166.64 43.04 166.60
  Z"
/>
<path fill="#010101" d="
  M 162.08 186.84
  A 1.80 1.76 -31.7 0 1 164.80 187.45
  Q 171.57 202.04 188.83 201.57
  C 194.30 201.43 198.77 197.34 201.64 192.70
  C 203.91 189.02 204.64 185.30 203.87 180.96
  Q 202.22 171.61 197.42 164.19
  Q 191.10 154.44 179.81 153.18
  A 0.73 0.73 0.0 0 1 179.30 152.02
  L 180.13 150.90
  A 0.94 0.92 12.6 0 1 180.68 150.56
  Q 186.76 149.31 191.60 152.42
  C 201.34 158.68 206.69 169.59 208.42 180.46
  Q 210.22 191.85 200.72 201.00
  C 193.34 208.10 182.53 207.14 173.61 203.09
  Q 167.29 200.22 163.04 193.74
  C 162.13 192.35 160.31 188.23 162.08 186.84
  Z"
/>
<path fill="#d9d9d9" d="
  M 228.75 163.18
  Q 227.95 173.17 229.47 181.81
  A 2.58 2.53 52.1 0 1 229.30 183.29
  Q 212.34 222.01 197.81 256.79
  Q 197.17 258.31 196.48 258.97
  A 0.54 0.54 0.0 0 1 195.57 258.62
  L 194.84 248.83
  A 2.40 2.32 -35.9 0 1 195.04 247.71
  Q 201.42 233.08 207.86 218.57
  C 216.30 199.56 222.11 183.68 227.24 166.76
  Q 228.11 163.91 228.42 163.10
  A 0.17 0.17 0.0 0 1 228.75 163.18
  Z"
/>
<path fill="#d9d9d9" d="
  M 34.87 167.49
  Q 36.90 168.11 39.34 170.21
  A 3.72 3.70 3.2 0 1 39.97 170.91
  C 41.49 173.08 43.47 175.65 44.28 177.96
  C 47.84 188.19 41.63 197.95 32.64 203.02
  A 1.82 1.43 14.9 0 1 32.27 203.18
  L 24.90 205.13
  A 1.84 0.92 16.1 0 1 24.69 205.16
  C 18.35 205.28 12.40 202.26 9.34 196.78
  C 6.34 191.40 7.37 182.22 9.38 176.40
  C 10.78 172.33 14.40 170.02 18.74 168.16
  C 23.55 166.09 30.79 166.24 34.87 167.49
  Z
  M 33.73 169.27
  Q 33.51 169.03 33.10 168.90
  Q 28.24 167.30 23.31 168.95
  C 15.58 171.53 9.68 178.08 9.11 186.65
  Q 8.38 197.59 18.46 201.53
  Q 25.94 204.46 32.40 201.08
  Q 39.58 197.33 43.28 189.11
  Q 45.17 184.92 44.57 182.48
  Q 42.86 175.52 37.92 171.34
  Q 36.86 170.44 34.36 169.73
  A 1.41 0.52 56.5 0 1 33.73 169.27
  Z"
/>
<path fill="#d9d9d9" d="
  M 43.04 166.60
  Q 43.21 167.00 42.94 167.19
  Q 42.44 167.54 42.17 166.64
  Q 42.64 166.51 43.04 166.60
  Z"
/>
<path fill="#010101" d="
  M 34.36 169.73
  Q 36.86 170.44 37.92 171.34
  Q 42.86 175.52 44.57 182.48
  Q 45.17 184.92 43.28 189.11
  Q 39.58 197.33 32.40 201.08
  Q 25.94 204.46 18.46 201.53
  Q 8.38 197.59 9.11 186.65
  C 9.68 178.08 15.58 171.53 23.31 168.95
  Q 28.24 167.30 33.10 168.90
  Q 33.51 169.03 33.73 169.27
  A 1.41 0.52 56.5 0 0 34.36 169.73
  Z
  M 32.20 190.71
  L 37.59 178.38
  A 1.11 1.11 0.0 0 0 37.38 177.18
  Q 29.28 168.66 19.50 175.80
  Q 13.11 180.47 12.73 188.72
  A 2.22 2.22 0.0 0 0 13.71 190.67
  C 17.97 193.52 22.47 194.24 27.25 192.36
  Q 30.14 191.22 31.67 191.10
  A 0.65 0.65 0.0 0 0 32.20 190.71
  Z
  M 19.01 198.20
  C 20.91 199.33 25.26 198.67 26.62 198.43
  Q 28.83 198.05 29.52 196.89
  A 0.30 0.29 3.8 0 0 29.15 196.47
  Q 24.55 198.43 19.14 197.80
  A 0.22 0.21 63.3 0 0 19.01 198.20
  Z"
/>
<path fill="#ffffff" d="
  M 31.67 191.10
  Q 30.14 191.22 27.25 192.36
  C 22.47 194.24 17.97 193.52 13.71 190.67
  A 2.22 2.22 0.0 0 1 12.73 188.72
  Q 13.11 180.47 19.50 175.80
  Q 29.28 168.66 37.38 177.18
  A 1.11 1.11 0.0 0 1 37.59 178.38
  L 32.20 190.71
  A 0.65 0.65 0.0 0 1 31.67 191.10
  Z"
/>
<path fill="#010101" d="
  M 83.8404 182.5259
  A 5.35 3.39 -22.0 0 1 80.1499 187.6732
  A 5.35 3.39 -22.0 0 1 73.9196 186.5341
  A 5.35 3.39 -22.0 0 1 77.6101 181.3868
  A 5.35 3.39 -22.0 0 1 83.8404 182.5259
  Z
  M 79.3256 183.1065
  A 1.21 0.95 -170.8 0 0 80.3681 184.2378
  A 1.21 0.95 -170.8 0 0 81.7144 183.4935
  A 1.21 0.95 -170.8 0 0 80.6719 182.3622
  A 1.21 0.95 -170.8 0 0 79.3256 183.1065
  Z"
/>
<ellipse fill="#ffffff" cx="0.00" cy="0.00" transform="translate(80.52,183.30) rotate(-170.8)" rx="1.21" ry="0.95"/>
<path fill="#010101" d="
  M 66.65 209.42
  Q 66.47 207.47 67.60 204.84
  Q 70.00 199.26 77.66 192.41
  C 84.22 186.53 91.12 185.48 99.62 185.01
  C 117.26 184.03 130.16 194.93 140.68 207.65
  A 2.90 2.90 0.0 0 1 140.81 211.19
  L 140.74 211.29
  A 1.75 1.75 0.0 0 1 137.98 211.40
  Q 129.82 201.82 124.51 197.79
  Q 108.28 185.49 88.79 191.23
  C 80.65 193.63 73.23 201.89 69.53 209.09
  A 1.68 1.67 84.2 0 1 69.10 209.62
  L 68.43 210.17
  A 1.10 1.09 67.7 0 1 66.65 209.42
  Z"
/>
<path fill="#010101" d="
  M 143.96 193.71
  C 141.13 197.22 135.27 192.61 132.64 190.55
  C 130.94 189.22 132.19 186.67 133.95 186.46
  Q 142.06 185.51 144.16 192.74
  A 1.07 1.04 -34.3 0 1 143.96 193.71
  Z
  M 134.61 189.35
  Q 136.21 189.18 136.43 189.03
  A 0.77 0.61 28.5 0 0 135.93 187.85
  Q 134.43 187.57 134.13 188.81
  A 0.45 0.44 3.7 0 0 134.61 189.35
  Z"
/>
<path fill="#ffffff" d="
  M 134.61 189.35
  A 0.45 0.44 3.7 0 1 134.13 188.81
  Q 134.43 187.57 135.93 187.85
  A 0.77 0.61 28.5 0 1 136.43 189.03
  Q 136.21 189.18 134.61 189.35
  Z"
/>
<path fill="#010101" d="
  M 103.54 195.98
  Q 103.78 196.80 103.39 197.21
  Q 101.57 199.14 97.50 201.26
  A 2.53 2.50 29.7 0 1 96.41 201.55
  Q 92.10 201.67 90.86 196.88
  Q 90.44 195.25 91.58 194.07
  A 1.67 1.65 16.3 0 1 92.45 193.60
  C 95.74 192.91 100.31 192.53 103.18 194.90
  Q 103.22 194.93 103.32 195.26
  A 6.92 0.57 69.1 0 1 103.54 195.98
  Z
  M 95.20 195.41
  A 1.17 1.17 0.0 0 0 94.03 194.24
  A 1.17 1.17 0.0 0 0 92.86 195.41
  A 1.17 1.17 0.0 0 0 94.03 196.58
  A 1.17 1.17 0.0 0 0 95.20 195.41
  Z"
/>
<circle fill="#ffffff" cx="94.03" cy="195.41" r="1.17"/>
<path fill="#ffffff" d="
  M 39.29 206.84
  A 0.21 0.21 0.0 0 1 39.18 207.12
  L 38.24 207.52
  A 3.57 0.87 -23.3 0 1 34.62 208.14
  L 34.49 207.84
  A 3.57 0.87 -23.3 0 1 37.43 205.63
  L 38.36 205.23
  A 0.21 0.21 0.0 0 1 38.64 205.34
  L 39.29 206.84
  Z"
/>
<path fill="#ffffff" d="
  M 30.75 209.32
  Q 31.31 209.87 30.68 210.38
  Q 28.71 211.96 28.43 211.68
  Q 28.15 211.41 29.70 209.41
  Q 30.20 208.77 30.75 209.32
  Z"
/>
<path fill="#ffffff" d="
  M 67.94 229.59
  A 0.61 0.61 0.0 0 1 68.89 230.13
  Q 68.59 235.15 67.39 242.38
  C 67.01 244.73 65.27 248.57 63.57 250.74
  C 59.13 256.41 54.00 261.66 47.45 264.13
  Q 45.85 264.73 41.11 266.95
  A 8.23 7.85 25.5 0 1 39.31 267.54
  Q 30.46 269.36 22.74 265.88
  C 13.11 261.55 7.90 252.83 8.76 242.25
  C 9.44 233.85 17.10 225.93 23.51 220.75
  C 33.40 212.76 48.76 205.58 60.16 214.67
  A 0.43 0.43 0.0 0 1 60.08 215.39
  Q 55.64 217.63 53.12 220.73
  A 1.33 1.33 0.0 0 0 54.00 222.89
  C 55.73 223.09 59.04 220.62 62.70 218.37
  A 1.25 1.24 -30.9 0 1 64.43 218.80
  L 67.25 223.69
  A 1.16 1.15 61.0 0 1 66.80 225.29
  C 64.87 226.32 59.11 230.13 59.75 232.86
  A 1.77 1.57 -26.3 0 0 62.44 233.59
  Q 67.03 230.21 67.94 229.59
  Z"
/>
<path fill="#ffffff" d="
  M 229.10 251.23
  Q 227.78 253.21 229.05 255.35
  Q 229.62 257.33 231.12 259.12
  A 0.75 0.73 39.4 0 1 231.21 259.95
  Q 230.26 261.72 229.31 262.62
  Q 221.36 270.17 210.15 268.95
  A 2.75 2.65 60.1 0 1 209.25 268.69
  Q 207.22 267.75 204.69 267.27
  A 2.11 1.56 53.6 0 1 204.43 267.19
  Q 201.31 265.89 199.57 262.63
  A 0.25 0.24 43.6 0 1 199.56 262.43
  L 221.17 212.95
  A 0.79 0.78 -66.2 0 1 222.21 212.54
  L 222.48 212.66
  A 0.68 0.67 -65.0 0 1 222.81 213.58
  Q 220.19 218.84 220.90 224.63
  C 221.94 233.21 228.40 238.65 236.03 241.96
  A 1.07 1.07 0.0 0 1 235.98 243.95
  Q 230.81 245.88 229.10 251.23
  Z"
/>
<path fill="#d9d9d9" d="
  M 232.42 225.36
  Q 235.14 231.39 235.80 236.58
  A 0.21 0.21 0.0 0 1 235.49 236.79
  C 231.80 234.79 228.08 231.95 226.35 228.10
  C 224.61 224.26 224.93 219.59 225.88 215.50
  A 0.21 0.21 0.0 0 1 226.24 215.40
  Q 229.69 219.33 232.42 225.36
  Z"
/>
<path fill="#ffffff" d="
  M 154.10 279.32
  Q 154.09 279.41 153.86 279.67
  A 0.17 0.16 -73.8 0 1 153.76 279.73
  Q 146.80 280.49 142.37 280.05
  Q 139.73 279.79 138.86 279.59
  Q 131.43 277.82 126.24 274.62
  A 3.24 3.20 84.6 0 1 125.51 274.01
  C 122.54 270.75 119.22 268.36 118.06 263.96
  A 5.31 4.99 26.5 0 0 117.70 262.99
  Q 116.09 259.71 115.93 258.16
  Q 115.10 250.45 116.25 241.57
  A 1.11 1.11 0.0 0 1 118.28 241.12
  Q 119.62 243.21 122.65 244.06
  A 2.11 1.97 15.1 0 0 125.23 242.69
  Q 125.37 242.13 124.45 241.28
  Q 123.36 240.28 119.91 237.07
  A 1.33 1.32 -47.9 0 1 119.82 235.21
  L 125.64 228.66
  A 0.92 0.92 0.0 0 1 127.05 228.71
  C 128.71 230.82 131.57 234.76 134.15 235.12
  Q 135.57 235.32 135.74 233.64
  C 135.95 231.50 132.04 227.83 130.47 226.41
  A 0.48 0.48 0.0 0 1 130.60 225.61
  Q 140.31 221.29 147.46 221.98
  Q 151.59 222.38 161.62 225.66
  A 6.14 6.13 -17.1 0 1 163.47 226.64
  Q 171.57 232.82 174.50 241.85
  Q 175.02 243.44 175.48 247.09
  Q 175.98 251.03 176.10 252.33
  Q 176.86 260.32 173.67 266.69
  A 1.92 1.88 78.1 0 1 173.39 267.13
  L 169.19 272.21
  A 2.18 2.11 -83.6 0 1 168.55 272.74
  Q 161.19 276.80 156.02 278.91
  Q 155.65 279.06 154.30 279.12
  A 0.21 0.20 -88.5 0 0 154.10 279.32
  Z"
/>
<path fill="#d9d9d9" d="
  M 40.38 271.99
  Q 52.27 268.62 60.23 261.21
  A 2.19 2.18 -64.3 0 1 61.88 260.63
  L 112.65 264.10
  A 0.71 0.70 80.4 0 1 113.25 264.53
  C 115.83 271.07 121.41 277.78 127.72 280.71
  Q 140.51 286.64 152.66 284.54
  Q 161.66 282.99 172.26 275.61
  A 2.86 2.82 0.4 0 0 172.93 274.96
  L 176.39 270.30
  A 0.17 0.09 -28.2 0 0 176.43 270.24
  Q 176.84 268.94 177.48 268.27
  A 1.32 1.30 -67.9 0 1 178.43 267.86
  Q 184.72 267.91 190.75 267.84
  Q 194.57 267.80 196.31 265.85
  A 0.42 0.41 52.7 0 1 197.00 265.95
  C 199.44 270.87 203.78 271.98 208.82 273.06
  C 221.58 275.81 233.27 268.74 238.15 257.39
  Q 242.42 247.46 240.38 235.21
  C 249.83 240.33 252.78 249.34 249.45 259.72
  C 247.83 264.78 239.08 271.08 235.54 273.05
  C 227.77 277.38 217.87 281.42 208.18 283.42
  C 198.57 285.42 190.59 287.42 181.76 288.09
  Q 174.67 288.62 171.43 289.09
  C 164.27 290.11 155.71 289.67 148.51 290.27
  C 134.15 291.48 119.03 290.44 104.81 289.40
  C 98.69 288.95 90.76 289.18 84.33 288.11
  C 78.83 287.20 72.93 286.14 67.05 285.21
  Q 51.59 282.77 40.38 271.99
  Z"
/>
<path fill="#d9d9d9" d="
  M 110.80 246.93
  A 0.38 0.38 0.0 0 1 111.16 247.31
  L 111.16 259.54
  A 0.31 0.30 -88.3 0 1 110.84 259.85
  L 64.85 256.70
  A 0.31 0.31 0.0 0 1 64.63 256.19
  Q 69.02 250.90 70.97 244.80
  A 0.78 0.77 10.5 0 1 71.76 244.26
  L 110.80 246.93
  Z"
/>
<path fill="#d9d9d9" d="
  M 234.22 255.27
  A 0.15 0.15 0.0 0 1 234.03 255.38
  L 233.92 255.34
  A 3.23 1.47 -73.4 0 1 233.43 251.83
  L 233.50 251.58
  A 3.23 1.47 -73.4 0 1 235.83 248.90
  L 235.95 248.94
  A 0.15 0.15 0.0 0 1 236.05 249.12
  L 234.22 255.27
  Z"
/>
<path fill="#d9d9d9" d="
  M 181.06 251.39
  L 190.59 251.39
  A 0.52 0.52 0.0 0 1 191.11 251.91
  L 191.11 263.16
  A 0.50 0.50 0.0 0 1 190.61 263.66
  L 179.85 263.66
  A 0.48 0.48 0.0 0 1 179.38 263.06
  Q 180.71 257.78 180.35 252.15
  A 0.71 0.71 0.0 0 1 181.06 251.39
  Z"
/>
<path fill="#d9d9d9" d="
  M 229.10 251.23
  L 229.05 255.35
  Q 227.78 253.21 229.10 251.23
  Z"
/>
</svg>
