<?xml version="1.0" standalone="no"?>
<!DOCTYPE svg PUBLIC "-//W3C//DTD SVG 20010904//EN"
 "http://www.w3.org/TR/2001/REC-SVG-20010904/DTD/svg10.dtd">
<svg version="1.0" xmlns="http://www.w3.org/2000/svg"
 width="300.000000pt" height="300.000000pt" viewBox="0 0 300.000000 300.000000"
 preserveAspectRatio="xMidYMid meet">

<g transform="translate(0.000000,300.000000) scale(0.100000,-0.100000)"
fill="#000000" stroke="none">
<path d="M2162 2316 c-40 -8 -98 -26 -128 -41 -69 -34 -157 -114 -196 -179
-30 -51 -30 -51 -25 -16 3 19 8 43 12 52 14 36 -26 30 -129 -21 -156 -76 -231
-168 -256 -314 -7 -37 -10 -91 -8 -122 2 -40 -1 -55 -10 -55 -7 0 -106 7 -220
16 -114 9 -295 17 -402 18 -185 1 -200 0 -295 -27 -133 -37 -307 -123 -366
-180 -26 -25 -61 -71 -79 -102 -28 -50 -32 -63 -28 -114 9 -129 83 -205 201
-206 35 0 56 -4 53 -10 -3 -5 -20 -47 -39 -93 -27 -64 -48 -97 -96 -146 -76
-80 -101 -135 -101 -224 0 -85 24 -139 87 -199 64 -61 97 -73 192 -73 93 0
139 15 226 73 l59 40 186 -12 c355 -23 326 -18 354 -66 65 -110 162 -160 311
-160 80 0 98 4 155 31 72 34 136 84 145 115 6 17 16 19 86 19 44 0 88 4 98 10
14 7 24 4 41 -15 29 -31 77 -45 158 -45 217 0 325 241 220 490 -28 66 -66 117
-104 141 l-34 21 17 29 c10 17 59 72 108 124 103 107 132 120 250 113 83 -6
128 -26 145 -68 15 -35 0 -82 -32 -104 -21 -15 -21 -47 -2 -53 18 -6 95 58
136 112 42 56 93 177 110 264 6 31 11 108 12 171 0 183 -41 342 -126 484 -143
241 -422 372 -686 322z m306 -69 c249 -87 409 -301 453 -606 14 -100 7 -262
-16 -346 -17 -62 -67 -170 -91 -195 -12 -12 -14 -12 -14 5 0 38 -39 86 -88
107 -71 33 -189 30 -262 -4 -30 -15 -70 -40 -89 -57 -36 -33 -47 -39 -35 -19
9 14 7 230 -2 325 -4 42 -11 64 -22 68 -8 3 -101 14 -206 25 -438 45 -592 61
-605 66 -11 3 -13 26 -9 107 5 123 31 187 102 258 43 43 149 109 175 109 6 0
11 -16 11 -35 0 -57 33 -107 59 -90 5 2 18 31 30 64 39 108 154 202 289 236
87 22 229 14 320 -18z m-1513 -637 c311 -20 560 -42 865 -75 173 -18 348 -37
388 -40 49 -5 72 -11 69 -19 -2 -6 -25 -78 -51 -159 -64 -200 -100 -293 -218
-559 l-101 -228 -52 0 -53 0 -7 38 c-10 53 -53 127 -96 166 -61 56 -138 81
-249 81 -84 0 -102 -3 -152 -28 -68 -33 -139 -109 -164 -172 l-17 -45 -46 5
c-42 5 -312 25 -336 25 -7 0 -9 24 -7 65 6 84 -16 144 -72 199 l-41 41 76 -3
c89 -5 163 21 204 70 21 24 28 27 45 18 22 -12 65 5 89 34 18 22 6 35 -40 42
-43 7 -52 28 -16 37 39 10 142 -10 203 -39 39 -19 86 -56 136 -106 43 -43 82
-78 88 -78 5 0 10 10 10 23 0 29 -123 151 -190 189 -64 37 -143 60 -208 62
-53 1 -56 2 -64 32 -11 43 -80 118 -131 143 -58 28 -144 28 -200 0 -92 -46
-137 -115 -144 -219 -4 -58 -2 -69 21 -103 14 -21 26 -39 26 -41 0 -7 -63 -26
-85 -26 -13 0 -48 -12 -80 -26 -31 -15 -60 -22 -65 -18 -4 5 8 43 28 84 20 41
45 98 56 125 12 28 73 155 136 282 l115 232 90 0 c50 1 158 -4 240 -9z m-395
-26 c0 -4 -44 -93 -98 -198 -54 -105 -108 -214 -120 -243 -18 -43 -28 -53 -58
-63 -44 -15 -105 -8 -140 15 -35 23 -64 90 -64 149 0 120 135 237 360 313 97
33 120 38 120 27z m1729 -353 c1 -62 -6 -80 -161 -448 -90 -210 -166 -383
-170 -383 -5 0 -8 28 -8 62 0 57 8 80 94 273 98 221 183 436 212 544 16 55 19
61 25 40 4 -13 7 -53 8 -88z m-1513 65 c54 -25 84 -52 115 -101 20 -32 24 -55
10 -55 -5 0 -12 13 -16 28 -6 30 -53 81 -93 102 -40 20 -127 14 -174 -12 -123
-67 -114 -220 15 -282 38 -19 46 -25 29 -26 -31 0 -109 46 -129 77 -22 34 -32
99 -22 138 12 41 107 131 152 144 48 14 58 13 113 -13z m21 -82 l28 -19 -25
-3 c-57 -8 -85 -72 -32 -72 15 0 37 7 49 15 16 11 24 12 29 4 4 -6 1 -15 -7
-19 -28 -16 -93 -71 -106 -90 -19 -26 -66 -26 -109 1 -42 25 -54 47 -54 94 0
49 13 71 58 95 46 25 127 22 169 -6z m18 -44 c3 -5 -1 -10 -10 -10 -9 0 -13 5
-10 10 3 6 8 10 10 10 2 0 7 -4 10 -10z m75 -130 c-18 -33 -25 -15 -9 22 9 23
15 28 17 16 2 -9 -2 -27 -8 -38z m-60 16 c0 -9 -32 -36 -42 -36 -6 0 0 9 13
20 25 21 29 23 29 16z m6 -75 c-6 -9 -90 -41 -108 -41 -20 0 -6 20 15 20 12 1
36 7 52 15 36 16 48 18 41 6z m-272 -106 c20 -10 36 -20 36 -24 0 -3 -16 -16
-35 -29 -33 -21 -47 -52 -24 -52 6 0 30 11 53 25 l43 25 17 -24 c22 -35 21
-40 -19 -70 -19 -15 -35 -36 -35 -47 0 -24 15 -24 47 1 14 11 30 20 35 20 12
0 2 -89 -18 -150 -21 -69 -110 -154 -202 -196 -95 -43 -159 -45 -237 -8 -92
43 -135 111 -135 212 0 51 5 66 38 118 62 95 176 179 282 208 62 18 103 15
154 -9z m1656 -31 c-16 -42 -11 -112 10 -155 18 -35 56 -69 116 -105 17 -10
16 -14 -19 -46 -41 -39 -48 -77 -22 -114 13 -19 11 -24 -18 -52 -75 -73 -207
-83 -272 -22 l-22 21 101 232 c56 128 105 240 109 250 3 9 11 17 16 17 7 0 7
-9 1 -26z m89 -72 c63 -124 57 -169 -12 -93 -38 42 -54 93 -43 136 9 34 21 25
55 -43z m-731 -17 c100 -30 166 -125 178 -251 8 -91 1 -130 -36 -186 -24 -36
-44 -52 -110 -83 -78 -36 -85 -37 -163 -33 -104 6 -174 35 -226 94 -51 58 -65
109 -62 237 1 59 15 74 41 42 16 -19 50 -19 50 0 0 8 -11 22 -25 31 -14 9 -25
22 -25 29 0 17 48 75 62 75 5 0 21 -13 35 -30 24 -30 63 -41 63 -18 0 6 -11
26 -25 44 -14 18 -25 35 -25 38 0 3 21 12 48 21 56 18 143 14 220 -10z m-629
-215 c74 -6 141 -10 148 -10 9 0 13 -18 13 -66 l0 -66 -37 6 c-21 3 -123 11
-228 17 -104 6 -191 13 -193 14 -2 2 7 20 21 42 13 21 27 48 31 61 7 20 12 22
59 17 29 -3 113 -10 186 -15z m1403 -55 c-2 -14 -8 -25 -13 -25 -12 0 -11 7 1
31 14 26 18 24 12 -6z m-442 -60 l0 -65 -55 0 -55 0 0 59 c0 65 1 66 78 70
l32 1 0 -65z"/>
<path d="M1801 1486 c-11 -13 -9 -16 16 -21 55 -13 81 -27 121 -68 94 -96 126
-250 70 -335 -16 -23 -43 -49 -60 -59 -82 -43 -222 -1 -275 82 -28 44 -46 55
-58 35 -11 -17 26 -79 68 -116 66 -56 191 -81 264 -53 38 14 90 65 116 114 73
139 -59 412 -209 432 -29 4 -43 1 -53 -11z"/>
<path d="M1323 1123 c-12 -32 84 -90 109 -65 16 16 -1 51 -32 67 -38 20 -69
19 -77 -2z m44 -9 c-3 -3 -12 -4 -19 -1 -8 3 -5 6 6 6 11 1 17 -2 13 -5z"/>
</g>
</svg>
