<?xml version="1.0" encoding="UTF-8" standalone="no"?>
<!DOCTYPE svg PUBLIC "-//W3C//DTD SVG 1.1//EN" "http://www.w3.org/Graphics/SVG/1.1/DTD/svg11.dtd">
<svg xmlns="http://www.w3.org/2000/svg" version="1.1" viewBox="0.00 0.00 300.00 300.00" width="300.00" height="300.00">
<g stroke-width="2.00" fill="none" stroke-linecap="butt">
<path stroke="#6d6d6d" vector-effect="non-scaling-stroke" d="
  M 240.38 235.20
  Q 242.43 247.46 238.15 257.38
  C 233.17 268.96 221.51 275.76 208.58 273.02
  C 203.79 272.00 199.10 270.71 197.07 266.00
  A 0.51 0.51 0.0 0 0 196.36 265.75
  C 195.66 266.12 195.21 266.97 194.22 267.34
  Q 193.29 267.69 191.31 267.77
  Q 186.42 267.98 178.63 267.84
  A 1.70 1.69 13.3 0 0 177.07 268.80
  Q 174.99 273.10 171.71 275.92
  Q 169.72 277.63 164.00 280.60
  Q 147.39 289.21 128.88 281.27
  C 121.70 278.19 116.35 271.76 113.27 264.54
  A 0.74 0.73 79.9 0 0 112.65 264.10
  L 61.91 260.63
  A 2.24 2.22 25.2 0 0 60.22 261.23
  Q 52.26 268.62 40.38 271.99"
/>
<path stroke="#808080" vector-effect="non-scaling-stroke" d="
  M 230.75 189.78
  C 232.42 188.22 234.65 186.28 237.01 184.14
  C 246.17 175.77 259.02 174.58 270.46 178.30
  Q 279.96 181.39 280.12 191.28
  A 0.23 0.23 0.0 0 0 280.54 191.41
  C 298.01 168.30 295.64 133.60 284.09 108.62
  Q 274.95 88.88 255.44 78.80
  C 237.69 69.62 214.25 68.84 198.22 81.03
  Q 187.48 89.19 183.81 102.48
  A 1.74 1.74 0.0 0 1 181.80 103.72
  C 176.81 102.74 176.39 94.60 177.06 90.75
  A 0.26 0.26 0.0 0 0 176.71 90.46
  C 162.31 95.98 150.59 105.35 148.28 121.79
  Q 147.05 130.52 148.27 137.69
  A 1.35 1.35 0.0 0 0 149.48 138.80
  Q 167.38 140.48 178.26 141.74
  Q 201.93 144.47 227.21 146.83
  Q 228.21 146.92 230.99 147.70
  A 1.70 1.69 6.7 0 1 232.24 149.28
  Q 232.68 161.43 232.63 173.75
  Q 232.63 175.84 233.52 181.75
  C 233.97 184.73 231.97 187.52 230.64 189.69
  A 0.07 0.07 0.0 0 0 230.75 189.78"
/>
<path stroke="#808080" vector-effect="non-scaling-stroke" d="
  M 28.55 211.60
  L 38.91 207.25
  A 1.87 1.78 -72.9 0 0 39.34 207.01
  Q 41.67 205.35 42.92 205.69
  C 45.77 206.47 49.77 204.55 51.93 203.61
  A 0.47 0.47 0.0 0 0 52.06 202.84
  Q 45.21 196.52 47.03 186.97
  Q 47.50 184.48 48.72 180.72
  Q 50.05 176.60 51.90 174.40
  Q 55.24 170.42 59.14 168.09
  Q 63.24 165.64 68.19 164.96
  Q 80.13 163.34 89.07 172.55
  Q 94.55 178.20 95.77 184.74
  A 0.60 0.59 -8.7 0 0 96.43 185.22
  Q 100.33 184.73 104.51 184.52
  C 105.47 184.48 106.17 185.09 107.07 185.25
  C 121.49 187.85 130.47 195.77 140.53 207.37
  A 3.36 3.36 0.0 0 1 140.92 211.23
  L 140.91 211.26
  A 1.72 1.72 0.0 0 1 138.06 211.49
  C 129.90 201.23 120.21 192.52 107.17 189.91
  Q 103.70 189.22 95.68 189.70
  A 0.73 0.72 -0.0 0 0 95.00 190.37
  L 94.84 192.71
  A 0.49 0.49 0.0 0 0 95.39 193.23
  Q 99.70 192.70 102.99 194.65
  A 1.63 1.63 0.0 0 1 103.30 197.22
  C 100.32 200.13 95.81 203.63 92.21 199.74
  A 0.41 0.40 -62.0 0 0 91.51 199.96
  Q 91.49 200.06 91.44 200.27
  A 1.52 1.41 -21.8 0 1 91.17 200.84
  C 84.08 210.13 72.25 212.16 61.46 208.94
  A 0.31 0.31 0.0 0 0 61.18 209.49
  C 70.97 216.78 75.68 227.19 72.25 239.31
  A 0.59 0.59 0.0 0 0 72.78 240.06
  L 111.23 242.69
  A 0.88 0.87 10.9 0 0 112.13 242.09
  Q 118.88 221.26 141.16 217.85
  C 149.66 216.55 160.11 220.33 167.36 224.09
  A 7.66 7.64 -10.1 0 1 168.94 225.19
  Q 178.93 234.27 179.99 246.72
  A 0.77 0.77 0.0 0 0 180.76 247.42
  L 189.79 247.42
  A 1.22 1.21 11.9 0 0 190.90 246.70
  Q 195.85 235.30 201.01 223.95
  Q 208.62 207.21 210.99 201.19
  Q 220.26 177.68 227.82 151.34
  A 0.37 0.36 -81.4 0 0 227.48 150.87
  Q 222.96 150.72 218.96 150.33
  Q 194.29 147.90 167.50 144.83
  Q 140.46 141.73 92.25 138.75
  Q 77.25 137.82 63.56 137.74
  A 1.31 1.28 -76.6 0 0 62.38 138.48
  L 45.21 173.83
  A 3.41 3.31 77.8 0 1 44.76 174.55
  C 43.02 176.73 42.42 179.26 40.96 181.55
  Q 37.96 186.29 35.95 193.43
  A 1.07 0.66 76.7 0 1 35.90 193.58
  L 28.72 208.36
  A 2.84 2.82 48.6 0 0 28.59 210.54
  Q 28.78 211.14 28.49 211.52
  A 0.05 0.05 0.0 0 0 28.55 211.60"
/>
<path stroke="#808080" vector-effect="non-scaling-stroke" d="
  M 7.80 176.73
  Q 8.48 192.44 23.81 193.21
  A 2.53 2.51 37.6 0 0 24.67 193.10
  L 31.41 191.11
  A 1.27 1.24 -85.4 0 0 32.19 190.43
  Q 36.46 181.07 38.23 176.52
  C 39.06 174.38 40.38 172.96 40.95 171.04
  C 41.50 169.18 43.32 167.16 44.11 165.62
  Q 50.41 153.26 56.32 140.84
  A 0.17 0.16 6.0 0 0 56.13 140.61
  C 44.57 143.33 33.97 147.26 23.13 153.88
  Q 15.87 158.32 11.36 165.19
  C 8.79 169.09 7.21 171.40 7.99 175.67"
/>
<path stroke="#6d6d6d" vector-effect="non-scaling-stroke" d="
  M 228.42 163.29
  Q 218.55 194.77 210.93 211.69
  Q 205.02 224.80 195.09 247.64
  A 3.62 3.62 0.0 0 0 194.84 249.59
  Q 195.73 255.60 195.07 260.25
  A 0.34 0.34 0.0 0 0 195.68 260.50
  Q 197.01 258.70 198.18 255.90
  Q 212.74 221.03 229.17 183.61
  A 3.26 3.21 -37.5 0 0 229.41 181.89
  Q 228.02 172.13 228.65 163.33
  A 0.12 0.12 0.0 0 0 228.42 163.29"
/>
<path stroke="#808080" vector-effect="non-scaling-stroke" d="
  M 51.09 183.34
  Q 48.57 193.62 56.29 200.59
  A 0.73 0.63 75.8 0 0 56.49 200.73
  L 59.22 202.05
  A 0.28 0.10 19.3 0 1 59.27 202.09
  C 63.63 205.62 65.93 205.08 70.66 205.47
  C 74.91 205.82 78.80 204.72 82.21 202.91
  A 3.60 3.56 9.3 0 0 83.01 202.34
  Q 87.55 198.10 88.43 196.69
  Q 91.28 192.14 90.86 184.16
  A 3.27 3.17 -60.1 0 0 90.57 183.02
  Q 85.02 170.96 71.80 168.66
  C 66.18 167.68 60.84 171.99 56.97 175.43
  Q 52.80 179.13 51.41 182.37
  A 6.25 6.00 64.4 0 0 51.09 183.34"
/>
<path stroke="#808080" vector-effect="non-scaling-stroke" d="
  M 94.30 196.63
  Q 95.08 196.09 95.15 195.45
  A 0.75 0.60 68.8 0 0 94.00 194.78
  Q 93.89 194.99 93.78 196.33
  A 0.33 0.33 0.0 0 0 94.30 196.63"
/>
<path stroke="#6d6d6d" vector-effect="non-scaling-stroke" d="
  M 55.97 207.04
  Q 55.98 207.40 56.52 207.49
  A 0.19 0.18 -57.2 0 0 56.65 207.46
  Q 56.93 207.30 56.64 207.01
  A 0.43 0.28 30.4 0 0 55.97 207.04"
/>
<path stroke="#808080" vector-effect="non-scaling-stroke" d="
  M 67.93 229.61
  Q 66.35 230.70 62.39 233.62
  A 1.72 1.58 -25.3 0 1 59.74 232.80
  C 59.14 230.04 65.40 225.93 66.88 225.26
  A 1.02 1.02 0.0 0 0 67.34 223.83
  L 64.37 218.70
  A 1.13 1.12 -30.5 0 0 62.81 218.30
  L 56.15 222.39
  A 2.10 1.98 22.3 0 1 55.50 222.64
  L 54.24 222.89
  A 1.21 1.20 8.5 0 1 52.94 221.14
  C 54.40 218.45 58.60 216.29 60.03 215.29
  A 0.45 0.45 0.0 0 0 60.04 214.56
  C 51.05 207.67 41.28 210.31 32.05 215.07
  Q 23.75 219.35 15.78 228.22
  Q 10.15 234.50 9.17 240.06
  Q 7.64 248.80 11.32 255.55
  Q 15.17 262.59 23.01 266.01
  Q 30.56 269.30 39.27 267.56
  A 8.43 8.11 -62.0 0 0 41.07 266.97
  Q 46.16 264.61 46.75 264.39
  C 54.08 261.78 60.28 255.60 64.60 249.11
  Q 66.74 245.89 67.37 242.39
  Q 68.51 236.00 68.89 230.16
  A 0.62 0.62 0.0 0 0 67.93 229.61"
/>
<path stroke="#6d6d6d" vector-effect="non-scaling-stroke" d="
  M 207.39 268.11
  Q 212.73 270.49 218.62 268.41"
/>
<path stroke="#808080" vector-effect="non-scaling-stroke" d="
  M 218.62 268.41
  Q 226.71 266.72 231.06 260.20
  A 0.83 0.82 -42.5 0 0 231.10 259.36
  L 229.01 255.37"
/>
<path stroke="#6d6d6d" vector-effect="non-scaling-stroke" d="
  M 229.01 255.37
  L 229.12 251.17"
/>
<path stroke="#808080" vector-effect="non-scaling-stroke" d="
  M 229.12 251.17
  Q 230.84 245.86 236.00 243.94
  A 1.03 1.03 0.0 0 0 236.09 242.04
  C 229.05 238.68 222.84 234.29 221.14 226.19
  Q 219.80 219.84 222.81 213.60
  A 0.68 0.67 26.0 0 0 222.49 212.70
  L 221.98 212.46
  A 0.75 0.75 0.0 0 0 220.96 212.85
  Q 210.96 237.52 199.58 261.80
  A 1.02 0.99 44.0 0 0 199.61 262.70
  Q 202.10 267.21 207.39 268.11"
/>
<path stroke="#ececec" vector-effect="non-scaling-stroke" d="
  M 229.12 251.17
  Q 227.81 253.16 229.01 255.37"
/>
<path stroke="#ececec" vector-effect="non-scaling-stroke" d="
  M 218.62 268.41
  L 213.70 268.61
  A 4.21 4.01 -39.3 0 1 212.89 268.55
  Q 210.15 268.03 207.39 268.11"
/>
<path stroke="#6d6d6d" vector-effect="non-scaling-stroke" d="
  M 235.82 236.25
  Q 233.57 224.39 226.58 215.80
  A 0.42 0.42 0.0 0 0 225.85 215.96
  C 224.08 222.43 225.15 229.23 230.78 233.59
  Q 233.99 236.08 235.31 236.65
  A 0.37 0.36 6.2 0 0 235.82 236.25"
/>
<path stroke="#808080" vector-effect="non-scaling-stroke" d="
  M 154.11 279.38
  Q 158.83 278.14 168.60 272.69
  A 1.33 1.27 -84.2 0 0 169.01 272.34
  L 173.49 266.32
  A 1.98 1.88 77.2 0 0 173.68 266.00
  Q 177.24 257.72 176.02 250.76
  Q 175.62 248.49 175.36 246.56
  Q 174.87 243.00 174.67 242.34
  Q 171.68 232.78 163.39 226.61
  A 5.18 5.04 -15.7 0 0 162.08 225.90
  Q 155.39 223.48 149.81 222.32
  C 143.49 221.02 135.95 222.91 130.33 225.79
  A 0.27 0.26 -39.1 0 0 130.28 226.23
  C 131.90 227.62 136.15 231.52 135.66 234.12
  A 1.42 1.32 11.4 0 1 133.99 235.14
  C 131.49 234.61 128.62 230.73 127.06 228.71
  A 0.93 0.92 -43.2 0 0 125.64 228.67
  L 119.83 235.20
  A 1.34 1.32 -47.5 0 0 119.90 237.05
  Q 122.78 239.78 124.20 241.03
  Q 125.21 241.92 125.19 242.49
  A 1.82 1.72 6.1 0 1 123.08 244.10
  Q 119.99 243.59 118.28 241.07
  A 1.11 1.10 31.5 0 0 116.27 241.55
  Q 115.18 249.83 115.84 257.90
  A 4.84 4.74 -58.5 0 0 116.12 259.12
  L 119.01 266.64
  A 4.33 4.25 -77.6 0 0 119.87 268.01
  L 125.93 274.40
  A 1.98 1.78 -3.1 0 0 126.24 274.65
  Q 131.83 278.05 138.79 279.47
  Q 139.12 279.54 142.24 279.96
  Q 148.64 280.82 154.11 279.38"
/>
<path stroke="#6d6d6d" vector-effect="non-scaling-stroke" d="
  M 64.77 256.70
  L 110.52 259.83
  A 0.60 0.59 -87.8 0 0 111.16 259.23
  L 111.16 247.50
  A 0.59 0.59 0.0 0 0 110.61 246.91
  L 71.41 244.23
  A 0.36 0.36 0.0 0 0 71.04 244.49
  Q 69.14 250.80 64.56 256.22
  A 0.30 0.29 21.8 0 0 64.77 256.70"
/>
<path stroke="#6d6d6d" vector-effect="non-scaling-stroke" d="
  M 234.22 255.27
  L 236.05 249.12
  A 0.15 0.15 0.0 0 0 235.95 248.94
  L 235.83 248.90
  A 3.23 1.47 -73.4 0 0 233.50 251.58
  L 233.43 251.83
  A 3.23 1.47 -73.4 0 0 233.92 255.34
  L 234.03 255.38
  A 0.15 0.15 0.0 0 0 234.22 255.27"
/>
<path stroke="#6d6d6d" vector-effect="non-scaling-stroke" d="
  M 180.16 263.55
  L 190.86 263.77
  A 0.23 0.23 0.0 0 0 191.09 263.55
  L 191.28 254.69
  A 3.23 1.55 -88.8 0 0 189.80 251.43
  L 181.74 251.26
  A 3.23 1.55 -88.8 0 0 180.12 254.45
  L 179.94 263.31
  A 0.23 0.23 0.0 0 0 180.16 263.55"
/>
<path stroke="#808080" vector-effect="non-scaling-stroke" d="
  M 162.07 186.85
  C 160.31 188.21 162.14 192.41 163.04 193.75
  C 169.00 202.72 179.29 206.92 189.54 206.12
  C 199.25 205.35 207.39 195.79 208.56 186.52
  C 209.38 179.94 206.44 171.51 203.59 165.79
  C 199.56 157.68 190.16 147.83 180.42 150.74
  A 1.59 1.59 0.0 0 0 179.66 153.30
  Q 179.67 153.31 180.83 153.43
  C 190.49 154.40 197.03 161.63 200.70 170.31
  C 202.88 175.44 205.39 183.12 203.45 188.79
  C 201.02 195.89 194.95 201.89 186.96 201.62
  Q 170.98 201.07 164.84 187.48
  A 1.85 1.78 -31.1 0 0 162.07 186.85"
/>
<path stroke="#808080" vector-effect="non-scaling-stroke" d="
  M 144.20 192.50
  Q 141.63 185.45 133.96 186.45
  A 2.63 2.48 84.2 0 0 131.83 189.23
  Q 131.89 190.09 133.11 190.94
  C 136.23 193.10 141.07 197.08 143.97 193.73
  A 1.23 1.22 -34.7 0 0 144.20 192.50"
/>
<path stroke="#808080" vector-effect="non-scaling-stroke" d="
  M 54.17 181.86
  Q 53.84 182.33 53.77 182.58
  Q 52.47 187.71 53.73 192.54
  A 2.00 1.85 -69.4 0 0 53.95 193.08
  L 57.22 198.60
  A 0.16 0.08 26.6 0 0 57.25 198.64
  Q 61.90 203.08 67.30 203.86
  A 5.76 5.54 46.1 0 0 68.36 203.90
  Q 71.76 203.71 72.98 203.76
  C 77.60 203.95 81.39 202.58 85.10 199.80
  A 3.35 3.25 -2.9 0 0 85.90 198.94
  Q 90.25 192.11 89.00 184.56
  C 88.00 178.51 82.51 173.55 76.86 172.16
  Q 63.44 168.87 54.64 180.21
  A 1.25 1.20 65.0 0 0 54.38 180.97
  Q 54.37 180.99 54.38 181.12
  A 1.21 1.17 61.8 0 1 54.17 181.86"
/>
<path stroke="#808080" vector-effect="non-scaling-stroke" d="
  M 84.51 184.52
  A 0.21 0.21 0.0 0 0 84.14 184.39
  Q 81.07 188.30 76.78 188.19
  Q 75.06 188.15 74.41 187.41
  Q 73.25 186.10 73.97 184.87
  Q 77.16 179.43 82.15 181.07
  A 0.30 0.30 0.0 0 0 82.44 180.57
  C 75.15 173.95 64.17 174.21 57.76 182.20
  A 3.27 3.15 -17.4 0 0 57.22 183.19
  Q 55.56 188.18 57.79 193.25
  A 1.82 1.82 0.0 0 0 58.32 193.94
  L 62.53 197.25
  A 2.06 1.86 -9.3 0 0 62.95 197.52
  Q 66.19 199.13 69.47 199.27
  A 3.36 3.35 20.7 0 0 72.21 198.04
  Q 77.38 191.71 84.36 188.03
  A 0.28 0.27 -15.0 0 0 84.51 187.79
  L 84.51 184.52"
/>
<path stroke="#808080" vector-effect="non-scaling-stroke" d="
  M 79.3475 183.1057
  A 1.20 0.93 -170.2 0 0 80.3717 184.2264
  A 1.20 0.93 -170.2 0 0 81.7125 183.5143
  A 1.20 0.93 -170.2 0 0 80.6883 182.3936
  A 1.20 0.93 -170.2 0 0 79.3475 183.1057"
/>
<path stroke="#808080" vector-effect="non-scaling-stroke" d="
  M 82.35 194.03
  L 77.24 198.40
  A 0.14 0.14 0.0 0 0 77.23 198.59
  L 77.27 198.65
  A 3.34 1.15 -40.5 0 0 80.56 197.35
  L 80.80 197.14
  A 3.34 1.15 -40.5 0 0 82.60 194.10
  L 82.55 194.05
  A 0.14 0.14 0.0 0 0 82.35 194.03"
/>
<path stroke="#808080" vector-effect="non-scaling-stroke" d="
  M 134.59 189.34
  Q 136.24 189.18 136.43 189.06
  A 0.81 0.63 28.5 0 0 135.89 187.83
  Q 134.49 187.57 134.13 188.78
  A 0.44 0.44 0.0 0 0 134.59 189.34"
/>
</g>
<path fill="#010101" d="
  M 240.38 235.20
  Q 242.43 247.46 238.15 257.38
  C 233.17 268.96 221.51 275.76 208.58 273.02
  C 203.79 272.00 199.10 270.71 197.07 266.00
  A 0.51 0.51 0.0 0 0 196.36 265.75
  C 195.66 266.12 195.21 266.97 194.22 267.34
  Q 193.29 267.69 191.31 267.77
  Q 186.42 267.98 178.63 267.84
  A 1.70 1.69 13.3 0 0 177.07 268.80
  Q 174.99 273.10 171.71 275.92
  Q 169.72 277.63 164.00 280.60
  Q 147.39 289.21 128.88 281.27
  C 121.70 278.19 116.35 271.76 113.27 264.54
  A 0.74 0.73 79.9 0 0 112.65 264.10
  L 61.91 260.63
  A 2.24 2.22 25.2 0 0 60.22 261.23
  Q 52.26 268.62 40.38 271.99
  Q 33.08 272.88 26.75 272.22
  Q 19.39 271.45 14.25 265.04
  A 2.62 2.51 -4.8 0 0 13.42 264.37
  Q 12.24 263.75 11.63 263.05
  C -2.07 247.11 5.51 228.78 20.25 217.49
  C 22.32 215.91 21.88 214.45 22.60 212.53
  Q 25.19 205.61 29.39 197.10
  A 0.30 0.30 0.0 0 0 29.02 196.69
  C 20.85 199.56 9.63 195.94 5.92 187.89
  C 2.94 181.41 1.00 171.81 5.88 165.59
  C 7.50 163.53 8.54 160.69 10.67 158.37
  Q 15.94 152.67 22.73 148.72
  Q 38.58 139.48 57.46 135.89
  A 0.45 0.43 55.5 0 1 57.78 135.96
  Q 58.43 136.42 59.44 135.17
  A 1.45 1.40 -73.8 0 1 60.32 134.67
  Q 64.19 134.07 65.38 134.07
  Q 85.16 134.15 94.50 134.74
  Q 123.81 136.60 143.05 138.17
  A 0.63 0.63 0.0 0 0 143.72 137.43
  Q 142.83 132.39 143.08 126.79
  Q 143.97 107.14 157.95 95.72
  C 164.23 90.59 172.65 87.16 179.48 84.22
  Q 180.68 83.71 181.43 84.04
  A 2.31 2.30 -65.6 0 1 182.58 87.13
  Q 180.99 90.53 181.07 94.45
  A 0.40 0.40 0.0 0 0 181.85 94.59
  Q 184.51 87.96 189.22 82.99
  C 197.77 74.00 207.25 69.73 219.28 67.89
  C 245.80 63.84 274.42 79.27 286.53 103.24
  Q 300.60 131.10 296.92 161.57
  C 295.08 176.73 287.74 195.00 273.90 203.14
  A 3.15 3.15 0.0 0 1 270.25 202.81
  L 270.12 202.70
  A 1.87 1.86 47.1 0 1 270.22 199.78
  Q 275.29 196.02 275.61 192.13
  C 276.21 184.95 270.85 182.27 264.68 181.36
  Q 253.70 179.74 246.08 183.05
  Q 240.66 185.40 235.74 192.14
  A 0.63 0.58 87.8 0 1 235.62 192.28
  L 232.18 195.19
  A 0.88 0.84 -18.1 0 0 231.89 195.73
  Q 231.78 196.62 230.05 198.05
  A 3.04 2.98 89.4 0 0 229.60 198.52
  Q 227.79 200.91 224.62 204.86
  Q 223.62 206.12 223.43 207.53
  A 0.77 0.75 19.1 0 0 223.82 208.31
  C 233.67 213.74 238.02 224.70 240.38 235.20
  Z
  M 230.75 189.78
  C 232.42 188.22 234.65 186.28 237.01 184.14
  C 246.17 175.77 259.02 174.58 270.46 178.30
  Q 279.96 181.39 280.12 191.28
  A 0.23 0.23 0.0 0 0 280.54 191.41
  C 298.01 168.30 295.64 133.60 284.09 108.62
  Q 274.95 88.88 255.44 78.80
  C 237.69 69.62 214.25 68.84 198.22 81.03
  Q 187.48 89.19 183.81 102.48
  A 1.74 1.74 0.0 0 1 181.80 103.72
  C 176.81 102.74 176.39 94.60 177.06 90.75
  A 0.26 0.26 0.0 0 0 176.71 90.46
  C 162.31 95.98 150.59 105.35 148.28 121.79
  Q 147.05 130.52 148.27 137.69
  A 1.35 1.35 0.0 0 0 149.48 138.80
  Q 167.38 140.48 178.26 141.74
  Q 201.93 144.47 227.21 146.83
  Q 228.21 146.92 230.99 147.70
  A 1.70 1.69 6.7 0 1 232.24 149.28
  Q 232.68 161.43 232.63 173.75
  Q 232.63 175.84 233.52 181.75
  C 233.97 184.73 231.97 187.52 230.64 189.69
  A 0.07 0.07 0.0 0 0 230.75 189.78
  Z
  M 28.55 211.60
  L 38.91 207.25
  A 1.87 1.78 -72.9 0 0 39.34 207.01
  Q 41.67 205.35 42.92 205.69
  C 45.77 206.47 49.77 204.55 51.93 203.61
  A 0.47 0.47 0.0 0 0 52.06 202.84
  Q 45.21 196.52 47.03 186.97
  Q 47.50 184.48 48.72 180.72
  Q 50.05 176.60 51.90 174.40
  Q 55.24 170.42 59.14 168.09
  Q 63.24 165.64 68.19 164.96
  Q 80.13 163.34 89.07 172.55
  Q 94.55 178.20 95.77 184.74
  A 0.60 0.59 -8.7 0 0 96.43 185.22
  Q 100.33 184.73 104.51 184.52
  C 105.47 184.48 106.17 185.09 107.07 185.25
  C 121.49 187.85 130.47 195.77 140.53 207.37
  A 3.36 3.36 0.0 0 1 140.92 211.23
  L 140.91 211.26
  A 1.72 1.72 0.0 0 1 138.06 211.49
  C 129.90 201.23 120.21 192.52 107.17 189.91
  Q 103.70 189.22 95.68 189.70
  A 0.73 0.72 -0.0 0 0 95.00 190.37
  L 94.84 192.71
  A 0.49 0.49 0.0 0 0 95.39 193.23
  Q 99.70 192.70 102.99 194.65
  A 1.63 1.63 0.0 0 1 103.30 197.22
  C 100.32 200.13 95.81 203.63 92.21 199.74
  A 0.41 0.40 -62.0 0 0 91.51 199.96
  Q 91.49 200.06 91.44 200.27
  A 1.52 1.41 -21.8 0 1 91.17 200.84
  C 84.08 210.13 72.25 212.16 61.46 208.94
  A 0.31 0.31 0.0 0 0 61.18 209.49
  C 70.97 216.78 75.68 227.19 72.25 239.31
  A 0.59 0.59 0.0 0 0 72.78 240.06
  L 111.23 242.69
  A 0.88 0.87 10.9 0 0 112.13 242.09
  Q 118.88 221.26 141.16 217.85
  C 149.66 216.55 160.11 220.33 167.36 224.09
  A 7.66 7.64 -10.1 0 1 168.94 225.19
  Q 178.93 234.27 179.99 246.72
  A 0.77 0.77 0.0 0 0 180.76 247.42
  L 189.79 247.42
  A 1.22 1.21 11.9 0 0 190.90 246.70
  Q 195.85 235.30 201.01 223.95
  Q 208.62 207.21 210.99 201.19
  Q 220.26 177.68 227.82 151.34
  A 0.37 0.36 -81.4 0 0 227.48 150.87
  Q 222.96 150.72 218.96 150.33
  Q 194.29 147.90 167.50 144.83
  Q 140.46 141.73 92.25 138.75
  Q 77.25 137.82 63.56 137.74
  A 1.31 1.28 -76.6 0 0 62.38 138.48
  L 45.21 173.83
  A 3.41 3.31 77.8 0 1 44.76 174.55
  C 43.02 176.73 42.42 179.26 40.96 181.55
  Q 37.96 186.29 35.95 193.43
  A 1.07 0.66 76.7 0 1 35.90 193.58
  L 28.72 208.36
  A 2.84 2.82 48.6 0 0 28.59 210.54
  Q 28.78 211.14 28.49 211.52
  A 0.05 0.05 0.0 0 0 28.55 211.60
  Z
  M 7.99 175.67
  Q 7.26 175.96 7.80 176.73
  Q 8.48 192.44 23.81 193.21
  A 2.53 2.51 37.6 0 0 24.67 193.10
  L 31.41 191.11
  A 1.27 1.24 -85.4 0 0 32.19 190.43
  Q 36.46 181.07 38.23 176.52
  C 39.06 174.38 40.38 172.96 40.95 171.04
  C 41.50 169.18 43.32 167.16 44.11 165.62
  Q 50.41 153.26 56.32 140.84
  A 0.17 0.16 6.0 0 0 56.13 140.61
  C 44.57 143.33 33.97 147.26 23.13 153.88
  Q 15.87 158.32 11.36 165.19
  C 8.79 169.09 7.21 171.40 7.99 175.67
  Z
  M 228.42 163.29
  Q 218.55 194.77 210.93 211.69
  Q 205.02 224.80 195.09 247.64
  A 3.62 3.62 0.0 0 0 194.84 249.59
  Q 195.73 255.60 195.07 260.25
  A 0.34 0.34 0.0 0 0 195.68 260.50
  Q 197.01 258.70 198.18 255.90
  Q 212.74 221.03 229.17 183.61
  A 3.26 3.21 -37.5 0 0 229.41 181.89
  Q 228.02 172.13 228.65 163.33
  A 0.12 0.12 0.0 0 0 228.42 163.29
  Z
  M 51.09 183.34
  Q 48.57 193.62 56.29 200.59
  A 0.73 0.63 75.8 0 0 56.49 200.73
  L 59.22 202.05
  A 0.28 0.10 19.3 0 1 59.27 202.09
  C 63.63 205.62 65.93 205.08 70.66 205.47
  C 74.91 205.82 78.80 204.72 82.21 202.91
  A 3.60 3.56 9.3 0 0 83.01 202.34
  Q 87.55 198.10 88.43 196.69
  Q 91.28 192.14 90.86 184.16
  A 3.27 3.17 -60.1 0 0 90.57 183.02
  Q 85.02 170.96 71.80 168.66
  C 66.18 167.68 60.84 171.99 56.97 175.43
  Q 52.80 179.13 51.41 182.37
  A 6.25 6.00 64.4 0 0 51.09 183.34
  Z
  M 94.30 196.63
  Q 95.08 196.09 95.15 195.45
  A 0.75 0.60 68.8 0 0 94.00 194.78
  Q 93.89 194.99 93.78 196.33
  A 0.33 0.33 0.0 0 0 94.30 196.63
  Z
  M 55.97 207.04
  Q 55.98 207.40 56.52 207.49
  A 0.19 0.18 -57.2 0 0 56.65 207.46
  Q 56.93 207.30 56.64 207.01
  A 0.43 0.28 30.4 0 0 55.97 207.04
  Z
  M 67.93 229.61
  Q 66.35 230.70 62.39 233.62
  A 1.72 1.58 -25.3 0 1 59.74 232.80
  C 59.14 230.04 65.40 225.93 66.88 225.26
  A 1.02 1.02 0.0 0 0 67.34 223.83
  L 64.37 218.70
  A 1.13 1.12 -30.5 0 0 62.81 218.30
  L 56.15 222.39
  A 2.10 1.98 22.3 0 1 55.50 222.64
  L 54.24 222.89
  A 1.21 1.20 8.5 0 1 52.94 221.14
  C 54.40 218.45 58.60 216.29 60.03 215.29
  A 0.45 0.45 0.0 0 0 60.04 214.56
  C 51.05 207.67 41.28 210.31 32.05 215.07
  Q 23.75 219.35 15.78 228.22
  Q 10.15 234.50 9.17 240.06
  Q 7.64 248.80 11.32 255.55
  Q 15.17 262.59 23.01 266.01
  Q 30.56 269.30 39.27 267.56
  A 8.43 8.11 -62.0 0 0 41.07 266.97
  Q 46.16 264.61 46.75 264.39
  C 54.08 261.78 60.28 255.60 64.60 249.11
  Q 66.74 245.89 67.37 242.39
  Q 68.51 236.00 68.89 230.16
  A 0.62 0.62 0.0 0 0 67.93 229.61
  Z
  M 207.39 268.11
  Q 212.73 270.49 218.62 268.41
  Q 226.71 266.72 231.06 260.20
  A 0.83 0.82 -42.5 0 0 231.10 259.36
  L 229.01 255.37
  L 229.12 251.17
  Q 230.84 245.86 236.00 243.94
  A 1.03 1.03 0.0 0 0 236.09 242.04
  C 229.05 238.68 222.84 234.29 221.14 226.19
  Q 219.80 219.84 222.81 213.60
  A 0.68 0.67 26.0 0 0 222.49 212.70
  L 221.98 212.46
  A 0.75 0.75 0.0 0 0 220.96 212.85
  Q 210.96 237.52 199.58 261.80
  A 1.02 0.99 44.0 0 0 199.61 262.70
  Q 202.10 267.21 207.39 268.11
  Z
  M 235.82 236.25
  Q 233.57 224.39 226.58 215.80
  A 0.42 0.42 0.0 0 0 225.85 215.96
  C 224.08 222.43 225.15 229.23 230.78 233.59
  Q 233.99 236.08 235.31 236.65
  A 0.37 0.36 6.2 0 0 235.82 236.25
  Z
  M 154.11 279.38
  Q 158.83 278.14 168.60 272.69
  A 1.33 1.27 -84.2 0 0 169.01 272.34
  L 173.49 266.32
  A 1.98 1.88 77.2 0 0 173.68 266.00
  Q 177.24 257.72 176.02 250.76
  Q 175.62 248.49 175.36 246.56
  Q 174.87 243.00 174.67 242.34
  Q 171.68 232.78 163.39 226.61
  A 5.18 5.04 -15.7 0 0 162.08 225.90
  Q 155.39 223.48 149.81 222.32
  C 143.49 221.02 135.95 222.91 130.33 225.79
  A 0.27 0.26 -39.1 0 0 130.28 226.23
  C 131.90 227.62 136.15 231.52 135.66 234.12
  A 1.42 1.32 11.4 0 1 133.99 235.14
  C 131.49 234.61 128.62 230.73 127.06 228.71
  A 0.93 0.92 -43.2 0 0 125.64 228.67
  L 119.83 235.20
  A 1.34 1.32 -47.5 0 0 119.90 237.05
  Q 122.78 239.78 124.20 241.03
  Q 125.21 241.92 125.19 242.49
  A 1.82 1.72 6.1 0 1 123.08 244.10
  Q 119.99 243.59 118.28 241.07
  A 1.11 1.10 31.5 0 0 116.27 241.55
  Q 115.18 249.83 115.84 257.90
  A 4.84 4.74 -58.5 0 0 116.12 259.12
  L 119.01 266.64
  A 4.33 4.25 -77.6 0 0 119.87 268.01
  L 125.93 274.40
  A 1.98 1.78 -3.1 0 0 126.24 274.65
  Q 131.83 278.05 138.79 279.47
  Q 139.12 279.54 142.24 279.96
  Q 148.64 280.82 154.11 279.38
  Z
  M 64.77 256.70
  L 110.52 259.83
  A 0.60 0.59 -87.8 0 0 111.16 259.23
  L 111.16 247.50
  A 0.59 0.59 0.0 0 0 110.61 246.91
  L 71.41 244.23
  A 0.36 0.36 0.0 0 0 71.04 244.49
  Q 69.14 250.80 64.56 256.22
  A 0.30 0.29 21.8 0 0 64.77 256.70
  Z
  M 234.22 255.27
  L 236.05 249.12
  A 0.15 0.15 0.0 0 0 235.95 248.94
  L 235.83 248.90
  A 3.23 1.47 -73.4 0 0 233.50 251.58
  L 233.43 251.83
  A 3.23 1.47 -73.4 0 0 233.92 255.34
  L 234.03 255.38
  A 0.15 0.15 0.0 0 0 234.22 255.27
  Z
  M 180.16 263.55
  L 190.86 263.77
  A 0.23 0.23 0.0 0 0 191.09 263.55
  L 191.28 254.69
  A 3.23 1.55 -88.8 0 0 189.80 251.43
  L 181.74 251.26
  A 3.23 1.55 -88.8 0 0 180.12 254.45
  L 179.94 263.31
  A 0.23 0.23 0.0 0 0 180.16 263.55
  Z"
/>
<path fill="#ffffff" d="
  M 230.64 189.69
  C 231.97 187.52 233.97 184.73 233.52 181.75
  Q 232.63 175.84 232.63 173.75
  Q 232.68 161.43 232.24 149.28
  A 1.70 1.69 6.7 0 0 230.99 147.70
  Q 228.21 146.92 227.21 146.83
  Q 201.93 144.47 178.26 141.74
  Q 167.38 140.48 149.48 138.80
  A 1.35 1.35 0.0 0 1 148.27 137.69
  Q 147.05 130.52 148.28 121.79
  C 150.59 105.35 162.31 95.98 176.71 90.46
  A 0.26 0.26 0.0 0 1 177.06 90.75
  C 176.39 94.60 176.81 102.74 181.80 103.72
  A 1.74 1.74 0.0 0 0 183.81 102.48
  Q 187.48 89.19 198.22 81.03
  C 214.25 68.84 237.69 69.62 255.44 78.80
  Q 274.95 88.88 284.09 108.62
  C 295.64 133.60 298.01 168.30 280.54 191.41
  A 0.23 0.23 0.0 0 1 280.12 191.28
  Q 279.96 181.39 270.46 178.30
  C 259.02 174.58 246.17 175.77 237.01 184.14
  C 234.65 186.28 232.42 188.22 230.75 189.78
  A 0.07 0.07 0.0 0 1 230.64 189.69
  Z"
/>
<path fill="#ffffff" d="
  M 28.49 211.52
  Q 28.78 211.14 28.59 210.54
  A 2.84 2.82 48.6 0 1 28.72 208.36
  L 35.90 193.58
  A 1.07 0.66 76.7 0 0 35.95 193.43
  Q 37.96 186.29 40.96 181.55
  C 42.42 179.26 43.02 176.73 44.76 174.55
  A 3.41 3.31 77.8 0 0 45.21 173.83
  L 62.38 138.48
  A 1.31 1.28 -76.6 0 1 63.56 137.74
  Q 77.25 137.82 92.25 138.75
  Q 140.46 141.73 167.50 144.83
  Q 194.29 147.90 218.96 150.33
  Q 222.96 150.72 227.48 150.87
  A 0.37 0.36 -81.4 0 1 227.82 151.34
  Q 220.26 177.68 210.99 201.19
  Q 208.62 207.21 201.01 223.95
  Q 195.85 235.30 190.90 246.70
  A 1.22 1.21 11.9 0 1 189.79 247.42
  L 180.76 247.42
  A 0.77 0.77 0.0 0 1 179.99 246.72
  Q 178.93 234.27 168.94 225.19
  A 7.66 7.64 -10.1 0 0 167.36 224.09
  C 160.11 220.33 149.66 216.55 141.16 217.85
  Q 118.88 221.26 112.13 242.09
  A 0.88 0.87 10.9 0 1 111.23 242.69
  L 72.78 240.06
  A 0.59 0.59 0.0 0 1 72.25 239.31
  C 75.68 227.19 70.97 216.78 61.18 209.49
  A 0.31 0.31 0.0 0 1 61.46 208.94
  C 72.25 212.16 84.08 210.13 91.17 200.84
  A 1.52 1.41 -21.8 0 0 91.44 200.27
  Q 91.49 200.06 91.51 199.96
  A 0.41 0.40 -62.0 0 1 92.21 199.74
  C 95.81 203.63 100.32 200.13 103.30 197.22
  A 1.63 1.63 0.0 0 0 102.99 194.65
  Q 99.70 192.70 95.39 193.23
  A 0.49 0.49 0.0 0 1 94.84 192.71
  L 95.00 190.37
  A 0.73 0.72 -0.0 0 1 95.68 189.70
  Q 103.70 189.22 107.17 189.91
  C 120.21 192.52 129.90 201.23 138.06 211.49
  A 1.72 1.72 0.0 0 0 140.91 211.26
  L 140.92 211.23
  A 3.36 3.36 0.0 0 0 140.53 207.37
  C 130.47 195.77 121.49 187.85 107.07 185.25
  C 106.17 185.09 105.47 184.48 104.51 184.52
  Q 100.33 184.73 96.43 185.22
  A 0.60 0.59 -8.7 0 1 95.77 184.74
  Q 94.55 178.20 89.07 172.55
  Q 80.13 163.34 68.19 164.96
  Q 63.24 165.64 59.14 168.09
  Q 55.24 170.42 51.90 174.40
  Q 50.05 176.60 48.72 180.72
  Q 47.50 184.48 47.03 186.97
  Q 45.21 196.52 52.06 202.84
  A 0.47 0.47 0.0 0 1 51.93 203.61
  C 49.77 204.55 45.77 206.47 42.92 205.69
  Q 41.67 205.35 39.34 207.01
  A 1.87 1.78 -72.9 0 1 38.91 207.25
  L 28.55 211.60
  A 0.05 0.05 0.0 0 1 28.49 211.52
  Z
  M 162.07 186.85
  C 160.31 188.21 162.14 192.41 163.04 193.75
  C 169.00 202.72 179.29 206.92 189.54 206.12
  C 199.25 205.35 207.39 195.79 208.56 186.52
  C 209.38 179.94 206.44 171.51 203.59 165.79
  C 199.56 157.68 190.16 147.83 180.42 150.74
  A 1.59 1.59 0.0 0 0 179.66 153.30
  Q 179.67 153.31 180.83 153.43
  C 190.49 154.40 197.03 161.63 200.70 170.31
  C 202.88 175.44 205.39 183.12 203.45 188.79
  C 201.02 195.89 194.95 201.89 186.96 201.62
  Q 170.98 201.07 164.84 187.48
  A 1.85 1.78 -31.1 0 0 162.07 186.85
  Z
  M 144.20 192.50
  Q 141.63 185.45 133.96 186.45
  A 2.63 2.48 84.2 0 0 131.83 189.23
  Q 131.89 190.09 133.11 190.94
  C 136.23 193.10 141.07 197.08 143.97 193.73
  A 1.23 1.22 -34.7 0 0 144.20 192.50
  Z"
/>
<path fill="#ffffff" d="
  M 7.80 176.73
  L 7.99 175.67
  C 7.21 171.40 8.79 169.09 11.36 165.19
  Q 15.87 158.32 23.13 153.88
  C 33.97 147.26 44.57 143.33 56.13 140.61
  A 0.17 0.16 6.0 0 1 56.32 140.84
  Q 50.41 153.26 44.11 165.62
  C 43.32 167.16 41.50 169.18 40.95 171.04
  C 40.38 172.96 39.06 174.38 38.23 176.52
  Q 36.46 181.07 32.19 190.43
  A 1.27 1.24 -85.4 0 1 31.41 191.11
  L 24.67 193.10
  A 2.53 2.51 37.6 0 1 23.81 193.21
  Q 8.48 192.44 7.80 176.73
  Z"
/>
<path fill="#010101" d="
  M 162.07 186.85
  A 1.85 1.78 -31.1 0 1 164.84 187.48
  Q 170.98 201.07 186.96 201.62
  C 194.95 201.89 201.02 195.89 203.45 188.79
  C 205.39 183.12 202.88 175.44 200.70 170.31
  C 197.03 161.63 190.49 154.40 180.83 153.43
  Q 179.67 153.31 179.66 153.30
  A 1.59 1.59 0.0 0 1 180.42 150.74
  C 190.16 147.83 199.56 157.68 203.59 165.79
  C 206.44 171.51 209.38 179.94 208.56 186.52
  C 207.39 195.79 199.25 205.35 189.54 206.12
  C 179.29 206.92 169.00 202.72 163.04 193.75
  C 162.14 192.41 160.31 188.21 162.07 186.85
  Z"
/>
<path fill="#d9d9d9" d="
  M 228.65 163.33
  Q 228.02 172.13 229.41 181.89
  A 3.26 3.21 -37.5 0 1 229.17 183.61
  Q 212.74 221.03 198.18 255.90
  Q 197.01 258.70 195.68 260.50
  A 0.34 0.34 0.0 0 1 195.07 260.25
  Q 195.73 255.60 194.84 249.59
  A 3.62 3.62 0.0 0 1 195.09 247.64
  Q 205.02 224.80 210.93 211.69
  Q 218.55 194.77 228.42 163.29
  A 0.12 0.12 0.0 0 1 228.65 163.33
  Z"
/>
<path fill="#ffffff" d="
  M 51.41 182.37
  Q 52.80 179.13 56.97 175.43
  C 60.84 171.99 66.18 167.68 71.80 168.66
  Q 85.02 170.96 90.57 183.02
  A 3.27 3.17 -60.1 0 1 90.86 184.16
  Q 91.28 192.14 88.43 196.69
  Q 87.55 198.10 83.01 202.34
  A 3.60 3.56 9.3 0 1 82.21 202.91
  C 78.80 204.72 74.91 205.82 70.66 205.47
  C 65.93 205.08 63.63 205.62 59.27 202.09
  A 0.28 0.10 19.3 0 0 59.22 202.05
  L 56.49 200.73
  A 0.73 0.63 75.8 0 1 56.29 200.59
  Q 48.57 193.62 51.09 183.34
  A 6.25 6.00 64.4 0 1 51.41 182.37
  Z
  M 54.17 181.86
  Q 53.84 182.33 53.77 182.58
  Q 52.47 187.71 53.73 192.54
  A 2.00 1.85 -69.4 0 0 53.95 193.08
  L 57.22 198.60
  A 0.16 0.08 26.6 0 0 57.25 198.64
  Q 61.90 203.08 67.30 203.86
  A 5.76 5.54 46.1 0 0 68.36 203.90
  Q 71.76 203.71 72.98 203.76
  C 77.60 203.95 81.39 202.58 85.10 199.80
  A 3.35 3.25 -2.9 0 0 85.90 198.94
  Q 90.25 192.11 89.00 184.56
  C 88.00 178.51 82.51 173.55 76.86 172.16
  Q 63.44 168.87 54.64 180.21
  A 1.25 1.20 65.0 0 0 54.38 180.97
  Q 54.37 180.99 54.38 181.12
  A 1.21 1.17 61.8 0 1 54.17 181.86
  Z"
/>
<path fill="#010101" d="
  M 54.38 181.12
  Q 54.37 180.99 54.38 180.97
  A 1.25 1.20 65.0 0 1 54.64 180.21
  Q 63.44 168.87 76.86 172.16
  C 82.51 173.55 88.00 178.51 89.00 184.56
  Q 90.25 192.11 85.90 198.94
  A 3.35 3.25 -2.9 0 1 85.10 199.80
  C 81.39 202.58 77.60 203.95 72.98 203.76
  Q 71.76 203.71 68.36 203.90
  A 5.76 5.54 46.1 0 1 67.30 203.86
  Q 61.90 203.08 57.25 198.64
  A 0.16 0.08 26.6 0 1 57.22 198.60
  L 53.95 193.08
  A 2.00 1.85 -69.4 0 1 53.73 192.54
  Q 52.47 187.71 53.77 182.58
  Q 53.84 182.33 54.17 181.86
  A 1.21 1.17 61.8 0 0 54.38 181.12
  Z
  M 84.51 184.52
  A 0.21 0.21 0.0 0 0 84.14 184.39
  Q 81.07 188.30 76.78 188.19
  Q 75.06 188.15 74.41 187.41
  Q 73.25 186.10 73.97 184.87
  Q 77.16 179.43 82.15 181.07
  A 0.30 0.30 0.0 0 0 82.44 180.57
  C 75.15 173.95 64.17 174.21 57.76 182.20
  A 3.27 3.15 -17.4 0 0 57.22 183.19
  Q 55.56 188.18 57.79 193.25
  A 1.82 1.82 0.0 0 0 58.32 193.94
  L 62.53 197.25
  A 2.06 1.86 -9.3 0 0 62.95 197.52
  Q 66.19 199.13 69.47 199.27
  A 3.36 3.35 20.7 0 0 72.21 198.04
  Q 77.38 191.71 84.36 188.03
  A 0.28 0.27 -15.0 0 0 84.51 187.79
  L 84.51 184.52
  Z
  M 79.3475 183.1057
  A 1.20 0.93 -170.2 0 0 80.3717 184.2264
  A 1.20 0.93 -170.2 0 0 81.7125 183.5143
  A 1.20 0.93 -170.2 0 0 80.6883 182.3936
  A 1.20 0.93 -170.2 0 0 79.3475 183.1057
  Z
  M 82.35 194.03
  L 77.24 198.40
  A 0.14 0.14 0.0 0 0 77.23 198.59
  L 77.27 198.65
  A 3.34 1.15 -40.5 0 0 80.56 197.35
  L 80.80 197.14
  A 3.34 1.15 -40.5 0 0 82.60 194.10
  L 82.55 194.05
  A 0.14 0.14 0.0 0 0 82.35 194.03
  Z"
/>
<path fill="#ffffff" d="
  M 84.51 184.52
  L 84.51 187.79
  A 0.28 0.27 -15.0 0 1 84.36 188.03
  Q 77.38 191.71 72.21 198.04
  A 3.36 3.35 20.7 0 1 69.47 199.27
  Q 66.19 199.13 62.95 197.52
  A 2.06 1.86 -9.3 0 1 62.53 197.25
  L 58.32 193.94
  A 1.82 1.82 0.0 0 1 57.79 193.25
  Q 55.56 188.18 57.22 183.19
  A 3.27 3.15 -17.4 0 1 57.76 182.20
  C 64.17 174.21 75.15 173.95 82.44 180.57
  A 0.30 0.30 0.0 0 1 82.15 181.07
  Q 77.16 179.43 73.97 184.87
  Q 73.25 186.10 74.41 187.41
  Q 75.06 188.15 76.78 188.19
  Q 81.07 188.30 84.14 184.39
  A 0.21 0.21 0.0 0 1 84.51 184.52
  Z"
/>
<ellipse fill="#ffffff" cx="0.00" cy="0.00" transform="translate(80.53,183.31) rotate(-170.2)" rx="1.20" ry="0.93"/>
<path fill="#010101" d="
  M 143.97 193.73
  C 141.07 197.08 136.23 193.10 133.11 190.94
  Q 131.89 190.09 131.83 189.23
  A 2.63 2.48 84.2 0 1 133.96 186.45
  Q 141.63 185.45 144.20 192.50
  A 1.23 1.22 -34.7 0 1 143.97 193.73
  Z
  M 134.59 189.34
  Q 136.24 189.18 136.43 189.06
  A 0.81 0.63 28.5 0 0 135.89 187.83
  Q 134.49 187.57 134.13 188.78
  A 0.44 0.44 0.0 0 0 134.59 189.34
  Z"
/>
<path fill="#ffffff" d="
  M 134.59 189.34
  A 0.44 0.44 0.0 0 1 134.13 188.78
  Q 134.49 187.57 135.89 187.83
  A 0.81 0.63 28.5 0 1 136.43 189.06
  Q 136.24 189.18 134.59 189.34
  Z"
/>
<path fill="#ffffff" d="
  M 82.35 194.03
  A 0.14 0.14 0.0 0 1 82.55 194.05
  L 82.60 194.10
  A 3.34 1.15 -40.5 0 1 80.80 197.14
  L 80.56 197.35
  A 3.34 1.15 -40.5 0 1 77.27 198.65
  L 77.23 198.59
  A 0.14 0.14 0.0 0 1 77.24 198.40
  L 82.35 194.03
  Z"
/>
<path fill="#ffffff" d="
  M 93.78 196.33
  Q 93.89 194.99 94.00 194.78
  A 0.75 0.60 68.8 0 1 95.15 195.45
  Q 95.08 196.09 94.30 196.63
  A 0.33 0.33 0.0 0 1 93.78 196.33
  Z"
/>
<path fill="#d9d9d9" d="
  M 55.97 207.04
  A 0.43 0.28 30.4 0 1 56.64 207.01
  Q 56.93 207.30 56.65 207.46
  A 0.19 0.18 -57.2 0 1 56.52 207.49
  Q 55.98 207.40 55.97 207.04
  Z"
/>
<path fill="#ffffff" d="
  M 67.93 229.61
  A 0.62 0.62 0.0 0 1 68.89 230.16
  Q 68.51 236.00 67.37 242.39
  Q 66.74 245.89 64.60 249.11
  C 60.28 255.60 54.08 261.78 46.75 264.39
  Q 46.16 264.61 41.07 266.97
  A 8.43 8.11 -62.0 0 1 39.27 267.56
  Q 30.56 269.30 23.01 266.01
  Q 15.17 262.59 11.32 255.55
  Q 7.64 248.80 9.17 240.06
  Q 10.15 234.50 15.78 228.22
  Q 23.75 219.35 32.05 215.07
  C 41.28 210.31 51.05 207.67 60.04 214.56
  A 0.45 0.45 0.0 0 1 60.03 215.29
  C 58.60 216.29 54.40 218.45 52.94 221.14
  A 1.21 1.20 8.5 0 0 54.24 222.89
  L 55.50 222.64
  A 2.10 1.98 22.3 0 0 56.15 222.39
  L 62.81 218.30
  A 1.13 1.12 -30.5 0 1 64.37 218.70
  L 67.34 223.83
  A 1.02 1.02 0.0 0 1 66.88 225.26
  C 65.40 225.93 59.14 230.04 59.74 232.80
  A 1.72 1.58 -25.3 0 0 62.39 233.62
  Q 66.35 230.70 67.93 229.61
  Z"
/>
<path fill="#ffffff" d="
  M 229.12 251.17
  Q 227.81 253.16 229.01 255.37
  L 231.10 259.36
  A 0.83 0.82 -42.5 0 1 231.06 260.20
  Q 226.71 266.72 218.62 268.41
  L 213.70 268.61
  A 4.21 4.01 -39.3 0 1 212.89 268.55
  Q 210.15 268.03 207.39 268.11
  Q 202.10 267.21 199.61 262.70
  A 1.02 0.99 44.0 0 1 199.58 261.80
  Q 210.96 237.52 220.96 212.85
  A 0.75 0.75 0.0 0 1 221.98 212.46
  L 222.49 212.70
  A 0.68 0.67 26.0 0 1 222.81 213.60
  Q 219.80 219.84 221.14 226.19
  C 222.84 234.29 229.05 238.68 236.09 242.04
  A 1.03 1.03 0.0 0 1 236.00 243.94
  Q 230.84 245.86 229.12 251.17
  Z"
/>
<path fill="#d9d9d9" d="
  M 235.31 236.65
  Q 233.99 236.08 230.78 233.59
  C 225.15 229.23 224.08 222.43 225.85 215.96
  A 0.42 0.42 0.0 0 1 226.58 215.80
  Q 233.57 224.39 235.82 236.25
  A 0.37 0.36 6.2 0 1 235.31 236.65
  Z"
/>
<path fill="#ffffff" d="
  M 154.11 279.38
  Q 148.64 280.82 142.24 279.96
  Q 139.12 279.54 138.79 279.47
  Q 131.83 278.05 126.24 274.65
  A 1.98 1.78 -3.1 0 1 125.93 274.40
  L 119.87 268.01
  A 4.33 4.25 -77.6 0 1 119.01 266.64
  L 116.12 259.12
  A 4.84 4.74 -58.5 0 1 115.84 257.90
  Q 115.18 249.83 116.27 241.55
  A 1.11 1.10 31.5 0 1 118.28 241.07
  Q 119.99 243.59 123.08 244.10
  A 1.82 1.72 6.1 0 0 125.19 242.49
  Q 125.21 241.92 124.20 241.03
  Q 122.78 239.78 119.90 237.05
  A 1.34 1.32 -47.5 0 1 119.83 235.20
  L 125.64 228.67
  A 0.93 0.92 -43.2 0 1 127.06 228.71
  C 128.62 230.73 131.49 234.61 133.99 235.14
  A 1.42 1.32 11.4 0 0 135.66 234.12
  C 136.15 231.52 131.90 227.62 130.28 226.23
  A 0.27 0.26 -39.1 0 1 130.33 225.79
  C 135.95 222.91 143.49 221.02 149.81 222.32
  Q 155.39 223.48 162.08 225.90
  A 5.18 5.04 -15.7 0 1 163.39 226.61
  Q 171.68 232.78 174.67 242.34
  Q 174.87 243.00 175.36 246.56
  Q 175.62 248.49 176.02 250.76
  Q 177.24 257.72 173.68 266.00
  A 1.98 1.88 77.2 0 1 173.49 266.32
  L 169.01 272.34
  A 1.33 1.27 -84.2 0 1 168.60 272.69
  Q 158.83 278.14 154.11 279.38
  Z"
/>
<path fill="#d9d9d9" d="
  M 40.38 271.99
  Q 52.26 268.62 60.22 261.23
  A 2.24 2.22 25.2 0 1 61.91 260.63
  L 112.65 264.10
  A 0.74 0.73 79.9 0 1 113.27 264.54
  C 116.35 271.76 121.70 278.19 128.88 281.27
  Q 147.39 289.21 164.00 280.60
  Q 169.72 277.63 171.71 275.92
  Q 174.99 273.10 177.07 268.80
  A 1.70 1.69 13.3 0 1 178.63 267.84
  Q 186.42 267.98 191.31 267.77
  Q 193.29 267.69 194.22 267.34
  C 195.21 266.97 195.66 266.12 196.36 265.75
  A 0.51 0.51 0.0 0 1 197.07 266.00
  C 199.10 270.71 203.79 272.00 208.58 273.02
  C 221.51 275.76 233.17 268.96 238.15 257.38
  Q 242.43 247.46 240.38 235.20
  Q 252.79 241.97 250.16 256.41
  Q 249.81 258.34 249.32 260.18
  A 5.47 5.44 -16.9 0 1 248.17 262.32
  Q 241.84 269.53 235.07 273.34
  Q 231.30 275.46 223.10 278.85
  Q 216.07 281.75 210.57 282.92
  Q 191.52 286.98 189.48 287.25
  Q 188.26 287.42 173.97 288.84
  Q 164.17 289.82 158.50 289.84
  C 151.11 289.87 145.04 290.78 137.83 290.75
  Q 122.08 290.67 103.24 289.31
  C 97.73 288.91 90.50 289.11 84.33 288.10
  C 79.86 287.37 73.34 286.21 67.05 285.21
  Q 51.59 282.77 40.38 271.99
  Z"
/>
<path fill="#d9d9d9" d="
  M 64.77 256.70
  A 0.30 0.29 21.8 0 1 64.56 256.22
  Q 69.14 250.80 71.04 244.49
  A 0.36 0.36 0.0 0 1 71.41 244.23
  L 110.61 246.91
  A 0.59 0.59 0.0 0 1 111.16 247.50
  L 111.16 259.23
  A 0.60 0.59 -87.8 0 1 110.52 259.83
  L 64.77 256.70
  Z"
/>
<path fill="#d9d9d9" d="
  M 234.22 255.27
  A 0.15 0.15 0.0 0 1 234.03 255.38
  L 233.92 255.34
  A 3.23 1.47 -73.4 0 1 233.43 251.83
  L 233.50 251.58
  A 3.23 1.47 -73.4 0 1 235.83 248.90
  L 235.95 248.94
  A 0.15 0.15 0.0 0 1 236.05 249.12
  L 234.22 255.27
  Z"
/>
<path fill="#d9d9d9" d="
  M 180.16 263.55
  A 0.23 0.23 0.0 0 1 179.94 263.31
  L 180.12 254.45
  A 3.23 1.55 -88.8 0 1 181.74 251.26
  L 189.80 251.43
  A 3.23 1.55 -88.8 0 1 191.28 254.69
  L 191.09 263.55
  A 0.23 0.23 0.0 0 1 190.86 263.77
  L 180.16 263.55
  Z"
/>
<path fill="#d9d9d9" d="
  M 229.12 251.17
  L 229.01 255.37
  Q 227.81 253.16 229.12 251.17
  Z"
/>
<path fill="#d9d9d9" d="
  M 218.62 268.41
  Q 212.73 270.49 207.39 268.11
  Q 210.15 268.03 212.89 268.55
  A 4.21 4.01 -39.3 0 0 213.70 268.61
  L 218.62 268.41
  Z"
/>
</svg>
