<?xml version="1.0" standalone="no"?>
<!DOCTYPE svg PUBLIC "-//W3C//DTD SVG 20010904//EN"
 "http://www.w3.org/TR/2001/REC-SVG-20010904/DTD/svg10.dtd">
<svg version="1.0" xmlns="http://www.w3.org/2000/svg"
 width="300.000000pt" height="300.000000pt" viewBox="0 0 300.000000 300.000000"
 preserveAspectRatio="xMidYMid meet">

<g transform="translate(0.000000,300.000000) scale(0.100000,-0.100000)"
fill="#000000" stroke="none">
<path d="M1829 2424 c-203 -36 -392 -138 -501 -270 -70 -85 -112 -190 -88
-219 14 -16 40 -9 40 11 0 26 31 62 62 73 47 17 87 -6 126 -71 47 -78 60 -159
38 -229 -10 -30 -25 -65 -35 -78 l-18 -23 -244 18 c-134 9 -325 18 -424 18
-168 1 -187 -1 -280 -27 -55 -15 -149 -52 -210 -82 -120 -58 -185 -113 -232
-192 -25 -43 -27 -57 -30 -158 -2 -130 7 -173 49 -221 36 -41 69 -59 121 -69
20 -4 37 -9 37 -12 0 -16 -31 -57 -86 -114 -79 -83 -104 -138 -104 -227 0 -85
24 -139 87 -199 64 -61 97 -73 192 -73 93 0 139 15 226 73 l59 40 186 -12
c355 -23 326 -18 354 -66 65 -110 162 -160 311 -160 80 0 98 4 155 31 72 34
136 84 145 115 6 17 16 19 86 19 44 0 88 4 98 10 14 7 24 4 41 -15 29 -31 77
-45 158 -45 217 0 325 241 220 490 -28 65 -66 117 -104 141 -33 20 -33 21 -19
49 10 19 20 27 30 24 19 -8 106 21 177 58 141 74 209 193 223 389 6 83 5 97
-9 102 -8 3 -21 0 -28 -7 -15 -15 -53 -36 -64 -36 -4 0 6 15 23 33 43 43 90
148 102 226 17 108 -8 234 -72 354 -62 117 -214 251 -340 299 -124 47 -305 60
-458 32z m401 -62 c87 -29 179 -85 246 -150 213 -208 242 -519 64 -692 -27
-27 -50 -56 -50 -64 0 -28 65 -33 124 -10 18 7 18 3 11 -62 -14 -136 -67 -230
-164 -293 -60 -38 -167 -78 -179 -67 -3 4 7 32 23 64 27 54 28 63 26 182 -2
177 -10 247 -29 255 -8 3 -101 14 -206 25 -105 11 -274 28 -376 40 -102 11
-192 20 -201 20 -13 0 -12 8 9 51 49 98 38 218 -27 322 -40 62 -83 89 -138 85
-38 -3 -40 -2 -31 16 21 39 103 118 167 160 77 51 161 88 263 115 108 29 111
30 263 27 110 -2 154 -8 205 -24z m-1275 -752 c311 -20 560 -42 865 -75 173
-18 348 -37 388 -40 49 -5 72 -11 69 -19 -2 -6 -25 -78 -51 -159 -64 -200
-100 -293 -218 -559 l-101 -228 -52 0 -53 0 -7 38 c-10 53 -53 127 -96 166
-61 56 -138 81 -249 81 -84 0 -102 -3 -152 -28 -68 -33 -139 -109 -164 -172
l-17 -45 -46 5 c-42 5 -312 25 -336 25 -7 0 -9 26 -7 69 5 76 -13 131 -62 188
-39 47 -119 83 -182 83 -45 0 -54 3 -59 21 -5 14 0 28 14 42 11 12 30 44 42
71 24 55 22 131 -4 182 -13 26 -11 34 67 195 l81 169 90 0 c50 0 158 -5 240
-10z m-395 -25 c0 -5 -119 -247 -125 -253 -1 -2 -20 7 -41 20 -55 33 -180 33
-242 0 -23 -12 -42 -18 -42 -14 0 24 86 102 156 142 93 53 294 125 294 105z
m1729 -354 c1 -62 -6 -80 -161 -448 -90 -210 -166 -383 -170 -383 -5 0 -8 28
-8 62 0 57 8 80 94 273 98 221 183 436 212 544 16 55 19 61 25 40 4 -13 7 -53
8 -88z m-1919 83 c33 -20 80 -90 80 -119 -1 -13 -8 -6 -22 23 -61 127 -218
134 -303 13 -25 -36 -30 -51 -30 -106 0 -61 2 -67 36 -101 40 -40 100 -58 157
-48 45 9 136 97 150 145 6 19 11 26 11 15 1 -11 -8 -39 -20 -63 -53 -109 -200
-156 -289 -93 -45 32 -62 74 -62 150 1 104 25 148 97 181 52 24 156 25 195 3z
m-24 -65 c19 -11 34 -22 34 -24 0 -1 -14 -32 -30 -67 -27 -57 -35 -67 -70 -78
-45 -15 -116 -8 -138 13 -19 20 -9 75 20 112 50 64 123 82 184 44z m-71 -229
c-11 -5 -33 -8 -50 -8 -29 1 -29 1 5 8 49 10 69 10 45 0z m110 -90 c-3 -5 -13
-10 -21 -10 -8 0 -12 5 -9 10 3 6 13 10 21 10 8 0 12 -4 9 -10z m-75 -30 c0
-5 -5 -10 -11 -10 -5 0 -7 5 -4 10 3 6 8 10 11 10 2 0 4 -4 4 -10z m254 -25
c20 -10 36 -20 36 -24 0 -3 -16 -16 -35 -29 -33 -21 -47 -52 -24 -52 6 0 30
11 53 25 l43 25 17 -24 c22 -35 21 -40 -19 -70 -19 -15 -35 -36 -35 -47 0 -24
15 -24 47 1 14 11 30 20 35 20 12 0 2 -89 -18 -150 -21 -69 -110 -154 -202
-196 -95 -43 -159 -45 -237 -8 -92 43 -135 111 -135 212 0 51 5 66 38 118 62
95 176 179 282 208 62 18 103 15 154 -9z m1656 -31 c-16 -42 -11 -112 10 -155
18 -35 56 -69 116 -105 17 -10 16 -14 -19 -46 -41 -39 -48 -77 -22 -114 13
-19 11 -24 -18 -52 -75 -73 -207 -83 -272 -22 l-22 21 101 232 c56 128 105
240 109 250 3 9 11 17 16 17 7 0 7 -9 1 -26z m89 -72 c63 -124 57 -169 -12
-93 -38 42 -54 93 -43 136 9 34 21 25 55 -43z m-731 -17 c106 -32 169 -127
179 -268 10 -138 -23 -193 -148 -252 -77 -36 -84 -37 -162 -33 -104 6 -174 35
-226 94 -51 58 -65 109 -62 237 1 59 15 74 41 42 16 -19 50 -19 50 0 0 8 -11
22 -25 31 -14 9 -25 22 -25 29 0 17 48 75 62 75 5 0 21 -13 35 -30 24 -30 63
-41 63 -18 0 6 -11 26 -25 44 -14 18 -25 35 -25 38 0 3 21 12 48 21 56 18 143
14 220 -10z m-629 -215 c74 -6 141 -10 148 -10 9 0 13 -18 13 -66 l0 -66 -37
6 c-21 3 -123 11 -228 17 -104 6 -191 13 -193 14 -2 2 7 20 21 42 13 21 27 48
31 61 7 20 12 22 59 17 29 -3 113 -10 186 -15z m1403 -55 c-2 -14 -8 -25 -13
-25 -12 0 -11 7 1 31 14 26 18 24 12 -6z m-442 -60 l0 -65 -55 0 -55 0 0 59
c0 65 1 66 78 70 l32 1 0 -65z"/>
<path d="M1801 1486 c-11 -13 -9 -16 16 -21 55 -13 81 -27 121 -68 94 -96 126
-250 70 -335 -16 -23 -43 -49 -60 -59 -82 -43 -222 -1 -275 82 -28 44 -46 55
-58 35 -11 -17 26 -79 68 -116 66 -56 191 -81 264 -53 38 14 90 65 116 114 73
139 -59 412 -209 432 -29 4 -43 1 -53 -11z"/>
<path d="M757 1172 c-27 -30 -22 -52 12 -52 37 0 77 31 68 53 -9 23 -60 22
-80 -1z m58 -2 c3 -5 -1 -10 -10 -10 -9 0 -13 5 -10 10 3 6 8 10 10 10 2 0 7
-4 10 -10z"/>
<path d="M890 1134 c-65 -18 -129 -65 -182 -135 -35 -46 -50 -99 -30 -99 5 0
26 25 47 55 104 151 277 192 453 108 36 -18 85 -56 134 -105 43 -43 82 -78 88
-78 5 0 10 10 10 23 0 26 -119 147 -181 185 -98 60 -224 77 -339 46z"/>
<path d="M1323 1123 c-12 -32 84 -90 109 -65 16 16 -1 51 -32 67 -38 20 -69
19 -77 -2z m44 -9 c-3 -3 -12 -4 -19 -1 -8 3 -5 6 6 6 11 1 17 -2 13 -5z"/>
<path d="M923 1064 c-22 -10 -15 -52 11 -69 22 -15 28 -15 53 -1 41 21 59 44
45 58 -12 12 -90 20 -109 12z m27 -14 c0 -5 -4 -10 -10 -10 -5 0 -10 5 -10 10
0 6 5 10 10 10 6 0 10 -4 10 -10z"/>
</g>
</svg>
