<?xml version="1.0" standalone="no"?>
<!DOCTYPE svg PUBLIC "-//W3C//DTD SVG 20010904//EN"
 "http://www.w3.org/TR/2001/REC-SVG-20010904/DTD/svg10.dtd">
<svg version="1.0" xmlns="http://www.w3.org/2000/svg"
 width="300.000000pt" height="300.000000pt" viewBox="0 0 300.000000 300.000000"
 preserveAspectRatio="xMidYMid meet">

<g transform="translate(0.000000,300.000000) scale(0.100000,-0.100000)"
fill="#000000" stroke="none">
<path d="M1959 2766 c-91 -19 -246 -72 -296 -102 -71 -41 -162 -122 -208 -186
-52 -70 -96 -191 -77 -210 10 -10 20 -5 47 25 64 70 128 80 204 34 50 -30 71
-72 71 -142 0 -73 -32 -148 -81 -189 -34 -29 -34 -29 -134 -22 -212 13 -725
19 -748 8 -12 -5 -55 -15 -96 -21 -55 -9 -100 -25 -173 -63 -184 -94 -272
-207 -273 -352 0 -89 22 -131 85 -164 34 -17 58 -22 98 -20 28 2 52 0 52 -3 0
-21 -45 -109 -55 -109 -30 0 -176 -83 -206 -117 -58 -67 -84 -137 -84 -228 1
-97 28 -167 86 -219 118 -107 274 -113 416 -15 49 34 59 36 166 23 44 -5 47
-8 47 -34 0 -37 100 -144 305 -326 170 -150 251 -214 273 -214 8 0 63 46 122
103 59 56 141 129 182 162 78 62 108 99 108 133 0 11 12 28 28 38 15 9 39 30
54 46 23 25 36 29 95 33 37 2 80 7 95 11 20 5 29 1 37 -14 18 -33 93 -63 157
-63 117 0 248 98 296 221 15 39 21 78 21 135 1 70 -3 89 -32 152 -32 69 -122
173 -150 173 -6 0 -11 6 -11 13 0 8 23 18 58 25 133 27 294 161 360 298 35 75
37 85 37 176 0 79 -3 101 -17 114 -16 16 -19 16 -35 2 -39 -33 -41 -26 -13 34
96 206 40 457 -145 644 -89 90 -200 162 -305 196 -83 26 -265 33 -361 14z
m320 -53 c128 -35 289 -143 365 -244 151 -201 165 -457 35 -619 -27 -33 -31
-44 -22 -58 13 -21 45 -18 95 8 l37 19 6 -27 c18 -85 -48 -234 -146 -326 -62
-59 -211 -148 -224 -134 -3 3 10 38 29 79 l34 74 5 192 4 192 -23 5 c-13 4
-85 13 -161 21 -76 7 -219 23 -318 34 -99 11 -214 23 -256 26 l-76 7 32 48
c63 94 72 224 21 298 -51 74 -162 112 -240 82 -14 -5 -26 -7 -26 -4 0 17 68
100 126 153 168 154 489 233 703 174z m-874 -784 c330 -16 727 -55 944 -94 46
-8 89 -12 95 -8 8 5 8 3 0 -8 -15 -19 -77 -157 -190 -426 -144 -342 -228 -513
-252 -513 -11 0 -27 -3 -35 -6 -10 -4 -16 4 -21 29 -3 18 -19 54 -35 79 -94
148 -323 182 -512 76 l-37 -20 -61 50 c-42 35 -67 49 -79 45 -29 -10 -114 -78
-177 -142 l-59 -61 -86 0 c-47 0 -102 3 -122 6 -35 6 -38 9 -38 40 0 54 -38
140 -86 193 -47 52 -125 91 -184 91 l-28 0 33 83 c40 98 74 173 193 418 l90
186 218 -4 c121 -2 314 -8 429 -14z m-707 -7 c-7 -16 -218 -448 -230 -472 -29
-54 -145 -57 -197 -5 -24 23 -26 33 -26 103 1 82 12 114 67 184 51 65 220 163
316 184 71 15 74 16 70 6z m1648 -627 c-52 -104 -138 -279 -190 -387 -52 -109
-96 -198 -98 -198 -2 0 -2 34 0 76 4 70 10 87 78 229 41 85 116 254 168 377
52 123 102 242 113 265 l18 42 3 -107 3 -107 -95 -190z m-1789 -110 c75 -38
81 -48 38 -74 -62 -36 -38 -69 26 -35 17 8 32 14 34 12 1 -2 10 -18 20 -37
l17 -33 -31 -27 c-23 -19 -29 -30 -22 -40 8 -12 14 -13 36 -3 26 12 26 12 19
-26 -22 -128 -122 -232 -256 -268 -61 -16 -105 -10 -168 21 -120 61 -170 193
-124 327 53 157 270 253 411 183z m1803 -1 c-6 -14 -10 -48 -10 -76 0 -99 65
-182 143 -182 39 -1 52 -20 19 -28 -11 -3 -32 -22 -48 -43 -24 -31 -28 -47
-29 -98 0 -60 -1 -62 -42 -93 -25 -19 -66 -38 -97 -45 -48 -10 -61 -10 -101 5
-25 10 -52 27 -60 39 -16 24 -20 68 -6 83 8 9 130 264 190 397 16 37 34 67 40
67 7 0 7 -8 1 -26z m135 -118 c33 -67 33 -96 -1 -96 -70 0 -126 134 -86 204 8
13 58 -49 87 -108z m-1175 -58 c0 -4 -4 -9 -9 -12 -13 -8 -71 49 -71 69 0 12
9 8 40 -17 22 -18 40 -36 40 -40z m427 47 c53 -22 100 -60 129 -105 21 -31 26
-51 26 -99 0 -84 -35 -183 -79 -226 -73 -71 -198 -125 -291 -125 -49 0 -179
27 -187 39 -2 5 4 16 15 26 22 20 27 55 8 55 -6 0 -26 -11 -44 -25 l-33 -25
-20 26 c-30 38 -26 59 14 83 41 24 47 51 11 51 -14 0 -28 -4 -31 -10 -3 -5
-13 -10 -21 -10 -22 0 -10 68 22 136 84 176 317 277 481 209z m-557 -19 c0 -8
-22 -34 -49 -58 -27 -24 -103 -94 -170 -157 -90 -84 -121 -108 -121 -93 0 13
57 72 163 170 89 83 165 151 170 151 4 1 7 -5 7 -13z m64 -65 c16 -18 15 -22
-20 -86 -61 -110 -59 -239 3 -323 65 -87 295 -135 422 -88 84 31 81 18 -14
-59 -38 -31 -114 -99 -168 -152 l-98 -96 -34 24 c-58 42 -306 264 -400 358
l-90 91 70 71 c80 82 296 279 306 279 3 0 14 -8 23 -19z m-375 -89 l43 -7 -61
-57 c-33 -32 -61 -62 -61 -68 0 -11 -88 -14 -114 -4 -13 5 -12 11 9 42 14 20
25 40 25 44 0 4 4 18 10 32 8 23 15 26 57 25 27 0 68 -4 92 -7z m1629 -74
c-14 -42 -28 -58 -28 -32 0 18 25 64 35 64 2 0 -1 -15 -7 -32z m-498 -53 l0
-75 -46 0 c-43 0 -46 1 -40 23 4 12 12 46 18 75 11 48 15 52 40 52 l28 0 0
-75z"/>
<path d="M1960 1830 c0 -11 12 -26 28 -34 43 -23 99 -86 124 -141 32 -70 33
-202 1 -261 -25 -48 -83 -101 -118 -110 -70 -17 -151 35 -202 129 -30 55 -49
68 -59 42 -9 -22 25 -92 68 -140 36 -42 118 -85 161 -85 70 0 152 62 194 148
23 48 27 70 27 137 0 95 -20 160 -69 228 -61 83 -155 136 -155 87z"/>
<path d="M830 1535 c0 -29 24 -71 46 -79 16 -6 74 19 74 33 0 10 -39 46 -67
60 -36 18 -53 14 -53 -14z m90 -45 c0 -5 -7 -10 -15 -10 -8 0 -15 5 -15 10 0
6 7 10 15 10 8 0 15 -4 15 -10z"/>
<path d="M1496 1485 c-70 -27 -85 -53 -41 -73 39 -18 60 -15 95 14 20 18 30
34 28 48 -4 26 -30 30 -82 11z m-8 -46 c-2 -6 -8 -10 -13 -10 -5 0 -11 4 -13
10 -2 6 4 11 13 11 9 0 15 -5 13 -11z"/>
<path d="M1034 1480 c-67 -14 -111 -36 -163 -85 -53 -49 -82 -108 -63 -127 13
-13 42 7 42 28 0 21 80 95 125 115 105 47 241 44 354 -6 63 -29 144 -104 156
-145 16 -53 55 -70 55 -25 0 60 -83 161 -170 205 -90 46 -224 62 -336 40z"/>
<path d="M1072 1419 c-45 -17 -12 -79 42 -79 59 0 105 64 54 74 -54 11 -76 12
-96 5z m38 -18 c0 -12 -28 -22 -34 -12 -3 5 -3 11 1 15 9 9 33 7 33 -3z"/>
<path d="M425 2430 c-3 -6 -3 -42 1 -82 l7 -72 -54 -48 c-64 -57 -56 -75 22
-52 63 19 88 8 139 -60 45 -62 78 -76 65 -28 -4 15 -9 55 -12 88 -5 66 12 116
49 142 28 20 12 32 -42 32 -63 0 -95 15 -121 57 -21 33 -42 42 -54 23z m98
-125 c35 -14 35 -15 24 -52 -6 -21 -12 -39 -13 -41 -1 -2 -16 4 -34 13 -21 11
-30 21 -26 31 3 9 6 27 6 40 0 28 -2 28 43 9z"/>
<path d="M677 2273 c-4 -3 -4 -23 -1 -44 5 -27 2 -46 -10 -63 -21 -33 -20 -36
8 -36 13 0 40 -11 60 -25 52 -36 70 -33 62 8 -4 22 0 44 13 69 l18 37 -44 7
c-24 3 -57 17 -72 30 -16 13 -31 21 -34 17z m73 -104 c0 -24 -23 -21 -28 4 -2
10 3 17 12 17 10 0 16 -9 16 -21z"/>
</g>
</svg>
