<?xml version="1.0" encoding="UTF-8" standalone="no"?>
<!DOCTYPE svg PUBLIC "-//W3C//DTD SVG 1.1//EN" "http://www.w3.org/Graphics/SVG/1.1/DTD/svg11.dtd">
<svg xmlns="http://www.w3.org/2000/svg" version="1.1" viewBox="0.00 0.00 300.00 300.00" width="300.00" height="300.00">
<g stroke-width="2.00" fill="none" stroke-linecap="butt">
<path stroke="#6d6d6d" vector-effect="non-scaling-stroke" d="
  M 257.81 206.62
  C 257.16 215.67 255.60 224.13 248.95 231.17
  Q 243.97 236.43 242.01 237.76
  C 235.69 242.02 227.85 244.60 220.35 242.90
  Q 212.33 241.07 208.52 234.85
  A 0.84 0.84 0.0 0 0 207.47 234.52
  L 203.65 236.22
  A 2.19 2.12 -56.6 0 1 202.84 236.40
  L 190.06 236.66
  A 0.95 0.94 12.0 0 0 189.22 237.20
  Q 188.16 239.37 186.25 240.98
  Q 181.63 244.89 179.26 245.99
  A 0.76 0.76 0.0 0 0 178.82 246.74
  Q 179.22 251.45 177.00 253.96
  Q 175.95 255.14 171.30 259.07"
/>
<path stroke="#6d6d6d" vector-effect="non-scaling-stroke" d="
  M 99.31 256.52
  Q 95.36 252.52 91.20 248.73
  Q 88.34 246.12 86.11 243.48
  Q 82.31 238.97 81.14 238.05
  A 2.42 2.31 8.8 0 1 80.45 237.15
  Q 79.50 234.95 80.01 231.48
  A 0.55 0.53 -83.4 0 0 79.53 230.86
  L 63.59 229.39
  A 1.38 1.37 26.5 0 0 62.56 229.73
  Q 57.77 234.00 52.11 236.68"
/>
<path stroke="#6d6d6d" vector-effect="non-scaling-stroke" d="
  M 249.59 120.45
  L 249.16 128.55"
/>
<path stroke="#808080" vector-effect="non-scaling-stroke" d="
  M 249.16 128.55
  L 248.93 149.52
  A 6.04 5.98 -39.0 0 1 248.81 150.61
  L 248.20 153.47
  A 3.89 3.72 66.4 0 1 247.86 154.40
  L 241.40 166.79
  A 0.22 0.21 -81.6 0 0 241.63 167.10
  C 250.71 165.46 260.07 158.84 266.55 152.47
  Q 273.17 145.97 277.16 136.09
  Q 280.61 127.54 279.17 117.94
  A 0.31 0.31 0.0 0 0 278.67 117.74
  C 275.90 119.96 269.59 123.63 266.15 122.37
  A 0.82 0.82 0.0 0 1 265.69 121.94
  C 264.23 118.50 267.51 114.54 269.83 112.35
  A 4.73 4.67 -7.3 0 0 270.70 111.24
  Q 278.03 98.39 277.01 85.49
  C 275.72 69.34 268.74 55.40 256.65 44.63
  C 245.37 34.59 230.13 26.65 214.75 26.45
  Q 200.79 26.27 187.96 30.18
  Q 176.68 33.62 171.72 35.97
  C 162.01 40.59 149.69 51.15 144.56 62.20
  A 0.20 0.20 0.0 0 0 144.85 62.46
  Q 152.50 57.64 160.81 60.92
  C 173.66 66.00 177.39 77.10 173.68 89.94
  Q 171.37 97.92 165.69 103.68
  A 0.20 0.19 -66.0 0 0 165.81 104.01
  Q 192.91 105.80 219.84 109.49
  C 226.51 110.41 235.12 110.96 240.62 111.24
  Q 241.46 111.29 246.55 112.18
  C 252.73 113.25 250.06 116.61 249.59 120.45"
/>
<path stroke="#ececec" vector-effect="non-scaling-stroke" d="
  M 249.16 128.55
  Q 250.32 124.91 249.59 120.45"
/>
<path stroke="#6d6d6d" vector-effect="non-scaling-stroke" d="
  M 211.10 193.29
  Q 211.18 192.83 211.38 192.54"
/>
<path stroke="#808080" vector-effect="non-scaling-stroke" d="
  M 211.38 192.54
  C 218.63 177.88 224.05 164.19 230.95 147.42
  Q 232.97 142.50 236.28 135.06
  Q 240.10 126.45 243.74 118.45
  A 0.26 0.25 17.2 0 0 243.55 118.10
  Q 236.93 116.88 231.59 115.94
  Q 224.60 114.71 219.58 114.04
  Q 170.33 107.50 120.49 106.04
  Q 105.81 105.61 81.99 105.35
  Q 79.94 105.33 76.72 104.88
  A 0.70 0.69 -71.9 0 0 76.02 105.24
  C 70.40 116.03 65.47 127.55 60.29 137.91
  C 55.19 148.13 52.02 154.45 48.62 162.86
  Q 46.27 168.66 44.24 173.90
  A 0.32 0.32 0.0 0 0 44.56 174.33
  C 54.89 173.71 63.99 178.95 69.33 188.05
  Q 74.37 196.64 74.30 205.71
  A 0.66 0.66 0.0 0 0 74.93 206.38
  L 96.85 207.51
  A 1.50 1.46 24.7 0 0 97.92 207.13
  Q 105.89 199.85 112.80 193.15
  C 115.03 190.98 117.07 189.73 120.35 187.39
  Q 121.05 186.89 124.79 186.75
  A 0.98 0.94 63.6 0 1 125.48 187.00
  L 135.60 196.22
  A 0.62 0.62 0.0 0 0 136.36 196.27
  Q 143.32 191.62 152.62 189.05
  C 169.51 184.38 187.57 191.20 194.32 207.92
  A 1.04 0.40 -84.5 0 1 194.37 208.10
  L 194.94 211.69
  A 0.75 0.74 85.4 0 0 195.67 212.32
  L 201.48 212.32
  A 0.69 0.69 0.0 0 0 202.10 211.93
  L 211.10 193.29"
/>
<path stroke="#ececec" vector-effect="non-scaling-stroke" d="
  M 211.38 192.54
  Q 211.05 192.57 211.10 193.29"
/>
<path stroke="#808080" vector-effect="non-scaling-stroke" d="
  M 69.85 107.02
  Q 60.31 108.59 56.95 109.93
  Q 50.60 112.45 40.64 118.62
  C 30.02 125.20 22.35 136.26 24.03 149.22
  C 25.10 157.45 32.85 160.68 40.20 159.17
  C 42.07 158.79 43.75 157.65 45.45 157.19
  A 1.15 1.13 3.1 0 0 46.20 156.53
  C 50.54 146.25 56.76 135.47 60.86 126.13
  Q 64.86 117.04 70.19 107.51
  A 0.33 0.33 0.0 0 0 69.85 107.02"
/>
<path stroke="#6d6d6d" vector-effect="non-scaling-stroke" d="
  M 205.18 230.46
  A 0.09 0.09 0.0 0 0 205.35 230.51
  Q 218.20 205.61 228.70 181.71
  Q 230.62 177.34 240.60 158.70
  C 241.77 156.52 242.85 153.51 243.96 151.71
  A 1.74 1.73 59.3 0 0 244.21 150.71
  Q 244.11 148.70 244.42 131.50
  Q 244.44 130.36 243.87 130.13
  A 0.50 0.50 0.0 0 0 243.23 130.41
  Q 238.64 141.53 220.93 182.47
  Q 213.20 200.34 206.55 213.06
  A 5.31 5.26 -30.1 0 0 205.97 215.20
  L 205.18 230.46"
/>
<path stroke="#808080" vector-effect="non-scaling-stroke" d="
  M 252.25 207.05
  Q 247.19 208.79 242.49 205.21
  C 234.62 199.22 232.53 188.17 237.05 179.44
  A 0.64 0.64 0.0 0 0 236.54 178.51
  L 235.86 178.44
  A 0.90 0.90 0.0 0 0 234.98 178.94
  Q 232.01 184.97 225.10 200.63
  Q 221.55 208.67 211.99 227.38
  A 3.56 3.49 -29.4 0 0 211.61 228.69
  C 211.13 234.13 217.02 237.46 221.86 238.48
  C 229.90 240.18 238.89 235.48 244.13 229.52
  A 1.14 1.12 -35.1 0 0 244.34 228.36
  Q 241.04 219.59 248.53 211.99
  Q 250.72 209.77 252.20 210.34
  A 0.50 0.49 18.8 0 0 252.86 210.02
  Q 253.38 208.31 253.13 207.50
  A 0.70 0.69 -17.8 0 0 252.25 207.05"
/>
<path stroke="#808080" vector-effect="non-scaling-stroke" d="
  M 69.58 204.37
  A 0.31 0.31 0.0 0 0 69.08 204.13
  Q 66.35 206.20 64.65 205.62
  A 2.14 1.94 -53.8 0 1 64.28 202.06
  Q 66.01 200.65 68.19 199.34
  A 1.33 1.33 0.0 0 0 68.72 197.65
  L 65.99 191.48
  A 0.92 0.92 0.0 0 0 64.63 191.10
  C 62.69 192.46 59.36 194.14 56.98 193.78
  A 1.45 1.44 -65.5 0 1 56.10 191.42
  Q 58.56 188.53 63.01 187.49
  A 0.34 0.33 62.4 0 0 63.18 186.94
  C 56.16 179.02 46.02 176.87 36.22 180.38
  C 27.34 183.56 19.70 187.93 15.63 196.90
  Q 9.99 209.31 15.26 221.32
  C 18.50 228.71 27.48 234.39 35.20 235.41
  C 47.07 236.98 60.23 228.09 66.03 218.07
  Q 69.83 211.49 69.58 204.37"
/>
<path stroke="#6d6d6d" vector-effect="non-scaling-stroke" d="
  M 240.60 182.35
  C 237.73 189.77 239.75 198.96 247.13 202.64
  Q 249.29 203.71 252.00 202.44
  A 0.98 0.98 0.0 0 0 252.54 201.31
  Q 249.63 189.65 241.40 182.16
  A 0.50 0.49 -57.9 0 0 240.60 182.35"
/>
<path stroke="#808080" vector-effect="non-scaling-stroke" d="
  M 132.16 198.86
  L 124.40 191.80
  A 0.36 0.36 0.0 0 0 123.79 192.05
  L 123.62 195.32
  A 0.92 0.91 -80.0 0 0 124.25 196.23
  Q 127.47 197.27 129.69 201.01
  A 0.65 0.64 58.8 0 0 130.59 201.24
  Q 131.45 200.71 132.22 199.74
  A 0.65 0.65 0.0 0 0 132.16 198.86"
/>
<path stroke="#808080" vector-effect="non-scaling-stroke" d="
  M 123.81 229.93
  C 125.64 228.51 129.78 225.26 131.64 227.66
  A 1.65 1.64 -41.4 0 1 131.50 229.84
  Q 128.65 232.66 124.58 234.22
  A 0.46 0.46 0.0 0 0 124.30 234.74
  Q 125.43 239.56 128.81 242.83
  A 0.64 0.63 -43.2 0 0 129.66 242.85
  C 132.42 240.49 135.10 237.71 137.33 238.40
  A 1.88 1.72 -64.6 0 1 138.16 241.12
  Q 136.72 243.43 133.68 245.05
  A 0.49 0.49 0.0 0 0 133.73 245.94
  Q 143.45 249.84 153.74 250.04
  C 158.10 250.12 166.62 248.41 171.44 245.26
  Q 173.25 244.07 176.11 242.64
  A 6.40 6.32 -78.1 0 0 177.32 241.84
  C 181.41 238.39 185.20 236.12 187.02 230.59
  C 189.29 223.66 191.05 218.72 190.31 211.90
  C 189.49 204.38 182.47 197.81 175.87 194.96
  Q 165.71 190.57 155.60 193.13
  C 142.66 196.41 132.45 203.05 126.41 215.17
  Q 123.12 221.77 123.36 229.72
  A 0.28 0.28 0.0 0 0 123.81 229.93"
/>
<path stroke="#808080" vector-effect="non-scaling-stroke" d="
  M 115.88 196.80
  C 112.37 199.50 108.86 203.30 105.98 205.92
  Q 95.70 215.25 85.27 225.00
  A 1.90 1.88 -20.4 0 0 84.68 226.27
  L 84.50 229.66
  A 0.33 0.33 0.0 0 0 85.07 229.91
  Q 100.40 214.28 116.56 199.94
  A 3.32 3.05 -76.5 0 1 117.23 199.49
  Q 119.71 198.25 119.08 195.02
  A 0.49 0.49 0.0 0 0 118.34 194.69
  Q 117.23 195.36 116.07 196.62
  A 1.75 1.29 -80.0 0 1 115.88 196.80"
/>
<path stroke="#6d6d6d" vector-effect="non-scaling-stroke" d="
  M 85.74 236.64
  L 103.87 254.61
  A 1.40 0.61 61.8 0 0 103.99 254.72
  Q 115.83 265.06 126.48 274.51
  Q 131.52 278.98 137.23 282.92
  A 1.21 1.20 -51.7 0 0 138.81 282.73
  C 148.78 271.58 160.15 261.85 171.63 252.70
  A 0.91 0.91 0.0 0 0 170.83 251.11
  Q 170.66 251.16 164.25 253.00
  Q 154.17 255.90 143.00 253.51
  C 133.60 251.49 123.69 248.01 120.41 237.85
  C 116.64 226.15 119.62 215.35 126.85 205.69
  A 0.77 0.77 0.0 0 0 126.85 204.75
  L 124.01 200.94
  A 0.78 0.77 51.2 0 0 122.89 200.81
  Q 103.98 216.71 85.73 235.67
  A 0.69 0.69 0.0 0 0 85.74 236.64"
/>
<path stroke="#6d6d6d" vector-effect="non-scaling-stroke" d="
  M 92.10 211.79
  L 74.08 210.85
  A 0.69 0.69 0.0 0 0 73.37 211.40
  Q 71.80 219.37 66.50 225.20
  A 0.23 0.23 0.0 0 0 66.66 225.59
  L 79.62 226.26
  A 0.44 0.44 0.0 0 0 80.08 225.81
  Q 80.02 223.74 81.30 222.57
  Q 89.57 215.03 92.30 212.31
  A 0.30 0.30 0.0 0 0 92.10 211.79"
/>
<path stroke="#6d6d6d" vector-effect="non-scaling-stroke" d="
  M 251.8294 214.8910
  A 5.28 0.87 -68.1 0 0 249.0528 219.4655
  A 5.28 0.87 -68.1 0 0 247.8906 224.6890
  A 5.28 0.87 -68.1 0 0 250.6672 220.1145
  A 5.28 0.87 -68.1 0 0 251.8294 214.8910"
/>
<path stroke="#6d6d6d" vector-effect="non-scaling-stroke" d="
  M 195.60 216.93
  A 0.46 0.45 -86.4 0 0 195.15 217.33
  Q 194.32 223.91 191.53 231.46
  A 0.43 0.42 10.1 0 0 191.93 232.03
  L 200.06 232.03
  A 0.58 0.58 0.0 0 0 200.64 231.48
  L 201.38 217.12
  A 0.19 0.18 1.4 0 0 201.19 216.93
  L 195.60 216.93"
/>
<path stroke="#808080" vector-effect="non-scaling-stroke" d="
  M 54.17 79.11
  Q 53.73 75.12 56.00 71.09
  A 0.56 0.56 0.0 0 0 55.55 70.25
  Q 51.18 69.95 47.85 67.12
  A 0.31 0.31 0.0 0 0 47.36 67.45
  Q 49.01 72.57 46.49 75.50
  A 0.53 0.52 25.8 0 0 46.79 76.36
  Q 50.32 77.08 53.52 79.48
  A 0.41 0.41 0.0 0 0 54.17 79.11"
/>
<path stroke="#808080" vector-effect="non-scaling-stroke" d="
  M 75.52 83.99
  Q 75.67 83.31 75.16 81.93
  A 1.42 1.41 5.8 0 0 74.56 81.20
  Q 73.81 80.73 72.53 80.68
  A 0.57 0.57 0.0 0 0 71.94 81.21
  Q 71.81 82.94 72.20 83.78
  A 1.91 1.59 43.3 0 0 75.52 83.99"
/>
<path stroke="#808080" vector-effect="non-scaling-stroke" d="
  M 215.82 161.88
  C 222.91 146.02 216.88 126.95 202.50 117.03
  C 201.02 116.01 196.71 113.87 195.69 116.26
  A 2.22 2.14 -65.2 0 0 196.67 119.09
  Q 207.43 124.41 211.76 135.71
  C 216.13 147.10 214.62 160.86 204.93 168.64
  Q 200.03 172.58 195.50 172.04
  C 185.87 170.91 181.16 163.16 176.96 154.59
  A 2.31 2.31 0.0 0 0 175.01 153.31
  L 174.29 153.27
  A 1.64 1.64 0.0 0 0 172.66 155.46
  C 175.19 162.53 179.93 170.28 186.55 174.02
  Q 195.60 179.13 203.86 175.02
  Q 211.71 171.11 215.82 161.88"
/>
<path stroke="#808080" vector-effect="non-scaling-stroke" d="
  M 94.44 150.14
  Q 94.28 149.56 93.65 149.08
  Q 93.01 148.60 91.28 146.76
  Q 89.87 145.26 85.96 144.10
  Q 83.47 143.36 83.17 145.73
  Q 82.71 149.30 85.05 152.25
  C 87.88 155.84 90.81 154.66 93.93 152.56
  Q 94.92 151.89 94.44 150.14"
/>
<path stroke="#ececec" vector-effect="non-scaling-stroke" d="
  M 82.6028 144.4993
  A 1.50 0.33 -96.4 0 0 82.4421 146.0268
  A 1.50 0.33 -96.4 0 0 82.9372 147.4807
  A 1.50 0.33 -96.4 0 0 83.0979 145.9532
  A 1.50 0.33 -96.4 0 0 82.6028 144.4993"
/>
<path stroke="#808080" vector-effect="non-scaling-stroke" d="
  M 149.49 151.50
  C 148.05 152.02 143.82 153.43 143.05 155.21
  A 2.28 2.26 28.1 0 0 143.91 158.02
  Q 148.33 160.87 152.34 159.43
  Q 156.35 157.99 157.94 152.97
  A 2.28 2.26 -67.7 0 0 156.82 150.26
  C 155.09 149.38 150.93 150.98 149.49 151.50"
/>
<path stroke="#808080" vector-effect="non-scaling-stroke" d="
  M 81.28 173.60
  L 81.33 173.63
  A 1.79 1.79 0.0 0 0 83.87 172.84
  Q 85.74 168.78 86.74 167.52
  Q 92.59 160.17 101.28 157.30
  C 103.43 156.59 105.66 156.58 107.96 156.08
  Q 110.57 155.51 112.95 155.43
  Q 131.85 154.77 144.84 167.82
  Q 146.22 169.20 147.33 171.04
  C 148.55 173.05 148.50 176.83 150.51 178.30
  Q 151.46 179.01 151.89 179.04
  A 2.25 2.18 -3.4 0 0 154.25 176.46
  Q 152.76 168.56 146.41 162.81
  Q 132.31 150.05 112.74 150.88
  Q 111.58 150.93 104.60 151.79
  Q 99.81 152.38 96.72 153.77
  C 89.89 156.84 82.12 163.04 80.10 170.74
  A 2.58 2.56 22.7 0 0 81.28 173.60"
/>
<path stroke="#808080" vector-effect="non-scaling-stroke" d="
  M 105.89 158.39
  A 2.32 2.31 -24.1 0 0 104.73 161.40
  Q 107.09 166.93 113.20 166.45
  A 2.19 2.19 0.0 0 0 114.29 166.05
  Q 116.96 164.16 118.42 163.16
  A 2.24 2.19 61.2 0 0 119.18 160.44
  Q 118.54 158.99 116.92 158.59
  C 113.19 157.68 109.21 156.83 105.89 158.39"
/>
<path stroke="#808080" vector-effect="non-scaling-stroke" d="
  M 91.8679 150.2641
  A 1.41 1.22 -25.0 0 0 90.0744 149.7543
  A 1.41 1.22 -25.0 0 0 89.3121 151.4559
  A 1.41 1.22 -25.0 0 0 91.1056 151.9657
  A 1.41 1.22 -25.0 0 0 91.8679 150.2641"
/>
<path stroke="#808080" vector-effect="non-scaling-stroke" d="
  M 148.87 156.22
  A 1.31 1.31 0.0 0 0 147.56 154.91
  A 1.31 1.31 0.0 0 0 146.25 156.22
  A 1.31 1.31 0.0 0 0 147.56 157.53
  A 1.31 1.31 0.0 0 0 148.87 156.22"
/>
<path stroke="#808080" vector-effect="non-scaling-stroke" d="
  M 107.40 160.68
  Q 107.55 161.47 108.68 161.60
  Q 109.43 161.69 110.25 161.13
  Q 111.56 160.26 111.48 159.89
  Q 111.41 159.52 109.88 159.20
  Q 108.91 158.99 108.24 159.35
  Q 107.24 159.89 107.40 160.68"
/>
</g>
<path fill="#010101" d="
  M 257.81 206.62
  C 257.16 215.67 255.60 224.13 248.95 231.17
  Q 243.97 236.43 242.01 237.76
  C 235.69 242.02 227.85 244.60 220.35 242.90
  Q 212.33 241.07 208.52 234.85
  A 0.84 0.84 0.0 0 0 207.47 234.52
  L 203.65 236.22
  A 2.19 2.12 -56.6 0 1 202.84 236.40
  L 190.06 236.66
  A 0.95 0.94 12.0 0 0 189.22 237.20
  Q 188.16 239.37 186.25 240.98
  Q 181.63 244.89 179.26 245.99
  A 0.76 0.76 0.0 0 0 178.82 246.74
  Q 179.22 251.45 177.00 253.96
  Q 175.95 255.14 171.30 259.07
  Q 155.83 270.81 142.47 285.47
  C 140.50 287.63 138.38 289.24 135.36 287.16
  Q 129.33 283.01 124.60 278.89
  Q 111.85 267.79 99.31 256.52
  Q 95.36 252.52 91.20 248.73
  Q 88.34 246.12 86.11 243.48
  Q 82.31 238.97 81.14 238.05
  A 2.42 2.31 8.8 0 1 80.45 237.15
  Q 79.50 234.95 80.01 231.48
  A 0.55 0.53 -83.4 0 0 79.53 230.86
  L 63.59 229.39
  A 1.38 1.37 26.5 0 0 62.56 229.73
  Q 57.77 234.00 52.11 236.68
  Q 35.50 244.75 20.51 234.23
  Q 12.55 228.64 9.78 220.00
  C 5.51 206.67 10.12 190.50 21.45 182.70
  Q 29.30 177.29 38.27 174.98
  A 1.21 1.20 -85.9 0 0 39.08 174.27
  L 43.29 163.90
  A 0.40 0.40 0.0 0 0 42.82 163.37
  C 33.44 165.98 21.86 162.16 19.88 151.43
  C 17.06 136.16 25.70 122.15 38.63 114.62
  C 44.46 111.23 50.04 107.71 55.58 105.85
  Q 62.52 103.51 71.77 102.79
  A 3.06 3.04 17.6 0 0 73.87 101.71
  C 75.49 99.77 78.16 101.18 80.25 101.14
  Q 87.44 101.00 118.24 101.52
  Q 137.00 101.83 156.54 103.28
  A 2.92 2.90 32.1 0 0 158.22 102.90
  L 161.73 100.89
  A 4.92 4.85 6.0 0 0 162.87 99.98
  C 170.07 92.18 174.42 77.34 165.33 68.90
  C 162.93 66.68 158.44 64.53 155.14 64.31
  Q 148.54 63.87 143.46 69.54
  Q 142.41 70.71 140.13 73.72
  A 1.57 1.51 48.6 0 1 137.59 73.51
  Q 137.04 72.59 137.21 71.57
  Q 139.05 59.99 145.68 51.53
  Q 150.69 45.12 160.64 37.36
  Q 167.19 32.26 176.96 28.89
  C 187.98 25.09 197.29 22.62 208.76 21.92
  C 228.10 20.74 245.78 28.65 260.08 41.60
  Q 277.06 57.00 280.79 78.78
  C 283.09 92.20 280.67 104.32 273.63 115.30
  A 0.17 0.17 0.0 0 0 273.85 115.54
  Q 275.71 114.63 277.50 112.78
  Q 279.18 111.03 280.27 111.27
  Q 282.16 111.68 282.64 113.21
  Q 286.30 124.71 281.88 136.62
  C 275.88 152.80 263.59 163.76 247.57 170.32
  Q 244.28 171.67 239.23 171.79
  A 1.53 1.53 0.0 0 0 238.66 174.72
  L 240.11 175.35
  A 2.07 1.58 -7.6 0 1 240.39 175.51
  Q 256.25 187.09 257.81 206.62
  Z
  M 249.59 120.45
  L 249.16 128.55
  L 248.93 149.52
  A 6.04 5.98 -39.0 0 1 248.81 150.61
  L 248.20 153.47
  A 3.89 3.72 66.4 0 1 247.86 154.40
  L 241.40 166.79
  A 0.22 0.21 -81.6 0 0 241.63 167.10
  C 250.71 165.46 260.07 158.84 266.55 152.47
  Q 273.17 145.97 277.16 136.09
  Q 280.61 127.54 279.17 117.94
  A 0.31 0.31 0.0 0 0 278.67 117.74
  C 275.90 119.96 269.59 123.63 266.15 122.37
  A 0.82 0.82 0.0 0 1 265.69 121.94
  C 264.23 118.50 267.51 114.54 269.83 112.35
  A 4.73 4.67 -7.3 0 0 270.70 111.24
  Q 278.03 98.39 277.01 85.49
  C 275.72 69.34 268.74 55.40 256.65 44.63
  C 245.37 34.59 230.13 26.65 214.75 26.45
  Q 200.79 26.27 187.96 30.18
  Q 176.68 33.62 171.72 35.97
  C 162.01 40.59 149.69 51.15 144.56 62.20
  A 0.20 0.20 0.0 0 0 144.85 62.46
  Q 152.50 57.64 160.81 60.92
  C 173.66 66.00 177.39 77.10 173.68 89.94
  Q 171.37 97.92 165.69 103.68
  A 0.20 0.19 -66.0 0 0 165.81 104.01
  Q 192.91 105.80 219.84 109.49
  C 226.51 110.41 235.12 110.96 240.62 111.24
  Q 241.46 111.29 246.55 112.18
  C 252.73 113.25 250.06 116.61 249.59 120.45
  Z
  M 211.10 193.29
  Q 211.18 192.83 211.38 192.54
  C 218.63 177.88 224.05 164.19 230.95 147.42
  Q 232.97 142.50 236.28 135.06
  Q 240.10 126.45 243.74 118.45
  A 0.26 0.25 17.2 0 0 243.55 118.10
  Q 236.93 116.88 231.59 115.94
  Q 224.60 114.71 219.58 114.04
  Q 170.33 107.50 120.49 106.04
  Q 105.81 105.61 81.99 105.35
  Q 79.94 105.33 76.72 104.88
  A 0.70 0.69 -71.9 0 0 76.02 105.24
  C 70.40 116.03 65.47 127.55 60.29 137.91
  C 55.19 148.13 52.02 154.45 48.62 162.86
  Q 46.27 168.66 44.24 173.90
  A 0.32 0.32 0.0 0 0 44.56 174.33
  C 54.89 173.71 63.99 178.95 69.33 188.05
  Q 74.37 196.64 74.30 205.71
  A 0.66 0.66 0.0 0 0 74.93 206.38
  L 96.85 207.51
  A 1.50 1.46 24.7 0 0 97.92 207.13
  Q 105.89 199.85 112.80 193.15
  C 115.03 190.98 117.07 189.73 120.35 187.39
  Q 121.05 186.89 124.79 186.75
  A 0.98 0.94 63.6 0 1 125.48 187.00
  L 135.60 196.22
  A 0.62 0.62 0.0 0 0 136.36 196.27
  Q 143.32 191.62 152.62 189.05
  C 169.51 184.38 187.57 191.20 194.32 207.92
  A 1.04 0.40 -84.5 0 1 194.37 208.10
  L 194.94 211.69
  A 0.75 0.74 85.4 0 0 195.67 212.32
  L 201.48 212.32
  A 0.69 0.69 0.0 0 0 202.10 211.93
  L 211.10 193.29
  Z
  M 69.85 107.02
  Q 60.31 108.59 56.95 109.93
  Q 50.60 112.45 40.64 118.62
  C 30.02 125.20 22.35 136.26 24.03 149.22
  C 25.10 157.45 32.85 160.68 40.20 159.17
  C 42.07 158.79 43.75 157.65 45.45 157.19
  A 1.15 1.13 3.1 0 0 46.20 156.53
  C 50.54 146.25 56.76 135.47 60.86 126.13
  Q 64.86 117.04 70.19 107.51
  A 0.33 0.33 0.0 0 0 69.85 107.02
  Z
  M 205.18 230.46
  A 0.09 0.09 0.0 0 0 205.35 230.51
  Q 218.20 205.61 228.70 181.71
  Q 230.62 177.34 240.60 158.70
  C 241.77 156.52 242.85 153.51 243.96 151.71
  A 1.74 1.73 59.3 0 0 244.21 150.71
  Q 244.11 148.70 244.42 131.50
  Q 244.44 130.36 243.87 130.13
  A 0.50 0.50 0.0 0 0 243.23 130.41
  Q 238.64 141.53 220.93 182.47
  Q 213.20 200.34 206.55 213.06
  A 5.31 5.26 -30.1 0 0 205.97 215.20
  L 205.18 230.46
  Z
  M 252.25 207.05
  Q 247.19 208.79 242.49 205.21
  C 234.62 199.22 232.53 188.17 237.05 179.44
  A 0.64 0.64 0.0 0 0 236.54 178.51
  L 235.86 178.44
  A 0.90 0.90 0.0 0 0 234.98 178.94
  Q 232.01 184.97 225.10 200.63
  Q 221.55 208.67 211.99 227.38
  A 3.56 3.49 -29.4 0 0 211.61 228.69
  C 211.13 234.13 217.02 237.46 221.86 238.48
  C 229.90 240.18 238.89 235.48 244.13 229.52
  A 1.14 1.12 -35.1 0 0 244.34 228.36
  Q 241.04 219.59 248.53 211.99
  Q 250.72 209.77 252.20 210.34
  A 0.50 0.49 18.8 0 0 252.86 210.02
  Q 253.38 208.31 253.13 207.50
  A 0.70 0.69 -17.8 0 0 252.25 207.05
  Z
  M 69.58 204.37
  A 0.31 0.31 0.0 0 0 69.08 204.13
  Q 66.35 206.20 64.65 205.62
  A 2.14 1.94 -53.8 0 1 64.28 202.06
  Q 66.01 200.65 68.19 199.34
  A 1.33 1.33 0.0 0 0 68.72 197.65
  L 65.99 191.48
  A 0.92 0.92 0.0 0 0 64.63 191.10
  C 62.69 192.46 59.36 194.14 56.98 193.78
  A 1.45 1.44 -65.5 0 1 56.10 191.42
  Q 58.56 188.53 63.01 187.49
  A 0.34 0.33 62.4 0 0 63.18 186.94
  C 56.16 179.02 46.02 176.87 36.22 180.38
  C 27.34 183.56 19.70 187.93 15.63 196.90
  Q 9.99 209.31 15.26 221.32
  C 18.50 228.71 27.48 234.39 35.20 235.41
  C 47.07 236.98 60.23 228.09 66.03 218.07
  Q 69.83 211.49 69.58 204.37
  Z
  M 240.60 182.35
  C 237.73 189.77 239.75 198.96 247.13 202.64
  Q 249.29 203.71 252.00 202.44
  A 0.98 0.98 0.0 0 0 252.54 201.31
  Q 249.63 189.65 241.40 182.16
  A 0.50 0.49 -57.9 0 0 240.60 182.35
  Z
  M 132.16 198.86
  L 124.40 191.80
  A 0.36 0.36 0.0 0 0 123.79 192.05
  L 123.62 195.32
  A 0.92 0.91 -80.0 0 0 124.25 196.23
  Q 127.47 197.27 129.69 201.01
  A 0.65 0.64 58.8 0 0 130.59 201.24
  Q 131.45 200.71 132.22 199.74
  A 0.65 0.65 0.0 0 0 132.16 198.86
  Z
  M 123.81 229.93
  C 125.64 228.51 129.78 225.26 131.64 227.66
  A 1.65 1.64 -41.4 0 1 131.50 229.84
  Q 128.65 232.66 124.58 234.22
  A 0.46 0.46 0.0 0 0 124.30 234.74
  Q 125.43 239.56 128.81 242.83
  A 0.64 0.63 -43.2 0 0 129.66 242.85
  C 132.42 240.49 135.10 237.71 137.33 238.40
  A 1.88 1.72 -64.6 0 1 138.16 241.12
  Q 136.72 243.43 133.68 245.05
  A 0.49 0.49 0.0 0 0 133.73 245.94
  Q 143.45 249.84 153.74 250.04
  C 158.10 250.12 166.62 248.41 171.44 245.26
  Q 173.25 244.07 176.11 242.64
  A 6.40 6.32 -78.1 0 0 177.32 241.84
  C 181.41 238.39 185.20 236.12 187.02 230.59
  C 189.29 223.66 191.05 218.72 190.31 211.90
  C 189.49 204.38 182.47 197.81 175.87 194.96
  Q 165.71 190.57 155.60 193.13
  C 142.66 196.41 132.45 203.05 126.41 215.17
  Q 123.12 221.77 123.36 229.72
  A 0.28 0.28 0.0 0 0 123.81 229.93
  Z
  M 115.88 196.80
  C 112.37 199.50 108.86 203.30 105.98 205.92
  Q 95.70 215.25 85.27 225.00
  A 1.90 1.88 -20.4 0 0 84.68 226.27
  L 84.50 229.66
  A 0.33 0.33 0.0 0 0 85.07 229.91
  Q 100.40 214.28 116.56 199.94
  A 3.32 3.05 -76.5 0 1 117.23 199.49
  Q 119.71 198.25 119.08 195.02
  A 0.49 0.49 0.0 0 0 118.34 194.69
  Q 117.23 195.36 116.07 196.62
  A 1.75 1.29 -80.0 0 1 115.88 196.80
  Z
  M 85.74 236.64
  L 103.87 254.61
  A 1.40 0.61 61.8 0 0 103.99 254.72
  Q 115.83 265.06 126.48 274.51
  Q 131.52 278.98 137.23 282.92
  A 1.21 1.20 -51.7 0 0 138.81 282.73
  C 148.78 271.58 160.15 261.85 171.63 252.70
  A 0.91 0.91 0.0 0 0 170.83 251.11
  Q 170.66 251.16 164.25 253.00
  Q 154.17 255.90 143.00 253.51
  C 133.60 251.49 123.69 248.01 120.41 237.85
  C 116.64 226.15 119.62 215.35 126.85 205.69
  A 0.77 0.77 0.0 0 0 126.85 204.75
  L 124.01 200.94
  A 0.78 0.77 51.2 0 0 122.89 200.81
  Q 103.98 216.71 85.73 235.67
  A 0.69 0.69 0.0 0 0 85.74 236.64
  Z
  M 92.10 211.79
  L 74.08 210.85
  A 0.69 0.69 0.0 0 0 73.37 211.40
  Q 71.80 219.37 66.50 225.20
  A 0.23 0.23 0.0 0 0 66.66 225.59
  L 79.62 226.26
  A 0.44 0.44 0.0 0 0 80.08 225.81
  Q 80.02 223.74 81.30 222.57
  Q 89.57 215.03 92.30 212.31
  A 0.30 0.30 0.0 0 0 92.10 211.79
  Z
  M 251.8294 214.8910
  A 5.28 0.87 -68.1 0 0 249.0528 219.4655
  A 5.28 0.87 -68.1 0 0 247.8906 224.6890
  A 5.28 0.87 -68.1 0 0 250.6672 220.1145
  A 5.28 0.87 -68.1 0 0 251.8294 214.8910
  Z
  M 195.60 216.93
  A 0.46 0.45 -86.4 0 0 195.15 217.33
  Q 194.32 223.91 191.53 231.46
  A 0.43 0.42 10.1 0 0 191.93 232.03
  L 200.06 232.03
  A 0.58 0.58 0.0 0 0 200.64 231.48
  L 201.38 217.12
  A 0.19 0.18 1.4 0 0 201.19 216.93
  L 195.60 216.93
  Z"
/>
<path fill="#ffffff" d="
  M 249.16 128.55
  Q 250.32 124.91 249.59 120.45
  C 250.06 116.61 252.73 113.25 246.55 112.18
  Q 241.46 111.29 240.62 111.24
  C 235.12 110.96 226.51 110.41 219.84 109.49
  Q 192.91 105.80 165.81 104.01
  A 0.20 0.19 -66.0 0 1 165.69 103.68
  Q 171.37 97.92 173.68 89.94
  C 177.39 77.10 173.66 66.00 160.81 60.92
  Q 152.50 57.64 144.85 62.46
  A 0.20 0.20 0.0 0 1 144.56 62.20
  C 149.69 51.15 162.01 40.59 171.72 35.97
  Q 176.68 33.62 187.96 30.18
  Q 200.79 26.27 214.75 26.45
  C 230.13 26.65 245.37 34.59 256.65 44.63
  C 268.74 55.40 275.72 69.34 277.01 85.49
  Q 278.03 98.39 270.70 111.24
  A 4.73 4.67 -7.3 0 1 269.83 112.35
  C 267.51 114.54 264.23 118.50 265.69 121.94
  A 0.82 0.82 0.0 0 0 266.15 122.37
  C 269.59 123.63 275.90 119.96 278.67 117.74
  A 0.31 0.31 0.0 0 1 279.17 117.94
  Q 280.61 127.54 277.16 136.09
  Q 273.17 145.97 266.55 152.47
  C 260.07 158.84 250.71 165.46 241.63 167.10
  A 0.22 0.21 -81.6 0 1 241.40 166.79
  L 247.86 154.40
  A 3.89 3.72 66.4 0 0 248.20 153.47
  L 248.81 150.61
  A 6.04 5.98 -39.0 0 0 248.93 149.52
  L 249.16 128.55
  Z"
/>
<path fill="#010101" d="
  M 60.15 93.98
  C 56.94 94.06 53.97 88.80 52.18 85.85
  Q 50.01 82.27 45.19 81.24
  A 3.11 3.01 -45.9 0 0 43.67 81.29
  C 41.25 82.01 36.40 84.19 34.00 83.35
  A 1.53 1.53 0.0 0 1 33.34 80.91
  C 36.47 77.22 43.69 75.35 43.13 69.26
  Q 42.66 64.18 41.90 58.21
  A 2.18 2.16 82.3 0 1 43.74 55.78
  Q 45.08 55.59 45.82 56.71
  C 48.72 61.11 51.32 64.66 57.03 65.02
  Q 60.66 65.26 64.36 64.89
  A 1.35 1.35 0.0 0 1 65.85 66.28
  C 65.80 67.59 64.34 68.20 63.07 68.88
  A 2.11 2.09 -87.2 0 0 62.32 69.57
  Q 59.73 73.57 59.37 75.17
  Q 58.45 79.25 59.20 86.51
  C 59.44 88.80 60.78 90.50 60.79 93.32
  A 0.66 0.65 89.6 0 1 60.15 93.98
  Z
  M 54.17 79.11
  Q 53.73 75.12 56.00 71.09
  A 0.56 0.56 0.0 0 0 55.55 70.25
  Q 51.18 69.95 47.85 67.12
  A 0.31 0.31 0.0 0 0 47.36 67.45
  Q 49.01 72.57 46.49 75.50
  A 0.53 0.52 25.8 0 0 46.79 76.36
  Q 50.32 77.08 53.52 79.48
  A 0.41 0.41 0.0 0 0 54.17 79.11
  Z"
/>
<path fill="#ffffff" d="
  M 53.52 79.48
  Q 50.32 77.08 46.79 76.36
  A 0.53 0.52 25.8 0 1 46.49 75.50
  Q 49.01 72.57 47.36 67.45
  A 0.31 0.31 0.0 0 1 47.85 67.12
  Q 51.18 69.95 55.55 70.25
  A 0.56 0.56 0.0 0 1 56.00 71.09
  Q 53.73 75.12 54.17 79.11
  A 0.41 0.41 0.0 0 1 53.52 79.48
  Z"
/>
<path fill="#010101" d="
  M 79.66 91.32
  A 1.11 1.10 -73.5 0 1 77.96 92.25
  L 71.02 87.78
  A 2.46 2.44 63.1 0 0 69.84 87.39
  L 66.39 87.21
  A 1.32 1.31 23.2 0 1 65.50 84.99
  Q 67.09 83.32 67.76 81.62
  A 3.06 3.02 -36.5 0 0 67.96 80.34
  Q 67.74 77.10 67.29 73.77
  Q 67.23 73.28 67.41 72.91
  A 1.18 1.17 35.8 0 1 69.33 72.60
  C 71.19 74.57 72.48 75.95 75.07 76.73
  Q 79.18 77.96 82.58 77.98
  A 0.37 0.37 0.0 0 1 82.83 78.62
  Q 80.21 80.94 79.53 84.85
  C 79.19 86.75 79.66 89.58 79.66 91.32
  Z
  M 75.52 83.99
  Q 75.67 83.31 75.16 81.93
  A 1.42 1.41 5.8 0 0 74.56 81.20
  Q 73.81 80.73 72.53 80.68
  A 0.57 0.57 0.0 0 0 71.94 81.21
  Q 71.81 82.94 72.20 83.78
  A 1.91 1.59 43.3 0 0 75.52 83.99
  Z"
/>
<path fill="#ffffff" d="
  M 75.52 83.99
  A 1.91 1.59 43.3 0 1 72.20 83.78
  Q 71.81 82.94 71.94 81.21
  A 0.57 0.57 0.0 0 1 72.53 80.68
  Q 73.81 80.73 74.56 81.20
  A 1.42 1.41 5.8 0 1 75.16 81.93
  Q 75.67 83.31 75.52 83.99
  Z"
/>
<path fill="#ffffff" d="
  M 211.38 192.54
  Q 211.05 192.57 211.10 193.29
  L 202.10 211.93
  A 0.69 0.69 0.0 0 1 201.48 212.32
  L 195.67 212.32
  A 0.75 0.74 85.4 0 1 194.94 211.69
  L 194.37 208.10
  A 1.04 0.40 -84.5 0 0 194.32 207.92
  C 187.57 191.20 169.51 184.38 152.62 189.05
  Q 143.32 191.62 136.36 196.27
  A 0.62 0.62 0.0 0 1 135.60 196.22
  L 125.48 187.00
  A 0.98 0.94 63.6 0 0 124.79 186.75
  Q 121.05 186.89 120.35 187.39
  C 117.07 189.73 115.03 190.98 112.80 193.15
  Q 105.89 199.85 97.92 207.13
  A 1.50 1.46 24.7 0 1 96.85 207.51
  L 74.93 206.38
  A 0.66 0.66 0.0 0 1 74.30 205.71
  Q 74.37 196.64 69.33 188.05
  C 63.99 178.95 54.89 173.71 44.56 174.33
  A 0.32 0.32 0.0 0 1 44.24 173.90
  Q 46.27 168.66 48.62 162.86
  C 52.02 154.45 55.19 148.13 60.29 137.91
  C 65.47 127.55 70.40 116.03 76.02 105.24
  A 0.70 0.69 -71.9 0 1 76.72 104.88
  Q 79.94 105.33 81.99 105.35
  Q 105.81 105.61 120.49 106.04
  Q 170.33 107.50 219.58 114.04
  Q 224.60 114.71 231.59 115.94
  Q 236.93 116.88 243.55 118.10
  A 0.26 0.25 17.2 0 1 243.74 118.45
  Q 240.10 126.45 236.28 135.06
  Q 232.97 142.50 230.95 147.42
  C 224.05 164.19 218.63 177.88 211.38 192.54
  Z
  M 215.82 161.88
  C 222.91 146.02 216.88 126.95 202.50 117.03
  C 201.02 116.01 196.71 113.87 195.69 116.26
  A 2.22 2.14 -65.2 0 0 196.67 119.09
  Q 207.43 124.41 211.76 135.71
  C 216.13 147.10 214.62 160.86 204.93 168.64
  Q 200.03 172.58 195.50 172.04
  C 185.87 170.91 181.16 163.16 176.96 154.59
  A 2.31 2.31 0.0 0 0 175.01 153.31
  L 174.29 153.27
  A 1.64 1.64 0.0 0 0 172.66 155.46
  C 175.19 162.53 179.93 170.28 186.55 174.02
  Q 195.60 179.13 203.86 175.02
  Q 211.71 171.11 215.82 161.88
  Z
  M 94.44 150.14
  Q 94.28 149.56 93.65 149.08
  Q 93.01 148.60 91.28 146.76
  Q 89.87 145.26 85.96 144.10
  Q 83.47 143.36 83.17 145.73
  Q 82.71 149.30 85.05 152.25
  C 87.88 155.84 90.81 154.66 93.93 152.56
  Q 94.92 151.89 94.44 150.14
  Z
  M 82.6028 144.4993
  A 1.50 0.33 -96.4 0 0 82.4421 146.0268
  A 1.50 0.33 -96.4 0 0 82.9372 147.4807
  A 1.50 0.33 -96.4 0 0 83.0979 145.9532
  A 1.50 0.33 -96.4 0 0 82.6028 144.4993
  Z
  M 149.49 151.50
  C 148.05 152.02 143.82 153.43 143.05 155.21
  A 2.28 2.26 28.1 0 0 143.91 158.02
  Q 148.33 160.87 152.34 159.43
  Q 156.35 157.99 157.94 152.97
  A 2.28 2.26 -67.7 0 0 156.82 150.26
  C 155.09 149.38 150.93 150.98 149.49 151.50
  Z
  M 81.28 173.60
  L 81.33 173.63
  A 1.79 1.79 0.0 0 0 83.87 172.84
  Q 85.74 168.78 86.74 167.52
  Q 92.59 160.17 101.28 157.30
  C 103.43 156.59 105.66 156.58 107.96 156.08
  Q 110.57 155.51 112.95 155.43
  Q 131.85 154.77 144.84 167.82
  Q 146.22 169.20 147.33 171.04
  C 148.55 173.05 148.50 176.83 150.51 178.30
  Q 151.46 179.01 151.89 179.04
  A 2.25 2.18 -3.4 0 0 154.25 176.46
  Q 152.76 168.56 146.41 162.81
  Q 132.31 150.05 112.74 150.88
  Q 111.58 150.93 104.60 151.79
  Q 99.81 152.38 96.72 153.77
  C 89.89 156.84 82.12 163.04 80.10 170.74
  A 2.58 2.56 22.7 0 0 81.28 173.60
  Z
  M 105.89 158.39
  A 2.32 2.31 -24.1 0 0 104.73 161.40
  Q 107.09 166.93 113.20 166.45
  A 2.19 2.19 0.0 0 0 114.29 166.05
  Q 116.96 164.16 118.42 163.16
  A 2.24 2.19 61.2 0 0 119.18 160.44
  Q 118.54 158.99 116.92 158.59
  C 113.19 157.68 109.21 156.83 105.89 158.39
  Z"
/>
<path fill="#ffffff" d="
  M 70.19 107.51
  Q 64.86 117.04 60.86 126.13
  C 56.76 135.47 50.54 146.25 46.20 156.53
  A 1.15 1.13 3.1 0 1 45.45 157.19
  C 43.75 157.65 42.07 158.79 40.20 159.17
  C 32.85 160.68 25.10 157.45 24.03 149.22
  C 22.35 136.26 30.02 125.20 40.64 118.62
  Q 50.60 112.45 56.95 109.93
  Q 60.31 108.59 69.85 107.02
  A 0.33 0.33 0.0 0 1 70.19 107.51
  Z"
/>
<path fill="#010101" d="
  M 203.86 175.02
  Q 195.60 179.13 186.55 174.02
  C 179.93 170.28 175.19 162.53 172.66 155.46
  A 1.64 1.64 0.0 0 1 174.29 153.27
  L 175.01 153.31
  A 2.31 2.31 0.0 0 1 176.96 154.59
  C 181.16 163.16 185.87 170.91 195.50 172.04
  Q 200.03 172.58 204.93 168.64
  C 214.62 160.86 216.13 147.10 211.76 135.71
  Q 207.43 124.41 196.67 119.09
  A 2.22 2.14 -65.2 0 1 195.69 116.26
  C 196.71 113.87 201.02 116.01 202.50 117.03
  C 216.88 126.95 222.91 146.02 215.82 161.88
  Q 211.71 171.11 203.86 175.02
  Z"
/>
<path fill="#d9d9d9" d="
  M 249.59 120.45
  Q 250.32 124.91 249.16 128.55
  L 249.59 120.45
  Z"
/>
<path fill="#d9d9d9" d="
  M 205.18 230.46
  L 205.97 215.20
  A 5.31 5.26 -30.1 0 1 206.55 213.06
  Q 213.20 200.34 220.93 182.47
  Q 238.64 141.53 243.23 130.41
  A 0.50 0.50 0.0 0 1 243.87 130.13
  Q 244.44 130.36 244.42 131.50
  Q 244.11 148.70 244.21 150.71
  A 1.74 1.73 59.3 0 1 243.96 151.71
  C 242.85 153.51 241.77 156.52 240.60 158.70
  Q 230.62 177.34 228.70 181.71
  Q 218.20 205.61 205.35 230.51
  A 0.09 0.09 0.0 0 1 205.18 230.46
  Z"
/>
<path fill="#010101" d="
  M 94.44 150.14
  Q 94.92 151.89 93.93 152.56
  C 90.81 154.66 87.88 155.84 85.05 152.25
  Q 82.71 149.30 83.17 145.73
  Q 83.47 143.36 85.96 144.10
  Q 89.87 145.26 91.28 146.76
  Q 93.01 148.60 93.65 149.08
  Q 94.28 149.56 94.44 150.14
  Z
  M 91.8679 150.2641
  A 1.41 1.22 -25.0 0 0 90.0744 149.7543
  A 1.41 1.22 -25.0 0 0 89.3121 151.4559
  A 1.41 1.22 -25.0 0 0 91.1056 151.9657
  A 1.41 1.22 -25.0 0 0 91.8679 150.2641
  Z"
/>
<ellipse fill="#d9d9d9" cx="0.00" cy="0.00" transform="translate(82.77,145.99) rotate(-96.4)" rx="1.50" ry="0.33"/>
<ellipse fill="#ffffff" cx="0.00" cy="0.00" transform="translate(90.59,150.86) rotate(-25.0)" rx="1.41" ry="1.22"/>
<path fill="#010101" d="
  M 152.34 159.43
  Q 148.33 160.87 143.91 158.02
  A 2.28 2.26 28.1 0 1 143.05 155.21
  C 143.82 153.43 148.05 152.02 149.49 151.50
  C 150.93 150.98 155.09 149.38 156.82 150.26
  A 2.28 2.26 -67.7 0 1 157.94 152.97
  Q 156.35 157.99 152.34 159.43
  Z
  M 148.87 156.22
  A 1.31 1.31 0.0 0 0 147.56 154.91
  A 1.31 1.31 0.0 0 0 146.25 156.22
  A 1.31 1.31 0.0 0 0 147.56 157.53
  A 1.31 1.31 0.0 0 0 148.87 156.22
  Z"
/>
<path fill="#010101" d="
  M 80.10 170.74
  C 82.12 163.04 89.89 156.84 96.72 153.77
  Q 99.81 152.38 104.60 151.79
  Q 111.58 150.93 112.74 150.88
  Q 132.31 150.05 146.41 162.81
  Q 152.76 168.56 154.25 176.46
  A 2.25 2.18 -3.4 0 1 151.89 179.04
  Q 151.46 179.01 150.51 178.30
  C 148.50 176.83 148.55 173.05 147.33 171.04
  Q 146.22 169.20 144.84 167.82
  Q 131.85 154.77 112.95 155.43
  Q 110.57 155.51 107.96 156.08
  C 105.66 156.58 103.43 156.59 101.28 157.30
  Q 92.59 160.17 86.74 167.52
  Q 85.74 168.78 83.87 172.84
  A 1.79 1.79 0.0 0 1 81.33 173.63
  L 81.28 173.60
  A 2.58 2.56 22.7 0 1 80.10 170.74
  Z"
/>
<circle fill="#ffffff" cx="147.56" cy="156.22" r="1.31"/>
<path fill="#010101" d="
  M 105.89 158.39
  C 109.21 156.83 113.19 157.68 116.92 158.59
  Q 118.54 158.99 119.18 160.44
  A 2.24 2.19 61.2 0 1 118.42 163.16
  Q 116.96 164.16 114.29 166.05
  A 2.19 2.19 0.0 0 1 113.20 166.45
  Q 107.09 166.93 104.73 161.40
  A 2.32 2.31 -24.1 0 1 105.89 158.39
  Z
  M 107.40 160.68
  Q 107.55 161.47 108.68 161.60
  Q 109.43 161.69 110.25 161.13
  Q 111.56 160.26 111.48 159.89
  Q 111.41 159.52 109.88 159.20
  Q 108.91 158.99 108.24 159.35
  Q 107.24 159.89 107.40 160.68
  Z"
/>
<path fill="#ffffff" d="
  M 111.48 159.89
  Q 111.56 160.26 110.25 161.13
  Q 109.43 161.69 108.68 161.60
  Q 107.55 161.47 107.40 160.68
  Q 107.24 159.89 108.24 159.35
  Q 108.91 158.99 109.88 159.20
  Q 111.41 159.52 111.48 159.89
  Z"
/>
<path fill="#ffffff" d="
  M 253.13 207.50
  Q 253.38 208.31 252.86 210.02
  A 0.50 0.49 18.8 0 1 252.20 210.34
  Q 250.72 209.77 248.53 211.99
  Q 241.04 219.59 244.34 228.36
  A 1.14 1.12 -35.1 0 1 244.13 229.52
  C 238.89 235.48 229.90 240.18 221.86 238.48
  C 217.02 237.46 211.13 234.13 211.61 228.69
  A 3.56 3.49 -29.4 0 1 211.99 227.38
  Q 221.55 208.67 225.10 200.63
  Q 232.01 184.97 234.98 178.94
  A 0.90 0.90 0.0 0 1 235.86 178.44
  L 236.54 178.51
  A 0.64 0.64 0.0 0 1 237.05 179.44
  C 232.53 188.17 234.62 199.22 242.49 205.21
  Q 247.19 208.79 252.25 207.05
  A 0.70 0.69 -17.8 0 1 253.13 207.50
  Z"
/>
<path fill="#ffffff" d="
  M 69.58 204.37
  Q 69.83 211.49 66.03 218.07
  C 60.23 228.09 47.07 236.98 35.20 235.41
  C 27.48 234.39 18.50 228.71 15.26 221.32
  Q 9.99 209.31 15.63 196.90
  C 19.70 187.93 27.34 183.56 36.22 180.38
  C 46.02 176.87 56.16 179.02 63.18 186.94
  A 0.34 0.33 62.4 0 1 63.01 187.49
  Q 58.56 188.53 56.10 191.42
  A 1.45 1.44 -65.5 0 0 56.98 193.78
  C 59.36 194.14 62.69 192.46 64.63 191.10
  A 0.92 0.92 0.0 0 1 65.99 191.48
  L 68.72 197.65
  A 1.33 1.33 0.0 0 1 68.19 199.34
  Q 66.01 200.65 64.28 202.06
  A 2.14 1.94 -53.8 0 0 64.65 205.62
  Q 66.35 206.20 69.08 204.13
  A 0.31 0.31 0.0 0 1 69.58 204.37
  Z"
/>
<path fill="#d9d9d9" d="
  M 241.40 182.16
  Q 249.63 189.65 252.54 201.31
  A 0.98 0.98 0.0 0 1 252.00 202.44
  Q 249.29 203.71 247.13 202.64
  C 239.75 198.96 237.73 189.77 240.60 182.35
  A 0.50 0.49 -57.9 0 1 241.40 182.16
  Z"
/>
<path fill="#ffffff" d="
  M 132.22 199.74
  Q 131.45 200.71 130.59 201.24
  A 0.65 0.64 58.8 0 1 129.69 201.01
  Q 127.47 197.27 124.25 196.23
  A 0.92 0.91 -80.0 0 1 123.62 195.32
  L 123.79 192.05
  A 0.36 0.36 0.0 0 1 124.40 191.80
  L 132.16 198.86
  A 0.65 0.65 0.0 0 1 132.22 199.74
  Z"
/>
<path fill="#ffffff" d="
  M 123.81 229.93
  A 0.28 0.28 0.0 0 1 123.36 229.72
  Q 123.12 221.77 126.41 215.17
  C 132.45 203.05 142.66 196.41 155.60 193.13
  Q 165.71 190.57 175.87 194.96
  C 182.47 197.81 189.49 204.38 190.31 211.90
  C 191.05 218.72 189.29 223.66 187.02 230.59
  C 185.20 236.12 181.41 238.39 177.32 241.84
  A 6.40 6.32 -78.1 0 1 176.11 242.64
  Q 173.25 244.07 171.44 245.26
  C 166.62 248.41 158.10 250.12 153.74 250.04
  Q 143.45 249.84 133.73 245.94
  A 0.49 0.49 0.0 0 1 133.68 245.05
  Q 136.72 243.43 138.16 241.12
  A 1.88 1.72 -64.6 0 0 137.33 238.40
  C 135.10 237.71 132.42 240.49 129.66 242.85
  A 0.64 0.63 -43.2 0 1 128.81 242.83
  Q 125.43 239.56 124.30 234.74
  A 0.46 0.46 0.0 0 1 124.58 234.22
  Q 128.65 232.66 131.50 229.84
  A 1.65 1.64 -41.4 0 0 131.64 227.66
  C 129.78 225.26 125.64 228.51 123.81 229.93
  Z"
/>
<path fill="#d9d9d9" d="
  M 211.38 192.54
  Q 211.18 192.83 211.10 193.29
  Q 211.05 192.57 211.38 192.54
  Z"
/>
<path fill="#ffffff" d="
  M 116.07 196.62
  Q 117.23 195.36 118.34 194.69
  A 0.49 0.49 0.0 0 1 119.08 195.02
  Q 119.71 198.25 117.23 199.49
  A 3.32 3.05 -76.5 0 0 116.56 199.94
  Q 100.40 214.28 85.07 229.91
  A 0.33 0.33 0.0 0 1 84.50 229.66
  L 84.68 226.27
  A 1.90 1.88 -20.4 0 1 85.27 225.00
  Q 95.70 215.25 105.98 205.92
  C 108.86 203.30 112.37 199.50 115.88 196.80
  A 1.75 1.29 -80.0 0 0 116.07 196.62
  Z"
/>
<path fill="#d9d9d9" d="
  M 85.74 236.64
  A 0.69 0.69 0.0 0 1 85.73 235.67
  Q 103.98 216.71 122.89 200.81
  A 0.78 0.77 51.2 0 1 124.01 200.94
  L 126.85 204.75
  A 0.77 0.77 0.0 0 1 126.85 205.69
  C 119.62 215.35 116.64 226.15 120.41 237.85
  C 123.69 248.01 133.60 251.49 143.00 253.51
  Q 154.17 255.90 164.25 253.00
  Q 170.66 251.16 170.83 251.11
  A 0.91 0.91 0.0 0 1 171.63 252.70
  C 160.15 261.85 148.78 271.58 138.81 282.73
  A 1.21 1.20 -51.7 0 1 137.23 282.92
  Q 131.52 278.98 126.48 274.51
  Q 115.83 265.06 103.99 254.72
  A 1.40 0.61 61.8 0 1 103.87 254.61
  L 85.74 236.64
  Z"
/>
<path fill="#d9d9d9" d="
  M 171.30 259.07
  Q 175.95 255.14 177.00 253.96
  Q 179.22 251.45 178.82 246.74
  A 0.76 0.76 0.0 0 1 179.26 245.99
  Q 181.63 244.89 186.25 240.98
  Q 188.16 239.37 189.22 237.20
  A 0.95 0.94 12.0 0 1 190.06 236.66
  L 202.84 236.40
  A 2.19 2.12 -56.6 0 0 203.65 236.22
  L 207.47 234.52
  A 0.84 0.84 0.0 0 1 208.52 234.85
  Q 212.33 241.07 220.35 242.90
  C 227.85 244.60 235.69 242.02 242.01 237.76
  Q 243.97 236.43 248.95 231.17
  C 255.60 224.13 257.16 215.67 257.81 206.62
  Q 268.86 215.73 264.13 229.91
  Q 263.39 232.14 260.38 235.14
  C 252.81 242.66 242.88 246.95 233.31 250.26
  C 226.41 252.64 218.94 253.70 211.02 255.43
  Q 207.34 256.24 201.96 256.87
  Q 186.83 258.67 171.30 259.07
  Z"
/>
<path fill="#d9d9d9" d="
  M 92.30 212.31
  Q 89.57 215.03 81.30 222.57
  Q 80.02 223.74 80.08 225.81
  A 0.44 0.44 0.0 0 1 79.62 226.26
  L 66.66 225.59
  A 0.23 0.23 0.0 0 1 66.50 225.20
  Q 71.80 219.37 73.37 211.40
  A 0.69 0.69 0.0 0 1 74.08 210.85
  L 92.10 211.79
  A 0.30 0.30 0.0 0 1 92.30 212.31
  Z"
/>
<ellipse fill="#d9d9d9" cx="0.00" cy="0.00" transform="translate(249.86,219.79) rotate(-68.1)" rx="5.28" ry="0.87"/>
<path fill="#d9d9d9" d="
  M 201.38 217.12
  L 200.64 231.48
  A 0.58 0.58 0.0 0 1 200.06 232.03
  L 191.93 232.03
  A 0.43 0.42 10.1 0 1 191.53 231.46
  Q 194.32 223.91 195.15 217.33
  A 0.46 0.45 -86.4 0 1 195.60 216.93
  L 201.19 216.93
  A 0.19 0.18 1.4 0 1 201.38 217.12
  Z"
/>
<path fill="#d9d9d9" d="
  M 99.31 256.52
  Q 89.74 254.78 80.28 252.92
  Q 67.43 250.40 57.70 242.55
  Q 56.06 241.23 54.45 237.10
  A 0.55 0.55 0.0 0 0 53.67 236.82
  Q 53.48 236.92 53.17 237.32
  A 0.51 0.51 0.0 0 1 52.31 237.24
  Q 52.19 237.02 52.11 236.68
  Q 57.77 234.00 62.56 229.73
  A 1.38 1.37 26.5 0 1 63.59 229.39
  L 79.53 230.86
  A 0.55 0.53 -83.4 0 1 80.01 231.48
  Q 79.50 234.95 80.45 237.15
  A 2.42 2.31 8.8 0 0 81.14 238.05
  Q 82.31 238.97 86.11 243.48
  Q 88.34 246.12 91.20 248.73
  Q 95.36 252.52 99.31 256.52
  Z"
/>
</svg>
