<?xml version="1.0" standalone="no"?>
<!DOCTYPE svg PUBLIC "-//W3C//DTD SVG 20010904//EN"
 "http://www.w3.org/TR/2001/REC-SVG-20010904/DTD/svg10.dtd">
<svg version="1.0" xmlns="http://www.w3.org/2000/svg"
 width="300.000000pt" height="300.000000pt" viewBox="0 0 300.000000 300.000000"
 preserveAspectRatio="xMidYMid meet">

<g transform="translate(0.000000,300.000000) scale(0.100000,-0.100000)"
fill="#000000" stroke="none">
<path d="M2464 2949 c-86 -14 -206 -56 -269 -94 -135 -81 -281 -265 -332 -418
-50 -153 -34 -336 42 -488 27 -52 83 -106 121 -115 35 -9 39 0 24 45 -11 33
-10 43 5 75 21 45 87 103 126 111 70 16 152 -34 193 -116 14 -29 26 -63 26
-76 0 -12 -25 -64 -56 -115 -173 -285 -334 -587 -334 -627 0 -18 -9 -49 -20
-71 -49 -96 -63 -245 -34 -373 23 -101 50 -154 110 -214 109 -109 269 -110
356 -1 l32 39 32 -38 c26 -31 31 -44 27 -73 -7 -47 21 -155 52 -202 40 -60 95
-109 152 -135 71 -32 156 -29 229 8 41 21 49 30 52 57 l3 32 -49 -31 c-119
-74 -232 -52 -323 63 -102 130 -83 308 48 449 96 103 203 116 292 36 l31 -27
0 35 c0 29 -6 39 -32 55 -57 35 -130 44 -195 25 -47 -14 -68 -28 -118 -79 -35
-36 -73 -88 -90 -124 -16 -34 -33 -61 -37 -59 -11 4 -325 416 -422 554 l-57
82 77 143 c212 394 450 777 647 1041 l111 149 21 -24 c11 -13 37 -43 58 -68
l37 -44 0 33 c0 18 -5 42 -11 53 -8 15 -8 19 0 14 7 -5 11 2 11 18 0 42 -94
79 -135 52 -33 -22 -187 -228 -313 -420 l-111 -167 -15 34 c-8 19 -31 54 -52
77 -120 133 -291 101 -367 -69 l-20 -45 -23 27 c-59 69 -101 304 -74 418 42
180 193 381 345 461 106 55 195 79 315 85 158 8 288 -34 403 -129 l47 -39 0
30 c0 37 -46 78 -145 127 -116 57 -254 76 -391 53z m-272 -2089 c62 -85 136
-184 165 -219 29 -36 53 -75 53 -87 0 -27 -42 -80 -81 -99 -37 -19 -110 -19
-157 0 -72 31 -137 110 -161 200 -35 130 -30 269 14 370 l17 40 18 -25 c11
-14 70 -95 132 -180z"/>
<path d="M2757 2146 c-48 -17 -67 -34 -67 -57 0 -24 11 -24 57 1 50 27 142 27
202 0 54 -25 53 -25 49 8 -2 23 -11 30 -53 44 -60 21 -136 22 -188 4z"/>
<path d="M2880 1657 c0 -24 40 -47 82 -47 30 0 38 4 38 19 0 13 -10 20 -32 25
-18 3 -45 9 -60 12 -21 5 -28 3 -28 -9z"/>
<path d="M2950 1545 c-29 -30 -74 -60 -127 -85 -110 -51 -182 -120 -231 -219
-34 -70 -37 -81 -37 -165 0 -77 4 -99 25 -141 14 -27 33 -51 43 -53 23 -5 22
24 -4 83 -41 93 -18 222 58 323 45 58 66 76 126 107 53 29 52 33 35 -81 -20
-141 22 -247 121 -302 l41 -23 0 24 c0 16 -14 35 -41 57 -62 50 -83 105 -77
205 6 93 30 156 84 222 24 29 34 51 32 69 -3 25 -4 24 -48 -21z"/>
<path d="M2808 1565 c-28 -15 -44 -47 -33 -65 9 -15 52 -12 85 5 35 18 39 49
11 65 -25 13 -30 12 -63 -5z m12 -40 c0 -8 -4 -15 -9 -15 -13 0 -22 16 -14 24
11 11 23 6 23 -9z"/>
<path d="M2688 1253 c-9 -10 -23 -32 -31 -49 -14 -27 -14 -34 -2 -50 13 -18
16 -18 42 -4 37 21 58 60 49 93 -7 31 -35 36 -58 10z"/>
<path d="M2472 1098 c-16 -16 -15 -69 1 -92 7 -10 22 -16 33 -14 16 3 19 12
19 58 0 47 -3 55 -20 58 -11 1 -26 -3 -33 -10z m38 -23 c0 -8 -4 -15 -9 -15
-13 0 -22 16 -14 24 11 11 23 6 23 -9z"/>
<path d="M2973 493 c-21 -8 -15 -43 7 -43 15 0 20 7 20 25 0 25 -4 28 -27 18z"/>
<path d="M2970 362 c-26 -21 -20 -42 11 -42 14 0 19 7 19 30 0 35 -1 36 -30
12z"/>
</g>
</svg>
