<?xml version="1.0" encoding="UTF-8" standalone="no"?>
<!DOCTYPE svg PUBLIC "-//W3C//DTD SVG 1.1//EN" "http://www.w3.org/Graphics/SVG/1.1/DTD/svg11.dtd">
<svg xmlns="http://www.w3.org/2000/svg" version="1.1" viewBox="0.00 0.00 300.00 300.00" width="300.00" height="300.00">
<g stroke-width="2.00" fill="none" stroke-linecap="butt">
<path stroke="#808080" vector-effect="non-scaling-stroke" d="
  M 188.74 113.93
  Q 189.73 113.67 192.00 113.98
  Q 213.05 116.82 230.54 118.88
  Q 241.06 120.12 249.47 121.39
  A 1.45 1.44 -15.0 0 1 250.41 121.93
  Q 252.18 124.20 252.56 127.01
  Q 254.57 142.00 256.19 148.74
  A 3.62 3.55 -44.4 0 1 256.15 150.60
  L 244.91 189.49
  A 0.73 0.72 17.3 0 0 245.38 190.37
  C 249.55 191.75 255.89 189.06 259.61 187.10
  Q 279.77 176.45 289.64 155.92
  C 292.63 149.70 293.15 145.63 294.36 138.31
  Q 296.87 123.24 293.90 108.82
  Q 293.56 107.17 293.14 105.89
  A 0.49 0.49 0.0 0 0 292.26 105.80
  Q 290.54 108.74 288.00 109.76
  A 0.60 0.60 0.0 0 1 287.18 109.12
  Q 288.51 99.54 286.55 89.71
  C 282.87 71.27 275.45 52.62 260.98 40.35
  C 252.03 32.76 239.93 26.98 227.86 25.88
  Q 221.72 25.31 220.80 25.19
  Q 215.63 24.46 210.21 25.18
  C 192.41 27.54 176.18 36.36 163.64 48.87
  Q 149.81 62.67 147.09 82.41
  A 0.25 0.25 0.0 0 0 147.53 82.60
  C 151.97 77.08 159.98 72.31 167.13 73.11
  C 172.63 73.72 177.75 74.82 181.87 79.38
  Q 189.41 87.73 191.50 96.81
  C 193.07 103.66 191.18 107.51 188.42 113.55
  A 0.28 0.27 -85.2 0 0 188.74 113.93"
/>
<path stroke="#808080" vector-effect="non-scaling-stroke" d="
  M 30.10 193.24
  Q 46.04 186.69 62.80 191.91
  A 3.56 3.53 -16.4 0 1 63.91 192.51
  Q 69.79 197.20 70.79 198.42
  Q 80.21 209.90 75.52 223.65
  A 0.52 0.51 15.3 0 0 75.91 224.32
  Q 79.21 224.99 86.51 225.50
  Q 91.04 225.81 101.65 227.73
  C 103.74 228.10 105.33 227.91 107.12 228.16
  Q 121.16 230.11 131.17 231.96
  A 0.28 0.28 0.0 0 0 131.50 231.68
  C 130.80 213.31 144.79 200.50 163.13 202.64
  Q 166.35 203.02 174.69 206.40
  A 4.48 4.44 -13.8 0 1 175.86 207.10
  C 185.66 215.08 194.15 224.66 196.04 237.38
  A 0.72 0.72 0.0 0 0 196.75 238.00
  Q 200.57 238.00 203.98 239.09
  Q 206.45 239.87 207.22 237.20
  C 210.56 225.60 214.51 214.73 219.45 202.77
  Q 222.12 196.32 224.85 188.25
  C 229.88 173.37 231.56 168.43 235.96 154.60
  Q 240.00 141.91 242.94 133.69
  Q 244.09 130.50 245.07 126.42
  A 0.52 0.50 -77.2 0 0 244.69 125.80
  Q 244.24 125.70 239.19 124.79
  C 233.35 123.73 225.26 124.02 218.31 122.73
  Q 206.39 120.52 197.50 119.74
  Q 188.71 118.98 183.85 118.43
  C 173.21 117.22 162.55 116.83 152.86 115.60
  C 142.96 114.34 135.61 114.01 128.26 113.12
  Q 120.35 112.15 109.82 111.69
  C 102.17 111.36 92.65 109.38 85.03 108.99
  Q 79.65 108.71 60.94 107.27
  A 0.80 0.80 0.0 0 0 60.13 107.77
  Q 51.25 129.65 50.67 130.94
  Q 47.18 138.76 42.04 154.40
  Q 34.86 176.23 29.70 192.87
  A 0.30 0.30 0.0 0 0 30.10 193.24"
/>
<path stroke="#808080" vector-effect="non-scaling-stroke" d="
  M 54.14 110.15
  C 43.20 112.21 31.47 118.92 22.99 125.73
  Q 10.04 136.13 7.26 153.98
  C 6.39 159.56 7.36 165.05 11.50 168.48
  Q 18.99 174.67 28.52 173.26
  C 30.63 172.94 31.74 171.82 32.36 169.84
  C 36.62 156.20 41.20 142.07 47.28 127.66
  Q 52.54 115.19 54.49 110.58
  A 0.32 0.31 6.1 0 0 54.14 110.15"
/>
<path stroke="#6d6d6d" vector-effect="non-scaling-stroke" d="
  M 248.53 130.76
  Q 247.88 131.57 247.76 132.05
  Q 246.14 138.40 241.60 151.56
  Q 239.47 157.73 234.30 174.07
  C 230.73 185.39 224.62 201.88 218.57 216.64
  Q 214.94 225.50 214.06 228.56
  Q 210.92 239.48 209.66 241.52
  A 1.16 1.16 0.0 0 0 209.55 242.51
  L 214.38 256.41
  A 0.44 0.44 0.0 0 0 215.23 256.35
  C 216.77 248.32 220.76 241.21 223.59 233.61
  Q 228.14 221.41 230.68 215.21
  Q 234.97 204.77 237.35 196.69
  C 239.81 188.30 244.16 177.73 246.77 167.68
  Q 248.06 162.71 249.87 157.36
  Q 250.13 156.60 251.52 149.34
  A 2.65 2.45 -46.6 0 0 251.53 148.47
  L 248.74 130.81
  A 0.12 0.12 0.0 0 0 248.53 130.76"
/>
<path stroke="#808080" vector-effect="non-scaling-stroke" d="
  M 59.30 195.73
  Q 34.89 190.31 19.60 206.24
  Q 11.77 214.40 10.77 222.85
  Q 9.63 232.51 16.26 240.54
  A 8.25 8.25 0.0 0 0 19.41 242.87
  L 26.32 245.77
  A 2.88 2.47 56.5 0 0 26.95 245.95
  Q 36.21 247.52 45.79 245.27
  C 51.44 243.95 55.78 240.17 60.38 236.56
  Q 64.93 232.99 66.66 230.49
  C 71.17 224.00 73.88 215.89 71.11 208.00
  A 0.44 0.43 -29.0 0 0 70.43 207.81
  Q 68.94 209.00 66.71 210.59
  A 2.19 2.07 -38.3 0 1 63.88 210.34
  C 61.98 208.20 66.75 204.66 68.08 203.76
  A 0.90 0.90 0.0 0 0 68.22 202.38
  L 65.11 199.28
  A 1.06 1.06 0.0 0 0 63.67 199.22
  Q 61.48 201.13 58.04 202.18
  A 1.96 1.85 78.7 0 1 55.64 200.48
  Q 55.48 199.03 59.45 196.63
  A 0.49 0.49 0.0 0 0 59.30 195.73"
/>
<path stroke="#808080" vector-effect="non-scaling-stroke" d="
  M 237.79 259.06
  Q 246.32 256.99 251.13 249.40
  A 0.65 0.65 0.0 0 0 251.00 248.55
  C 246.13 244.43 246.88 235.64 252.89 232.62
  Q 255.44 231.33 257.76 232.90
  A 0.62 0.61 -70.1 0 0 258.71 232.45
  L 258.75 232.02
  A 1.44 1.44 0.0 0 0 257.87 230.54
  Q 248.34 226.58 245.80 216.52
  Q 244.66 212.01 248.54 202.77
  A 1.40 1.40 0.0 0 0 247.79 200.94
  L 242.53 198.73
  A 1.13 1.13 0.0 0 0 241.02 199.42
  Q 238.07 208.56 234.22 218.20
  C 229.05 231.18 226.05 239.96 221.08 251.05
  A 1.03 1.02 43.4 0 0 221.11 251.96
  Q 223.25 255.87 225.37 257.12
  Q 229.05 259.30 234.50 259.30"
/>
<path stroke="#6d6d6d" vector-effect="non-scaling-stroke" d="
  M 259.16 225.93
  C 259.29 218.27 258.29 210.77 253.24 204.72
  A 0.50 0.50 0.0 0 0 252.41 204.82
  Q 250.61 208.52 250.07 213.63
  C 249.57 218.39 254.75 224.09 258.59 226.26
  A 0.38 0.38 0.0 0 0 259.16 225.93"
/>
<path stroke="#808080" vector-effect="non-scaling-stroke" d="
  M 150.79 208.53
  C 152.63 210.39 154.81 212.04 154.08 214.00
  A 1.75 1.74 24.9 0 1 151.60 214.90
  Q 148.74 213.33 147.15 210.82
  A 1.11 1.11 0.0 0 0 145.43 210.63
  L 141.93 214.14
  A 1.03 1.02 45.2 0 0 141.93 215.59
  L 145.64 219.31
  A 1.79 1.78 -45.1 0 1 145.64 221.84
  L 145.33 222.16
  A 2.08 2.07 44.9 0 1 142.40 222.16
  L 139.01 218.77
  A 0.38 0.38 0.0 0 0 138.39 218.88
  C 133.20 230.58 136.92 242.74 145.22 252.27
  C 152.57 260.69 165.27 265.10 176.56 264.19
  A 3.47 3.05 30.3 0 0 177.33 264.04
  Q 183.50 261.97 188.92 257.00
  A 3.22 3.19 -9.2 0 0 189.67 255.97
  Q 193.61 247.19 192.25 239.11
  C 190.56 229.13 184.28 220.42 176.33 213.42
  C 173.14 210.61 172.09 210.26 167.83 208.58
  Q 159.84 205.44 150.86 208.25
  A 0.17 0.17 0.0 0 0 150.79 208.53"
/>
<path stroke="#6d6d6d" vector-effect="non-scaling-stroke" d="
  M 62.98 241.06
  C 74.44 243.94 86.15 244.89 97.88 246.75
  Q 99.00 246.93 101.12 247.06
  C 103.74 247.22 106.35 248.03 109.15 248.40
  Q 120.83 249.95 139.28 252.32
  A 0.18 0.18 0.0 0 0 139.45 252.03
  Q 134.02 245.22 132.22 236.83
  A 0.65 0.64 86.8 0 0 131.66 236.32
  Q 103.02 233.10 74.07 228.35
  A 0.79 0.77 -67.2 0 0 73.29 228.68
  Q 72.06 230.48 71.32 232.09
  C 69.61 235.76 66.21 238.27 62.88 240.53
  A 0.30 0.29 34.6 0 0 62.98 241.06"
/>
<path stroke="#6d6d6d" vector-effect="non-scaling-stroke" d="
  M 254.47 244.84
  L 257.48 236.78
  A 0.13 0.13 0.0 0 0 257.40 236.61
  L 257.34 236.59
  A 4.29 3.50 -69.5 0 0 252.56 239.38
  L 252.46 239.64
  A 4.29 3.50 -69.5 0 0 254.23 244.89
  L 254.30 244.91
  A 0.13 0.13 0.0 0 0 254.47 244.84"
/>
<path stroke="#6d6d6d" vector-effect="non-scaling-stroke" d="
  M 193.83 257.60
  L 210.33 259.28
  A 0.53 0.53 0.0 0 0 210.88 258.58
  L 206.23 245.22
  A 2.68 2.68 0.0 0 0 203.96 243.43
  L 197.53 242.77
  A 0.64 0.64 0.0 0 0 196.88 243.18
  C 196.20 245.04 196.56 246.86 196.05 248.85
  Q 194.02 256.75 193.66 257.22
  A 0.24 0.24 0.0 0 0 193.83 257.60"
/>
<path stroke="#808080" vector-effect="non-scaling-stroke" d="
  M 178.83 180.18
  A 3.06 3.06 0.0 0 0 179.15 183.66
  Q 184.33 189.82 190.28 191.96
  C 207.43 198.12 222.05 178.84 221.43 163.75
  C 221.22 158.51 219.18 151.97 217.08 147.17
  Q 211.17 133.63 197.41 125.87
  C 192.55 123.13 188.58 123.00 182.48 122.86
  A 1.73 1.72 3.4 0 0 180.72 124.42
  L 180.71 124.48
  A 1.54 1.54 0.0 0 0 182.19 126.17
  Q 190.31 126.43 196.74 130.49
  C 207.53 137.30 212.72 145.79 215.93 157.96
  C 218.65 168.24 215.20 177.94 207.09 184.59
  C 197.47 192.48 188.98 187.92 181.40 179.84
  A 1.60 1.60 0.0 0 0 178.85 180.15
  L 178.83 180.18"
/>
<path stroke="#808080" vector-effect="non-scaling-stroke" d="
  M 78.6020 158.8743
  A 7.41 4.48 -28.5 0 0 69.9523 158.4729
  A 7.41 4.48 -28.5 0 0 65.5780 165.9457
  A 7.41 4.48 -28.5 0 0 74.2277 166.3471
  A 7.41 4.48 -28.5 0 0 78.6020 158.8743"
/>
<path stroke="#808080" vector-effect="non-scaling-stroke" d="
  M 63.82 188.70
  A 1.78 1.78 0.0 0 0 65.64 187.60
  Q 70.17 176.65 79.09 170.25
  Q 87.93 163.91 100.00 163.46
  C 119.23 162.74 134.69 173.64 143.10 190.40
  Q 144.54 193.26 146.08 196.50
  A 1.97 1.97 0.0 0 0 148.93 197.30
  L 148.97 197.27
  A 2.51 2.51 0.0 0 0 149.91 194.17
  C 143.32 178.79 131.51 164.79 115.19 160.80
  Q 106.14 158.60 102.45 158.76
  C 94.78 159.11 87.32 160.17 80.00 164.49
  Q 66.66 172.36 61.36 186.69
  A 1.39 1.39 0.0 0 0 62.53 188.56
  L 63.82 188.70"
/>
<path stroke="#808080" vector-effect="non-scaling-stroke" d="
  M 138.5872 165.5038
  A 7.14 4.63 -144.5 0 0 141.7113 173.4194
  A 7.14 4.63 -144.5 0 0 150.2128 173.7962
  A 7.14 4.63 -144.5 0 0 147.0887 165.8806
  A 7.14 4.63 -144.5 0 0 138.5872 165.5038"
/>
<path stroke="#808080" vector-effect="non-scaling-stroke" d="
  M 107.23 168.16
  Q 106.34 166.40 104.54 166.18
  C 102.66 165.96 93.32 165.57 92.65 169.01
  A 3.33 3.24 -67.4 0 0 93.98 172.36
  Q 102.38 178.20 107.22 169.14
  A 1.07 1.06 -44.7 0 0 107.23 168.16"
/>
<path stroke="#808080" vector-effect="non-scaling-stroke" d="
  M 72.7662 159.8595
  A 1.87 1.43 -158.0 0 0 73.9643 161.8859
  A 1.87 1.43 -158.0 0 0 76.2338 161.2605
  A 1.87 1.43 -158.0 0 0 75.0357 159.2341
  A 1.87 1.43 -158.0 0 0 72.7662 159.8595"
/>
<path stroke="#808080" vector-effect="non-scaling-stroke" d="
  M 73.11 163.19
  Q 71.90 162.54 71.21 161.52
  A 1.81 1.56 -49.2 0 0 68.37 161.94
  Q 66.95 164.45 69.21 165.36
  A 1.58 1.55 -42.9 0 0 70.33 165.39
  L 73.01 164.46
  A 0.70 0.70 0.0 0 0 73.11 163.19"
/>
<path stroke="#808080" vector-effect="non-scaling-stroke" d="
  M 144.3493 167.1083
  A 2.07 1.47 -8.1 0 0 142.0929 165.9447
  A 2.07 1.47 -8.1 0 0 140.2507 167.6917
  A 2.07 1.47 -8.1 0 0 142.5071 168.8553
  A 2.07 1.47 -8.1 0 0 144.3493 167.1083"
/>
<path stroke="#808080" vector-effect="non-scaling-stroke" d="
  M 146.92 167.86
  L 142.46 170.26
  A 0.23 0.23 0.0 0 0 142.37 170.57
  L 142.66 171.12
  A 3.83 2.75 61.7 0 0 146.90 173.19
  L 146.92 173.18
  A 3.83 2.75 61.7 0 0 147.52 168.50
  L 147.23 167.95
  A 0.23 0.23 0.0 0 0 146.92 167.86"
/>
<path stroke="#808080" vector-effect="non-scaling-stroke" d="
  M 95.84 169.92
  Q 97.83 170.18 99.33 168.65
  A 0.41 0.41 0.0 0 0 99.11 167.96
  Q 97.68 167.70 95.84 167.93
  A 1.00 1.00 0.0 0 0 95.84 169.92"
/>
</g>
<path fill="#000000" d="
  M 300.00 116.14
  L 300.00 132.49
  L 298.00 144.61
  A 8.22 7.38 -30.0 0 1 297.29 146.78
  Q 297.00 147.35 297.08 148.24
  A 5.70 5.57 -39.2 0 1 296.83 150.46
  C 290.42 170.41 270.40 191.77 248.76 195.53
  A 0.18 0.17 -36.6 0 0 248.71 195.86
  Q 251.08 196.97 254.63 200.13
  Q 260.96 205.73 262.53 213.73
  Q 266.27 232.69 257.50 247.99
  C 249.55 261.88 237.21 268.03 222.06 260.78
  A 1.65 1.49 78.9 0 1 221.58 260.42
  L 219.24 257.84
  A 0.39 0.38 -56.9 0 0 218.59 257.98
  Q 218.05 259.58 216.20 262.96
  C 215.29 264.62 212.41 264.99 210.41 264.62
  Q 201.84 263.04 191.12 262.17
  A 1.46 1.42 29.7 0 0 190.16 262.42
  Q 188.68 263.42 184.97 266.42
  C 181.79 269.00 176.86 268.54 171.38 268.57
  Q 167.58 268.60 163.85 267.71
  Q 152.73 265.04 144.62 258.13
  A 3.03 3.00 72.8 0 0 143.44 257.50
  Q 136.78 255.62 130.10 255.95
  A 7.69 7.67 -41.7 0 1 128.49 255.86
  Q 118.25 254.16 107.91 253.24
  Q 104.30 252.92 100.71 252.22
  Q 94.39 250.98 93.54 250.91
  Q 88.13 250.45 85.19 249.69
  Q 80.87 248.58 76.89 248.03
  Q 62.32 246.00 57.44 245.23
  A 2.13 2.12 34.7 0 0 56.05 245.48
  C 52.12 247.74 49.19 249.11 44.56 250.09
  Q 34.42 252.22 22.76 249.23
  Q 22.17 249.08 21.37 249.14
  A 1.31 1.25 -29.3 0 1 20.54 248.93
  L 16.21 245.99
  A 15.74 15.64 87.0 0 1 12.93 243.02
  C 9.41 238.79 7.67 236.69 6.62 231.17
  Q 4.26 218.75 11.89 208.37
  Q 16.52 202.07 21.39 198.14
  A 3.04 2.60 -86.3 0 0 21.76 197.76
  L 24.36 194.51
  A 2.30 2.12 -19.5 0 0 24.74 193.79
  L 29.55 178.30
  A 0.59 0.59 0.0 0 0 28.89 177.54
  L 25.22 178.12
  A 5.18 4.74 42.1 0 1 23.78 178.13
  C 10.16 176.36 0.17 167.69 3.04 152.91
  C 3.80 148.98 5.19 142.83 6.96 139.23
  C 12.60 127.80 20.72 120.98 32.07 114.46
  C 38.97 110.50 47.29 106.93 55.22 106.63
  A 1.31 1.30 -87.1 0 0 56.46 105.50
  Q 56.61 104.37 57.12 103.58
  A 1.07 1.05 16.2 0 1 58.01 103.10
  Q 74.40 103.22 82.70 104.27
  Q 93.47 105.65 99.71 105.15
  A 5.00 4.93 51.3 0 1 101.65 105.38
  C 104.28 106.24 106.85 105.95 109.73 106.62
  A 6.88 6.55 -37.0 0 0 111.28 106.80
  Q 122.33 106.82 134.37 108.95
  A 2.11 2.02 43.0 0 0 135.20 108.94
  C 137.29 108.50 139.20 109.90 140.64 109.55
  Q 141.36 109.37 146.38 110.09
  Q 151.07 110.75 161.36 111.97
  C 167.31 112.67 172.44 112.57 178.99 113.00
  A 2.66 2.60 -56.7 0 0 180.41 112.69
  Q 185.80 109.80 186.72 104.03
  C 188.22 94.63 183.77 88.38 178.17 81.96
  C 175.44 78.83 169.16 77.56 165.72 77.59
  C 158.61 77.64 152.25 82.79 148.67 88.64
  Q 147.96 89.80 147.19 90.34
  A 1.21 1.19 -38.0 0 1 145.58 90.15
  C 141.99 86.01 142.33 82.33 143.51 76.51
  Q 143.92 74.52 146.07 67.32
  Q 147.43 62.75 149.94 58.69
  Q 161.65 39.76 181.99 29.22
  Q 188.02 26.09 194.36 23.78
  Q 200.32 21.61 207.50 20.98
  C 225.85 19.37 244.16 22.18 259.25 33.35
  Q 275.13 45.10 283.08 62.89
  Q 290.40 79.28 291.81 99.30
  A 0.61 0.60 -4.2 0 0 292.47 99.86
  C 294.09 99.70 294.97 99.76 295.94 101.29
  C 298.86 105.90 299.09 110.90 300.00 116.14
  Z
  M 188.74 113.93
  Q 189.73 113.67 192.00 113.98
  Q 213.05 116.82 230.54 118.88
  Q 241.06 120.12 249.47 121.39
  A 1.45 1.44 -15.0 0 1 250.41 121.93
  Q 252.18 124.20 252.56 127.01
  Q 254.57 142.00 256.19 148.74
  A 3.62 3.55 -44.4 0 1 256.15 150.60
  L 244.91 189.49
  A 0.73 0.72 17.3 0 0 245.38 190.37
  C 249.55 191.75 255.89 189.06 259.61 187.10
  Q 279.77 176.45 289.64 155.92
  C 292.63 149.70 293.15 145.63 294.36 138.31
  Q 296.87 123.24 293.90 108.82
  Q 293.56 107.17 293.14 105.89
  A 0.49 0.49 0.0 0 0 292.26 105.80
  Q 290.54 108.74 288.00 109.76
  A 0.60 0.60 0.0 0 1 287.18 109.12
  Q 288.51 99.54 286.55 89.71
  C 282.87 71.27 275.45 52.62 260.98 40.35
  C 252.03 32.76 239.93 26.98 227.86 25.88
  Q 221.72 25.31 220.80 25.19
  Q 215.63 24.46 210.21 25.18
  C 192.41 27.54 176.18 36.36 163.64 48.87
  Q 149.81 62.67 147.09 82.41
  A 0.25 0.25 0.0 0 0 147.53 82.60
  C 151.97 77.08 159.98 72.31 167.13 73.11
  C 172.63 73.72 177.75 74.82 181.87 79.38
  Q 189.41 87.73 191.50 96.81
  C 193.07 103.66 191.18 107.51 188.42 113.55
  A 0.28 0.27 -85.2 0 0 188.74 113.93
  Z
  M 30.10 193.24
  Q 46.04 186.69 62.80 191.91
  A 3.56 3.53 -16.4 0 1 63.91 192.51
  Q 69.79 197.20 70.79 198.42
  Q 80.21 209.90 75.52 223.65
  A 0.52 0.51 15.3 0 0 75.91 224.32
  Q 79.21 224.99 86.51 225.50
  Q 91.04 225.81 101.65 227.73
  C 103.74 228.10 105.33 227.91 107.12 228.16
  Q 121.16 230.11 131.17 231.96
  A 0.28 0.28 0.0 0 0 131.50 231.68
  C 130.80 213.31 144.79 200.50 163.13 202.64
  Q 166.35 203.02 174.69 206.40
  A 4.48 4.44 -13.8 0 1 175.86 207.10
  C 185.66 215.08 194.15 224.66 196.04 237.38
  A 0.72 0.72 0.0 0 0 196.75 238.00
  Q 200.57 238.00 203.98 239.09
  Q 206.45 239.87 207.22 237.20
  C 210.56 225.60 214.51 214.73 219.45 202.77
  Q 222.12 196.32 224.85 188.25
  C 229.88 173.37 231.56 168.43 235.96 154.60
  Q 240.00 141.91 242.94 133.69
  Q 244.09 130.50 245.07 126.42
  A 0.52 0.50 -77.2 0 0 244.69 125.80
  Q 244.24 125.70 239.19 124.79
  C 233.35 123.73 225.26 124.02 218.31 122.73
  Q 206.39 120.52 197.50 119.74
  Q 188.71 118.98 183.85 118.43
  C 173.21 117.22 162.55 116.83 152.86 115.60
  C 142.96 114.34 135.61 114.01 128.26 113.12
  Q 120.35 112.15 109.82 111.69
  C 102.17 111.36 92.65 109.38 85.03 108.99
  Q 79.65 108.71 60.94 107.27
  A 0.80 0.80 0.0 0 0 60.13 107.77
  Q 51.25 129.65 50.67 130.94
  Q 47.18 138.76 42.04 154.40
  Q 34.86 176.23 29.70 192.87
  A 0.30 0.30 0.0 0 0 30.10 193.24
  Z
  M 54.14 110.15
  C 43.20 112.21 31.47 118.92 22.99 125.73
  Q 10.04 136.13 7.26 153.98
  C 6.39 159.56 7.36 165.05 11.50 168.48
  Q 18.99 174.67 28.52 173.26
  C 30.63 172.94 31.74 171.82 32.36 169.84
  C 36.62 156.20 41.20 142.07 47.28 127.66
  Q 52.54 115.19 54.49 110.58
  A 0.32 0.31 6.1 0 0 54.14 110.15
  Z
  M 248.53 130.76
  Q 247.88 131.57 247.76 132.05
  Q 246.14 138.40 241.60 151.56
  Q 239.47 157.73 234.30 174.07
  C 230.73 185.39 224.62 201.88 218.57 216.64
  Q 214.94 225.50 214.06 228.56
  Q 210.92 239.48 209.66 241.52
  A 1.16 1.16 0.0 0 0 209.55 242.51
  L 214.38 256.41
  A 0.44 0.44 0.0 0 0 215.23 256.35
  C 216.77 248.32 220.76 241.21 223.59 233.61
  Q 228.14 221.41 230.68 215.21
  Q 234.97 204.77 237.35 196.69
  C 239.81 188.30 244.16 177.73 246.77 167.68
  Q 248.06 162.71 249.87 157.36
  Q 250.13 156.60 251.52 149.34
  A 2.65 2.45 -46.6 0 0 251.53 148.47
  L 248.74 130.81
  A 0.12 0.12 0.0 0 0 248.53 130.76
  Z
  M 59.30 195.73
  Q 34.89 190.31 19.60 206.24
  Q 11.77 214.40 10.77 222.85
  Q 9.63 232.51 16.26 240.54
  A 8.25 8.25 0.0 0 0 19.41 242.87
  L 26.32 245.77
  A 2.88 2.47 56.5 0 0 26.95 245.95
  Q 36.21 247.52 45.79 245.27
  C 51.44 243.95 55.78 240.17 60.38 236.56
  Q 64.93 232.99 66.66 230.49
  C 71.17 224.00 73.88 215.89 71.11 208.00
  A 0.44 0.43 -29.0 0 0 70.43 207.81
  Q 68.94 209.00 66.71 210.59
  A 2.19 2.07 -38.3 0 1 63.88 210.34
  C 61.98 208.20 66.75 204.66 68.08 203.76
  A 0.90 0.90 0.0 0 0 68.22 202.38
  L 65.11 199.28
  A 1.06 1.06 0.0 0 0 63.67 199.22
  Q 61.48 201.13 58.04 202.18
  A 1.96 1.85 78.7 0 1 55.64 200.48
  Q 55.48 199.03 59.45 196.63
  A 0.49 0.49 0.0 0 0 59.30 195.73
  Z
  M 234.50 259.30
  Q 236.00 259.64 237.79 259.06
  Q 246.32 256.99 251.13 249.40
  A 0.65 0.65 0.0 0 0 251.00 248.55
  C 246.13 244.43 246.88 235.64 252.89 232.62
  Q 255.44 231.33 257.76 232.90
  A 0.62 0.61 -70.1 0 0 258.71 232.45
  L 258.75 232.02
  A 1.44 1.44 0.0 0 0 257.87 230.54
  Q 248.34 226.58 245.80 216.52
  Q 244.66 212.01 248.54 202.77
  A 1.40 1.40 0.0 0 0 247.79 200.94
  L 242.53 198.73
  A 1.13 1.13 0.0 0 0 241.02 199.42
  Q 238.07 208.56 234.22 218.20
  C 229.05 231.18 226.05 239.96 221.08 251.05
  A 1.03 1.02 43.4 0 0 221.11 251.96
  Q 223.25 255.87 225.37 257.12
  Q 229.05 259.30 234.50 259.30
  Z
  M 259.16 225.93
  C 259.29 218.27 258.29 210.77 253.24 204.72
  A 0.50 0.50 0.0 0 0 252.41 204.82
  Q 250.61 208.52 250.07 213.63
  C 249.57 218.39 254.75 224.09 258.59 226.26
  A 0.38 0.38 0.0 0 0 259.16 225.93
  Z
  M 150.79 208.53
  C 152.63 210.39 154.81 212.04 154.08 214.00
  A 1.75 1.74 24.9 0 1 151.60 214.90
  Q 148.74 213.33 147.15 210.82
  A 1.11 1.11 0.0 0 0 145.43 210.63
  L 141.93 214.14
  A 1.03 1.02 45.2 0 0 141.93 215.59
  L 145.64 219.31
  A 1.79 1.78 -45.1 0 1 145.64 221.84
  L 145.33 222.16
  A 2.08 2.07 44.9 0 1 142.40 222.16
  L 139.01 218.77
  A 0.38 0.38 0.0 0 0 138.39 218.88
  C 133.20 230.58 136.92 242.74 145.22 252.27
  C 152.57 260.69 165.27 265.10 176.56 264.19
  A 3.47 3.05 30.3 0 0 177.33 264.04
  Q 183.50 261.97 188.92 257.00
  A 3.22 3.19 -9.2 0 0 189.67 255.97
  Q 193.61 247.19 192.25 239.11
  C 190.56 229.13 184.28 220.42 176.33 213.42
  C 173.14 210.61 172.09 210.26 167.83 208.58
  Q 159.84 205.44 150.86 208.25
  A 0.17 0.17 0.0 0 0 150.79 208.53
  Z
  M 62.98 241.06
  C 74.44 243.94 86.15 244.89 97.88 246.75
  Q 99.00 246.93 101.12 247.06
  C 103.74 247.22 106.35 248.03 109.15 248.40
  Q 120.83 249.95 139.28 252.32
  A 0.18 0.18 0.0 0 0 139.45 252.03
  Q 134.02 245.22 132.22 236.83
  A 0.65 0.64 86.8 0 0 131.66 236.32
  Q 103.02 233.10 74.07 228.35
  A 0.79 0.77 -67.2 0 0 73.29 228.68
  Q 72.06 230.48 71.32 232.09
  C 69.61 235.76 66.21 238.27 62.88 240.53
  A 0.30 0.29 34.6 0 0 62.98 241.06
  Z
  M 254.47 244.84
  L 257.48 236.78
  A 0.13 0.13 0.0 0 0 257.40 236.61
  L 257.34 236.59
  A 4.29 3.50 -69.5 0 0 252.56 239.38
  L 252.46 239.64
  A 4.29 3.50 -69.5 0 0 254.23 244.89
  L 254.30 244.91
  A 0.13 0.13 0.0 0 0 254.47 244.84
  Z
  M 193.83 257.60
  L 210.33 259.28
  A 0.53 0.53 0.0 0 0 210.88 258.58
  L 206.23 245.22
  A 2.68 2.68 0.0 0 0 203.96 243.43
  L 197.53 242.77
  A 0.64 0.64 0.0 0 0 196.88 243.18
  C 196.20 245.04 196.56 246.86 196.05 248.85
  Q 194.02 256.75 193.66 257.22
  A 0.24 0.24 0.0 0 0 193.83 257.60
  Z"
/>
<path fill="#ffffff" d="
  M 188.42 113.55
  C 191.18 107.51 193.07 103.66 191.50 96.81
  Q 189.41 87.73 181.87 79.38
  C 177.75 74.82 172.63 73.72 167.13 73.11
  C 159.98 72.31 151.97 77.08 147.53 82.60
  A 0.25 0.25 0.0 0 1 147.09 82.41
  Q 149.81 62.67 163.64 48.87
  C 176.18 36.36 192.41 27.54 210.21 25.18
  Q 215.63 24.46 220.80 25.19
  Q 221.72 25.31 227.86 25.88
  C 239.93 26.98 252.03 32.76 260.98 40.35
  C 275.45 52.62 282.87 71.27 286.55 89.71
  Q 288.51 99.54 287.18 109.12
  A 0.60 0.60 0.0 0 0 288.00 109.76
  Q 290.54 108.74 292.26 105.80
  A 0.49 0.49 0.0 0 1 293.14 105.89
  Q 293.56 107.17 293.90 108.82
  Q 296.87 123.24 294.36 138.31
  C 293.15 145.63 292.63 149.70 289.64 155.92
  Q 279.77 176.45 259.61 187.10
  C 255.89 189.06 249.55 191.75 245.38 190.37
  A 0.73 0.72 17.3 0 1 244.91 189.49
  L 256.15 150.60
  A 3.62 3.55 -44.4 0 0 256.19 148.74
  Q 254.57 142.00 252.56 127.01
  Q 252.18 124.20 250.41 121.93
  A 1.45 1.44 -15.0 0 0 249.47 121.39
  Q 241.06 120.12 230.54 118.88
  Q 213.05 116.82 192.00 113.98
  Q 189.73 113.67 188.74 113.93
  A 0.28 0.27 -85.2 0 1 188.42 113.55
  Z"
/>
<path fill="#ffffff" d="
  M 29.70 192.87
  Q 34.86 176.23 42.04 154.40
  Q 47.18 138.76 50.67 130.94
  Q 51.25 129.65 60.13 107.77
  A 0.80 0.80 0.0 0 1 60.94 107.27
  Q 79.65 108.71 85.03 108.99
  C 92.65 109.38 102.17 111.36 109.82 111.69
  Q 120.35 112.15 128.26 113.12
  C 135.61 114.01 142.96 114.34 152.86 115.60
  C 162.55 116.83 173.21 117.22 183.85 118.43
  Q 188.71 118.98 197.50 119.74
  Q 206.39 120.52 218.31 122.73
  C 225.26 124.02 233.35 123.73 239.19 124.79
  Q 244.24 125.70 244.69 125.80
  A 0.52 0.50 -77.2 0 1 245.07 126.42
  Q 244.09 130.50 242.94 133.69
  Q 240.00 141.91 235.96 154.60
  C 231.56 168.43 229.88 173.37 224.85 188.25
  Q 222.12 196.32 219.45 202.77
  C 214.51 214.73 210.56 225.60 207.22 237.20
  Q 206.45 239.87 203.98 239.09
  Q 200.57 238.00 196.75 238.00
  A 0.72 0.72 0.0 0 1 196.04 237.38
  C 194.15 224.66 185.66 215.08 175.86 207.10
  A 4.48 4.44 -13.8 0 0 174.69 206.40
  Q 166.35 203.02 163.13 202.64
  C 144.79 200.50 130.80 213.31 131.50 231.68
  A 0.28 0.28 0.0 0 1 131.17 231.96
  Q 121.16 230.11 107.12 228.16
  C 105.33 227.91 103.74 228.10 101.65 227.73
  Q 91.04 225.81 86.51 225.50
  Q 79.21 224.99 75.91 224.32
  A 0.52 0.51 15.3 0 1 75.52 223.65
  Q 80.21 209.90 70.79 198.42
  Q 69.79 197.20 63.91 192.51
  A 3.56 3.53 -16.4 0 0 62.80 191.91
  Q 46.04 186.69 30.10 193.24
  A 0.30 0.30 0.0 0 1 29.70 192.87
  Z
  M 178.83 180.18
  A 3.06 3.06 0.0 0 0 179.15 183.66
  Q 184.33 189.82 190.28 191.96
  C 207.43 198.12 222.05 178.84 221.43 163.75
  C 221.22 158.51 219.18 151.97 217.08 147.17
  Q 211.17 133.63 197.41 125.87
  C 192.55 123.13 188.58 123.00 182.48 122.86
  A 1.73 1.72 3.4 0 0 180.72 124.42
  L 180.71 124.48
  A 1.54 1.54 0.0 0 0 182.19 126.17
  Q 190.31 126.43 196.74 130.49
  C 207.53 137.30 212.72 145.79 215.93 157.96
  C 218.65 168.24 215.20 177.94 207.09 184.59
  C 197.47 192.48 188.98 187.92 181.40 179.84
  A 1.60 1.60 0.0 0 0 178.85 180.15
  L 178.83 180.18
  Z
  M 78.6020 158.8743
  A 7.41 4.48 -28.5 0 0 69.9523 158.4729
  A 7.41 4.48 -28.5 0 0 65.5780 165.9457
  A 7.41 4.48 -28.5 0 0 74.2277 166.3471
  A 7.41 4.48 -28.5 0 0 78.6020 158.8743
  Z
  M 63.82 188.70
  A 1.78 1.78 0.0 0 0 65.64 187.60
  Q 70.17 176.65 79.09 170.25
  Q 87.93 163.91 100.00 163.46
  C 119.23 162.74 134.69 173.64 143.10 190.40
  Q 144.54 193.26 146.08 196.50
  A 1.97 1.97 0.0 0 0 148.93 197.30
  L 148.97 197.27
  A 2.51 2.51 0.0 0 0 149.91 194.17
  C 143.32 178.79 131.51 164.79 115.19 160.80
  Q 106.14 158.60 102.45 158.76
  C 94.78 159.11 87.32 160.17 80.00 164.49
  Q 66.66 172.36 61.36 186.69
  A 1.39 1.39 0.0 0 0 62.53 188.56
  L 63.82 188.70
  Z
  M 138.5872 165.5038
  A 7.14 4.63 -144.5 0 0 141.7113 173.4194
  A 7.14 4.63 -144.5 0 0 150.2128 173.7962
  A 7.14 4.63 -144.5 0 0 147.0887 165.8806
  A 7.14 4.63 -144.5 0 0 138.5872 165.5038
  Z
  M 107.23 168.16
  Q 106.34 166.40 104.54 166.18
  C 102.66 165.96 93.32 165.57 92.65 169.01
  A 3.33 3.24 -67.4 0 0 93.98 172.36
  Q 102.38 178.20 107.22 169.14
  A 1.07 1.06 -44.7 0 0 107.23 168.16
  Z"
/>
<path fill="#ffffff" d="
  M 54.14 110.15
  A 0.32 0.31 6.1 0 1 54.49 110.58
  Q 52.54 115.19 47.28 127.66
  C 41.20 142.07 36.62 156.20 32.36 169.84
  C 31.74 171.82 30.63 172.94 28.52 173.26
  Q 18.99 174.67 11.50 168.48
  C 7.36 165.05 6.39 159.56 7.26 153.98
  Q 10.04 136.13 22.99 125.73
  C 31.47 118.92 43.20 112.21 54.14 110.15
  Z"
/>
<path fill="#000000" d="
  M 178.83 180.18
  L 178.85 180.15
  A 1.60 1.60 0.0 0 1 181.40 179.84
  C 188.98 187.92 197.47 192.48 207.09 184.59
  C 215.20 177.94 218.65 168.24 215.93 157.96
  C 212.72 145.79 207.53 137.30 196.74 130.49
  Q 190.31 126.43 182.19 126.17
  A 1.54 1.54 0.0 0 1 180.71 124.48
  L 180.72 124.42
  A 1.73 1.72 3.4 0 1 182.48 122.86
  C 188.58 123.00 192.55 123.13 197.41 125.87
  Q 211.17 133.63 217.08 147.17
  C 219.18 151.97 221.22 158.51 221.43 163.75
  C 222.05 178.84 207.43 198.12 190.28 191.96
  Q 184.33 189.82 179.15 183.66
  A 3.06 3.06 0.0 0 1 178.83 180.18
  Z"
/>
<path fill="#d9d9d9" d="
  M 248.74 130.81
  L 251.53 148.47
  A 2.65 2.45 -46.6 0 1 251.52 149.34
  Q 250.13 156.60 249.87 157.36
  Q 248.06 162.71 246.77 167.68
  C 244.16 177.73 239.81 188.30 237.35 196.69
  Q 234.97 204.77 230.68 215.21
  Q 228.14 221.41 223.59 233.61
  C 220.76 241.21 216.77 248.32 215.23 256.35
  A 0.44 0.44 0.0 0 1 214.38 256.41
  L 209.55 242.51
  A 1.16 1.16 0.0 0 1 209.66 241.52
  Q 210.92 239.48 214.06 228.56
  Q 214.94 225.50 218.57 216.64
  C 224.62 201.88 230.73 185.39 234.30 174.07
  Q 239.47 157.73 241.60 151.56
  Q 246.14 138.40 247.76 132.05
  Q 247.88 131.57 248.53 130.76
  A 0.12 0.12 0.0 0 1 248.74 130.81
  Z"
/>
<path fill="#000000" d="
  M 78.6020 158.8743
  A 7.41 4.48 -28.5 0 1 74.2277 166.3471
  A 7.41 4.48 -28.5 0 1 65.5780 165.9457
  A 7.41 4.48 -28.5 0 1 69.9523 158.4729
  A 7.41 4.48 -28.5 0 1 78.6020 158.8743
  Z
  M 72.7662 159.8595
  A 1.87 1.43 -158.0 0 0 73.9643 161.8859
  A 1.87 1.43 -158.0 0 0 76.2338 161.2605
  A 1.87 1.43 -158.0 0 0 75.0357 159.2341
  A 1.87 1.43 -158.0 0 0 72.7662 159.8595
  Z
  M 73.11 163.19
  Q 71.90 162.54 71.21 161.52
  A 1.81 1.56 -49.2 0 0 68.37 161.94
  Q 66.95 164.45 69.21 165.36
  A 1.58 1.55 -42.9 0 0 70.33 165.39
  L 73.01 164.46
  A 0.70 0.70 0.0 0 0 73.11 163.19
  Z"
/>
<path fill="#000000" d="
  M 63.82 188.70
  L 62.53 188.56
  A 1.39 1.39 0.0 0 1 61.36 186.69
  Q 66.66 172.36 80.00 164.49
  C 87.32 160.17 94.78 159.11 102.45 158.76
  Q 106.14 158.60 115.19 160.80
  C 131.51 164.79 143.32 178.79 149.91 194.17
  A 2.51 2.51 0.0 0 1 148.97 197.27
  L 148.93 197.30
  A 1.97 1.97 0.0 0 1 146.08 196.50
  Q 144.54 193.26 143.10 190.40
  C 134.69 173.64 119.23 162.74 100.00 163.46
  Q 87.93 163.91 79.09 170.25
  Q 70.17 176.65 65.64 187.60
  A 1.78 1.78 0.0 0 1 63.82 188.70
  Z"
/>
<ellipse fill="#ffffff" cx="0.00" cy="0.00" transform="translate(74.50,160.56) rotate(-158.0)" rx="1.87" ry="1.43"/>
<path fill="#ffffff" d="
  M 73.11 163.19
  A 0.70 0.70 0.0 0 1 73.01 164.46
  L 70.33 165.39
  A 1.58 1.55 -42.9 0 1 69.21 165.36
  Q 66.95 164.45 68.37 161.94
  A 1.81 1.56 -49.2 0 1 71.21 161.52
  Q 71.90 162.54 73.11 163.19
  Z"
/>
<path fill="#000000" d="
  M 138.5872 165.5038
  A 7.14 4.63 -144.5 0 1 147.0887 165.8806
  A 7.14 4.63 -144.5 0 1 150.2128 173.7962
  A 7.14 4.63 -144.5 0 1 141.7113 173.4194
  A 7.14 4.63 -144.5 0 1 138.5872 165.5038
  Z
  M 144.3493 167.1083
  A 2.07 1.47 -8.1 0 0 142.0929 165.9447
  A 2.07 1.47 -8.1 0 0 140.2507 167.6917
  A 2.07 1.47 -8.1 0 0 142.5071 168.8553
  A 2.07 1.47 -8.1 0 0 144.3493 167.1083
  Z
  M 146.92 167.86
  L 142.46 170.26
  A 0.23 0.23 0.0 0 0 142.37 170.57
  L 142.66 171.12
  A 3.83 2.75 61.7 0 0 146.90 173.19
  L 146.92 173.18
  A 3.83 2.75 61.7 0 0 147.52 168.50
  L 147.23 167.95
  A 0.23 0.23 0.0 0 0 146.92 167.86
  Z"
/>
<path fill="#000000" d="
  M 107.22 169.14
  Q 102.38 178.20 93.98 172.36
  A 3.33 3.24 -67.4 0 1 92.65 169.01
  C 93.32 165.57 102.66 165.96 104.54 166.18
  Q 106.34 166.40 107.23 168.16
  A 1.07 1.06 -44.7 0 1 107.22 169.14
  Z
  M 95.84 169.92
  Q 97.83 170.18 99.33 168.65
  A 0.41 0.41 0.0 0 0 99.11 167.96
  Q 97.68 167.70 95.84 167.93
  A 1.00 1.00 0.0 0 0 95.84 169.92
  Z"
/>
<ellipse fill="#ffffff" cx="0.00" cy="0.00" transform="translate(142.30,167.40) rotate(-8.1)" rx="2.07" ry="1.47"/>
<path fill="#ffffff" d="
  M 95.84 169.92
  A 1.00 1.00 0.0 0 1 95.84 167.93
  Q 97.68 167.70 99.11 167.96
  A 0.41 0.41 0.0 0 1 99.33 168.65
  Q 97.83 170.18 95.84 169.92
  Z"
/>
<path fill="#ffffff" d="
  M 146.92 167.86
  A 0.23 0.23 0.0 0 1 147.23 167.95
  L 147.52 168.50
  A 3.83 2.75 61.7 0 1 146.92 173.18
  L 146.90 173.19
  A 3.83 2.75 61.7 0 1 142.66 171.12
  L 142.37 170.57
  A 0.23 0.23 0.0 0 1 142.46 170.26
  L 146.92 167.86
  Z"
/>
<path fill="#ffffff" d="
  M 59.30 195.73
  A 0.49 0.49 0.0 0 1 59.45 196.63
  Q 55.48 199.03 55.64 200.48
  A 1.96 1.85 78.7 0 0 58.04 202.18
  Q 61.48 201.13 63.67 199.22
  A 1.06 1.06 0.0 0 1 65.11 199.28
  L 68.22 202.38
  A 0.90 0.90 0.0 0 1 68.08 203.76
  C 66.75 204.66 61.98 208.20 63.88 210.34
  A 2.19 2.07 -38.3 0 0 66.71 210.59
  Q 68.94 209.00 70.43 207.81
  A 0.44 0.43 -29.0 0 1 71.11 208.00
  C 73.88 215.89 71.17 224.00 66.66 230.49
  Q 64.93 232.99 60.38 236.56
  C 55.78 240.17 51.44 243.95 45.79 245.27
  Q 36.21 247.52 26.95 245.95
  A 2.88 2.47 56.5 0 1 26.32 245.77
  L 19.41 242.87
  A 8.25 8.25 0.0 0 1 16.26 240.54
  Q 9.63 232.51 10.77 222.85
  Q 11.77 214.40 19.60 206.24
  Q 34.89 190.31 59.30 195.73
  Z"
/>
<path fill="#ffffff" d="
  M 237.79 259.06
  Q 236.02 258.45 234.50 259.30
  Q 229.05 259.30 225.37 257.12
  Q 223.25 255.87 221.11 251.96
  A 1.03 1.02 43.4 0 1 221.08 251.05
  C 226.05 239.96 229.05 231.18 234.22 218.20
  Q 238.07 208.56 241.02 199.42
  A 1.13 1.13 0.0 0 1 242.53 198.73
  L 247.79 200.94
  A 1.40 1.40 0.0 0 1 248.54 202.77
  Q 244.66 212.01 245.80 216.52
  Q 248.34 226.58 257.87 230.54
  A 1.44 1.44 0.0 0 1 258.75 232.02
  L 258.71 232.45
  A 0.62 0.61 -70.1 0 1 257.76 232.90
  Q 255.44 231.33 252.89 232.62
  C 246.88 235.64 246.13 244.43 251.00 248.55
  A 0.65 0.65 0.0 0 1 251.13 249.40
  Q 246.32 256.99 237.79 259.06
  Z"
/>
<path fill="#d9d9d9" d="
  M 259.16 225.93
  A 0.38 0.38 0.0 0 1 258.59 226.26
  C 254.75 224.09 249.57 218.39 250.07 213.63
  Q 250.61 208.52 252.41 204.82
  A 0.50 0.50 0.0 0 1 253.24 204.72
  C 258.29 210.77 259.29 218.27 259.16 225.93
  Z"
/>
<path fill="#ffffff" d="
  M 150.79 208.53
  A 0.17 0.17 0.0 0 1 150.86 208.25
  Q 159.84 205.44 167.83 208.58
  C 172.09 210.26 173.14 210.61 176.33 213.42
  C 184.28 220.42 190.56 229.13 192.25 239.11
  Q 193.61 247.19 189.67 255.97
  A 3.22 3.19 -9.2 0 1 188.92 257.00
  Q 183.50 261.97 177.33 264.04
  A 3.47 3.05 30.3 0 1 176.56 264.19
  C 165.27 265.10 152.57 260.69 145.22 252.27
  C 136.92 242.74 133.20 230.58 138.39 218.88
  A 0.38 0.38 0.0 0 1 139.01 218.77
  L 142.40 222.16
  A 2.08 2.07 44.9 0 0 145.33 222.16
  L 145.64 221.84
  A 1.79 1.78 -45.1 0 0 145.64 219.31
  L 141.93 215.59
  A 1.03 1.02 45.2 0 1 141.93 214.14
  L 145.43 210.63
  A 1.11 1.11 0.0 0 1 147.15 210.82
  Q 148.74 213.33 151.60 214.90
  A 1.75 1.74 24.9 0 0 154.08 214.00
  C 154.81 212.04 152.63 210.39 150.79 208.53
  Z"
/>
<path fill="#d9d9d9" d="
  M 62.98 241.06
  A 0.30 0.29 34.6 0 1 62.88 240.53
  C 66.21 238.27 69.61 235.76 71.32 232.09
  Q 72.06 230.48 73.29 228.68
  A 0.79 0.77 -67.2 0 1 74.07 228.35
  Q 103.02 233.10 131.66 236.32
  A 0.65 0.64 86.8 0 1 132.22 236.83
  Q 134.02 245.22 139.45 252.03
  A 0.18 0.18 0.0 0 1 139.28 252.32
  Q 120.83 249.95 109.15 248.40
  C 106.35 248.03 103.74 247.22 101.12 247.06
  Q 99.00 246.93 97.88 246.75
  C 86.15 244.89 74.44 243.94 62.98 241.06
  Z"
/>
<path fill="#d9d9d9" d="
  M 254.47 244.84
  A 0.13 0.13 0.0 0 1 254.30 244.91
  L 254.23 244.89
  A 4.29 3.50 -69.5 0 1 252.46 239.64
  L 252.56 239.38
  A 4.29 3.50 -69.5 0 1 257.34 236.59
  L 257.40 236.61
  A 0.13 0.13 0.0 0 1 257.48 236.78
  L 254.47 244.84
  Z"
/>
<path fill="#d9d9d9" d="
  M 193.66 257.22
  Q 194.02 256.75 196.05 248.85
  C 196.56 246.86 196.20 245.04 196.88 243.18
  A 0.64 0.64 0.0 0 1 197.53 242.77
  L 203.96 243.43
  A 2.68 2.68 0.0 0 1 206.23 245.22
  L 210.88 258.58
  A 0.53 0.53 0.0 0 1 210.33 259.28
  L 193.83 257.60
  A 0.24 0.24 0.0 0 1 193.66 257.22
  Z"
/>
</svg>
