<?xml version="1.0" encoding="UTF-8" standalone="no"?>
<!DOCTYPE svg PUBLIC "-//W3C//DTD SVG 1.1//EN" "http://www.w3.org/Graphics/SVG/1.1/DTD/svg11.dtd">
<svg xmlns="http://www.w3.org/2000/svg" version="1.1" viewBox="0.00 0.00 300.00 300.00" width="300.00" height="300.00">
<g stroke-width="2.00" fill="none" stroke-linecap="butt">
<path stroke="#6d6d6d" vector-effect="non-scaling-stroke" d="
  M 263.50 228.99
  Q 262.16 242.04 254.99 251.85
  C 246.56 263.37 235.26 267.09 222.28 260.82
  A 3.71 3.68 -7.5 0 1 221.15 259.96
  L 219.15 257.72
  A 0.27 0.26 35.4 0 0 218.71 257.79
  L 216.67 262.43
  A 1.55 1.50 -9.3 0 1 216.26 262.98
  Q 213.63 265.27 211.47 264.84
  Q 201.35 262.82 191.13 262.17
  A 1.47 1.44 30.7 0 0 190.23 262.39
  C 186.21 264.94 184.00 268.36 178.75 268.46
  C 173.93 268.55 168.47 268.89 163.44 267.60
  Q 152.55 264.79 144.77 258.22
  A 4.05 3.98 72.1 0 0 143.24 257.42
  Q 136.63 255.62 129.84 255.91
  A 9.59 9.01 46.8 0 1 127.92 255.79
  Q 118.95 254.26 109.75 253.43
  Q 103.69 252.88 98.91 251.87
  C 94.00 250.84 88.12 250.66 82.86 249.10
  Q 81.42 248.67 78.95 248.32
  Q 68.26 246.82 57.51 245.25
  A 2.41 2.35 36.3 0 0 56.23 245.43
  L 46.62 249.82"
/>
<path stroke="#808080" vector-effect="non-scaling-stroke" d="
  M 188.74 113.93
  Q 189.73 113.67 192.00 113.98
  Q 213.05 116.82 230.54 118.88
  Q 241.06 120.12 249.47 121.39
  A 1.45 1.44 -15.0 0 1 250.41 121.93
  Q 252.18 124.20 252.56 127.01
  Q 254.57 142.00 256.19 148.74
  A 3.62 3.55 -44.4 0 1 256.15 150.60
  L 244.91 189.49
  A 0.71 0.71 0.0 0 0 245.38 190.36
  C 249.66 191.77 255.73 189.08 259.67 187.03
  Q 279.11 176.91 289.39 156.54
  C 293.53 148.34 294.64 138.45 295.31 129.75
  Q 296.25 117.66 293.16 105.95
  A 0.51 0.50 52.9 0 0 292.24 105.82
  Q 290.53 108.72 288.00 109.76
  A 0.60 0.60 0.0 0 1 287.18 109.12
  Q 288.51 99.54 286.55 89.71
  C 282.87 71.27 275.45 52.62 260.98 40.35
  C 252.03 32.76 239.93 26.98 227.86 25.88
  Q 221.72 25.31 220.80 25.19
  Q 215.63 24.46 210.21 25.18
  C 192.41 27.54 176.18 36.36 163.64 48.87
  Q 149.81 62.66 147.09 82.41
  A 0.25 0.25 0.0 0 0 147.53 82.60
  C 151.96 77.08 159.98 72.31 167.13 73.11
  C 172.63 73.72 177.75 74.82 181.87 79.38
  Q 189.41 87.73 191.50 96.81
  C 193.07 103.66 191.18 107.51 188.42 113.55
  A 0.28 0.27 -85.2 0 0 188.74 113.93"
/>
<path stroke="#808080" vector-effect="non-scaling-stroke" d="
  M 30.10 193.24
  Q 46.00 186.69 62.81 191.93
  A 3.67 3.60 -16.1 0 1 64.02 192.58
  C 66.86 194.96 69.90 197.00 71.88 199.76
  Q 80.01 211.11 75.50 223.58
  A 0.57 0.57 0.0 0 0 75.93 224.33
  Q 80.64 225.19 87.75 225.57
  Q 90.06 225.70 102.64 227.90
  C 104.08 228.15 105.50 227.92 107.12 228.15
  Q 121.78 230.25 131.20 231.94
  A 0.25 0.25 0.0 0 0 131.50 231.68
  Q 130.97 217.97 140.53 209.12
  C 146.54 203.54 156.54 201.35 164.34 202.85
  Q 167.17 203.39 174.91 206.52
  A 5.95 5.83 74.6 0 1 176.25 207.30
  Q 178.10 208.77 184.14 214.82
  Q 194.07 224.75 196.07 237.41
  A 0.69 0.69 0.0 0 0 196.75 238.00
  Q 200.87 237.99 204.27 239.19
  A 2.16 2.15 -72.4 0 0 207.05 237.75
  Q 209.98 227.53 213.76 217.22
  C 217.14 207.98 221.47 198.29 224.86 188.25
  C 229.88 173.35 231.29 169.35 235.95 154.60
  Q 239.26 144.12 242.94 133.69
  Q 244.12 130.36 245.07 126.42
  A 0.52 0.50 -77.2 0 0 244.69 125.80
  Q 244.24 125.70 239.19 124.79
  C 233.35 123.73 225.26 124.02 218.31 122.73
  Q 206.39 120.52 197.50 119.74
  Q 188.71 118.98 183.85 118.43
  C 173.21 117.22 162.55 116.83 152.86 115.60
  C 142.96 114.34 135.61 114.01 128.26 113.12
  Q 120.34 112.15 109.82 111.69
  C 102.18 111.36 92.65 109.38 85.03 108.99
  Q 79.69 108.71 60.94 107.27
  A 0.80 0.80 0.0 0 0 60.13 107.77
  Q 51.42 129.22 50.61 131.06
  Q 47.04 139.15 41.96 154.65
  Q 34.58 177.11 29.70 192.87
  A 0.30 0.30 0.0 0 0 30.10 193.24"
/>
<path stroke="#808080" vector-effect="non-scaling-stroke" d="
  M 54.14 110.15
  C 43.20 112.21 31.47 118.92 22.99 125.73
  Q 9.99 136.17 7.24 154.09
  C 6.42 159.47 7.34 164.85 11.20 168.21
  Q 18.10 174.23 27.57 173.46
  Q 31.33 173.15 32.35 169.91
  C 36.86 155.57 41.28 141.41 47.29 127.66
  Q 48.06 125.90 54.49 110.58
  A 0.32 0.31 -84.3 0 0 54.14 110.15"
/>
<path stroke="#6d6d6d" vector-effect="non-scaling-stroke" d="
  M 248.53 130.77
  Q 247.89 131.63 247.77 132.06
  C 245.06 141.92 241.59 151.01 238.96 159.50
  Q 230.48 186.85 221.14 210.19
  Q 214.84 225.91 214.01 228.75
  Q 210.65 240.12 209.71 241.42
  A 1.18 1.16 -37.2 0 0 209.55 242.49
  L 214.34 256.30
  A 0.49 0.48 40.5 0 0 215.28 256.23
  C 215.76 253.55 216.31 251.16 217.40 248.61
  Q 222.91 235.73 229.87 217.17
  Q 230.80 214.68 233.35 208.48
  C 236.29 201.31 238.21 193.44 241.33 184.71
  Q 245.08 174.22 245.54 172.30
  C 247.24 165.27 250.19 157.22 251.54 148.96
  A 1.71 1.71 0.0 0 0 251.54 148.44
  L 248.73 130.82
  A 0.11 0.11 0.0 0 0 248.53 130.77"
/>
<path stroke="#808080" vector-effect="non-scaling-stroke" d="
  M 59.27 195.81
  C 45.78 192.15 30.56 195.12 20.53 205.27
  C 12.40 213.51 8.03 222.88 12.29 234.23
  Q 13.29 236.90 16.57 240.85
  A 5.86 5.83 -7.1 0 0 18.61 242.43
  Q 24.89 245.39 27.04 245.92
  Q 32.37 247.26 42.71 245.92
  C 50.01 244.98 54.38 241.24 60.37 236.56
  Q 64.98 232.96 66.66 230.49
  C 71.33 223.65 73.72 216.15 71.14 208.06
  A 0.48 0.47 61.8 0 0 70.39 207.83
  Q 68.07 209.69 66.56 210.66
  A 2.16 1.88 -36.6 0 1 63.98 210.46
  C 61.92 208.21 66.54 204.83 68.10 203.75
  A 0.89 0.89 0.0 0 0 68.23 202.39
  L 65.11 199.27
  A 1.06 1.06 0.0 0 0 63.67 199.22
  Q 61.44 201.17 58.02 202.17
  A 1.84 1.82 -13.2 0 1 55.69 200.74
  Q 55.39 198.99 59.38 196.70
  A 0.49 0.48 -52.4 0 0 59.27 195.81"
/>
<path stroke="#808080" vector-effect="non-scaling-stroke" d="
  M 251.12 248.54
  Q 249.29 247.23 248.75 245.80
  C 246.56 239.96 248.39 233.18 255.25 231.98
  Q 255.85 231.87 257.64 232.81
  A 0.65 0.64 -61.1 0 0 258.49 232.56
  L 258.68 232.23
  A 1.10 1.10 0.0 0 0 258.14 230.66
  Q 250.06 227.46 246.76 219.59
  C 244.50 214.19 246.02 208.11 248.41 203.07
  A 1.29 1.28 -62.3 0 0 247.90 201.40
  L 242.97 198.56
  A 1.34 1.33 -66.5 0 0 241.02 199.33
  C 237.60 210.54 231.52 224.56 227.82 234.62
  Q 225.04 242.18 221.02 251.21
  A 1.03 1.02 -49.3 0 0 221.09 252.17
  Q 223.73 256.29 225.23 257.03
  C 235.73 262.24 244.88 258.33 251.26 249.39
  A 0.62 0.61 -54.7 0 0 251.12 248.54"
/>
<path stroke="#6d6d6d" vector-effect="non-scaling-stroke" d="
  M 259.17 226.05
  C 259.05 217.93 258.46 211.23 253.33 204.76
  A 0.56 0.56 0.0 0 0 252.39 204.87
  Q 250.42 209.10 250.11 213.56
  C 249.75 218.59 254.57 224.03 258.69 226.34
  A 0.32 0.32 0.0 0 0 259.17 226.05"
/>
<path stroke="#6d6d6d" vector-effect="non-scaling-stroke" d="
  M 169.04 264.21
  Q 172.75 264.92 176.88 264.23"
/>
<path stroke="#808080" vector-effect="non-scaling-stroke" d="
  M 176.88 264.23
  Q 183.62 262.08 188.84 256.96
  A 3.00 2.97 81.0 0 0 189.45 256.11
  Q 192.04 250.70 192.48 244.52
  C 193.26 233.63 185.98 222.11 178.14 215.11
  C 174.70 212.03 174.06 211.12 170.06 209.41
  Q 160.05 205.13 151.26 208.18
  A 0.44 0.44 0.0 0 0 151.11 208.92
  Q 153.27 210.88 153.94 212.04
  A 2.11 1.93 64.3 0 1 153.05 214.99
  C 151.10 215.72 147.73 211.83 146.96 210.65
  A 0.90 0.90 0.0 0 0 145.57 210.51
  L 142.02 214.05
  A 0.95 0.95 0.0 0 0 142.00 215.37
  Q 142.62 216.03 145.49 219.50
  A 2.03 1.95 48.9 0 1 145.36 222.23
  C 143.20 224.20 140.65 220.54 139.13 218.66
  A 0.35 0.35 0.0 0 0 138.55 218.72
  C 132.08 231.23 138.68 247.25 148.36 255.41
  Q 156.71 262.45 169.04 264.21"
/>
<path stroke="#ececec" vector-effect="non-scaling-stroke" d="
  M 176.88 264.23
  Q 172.83 263.40 169.04 264.21"
/>
<path stroke="#6d6d6d" vector-effect="non-scaling-stroke" d="
  M 62.87 241.08
  Q 62.98 241.11 68.64 242.33
  C 76.62 244.05 84.77 244.87 94.64 246.19
  C 96.38 246.42 98.07 247.06 99.60 246.99
  C 102.05 246.87 105.56 247.91 107.82 248.21
  Q 120.82 249.95 139.28 252.32
  A 0.17 0.17 0.0 0 0 139.44 252.04
  Q 134.03 245.27 132.23 236.86
  A 0.68 0.68 0.0 0 0 131.63 236.32
  Q 103.15 233.12 74.05 228.34
  A 0.76 0.76 0.0 0 0 73.31 228.66
  Q 72.06 230.45 71.31 232.09
  C 69.63 235.76 66.12 238.35 62.81 240.59
  A 0.28 0.28 0.0 0 0 62.87 241.08"
/>
<path stroke="#6d6d6d" vector-effect="non-scaling-stroke" d="
  M 254.46 244.86
  L 257.42 236.81
  A 0.12 0.12 0.0 0 0 257.35 236.65
  L 257.29 236.63
  A 4.28 3.48 -69.8 0 0 252.55 239.45
  L 252.46 239.69
  A 4.28 3.48 -69.8 0 0 254.25 244.91
  L 254.30 244.93
  A 0.12 0.12 0.0 0 0 254.46 244.86"
/>
<path stroke="#6d6d6d" vector-effect="non-scaling-stroke" d="
  M 210.85 258.53
  L 206.27 245.35
  A 2.92 2.92 0.0 0 0 203.79 243.39
  L 197.52 242.78
  A 0.64 0.63 -77.0 0 0 196.86 243.20
  C 196.20 245.09 196.52 247.08 195.98 249.16
  Q 194.15 256.16 193.67 257.24
  A 0.27 0.27 0.0 0 0 193.89 257.62
  L 210.29 259.23
  A 0.54 0.53 -6.7 0 0 210.85 258.53"
/>
<path stroke="#808080" vector-effect="non-scaling-stroke" d="
  M 178.83 180.18
  A 3.06 3.06 0.0 0 0 179.15 183.66
  Q 184.48 190.01 190.66 192.09
  C 207.68 197.84 222.04 178.71 221.44 163.73
  C 221.23 158.53 219.17 151.94 217.08 147.17
  Q 211.17 133.63 197.41 125.87
  C 192.55 123.13 188.58 123.00 182.48 122.86
  A 1.73 1.72 3.4 0 0 180.72 124.42
  L 180.71 124.48
  A 1.54 1.54 0.0 0 0 182.19 126.17
  Q 190.31 126.43 196.74 130.49
  C 207.53 137.30 212.72 145.79 215.93 157.96
  C 218.65 168.24 215.20 177.94 207.09 184.59
  C 197.47 192.48 188.98 187.92 181.40 179.84
  A 1.60 1.60 0.0 0 0 178.85 180.15
  L 178.83 180.18"
/>
<path stroke="#808080" vector-effect="non-scaling-stroke" d="
  M 78.6020 158.8743
  A 7.41 4.48 -28.5 0 0 69.9523 158.4729
  A 7.41 4.48 -28.5 0 0 65.5780 165.9457
  A 7.41 4.48 -28.5 0 0 74.2277 166.3471
  A 7.41 4.48 -28.5 0 0 78.6020 158.8743"
/>
<path stroke="#808080" vector-effect="non-scaling-stroke" d="
  M 63.83 188.69
  A 1.78 1.77 13.9 0 0 65.65 187.60
  Q 70.58 175.63 80.80 169.10
  Q 88.22 164.37 97.92 163.59
  C 120.89 161.74 137.52 175.92 145.86 196.24
  A 2.09 2.09 0.0 0 0 148.71 197.33
  L 148.84 197.27
  A 2.33 2.32 65.3 0 0 149.95 194.26
  C 143.43 179.03 131.87 165.16 115.80 160.97
  Q 106.63 158.58 101.95 158.79
  C 94.56 159.12 87.17 160.26 80.01 164.49
  Q 66.67 172.36 61.36 186.68
  A 1.41 1.40 -76.9 0 0 62.53 188.57
  L 63.83 188.69"
/>
<path stroke="#808080" vector-effect="non-scaling-stroke" d="
  M 138.5872 165.5038
  A 7.14 4.62 -144.5 0 0 141.7172 173.4112
  A 7.14 4.62 -144.5 0 0 150.2128 173.7962
  A 7.14 4.62 -144.5 0 0 147.0828 165.8888
  A 7.14 4.62 -144.5 0 0 138.5872 165.5038"
/>
<path stroke="#808080" vector-effect="non-scaling-stroke" d="
  M 107.23 168.16
  Q 106.33 166.39 104.55 166.18
  C 102.67 165.96 93.33 165.57 92.65 169.01
  A 3.32 3.27 -67.2 0 0 93.99 172.36
  Q 102.38 178.21 107.23 169.13
  A 1.07 1.05 45.6 0 0 107.23 168.16"
/>
<path stroke="#808080" vector-effect="non-scaling-stroke" d="
  M 72.7662 159.8595
  A 1.87 1.43 -158.0 0 0 73.9643 161.8859
  A 1.87 1.43 -158.0 0 0 76.2338 161.2605
  A 1.87 1.43 -158.0 0 0 75.0357 159.2341
  A 1.87 1.43 -158.0 0 0 72.7662 159.8595"
/>
<path stroke="#808080" vector-effect="non-scaling-stroke" d="
  M 73.11 163.19
  Q 71.90 162.54 71.21 161.52
  A 1.81 1.56 -49.2 0 0 68.37 161.94
  Q 66.95 164.45 69.21 165.36
  A 1.58 1.55 -42.9 0 0 70.33 165.39
  L 73.01 164.46
  A 0.70 0.69 49.7 0 0 73.11 163.19"
/>
<path stroke="#808080" vector-effect="non-scaling-stroke" d="
  M 144.3493 167.1083
  A 2.07 1.47 -8.1 0 0 142.0929 165.9447
  A 2.07 1.47 -8.1 0 0 140.2507 167.6917
  A 2.07 1.47 -8.1 0 0 142.5071 168.8553
  A 2.07 1.47 -8.1 0 0 144.3493 167.1083"
/>
<path stroke="#808080" vector-effect="non-scaling-stroke" d="
  M 146.92 167.86
  L 142.46 170.26
  A 0.23 0.23 0.0 0 0 142.37 170.57
  L 142.66 171.12
  A 3.83 2.75 61.7 0 0 146.90 173.19
  L 146.92 173.18
  A 3.83 2.75 61.7 0 0 147.52 168.50
  L 147.23 167.95
  A 0.23 0.23 0.0 0 0 146.92 167.86"
/>
<path stroke="#808080" vector-effect="non-scaling-stroke" d="
  M 95.84 169.92
  Q 97.83 170.18 99.34 168.65
  A 0.41 0.41 0.0 0 0 99.11 167.96
  Q 97.67 167.70 95.84 167.93
  A 1.00 1.00 0.0 0 0 95.84 169.92"
/>
</g>
<path fill="#000000" d="
  M 300.00 116.14
  L 300.00 132.49
  L 298.00 144.61
  A 8.40 7.55 -29.7 0 1 297.23 146.93
  Q 297.00 147.37 297.08 148.14
  A 5.53 5.48 51.4 0 1 296.85 150.29
  C 290.49 170.33 270.47 191.79 248.75 195.52
  A 0.20 0.19 54.9 0 0 248.69 195.88
  Q 258.90 201.78 261.81 210.71
  Q 264.34 218.48 263.50 228.99
  Q 262.16 242.04 254.99 251.85
  C 246.56 263.37 235.26 267.09 222.28 260.82
  A 3.71 3.68 -7.5 0 1 221.15 259.96
  L 219.15 257.72
  A 0.27 0.26 35.4 0 0 218.71 257.79
  L 216.67 262.43
  A 1.55 1.50 -9.3 0 1 216.26 262.98
  Q 213.63 265.27 211.47 264.84
  Q 201.35 262.82 191.13 262.17
  A 1.47 1.44 30.7 0 0 190.23 262.39
  C 186.21 264.94 184.00 268.36 178.75 268.46
  C 173.93 268.55 168.47 268.89 163.44 267.60
  Q 152.55 264.79 144.77 258.22
  A 4.05 3.98 72.1 0 0 143.24 257.42
  Q 136.63 255.62 129.84 255.91
  A 9.59 9.01 46.8 0 1 127.92 255.79
  Q 118.95 254.26 109.75 253.43
  Q 103.69 252.88 98.91 251.87
  C 94.00 250.84 88.12 250.66 82.86 249.10
  Q 81.42 248.67 78.95 248.32
  Q 68.26 246.82 57.51 245.25
  A 2.41 2.35 36.3 0 0 56.23 245.43
  L 46.62 249.82
  Q 38.73 250.93 36.25 251.05
  Q 31.12 251.30 23.48 249.32
  Q 23.00 249.20 21.37 249.17
  A 1.53 1.48 -26.9 0 1 20.52 248.91
  L 16.20 245.99
  A 15.94 15.83 87.0 0 1 12.90 243.00
  C 9.38 238.74 7.67 236.67 6.62 231.17
  Q 4.26 218.76 11.89 208.37
  Q 16.51 202.08 21.39 198.14
  A 3.29 2.91 -87.2 0 0 21.83 197.69
  L 24.37 194.50
  A 2.22 2.19 72.9 0 0 24.74 193.79
  L 29.54 178.31
  A 0.61 0.60 -85.7 0 0 28.87 177.53
  L 24.92 178.16
  A 3.85 3.82 -45.2 0 1 23.72 178.17
  C 13.00 176.60 3.39 170.91 2.63 159.35
  C 2.28 154.03 4.08 147.87 5.60 142.78
  Q 6.55 139.63 8.75 135.88
  C 14.68 125.80 22.81 119.60 33.19 113.83
  Q 41.12 109.43 49.56 107.33
  Q 52.61 106.58 55.16 106.63
  A 1.29 1.28 -85.4 0 0 56.45 105.52
  Q 56.62 104.34 57.14 103.56
  A 1.05 1.04 16.8 0 1 58.01 103.10
  Q 74.40 103.22 82.70 104.27
  Q 93.47 105.65 99.71 105.15
  A 5.00 4.93 51.3 0 1 101.65 105.38
  C 104.29 106.24 106.85 105.95 109.72 106.62
  A 6.87 6.84 51.5 0 0 111.28 106.80
  Q 122.33 106.82 134.37 108.95
  A 2.11 2.02 43.0 0 0 135.20 108.94
  C 137.29 108.50 139.20 109.90 140.64 109.55
  Q 141.36 109.37 146.38 110.09
  Q 151.07 110.75 161.36 111.97
  C 167.31 112.67 172.44 112.57 178.99 113.00
  A 2.66 2.60 -56.7 0 0 180.41 112.69
  Q 185.80 109.80 186.72 104.03
  C 188.22 94.63 183.77 88.38 178.17 81.96
  C 175.44 78.83 169.16 77.56 165.72 77.59
  C 158.61 77.64 152.25 82.79 148.67 88.64
  Q 147.96 89.80 147.19 90.34
  A 1.21 1.19 -38.0 0 1 145.58 90.15
  C 141.99 86.01 142.33 82.33 143.51 76.51
  Q 143.92 74.52 146.07 67.32
  Q 147.43 62.75 149.94 58.69
  Q 161.65 39.76 181.99 29.22
  Q 188.02 26.09 194.36 23.78
  Q 200.32 21.61 207.50 20.98
  C 225.85 19.37 244.16 22.18 259.25 33.35
  Q 275.13 45.10 283.08 62.89
  Q 290.40 79.28 291.81 99.30
  A 0.61 0.60 -4.2 0 0 292.47 99.86
  C 294.09 99.70 294.97 99.76 295.94 101.29
  C 298.86 105.90 299.09 110.90 300.00 116.14
  Z
  M 188.74 113.93
  Q 189.73 113.67 192.00 113.98
  Q 213.05 116.82 230.54 118.88
  Q 241.06 120.12 249.47 121.39
  A 1.45 1.44 -15.0 0 1 250.41 121.93
  Q 252.18 124.20 252.56 127.01
  Q 254.57 142.00 256.19 148.74
  A 3.62 3.55 -44.4 0 1 256.15 150.60
  L 244.91 189.49
  A 0.71 0.71 0.0 0 0 245.38 190.36
  C 249.66 191.77 255.73 189.08 259.67 187.03
  Q 279.11 176.91 289.39 156.54
  C 293.53 148.34 294.64 138.45 295.31 129.75
  Q 296.25 117.66 293.16 105.95
  A 0.51 0.50 52.9 0 0 292.24 105.82
  Q 290.53 108.72 288.00 109.76
  A 0.60 0.60 0.0 0 1 287.18 109.12
  Q 288.51 99.54 286.55 89.71
  C 282.87 71.27 275.45 52.62 260.98 40.35
  C 252.03 32.76 239.93 26.98 227.86 25.88
  Q 221.72 25.31 220.80 25.19
  Q 215.63 24.46 210.21 25.18
  C 192.41 27.54 176.18 36.36 163.64 48.87
  Q 149.81 62.66 147.09 82.41
  A 0.25 0.25 0.0 0 0 147.53 82.60
  C 151.96 77.08 159.98 72.31 167.13 73.11
  C 172.63 73.72 177.75 74.82 181.87 79.38
  Q 189.41 87.73 191.50 96.81
  C 193.07 103.66 191.18 107.51 188.42 113.55
  A 0.28 0.27 -85.2 0 0 188.74 113.93
  Z
  M 30.10 193.24
  Q 46.00 186.69 62.81 191.93
  A 3.67 3.60 -16.1 0 1 64.02 192.58
  C 66.86 194.96 69.90 197.00 71.88 199.76
  Q 80.01 211.11 75.50 223.58
  A 0.57 0.57 0.0 0 0 75.93 224.33
  Q 80.64 225.19 87.75 225.57
  Q 90.06 225.70 102.64 227.90
  C 104.08 228.15 105.50 227.92 107.12 228.15
  Q 121.78 230.25 131.20 231.94
  A 0.25 0.25 0.0 0 0 131.50 231.68
  Q 130.97 217.97 140.53 209.12
  C 146.54 203.54 156.54 201.35 164.34 202.85
  Q 167.17 203.39 174.91 206.52
  A 5.95 5.83 74.6 0 1 176.25 207.30
  Q 178.10 208.77 184.14 214.82
  Q 194.07 224.75 196.07 237.41
  A 0.69 0.69 0.0 0 0 196.75 238.00
  Q 200.87 237.99 204.27 239.19
  A 2.16 2.15 -72.4 0 0 207.05 237.75
  Q 209.98 227.53 213.76 217.22
  C 217.14 207.98 221.47 198.29 224.86 188.25
  C 229.88 173.35 231.29 169.35 235.95 154.60
  Q 239.26 144.12 242.94 133.69
  Q 244.12 130.36 245.07 126.42
  A 0.52 0.50 -77.2 0 0 244.69 125.80
  Q 244.24 125.70 239.19 124.79
  C 233.35 123.73 225.26 124.02 218.31 122.73
  Q 206.39 120.52 197.50 119.74
  Q 188.71 118.98 183.85 118.43
  C 173.21 117.22 162.55 116.83 152.86 115.60
  C 142.96 114.34 135.61 114.01 128.26 113.12
  Q 120.34 112.15 109.82 111.69
  C 102.18 111.36 92.65 109.38 85.03 108.99
  Q 79.69 108.71 60.94 107.27
  A 0.80 0.80 0.0 0 0 60.13 107.77
  Q 51.42 129.22 50.61 131.06
  Q 47.04 139.15 41.96 154.65
  Q 34.58 177.11 29.70 192.87
  A 0.30 0.30 0.0 0 0 30.10 193.24
  Z
  M 54.14 110.15
  C 43.20 112.21 31.47 118.92 22.99 125.73
  Q 9.99 136.17 7.24 154.09
  C 6.42 159.47 7.34 164.85 11.20 168.21
  Q 18.10 174.23 27.57 173.46
  Q 31.33 173.15 32.35 169.91
  C 36.86 155.57 41.28 141.41 47.29 127.66
  Q 48.06 125.90 54.49 110.58
  A 0.32 0.31 -84.3 0 0 54.14 110.15
  Z
  M 248.53 130.77
  Q 247.89 131.63 247.77 132.06
  C 245.06 141.92 241.59 151.01 238.96 159.50
  Q 230.48 186.85 221.14 210.19
  Q 214.84 225.91 214.01 228.75
  Q 210.65 240.12 209.71 241.42
  A 1.18 1.16 -37.2 0 0 209.55 242.49
  L 214.34 256.30
  A 0.49 0.48 40.5 0 0 215.28 256.23
  C 215.76 253.55 216.31 251.16 217.40 248.61
  Q 222.91 235.73 229.87 217.17
  Q 230.80 214.68 233.35 208.48
  C 236.29 201.31 238.21 193.44 241.33 184.71
  Q 245.08 174.22 245.54 172.30
  C 247.24 165.27 250.19 157.22 251.54 148.96
  A 1.71 1.71 0.0 0 0 251.54 148.44
  L 248.73 130.82
  A 0.11 0.11 0.0 0 0 248.53 130.77
  Z
  M 59.27 195.81
  C 45.78 192.15 30.56 195.12 20.53 205.27
  C 12.40 213.51 8.03 222.88 12.29 234.23
  Q 13.29 236.90 16.57 240.85
  A 5.86 5.83 -7.1 0 0 18.61 242.43
  Q 24.89 245.39 27.04 245.92
  Q 32.37 247.26 42.71 245.92
  C 50.01 244.98 54.38 241.24 60.37 236.56
  Q 64.98 232.96 66.66 230.49
  C 71.33 223.65 73.72 216.15 71.14 208.06
  A 0.48 0.47 61.8 0 0 70.39 207.83
  Q 68.07 209.69 66.56 210.66
  A 2.16 1.88 -36.6 0 1 63.98 210.46
  C 61.92 208.21 66.54 204.83 68.10 203.75
  A 0.89 0.89 0.0 0 0 68.23 202.39
  L 65.11 199.27
  A 1.06 1.06 0.0 0 0 63.67 199.22
  Q 61.44 201.17 58.02 202.17
  A 1.84 1.82 -13.2 0 1 55.69 200.74
  Q 55.39 198.99 59.38 196.70
  A 0.49 0.48 -52.4 0 0 59.27 195.81
  Z
  M 251.12 248.54
  Q 249.29 247.23 248.75 245.80
  C 246.56 239.96 248.39 233.18 255.25 231.98
  Q 255.85 231.87 257.64 232.81
  A 0.65 0.64 -61.1 0 0 258.49 232.56
  L 258.68 232.23
  A 1.10 1.10 0.0 0 0 258.14 230.66
  Q 250.06 227.46 246.76 219.59
  C 244.50 214.19 246.02 208.11 248.41 203.07
  A 1.29 1.28 -62.3 0 0 247.90 201.40
  L 242.97 198.56
  A 1.34 1.33 -66.5 0 0 241.02 199.33
  C 237.60 210.54 231.52 224.56 227.82 234.62
  Q 225.04 242.18 221.02 251.21
  A 1.03 1.02 -49.3 0 0 221.09 252.17
  Q 223.73 256.29 225.23 257.03
  C 235.73 262.24 244.88 258.33 251.26 249.39
  A 0.62 0.61 -54.7 0 0 251.12 248.54
  Z
  M 259.17 226.05
  C 259.05 217.93 258.46 211.23 253.33 204.76
  A 0.56 0.56 0.0 0 0 252.39 204.87
  Q 250.42 209.10 250.11 213.56
  C 249.75 218.59 254.57 224.03 258.69 226.34
  A 0.32 0.32 0.0 0 0 259.17 226.05
  Z
  M 169.04 264.21
  Q 172.75 264.92 176.88 264.23
  Q 183.62 262.08 188.84 256.96
  A 3.00 2.97 81.0 0 0 189.45 256.11
  Q 192.04 250.70 192.48 244.52
  C 193.26 233.63 185.98 222.11 178.14 215.11
  C 174.70 212.03 174.06 211.12 170.06 209.41
  Q 160.05 205.13 151.26 208.18
  A 0.44 0.44 0.0 0 0 151.11 208.92
  Q 153.27 210.88 153.94 212.04
  A 2.11 1.93 64.3 0 1 153.05 214.99
  C 151.10 215.72 147.73 211.83 146.96 210.65
  A 0.90 0.90 0.0 0 0 145.57 210.51
  L 142.02 214.05
  A 0.95 0.95 0.0 0 0 142.00 215.37
  Q 142.62 216.03 145.49 219.50
  A 2.03 1.95 48.9 0 1 145.36 222.23
  C 143.20 224.20 140.65 220.54 139.13 218.66
  A 0.35 0.35 0.0 0 0 138.55 218.72
  C 132.08 231.23 138.68 247.25 148.36 255.41
  Q 156.71 262.45 169.04 264.21
  Z
  M 62.87 241.08
  Q 62.98 241.11 68.64 242.33
  C 76.62 244.05 84.77 244.87 94.64 246.19
  C 96.38 246.42 98.07 247.06 99.60 246.99
  C 102.05 246.87 105.56 247.91 107.82 248.21
  Q 120.82 249.95 139.28 252.32
  A 0.17 0.17 0.0 0 0 139.44 252.04
  Q 134.03 245.27 132.23 236.86
  A 0.68 0.68 0.0 0 0 131.63 236.32
  Q 103.15 233.12 74.05 228.34
  A 0.76 0.76 0.0 0 0 73.31 228.66
  Q 72.06 230.45 71.31 232.09
  C 69.63 235.76 66.12 238.35 62.81 240.59
  A 0.28 0.28 0.0 0 0 62.87 241.08
  Z
  M 254.46 244.86
  L 257.42 236.81
  A 0.12 0.12 0.0 0 0 257.35 236.65
  L 257.29 236.63
  A 4.28 3.48 -69.8 0 0 252.55 239.45
  L 252.46 239.69
  A 4.28 3.48 -69.8 0 0 254.25 244.91
  L 254.30 244.93
  A 0.12 0.12 0.0 0 0 254.46 244.86
  Z
  M 210.85 258.53
  L 206.27 245.35
  A 2.92 2.92 0.0 0 0 203.79 243.39
  L 197.52 242.78
  A 0.64 0.63 -77.0 0 0 196.86 243.20
  C 196.20 245.09 196.52 247.08 195.98 249.16
  Q 194.15 256.16 193.67 257.24
  A 0.27 0.27 0.0 0 0 193.89 257.62
  L 210.29 259.23
  A 0.54 0.53 -6.7 0 0 210.85 258.53
  Z"
/>
<path fill="#ffffff" d="
  M 188.42 113.55
  C 191.18 107.51 193.07 103.66 191.50 96.81
  Q 189.41 87.73 181.87 79.38
  C 177.75 74.82 172.63 73.72 167.13 73.11
  C 159.98 72.31 151.96 77.08 147.53 82.60
  A 0.25 0.25 0.0 0 1 147.09 82.41
  Q 149.81 62.66 163.64 48.87
  C 176.18 36.36 192.41 27.54 210.21 25.18
  Q 215.63 24.46 220.80 25.19
  Q 221.72 25.31 227.86 25.88
  C 239.93 26.98 252.03 32.76 260.98 40.35
  C 275.45 52.62 282.87 71.27 286.55 89.71
  Q 288.51 99.54 287.18 109.12
  A 0.60 0.60 0.0 0 0 288.00 109.76
  Q 290.53 108.72 292.24 105.82
  A 0.51 0.50 52.9 0 1 293.16 105.95
  Q 296.25 117.66 295.31 129.75
  C 294.64 138.45 293.53 148.34 289.39 156.54
  Q 279.11 176.91 259.67 187.03
  C 255.73 189.08 249.66 191.77 245.38 190.36
  A 0.71 0.71 0.0 0 1 244.91 189.49
  L 256.15 150.60
  A 3.62 3.55 -44.4 0 0 256.19 148.74
  Q 254.57 142.00 252.56 127.01
  Q 252.18 124.20 250.41 121.93
  A 1.45 1.44 -15.0 0 0 249.47 121.39
  Q 241.06 120.12 230.54 118.88
  Q 213.05 116.82 192.00 113.98
  Q 189.73 113.67 188.74 113.93
  A 0.28 0.27 -85.2 0 1 188.42 113.55
  Z"
/>
<path fill="#ffffff" d="
  M 29.70 192.87
  Q 34.58 177.11 41.96 154.65
  Q 47.04 139.15 50.61 131.06
  Q 51.42 129.22 60.13 107.77
  A 0.80 0.80 0.0 0 1 60.94 107.27
  Q 79.69 108.71 85.03 108.99
  C 92.65 109.38 102.18 111.36 109.82 111.69
  Q 120.34 112.15 128.26 113.12
  C 135.61 114.01 142.96 114.34 152.86 115.60
  C 162.55 116.83 173.21 117.22 183.85 118.43
  Q 188.71 118.98 197.50 119.74
  Q 206.39 120.52 218.31 122.73
  C 225.26 124.02 233.35 123.73 239.19 124.79
  Q 244.24 125.70 244.69 125.80
  A 0.52 0.50 -77.2 0 1 245.07 126.42
  Q 244.12 130.36 242.94 133.69
  Q 239.26 144.12 235.95 154.60
  C 231.29 169.35 229.88 173.35 224.86 188.25
  C 221.47 198.29 217.14 207.98 213.76 217.22
  Q 209.98 227.53 207.05 237.75
  A 2.16 2.15 -72.4 0 1 204.27 239.19
  Q 200.87 237.99 196.75 238.00
  A 0.69 0.69 0.0 0 1 196.07 237.41
  Q 194.07 224.75 184.14 214.82
  Q 178.10 208.77 176.25 207.30
  A 5.95 5.83 74.6 0 0 174.91 206.52
  Q 167.17 203.39 164.34 202.85
  C 156.54 201.35 146.54 203.54 140.53 209.12
  Q 130.97 217.97 131.50 231.68
  A 0.25 0.25 0.0 0 1 131.20 231.94
  Q 121.78 230.25 107.12 228.15
  C 105.50 227.92 104.08 228.15 102.64 227.90
  Q 90.06 225.70 87.75 225.57
  Q 80.64 225.19 75.93 224.33
  A 0.57 0.57 0.0 0 1 75.50 223.58
  Q 80.01 211.11 71.88 199.76
  C 69.90 197.00 66.86 194.96 64.02 192.58
  A 3.67 3.60 -16.1 0 0 62.81 191.93
  Q 46.00 186.69 30.10 193.24
  A 0.30 0.30 0.0 0 1 29.70 192.87
  Z
  M 178.83 180.18
  A 3.06 3.06 0.0 0 0 179.15 183.66
  Q 184.48 190.01 190.66 192.09
  C 207.68 197.84 222.04 178.71 221.44 163.73
  C 221.23 158.53 219.17 151.94 217.08 147.17
  Q 211.17 133.63 197.41 125.87
  C 192.55 123.13 188.58 123.00 182.48 122.86
  A 1.73 1.72 3.4 0 0 180.72 124.42
  L 180.71 124.48
  A 1.54 1.54 0.0 0 0 182.19 126.17
  Q 190.31 126.43 196.74 130.49
  C 207.53 137.30 212.72 145.79 215.93 157.96
  C 218.65 168.24 215.20 177.94 207.09 184.59
  C 197.47 192.48 188.98 187.92 181.40 179.84
  A 1.60 1.60 0.0 0 0 178.85 180.15
  L 178.83 180.18
  Z
  M 78.6020 158.8743
  A 7.41 4.48 -28.5 0 0 69.9523 158.4729
  A 7.41 4.48 -28.5 0 0 65.5780 165.9457
  A 7.41 4.48 -28.5 0 0 74.2277 166.3471
  A 7.41 4.48 -28.5 0 0 78.6020 158.8743
  Z
  M 63.83 188.69
  A 1.78 1.77 13.9 0 0 65.65 187.60
  Q 70.58 175.63 80.80 169.10
  Q 88.22 164.37 97.92 163.59
  C 120.89 161.74 137.52 175.92 145.86 196.24
  A 2.09 2.09 0.0 0 0 148.71 197.33
  L 148.84 197.27
  A 2.33 2.32 65.3 0 0 149.95 194.26
  C 143.43 179.03 131.87 165.16 115.80 160.97
  Q 106.63 158.58 101.95 158.79
  C 94.56 159.12 87.17 160.26 80.01 164.49
  Q 66.67 172.36 61.36 186.68
  A 1.41 1.40 -76.9 0 0 62.53 188.57
  L 63.83 188.69
  Z
  M 138.5872 165.5038
  A 7.14 4.62 -144.5 0 0 141.7172 173.4112
  A 7.14 4.62 -144.5 0 0 150.2128 173.7962
  A 7.14 4.62 -144.5 0 0 147.0828 165.8888
  A 7.14 4.62 -144.5 0 0 138.5872 165.5038
  Z
  M 107.23 168.16
  Q 106.33 166.39 104.55 166.18
  C 102.67 165.96 93.33 165.57 92.65 169.01
  A 3.32 3.27 -67.2 0 0 93.99 172.36
  Q 102.38 178.21 107.23 169.13
  A 1.07 1.05 45.6 0 0 107.23 168.16
  Z"
/>
<path fill="#ffffff" d="
  M 54.14 110.15
  A 0.32 0.31 -84.3 0 1 54.49 110.58
  Q 48.06 125.90 47.29 127.66
  C 41.28 141.41 36.86 155.57 32.35 169.91
  Q 31.33 173.15 27.57 173.46
  Q 18.10 174.23 11.20 168.21
  C 7.34 164.85 6.42 159.47 7.24 154.09
  Q 9.99 136.17 22.99 125.73
  C 31.47 118.92 43.20 112.21 54.14 110.15
  Z"
/>
<path fill="#000000" d="
  M 178.83 180.18
  L 178.85 180.15
  A 1.60 1.60 0.0 0 1 181.40 179.84
  C 188.98 187.92 197.47 192.48 207.09 184.59
  C 215.20 177.94 218.65 168.24 215.93 157.96
  C 212.72 145.79 207.53 137.30 196.74 130.49
  Q 190.31 126.43 182.19 126.17
  A 1.54 1.54 0.0 0 1 180.71 124.48
  L 180.72 124.42
  A 1.73 1.72 3.4 0 1 182.48 122.86
  C 188.58 123.00 192.55 123.13 197.41 125.87
  Q 211.17 133.63 217.08 147.17
  C 219.17 151.94 221.23 158.53 221.44 163.73
  C 222.04 178.71 207.68 197.84 190.66 192.09
  Q 184.48 190.01 179.15 183.66
  A 3.06 3.06 0.0 0 1 178.83 180.18
  Z"
/>
<path fill="#d9d9d9" d="
  M 248.73 130.82
  L 251.54 148.44
  A 1.71 1.71 0.0 0 1 251.54 148.96
  C 250.19 157.22 247.24 165.27 245.54 172.30
  Q 245.08 174.22 241.33 184.71
  C 238.21 193.44 236.29 201.31 233.35 208.48
  Q 230.80 214.68 229.87 217.17
  Q 222.91 235.73 217.40 248.61
  C 216.31 251.16 215.76 253.55 215.28 256.23
  A 0.49 0.48 40.5 0 1 214.34 256.30
  L 209.55 242.49
  A 1.18 1.16 -37.2 0 1 209.71 241.42
  Q 210.65 240.12 214.01 228.75
  Q 214.84 225.91 221.14 210.19
  Q 230.48 186.85 238.96 159.50
  C 241.59 151.01 245.06 141.92 247.77 132.06
  Q 247.89 131.63 248.53 130.77
  A 0.11 0.11 0.0 0 1 248.73 130.82
  Z"
/>
<path fill="#000000" d="
  M 78.6020 158.8743
  A 7.41 4.48 -28.5 0 1 74.2277 166.3471
  A 7.41 4.48 -28.5 0 1 65.5780 165.9457
  A 7.41 4.48 -28.5 0 1 69.9523 158.4729
  A 7.41 4.48 -28.5 0 1 78.6020 158.8743
  Z
  M 72.7662 159.8595
  A 1.87 1.43 -158.0 0 0 73.9643 161.8859
  A 1.87 1.43 -158.0 0 0 76.2338 161.2605
  A 1.87 1.43 -158.0 0 0 75.0357 159.2341
  A 1.87 1.43 -158.0 0 0 72.7662 159.8595
  Z
  M 73.11 163.19
  Q 71.90 162.54 71.21 161.52
  A 1.81 1.56 -49.2 0 0 68.37 161.94
  Q 66.95 164.45 69.21 165.36
  A 1.58 1.55 -42.9 0 0 70.33 165.39
  L 73.01 164.46
  A 0.70 0.69 49.7 0 0 73.11 163.19
  Z"
/>
<path fill="#000000" d="
  M 63.83 188.69
  L 62.53 188.57
  A 1.41 1.40 -76.9 0 1 61.36 186.68
  Q 66.67 172.36 80.01 164.49
  C 87.17 160.26 94.56 159.12 101.95 158.79
  Q 106.63 158.58 115.80 160.97
  C 131.87 165.16 143.43 179.03 149.95 194.26
  A 2.33 2.32 65.3 0 1 148.84 197.27
  L 148.71 197.33
  A 2.09 2.09 0.0 0 1 145.86 196.24
  C 137.52 175.92 120.89 161.74 97.92 163.59
  Q 88.22 164.37 80.80 169.10
  Q 70.58 175.63 65.65 187.60
  A 1.78 1.77 13.9 0 1 63.83 188.69
  Z"
/>
<ellipse fill="#ffffff" cx="0.00" cy="0.00" transform="translate(74.50,160.56) rotate(-158.0)" rx="1.87" ry="1.43"/>
<path fill="#ffffff" d="
  M 73.11 163.19
  A 0.70 0.69 49.7 0 1 73.01 164.46
  L 70.33 165.39
  A 1.58 1.55 -42.9 0 1 69.21 165.36
  Q 66.95 164.45 68.37 161.94
  A 1.81 1.56 -49.2 0 1 71.21 161.52
  Q 71.90 162.54 73.11 163.19
  Z"
/>
<path fill="#000000" d="
  M 138.5872 165.5038
  A 7.14 4.62 -144.5 0 1 147.0828 165.8888
  A 7.14 4.62 -144.5 0 1 150.2128 173.7962
  A 7.14 4.62 -144.5 0 1 141.7172 173.4112
  A 7.14 4.62 -144.5 0 1 138.5872 165.5038
  Z
  M 144.3493 167.1083
  A 2.07 1.47 -8.1 0 0 142.0929 165.9447
  A 2.07 1.47 -8.1 0 0 140.2507 167.6917
  A 2.07 1.47 -8.1 0 0 142.5071 168.8553
  A 2.07 1.47 -8.1 0 0 144.3493 167.1083
  Z
  M 146.92 167.86
  L 142.46 170.26
  A 0.23 0.23 0.0 0 0 142.37 170.57
  L 142.66 171.12
  A 3.83 2.75 61.7 0 0 146.90 173.19
  L 146.92 173.18
  A 3.83 2.75 61.7 0 0 147.52 168.50
  L 147.23 167.95
  A 0.23 0.23 0.0 0 0 146.92 167.86
  Z"
/>
<path fill="#000000" d="
  M 107.23 169.13
  Q 102.38 178.21 93.99 172.36
  A 3.32 3.27 -67.2 0 1 92.65 169.01
  C 93.33 165.57 102.67 165.96 104.55 166.18
  Q 106.33 166.39 107.23 168.16
  A 1.07 1.05 45.6 0 1 107.23 169.13
  Z
  M 95.84 169.92
  Q 97.83 170.18 99.34 168.65
  A 0.41 0.41 0.0 0 0 99.11 167.96
  Q 97.67 167.70 95.84 167.93
  A 1.00 1.00 0.0 0 0 95.84 169.92
  Z"
/>
<ellipse fill="#ffffff" cx="0.00" cy="0.00" transform="translate(142.30,167.40) rotate(-8.1)" rx="2.07" ry="1.47"/>
<path fill="#ffffff" d="
  M 95.84 169.92
  A 1.00 1.00 0.0 0 1 95.84 167.93
  Q 97.67 167.70 99.11 167.96
  A 0.41 0.41 0.0 0 1 99.34 168.65
  Q 97.83 170.18 95.84 169.92
  Z"
/>
<path fill="#ffffff" d="
  M 146.92 167.86
  A 0.23 0.23 0.0 0 1 147.23 167.95
  L 147.52 168.50
  A 3.83 2.75 61.7 0 1 146.92 173.18
  L 146.90 173.19
  A 3.83 2.75 61.7 0 1 142.66 171.12
  L 142.37 170.57
  A 0.23 0.23 0.0 0 1 142.46 170.26
  L 146.92 167.86
  Z"
/>
<path fill="#ffffff" d="
  M 59.27 195.81
  A 0.49 0.48 -52.4 0 1 59.38 196.70
  Q 55.39 198.99 55.69 200.74
  A 1.84 1.82 -13.2 0 0 58.02 202.17
  Q 61.44 201.17 63.67 199.22
  A 1.06 1.06 0.0 0 1 65.11 199.27
  L 68.23 202.39
  A 0.89 0.89 0.0 0 1 68.10 203.75
  C 66.54 204.83 61.92 208.21 63.98 210.46
  A 2.16 1.88 -36.6 0 0 66.56 210.66
  Q 68.07 209.69 70.39 207.83
  A 0.48 0.47 61.8 0 1 71.14 208.06
  C 73.72 216.15 71.33 223.65 66.66 230.49
  Q 64.98 232.96 60.37 236.56
  C 54.38 241.24 50.01 244.98 42.71 245.92
  Q 32.37 247.26 27.04 245.92
  Q 24.89 245.39 18.61 242.43
  A 5.86 5.83 -7.1 0 1 16.57 240.85
  Q 13.29 236.90 12.29 234.23
  C 8.03 222.88 12.40 213.51 20.53 205.27
  C 30.56 195.12 45.78 192.15 59.27 195.81
  Z"
/>
<path fill="#ffffff" d="
  M 251.26 249.39
  C 244.88 258.33 235.73 262.24 225.23 257.03
  Q 223.73 256.29 221.09 252.17
  A 1.03 1.02 -49.3 0 1 221.02 251.21
  Q 225.04 242.18 227.82 234.62
  C 231.52 224.56 237.60 210.54 241.02 199.33
  A 1.34 1.33 -66.5 0 1 242.97 198.56
  L 247.90 201.40
  A 1.29 1.28 -62.3 0 1 248.41 203.07
  C 246.02 208.11 244.50 214.19 246.76 219.59
  Q 250.06 227.46 258.14 230.66
  A 1.10 1.10 0.0 0 1 258.68 232.23
  L 258.49 232.56
  A 0.65 0.64 -61.1 0 1 257.64 232.81
  Q 255.85 231.87 255.25 231.98
  C 248.39 233.18 246.56 239.96 248.75 245.80
  Q 249.29 247.23 251.12 248.54
  A 0.62 0.61 -54.7 0 1 251.26 249.39
  Z"
/>
<path fill="#d9d9d9" d="
  M 259.17 226.05
  A 0.32 0.32 0.0 0 1 258.69 226.34
  C 254.57 224.03 249.75 218.59 250.11 213.56
  Q 250.42 209.10 252.39 204.87
  A 0.56 0.56 0.0 0 1 253.33 204.76
  C 258.46 211.23 259.05 217.93 259.17 226.05
  Z"
/>
<path fill="#ffffff" d="
  M 176.88 264.23
  Q 172.83 263.40 169.04 264.21
  Q 156.71 262.45 148.36 255.41
  C 138.68 247.25 132.08 231.23 138.55 218.72
  A 0.35 0.35 0.0 0 1 139.13 218.66
  C 140.65 220.54 143.20 224.20 145.36 222.23
  A 2.03 1.95 48.9 0 0 145.49 219.50
  Q 142.62 216.03 142.00 215.37
  A 0.95 0.95 0.0 0 1 142.02 214.05
  L 145.57 210.51
  A 0.90 0.90 0.0 0 1 146.96 210.65
  C 147.73 211.83 151.10 215.72 153.05 214.99
  A 2.11 1.93 64.3 0 0 153.94 212.04
  Q 153.27 210.88 151.11 208.92
  A 0.44 0.44 0.0 0 1 151.26 208.18
  Q 160.05 205.13 170.06 209.41
  C 174.06 211.12 174.70 212.03 178.14 215.11
  C 185.98 222.11 193.26 233.63 192.48 244.52
  Q 192.04 250.70 189.45 256.11
  A 3.00 2.97 81.0 0 1 188.84 256.96
  Q 183.62 262.08 176.88 264.23
  Z"
/>
<path fill="#d9d9d9" d="
  M 62.87 241.08
  A 0.28 0.28 0.0 0 1 62.81 240.59
  C 66.12 238.35 69.63 235.76 71.31 232.09
  Q 72.06 230.45 73.31 228.66
  A 0.76 0.76 0.0 0 1 74.05 228.34
  Q 103.15 233.12 131.63 236.32
  A 0.68 0.68 0.0 0 1 132.23 236.86
  Q 134.03 245.27 139.44 252.04
  A 0.17 0.17 0.0 0 1 139.28 252.32
  Q 120.82 249.95 107.82 248.21
  C 105.56 247.91 102.05 246.87 99.60 246.99
  C 98.07 247.06 96.38 246.42 94.64 246.19
  C 84.77 244.87 76.62 244.05 68.64 242.33
  Q 62.98 241.11 62.87 241.08
  Z"
/>
<path fill="#d9d9d9" d="
  M 263.50 228.99
  Q 271.82 233.78 274.65 242.23
  Q 276.45 247.61 275.40 251.91
  C 273.95 257.89 268.78 263.26 263.57 266.04
  Q 245.39 275.74 224.94 278.57
  C 222.86 278.86 220.90 278.83 219.35 279.10
  Q 206.28 281.41 192.74 280.70
  C 185.02 280.29 178.97 280.92 171.78 280.63
  Q 139.27 279.34 112.69 276.79
  Q 101.55 275.72 93.10 273.68
  Q 84.96 271.72 73.95 268.31
  Q 66.76 266.09 61.14 263.12
  Q 53.37 259.02 46.62 249.82
  L 56.23 245.43
  A 2.41 2.35 36.3 0 1 57.51 245.25
  Q 68.26 246.82 78.95 248.32
  Q 81.42 248.67 82.86 249.10
  C 88.12 250.66 94.00 250.84 98.91 251.87
  Q 103.69 252.88 109.75 253.43
  Q 118.95 254.26 127.92 255.79
  A 9.59 9.01 46.8 0 0 129.84 255.91
  Q 136.63 255.62 143.24 257.42
  A 4.05 3.98 72.1 0 1 144.77 258.22
  Q 152.55 264.79 163.44 267.60
  C 168.47 268.89 173.93 268.55 178.75 268.46
  C 184.00 268.36 186.21 264.94 190.23 262.39
  A 1.47 1.44 30.7 0 1 191.13 262.17
  Q 201.35 262.82 211.47 264.84
  Q 213.63 265.27 216.26 262.98
  A 1.55 1.50 -9.3 0 0 216.67 262.43
  L 218.71 257.79
  A 0.27 0.26 35.4 0 1 219.15 257.72
  L 221.15 259.96
  A 3.71 3.68 -7.5 0 0 222.28 260.82
  C 235.26 267.09 246.56 263.37 254.99 251.85
  Q 262.16 242.04 263.50 228.99
  Z"
/>
<path fill="#d9d9d9" d="
  M 254.46 244.86
  A 0.12 0.12 0.0 0 1 254.30 244.93
  L 254.25 244.91
  A 4.28 3.48 -69.8 0 1 252.46 239.69
  L 252.55 239.45
  A 4.28 3.48 -69.8 0 1 257.29 236.63
  L 257.35 236.65
  A 0.12 0.12 0.0 0 1 257.42 236.81
  L 254.46 244.86
  Z"
/>
<path fill="#d9d9d9" d="
  M 210.85 258.53
  A 0.54 0.53 -6.7 0 1 210.29 259.23
  L 193.89 257.62
  A 0.27 0.27 0.0 0 1 193.67 257.24
  Q 194.15 256.16 195.98 249.16
  C 196.52 247.08 196.20 245.09 196.86 243.20
  A 0.64 0.63 -77.0 0 1 197.52 242.78
  L 203.79 243.39
  A 2.92 2.92 0.0 0 1 206.27 245.35
  L 210.85 258.53
  Z"
/>
<path fill="#d9d9d9" d="
  M 176.88 264.23
  Q 172.75 264.92 169.04 264.21
  Q 172.83 263.40 176.88 264.23
  Z"
/>
</svg>
