<?xml version="1.0" encoding="UTF-8" standalone="no"?>
<!DOCTYPE svg PUBLIC "-//W3C//DTD SVG 1.1//EN" "http://www.w3.org/Graphics/SVG/1.1/DTD/svg11.dtd">
<svg xmlns="http://www.w3.org/2000/svg" version="1.1" viewBox="0.00 0.00 300.00 300.00" width="300.00" height="300.00">
<path fill="#d9d9d9" d="
  M 259.75 227.86
  Q 267.85 230.00 272.05 236.90
  C 280.62 250.96 273.25 261.46 259.89 267.94
  Q 244.14 275.59 227.10 278.23
  Q 222.36 278.96 209.93 280.34
  Q 201.94 281.23 192.66 280.69
  C 185.58 280.28 178.96 280.88 172.01 280.63
  Q 144.86 279.65 116.06 277.12
  Q 101.08 275.80 91.62 273.35
  Q 78.12 269.85 67.62 266.14
  Q 58.32 262.84 50.04 254.00
  Q 46.48 250.20 45.55 247.26
  Q 42.96 239.10 46.15 231.68
  Q 46.99 229.72 51.20 225.96
  Q 55.84 221.83 61.77 219.05
  Q 78.29 211.30 96.74 209.52
  Q 102.42 208.97 105.77 209.22
  C 108.31 209.40 110.18 208.63 112.68 208.88
  C 117.99 209.41 123.87 208.17 129.13 208.08
  Q 153.54 207.66 178.14 208.95
  Q 179.16 209.00 183.82 209.81
  Q 185.87 210.16 189.53 210.46
  Q 204.13 211.63 216.04 214.68
  Q 222.46 216.32 232.99 218.56
  C 241.37 220.34 250.83 222.97 258.81 227.48
  A 4.02 3.71 -20.7 0 0 259.75 227.86
  Z"
/>
</svg>
