<?xml version="1.0" standalone="no"?>
<!DOCTYPE svg PUBLIC "-//W3C//DTD SVG 20010904//EN"
 "http://www.w3.org/TR/2001/REC-SVG-20010904/DTD/svg10.dtd">
<svg version="1.0" xmlns="http://www.w3.org/2000/svg"
 width="300.000000pt" height="300.000000pt" viewBox="0 0 300.000000 300.000000"
 preserveAspectRatio="xMidYMid meet">

<g transform="translate(0.000000,300.000000) scale(0.100000,-0.100000)"
fill="#000000" stroke="none">
<path d="M1991 2774 c-183 -49 -362 -173 -465 -322 -73 -107 -117 -275 -86
-333 15 -27 33 -24 59 11 12 17 41 44 63 60 33 24 51 30 93 30 83 0 110 -15
163 -88 45 -63 47 -70 47 -134 0 -60 -3 -70 -30 -98 l-30 -32 -100 6 c-55 4
-154 13 -220 21 -275 32 -402 44 -685 65 -208 15 -227 14 -235 -10 -4 -14 -15
-20 -35 -20 -40 0 -142 -38 -222 -83 -138 -77 -232 -191 -263 -317 -24 -97
-17 -177 18 -223 34 -45 107 -80 178 -85 l57 -4 -29 -85 c-25 -74 -37 -93 -98
-159 -88 -94 -116 -159 -107 -251 6 -74 21 -105 75 -160 51 -53 99 -68 221
-67 81 0 103 4 153 26 l57 27 123 -19 c67 -11 163 -26 212 -35 98 -17 276 -40
423 -55 80 -8 101 -15 151 -45 81 -50 153 -75 230 -80 79 -5 121 5 161 38 26
22 33 24 77 16 63 -12 90 -5 112 32 16 26 20 28 31 14 8 -9 30 -25 49 -34 159
-80 329 33 396 263 22 75 17 215 -9 266 -21 41 -85 110 -102 110 -6 0 -22 9
-35 20 l-24 20 40 -7 c90 -16 169 5 277 76 220 144 326 367 315 661 -4 135
-22 198 -56 207 -15 4 -21 17 -26 52 -13 108 -56 257 -99 344 -97 199 -248
325 -452 377 -95 25 -290 27 -373 4z m379 -50 c176 -51 324 -179 405 -348 58
-122 98 -276 99 -388 1 -49 3 -88 5 -88 3 0 15 9 27 21 l23 21 11 -42 c31
-115 2 -371 -55 -479 -99 -189 -306 -344 -432 -325 -24 3 -45 9 -48 13 -2 4
26 83 62 177 36 93 66 180 66 194 1 79 -18 282 -27 295 -8 11 -69 22 -216 39
-363 44 -400 49 -400 56 0 4 7 25 16 46 46 110 -51 304 -168 339 -29 8 -67 15
-87 15 -41 0 -107 -30 -146 -66 -15 -14 -29 -23 -31 -21 -2 2 3 28 10 58 49
187 173 326 381 430 55 27 129 56 165 64 80 18 261 12 340 -11z m-1610 -809
c58 -3 164 -12 235 -20 72 -7 191 -19 265 -25 74 -6 198 -17 275 -25 77 -8
221 -22 320 -31 99 -9 218 -22 265 -30 47 -8 132 -18 190 -24 58 -5 113 -12
123 -15 22 -9 21 -12 -48 -175 -30 -69 -90 -213 -136 -320 -45 -107 -110 -251
-144 -320 -56 -111 -97 -201 -127 -280 -9 -23 -11 -21 -34 39 -45 118 -148
231 -245 266 -100 36 -229 16 -297 -48 -42 -39 -75 -106 -81 -165 -7 -68 23
-65 -266 -23 -116 17 -228 32 -250 33 l-40 3 0 85 c0 74 -3 91 -27 132 -34 56
-96 107 -146 119 -58 13 -184 10 -237 -6 -27 -8 -51 -12 -54 -10 -8 9 167 523
235 688 66 159 70 167 94 163 14 -3 72 -8 130 -11z m-220 -24 c0 -4 -26 -71
-59 -147 -32 -76 -82 -212 -112 -302 l-54 -162 -35 -10 c-54 -15 -131 13 -178
63 -71 76 -7 293 119 401 59 51 166 114 242 142 70 26 77 27 77 15z m1915
-516 c-62 -168 -172 -420 -277 -635 -55 -113 -110 -225 -121 -250 l-21 -45
-17 55 c-10 30 -18 64 -18 75 -1 28 42 131 143 340 48 99 112 239 143 310 30
72 79 187 109 257 30 70 60 140 66 155 11 25 13 19 21 -67 9 -95 9 -96 -28
-195z m-1872 -334 c4 -4 1 -14 -8 -21 -39 -33 0 -55 44 -24 22 16 24 15 44 -5
l21 -21 -28 -29 c-39 -41 -16 -73 25 -35 27 24 39 9 39 -49 0 -79 -43 -160
-116 -221 -91 -76 -147 -98 -253 -98 -79 -1 -93 2 -141 28 -77 42 -103 93 -97
192 4 64 8 79 42 128 60 87 143 142 248 164 46 10 167 4 180 -9z m1807 -58
c14 -9 26 -17 28 -18 1 -1 -7 -22 -18 -46 -11 -24 -20 -62 -20 -83 0 -54 35
-123 76 -149 43 -28 43 -37 0 -37 -26 0 -40 -7 -56 -27 -22 -28 -22 -29 -8
-131 2 -18 -7 -31 -37 -53 -75 -54 -167 -51 -222 7 l-32 34 106 218 c58 119
113 236 124 260 21 47 24 49 59 25z m-708 -71 c71 -25 163 -119 206 -209 28
-61 34 -84 34 -138 -1 -86 -23 -131 -87 -173 -47 -32 -54 -34 -125 -30 -210
10 -382 204 -346 390 11 58 21 66 50 39 24 -23 46 -22 46 3 0 7 -9 21 -20 31
-25 23 -25 30 1 53 20 20 21 19 44 -4 13 -13 31 -24 40 -24 20 0 19 34 -1 51
-14 12 -14 14 3 20 32 13 107 9 155 -9z m803 -26 c17 -42 28 -130 20 -156 -7
-22 -7 -22 -36 6 -33 32 -53 84 -44 116 23 83 37 91 60 34z m-1510 -205 c224
-32 287 -40 322 -40 16 -1 25 -11 33 -38 7 -21 23 -57 37 -80 13 -24 20 -43
16 -43 -27 0 -653 86 -683 94 -8 2 -28 7 -44 11 l-28 6 39 34 c22 19 46 48 53
65 9 21 18 29 29 26 9 -3 110 -19 226 -35z m1495 -81 c0 -21 -31 -71 -40 -65
-12 8 -12 17 0 49 9 25 40 37 40 16z m-479 -165 c3 -16 -2 -21 -25 -23 -24 -3
-28 -1 -22 15 4 10 10 34 14 53 l5 35 13 -30 c6 -16 14 -39 15 -50z"/>
<path d="M1810 1756 c0 -8 16 -16 42 -20 95 -15 201 -91 255 -184 33 -56 63
-154 63 -205 0 -59 -39 -136 -94 -184 -76 -67 -146 -65 -228 7 -38 33 -48 37
-57 26 -16 -19 35 -78 93 -105 112 -55 238 5 302 143 78 168 -46 440 -239 521
-47 19 -137 20 -137 1z"/>
<path d="M693 1411 c-40 -25 -52 -59 -27 -78 22 -16 56 -10 96 18 30 22 36 47
16 67 -17 17 -48 15 -85 -7z m65 -20 c3 -8 -1 -12 -9 -9 -7 2 -15 10 -17 17
-3 8 1 12 9 9 7 -2 15 -10 17 -17z m-39 -14 c13 -16 5 -27 -21 -27 -18 0 -25
20 -11 33 10 10 19 8 32 -6z"/>
<path d="M912 1400 c-67 -14 -159 -69 -209 -124 -46 -51 -96 -142 -87 -158 13
-20 36 -4 58 40 57 111 152 180 278 201 82 14 173 2 255 -34 75 -34 178 -139
224 -230 20 -39 42 -70 50 -70 51 0 -17 132 -126 241 -66 67 -92 85 -150 108
-77 31 -214 43 -293 26z"/>
<path d="M1392 1348 c-20 -20 -14 -45 19 -72 38 -32 85 -35 94 -6 16 51 -76
115 -113 78z m48 -17 c0 -12 -28 -22 -34 -12 -3 5 -3 11 1 15 9 9 33 7 33 -3z
m40 -41 c0 -23 -12 -25 -42 -9 -17 9 -18 13 -7 20 25 16 49 10 49 -11z"/>
<path d="M953 1330 c-36 -15 -29 -48 13 -66 42 -18 69 -11 90 22 24 37 12 54
-38 53 -24 0 -53 -4 -65 -9z m32 -20 c-3 -5 -13 -10 -21 -10 -8 0 -14 5 -14
10 0 6 9 10 21 10 11 0 17 -4 14 -10z"/>
</g>
</svg>
