<?xml version="1.0" encoding="UTF-8" standalone="no"?>
<!DOCTYPE svg PUBLIC "-//W3C//DTD SVG 1.1//EN" "http://www.w3.org/Graphics/SVG/1.1/DTD/svg11.dtd">
<svg xmlns="http://www.w3.org/2000/svg" version="1.1" viewBox="0.00 0.00 300.00 300.00" width="300.00" height="300.00">
<g stroke-width="2.00" fill="none" stroke-linecap="butt">
<path stroke="#808080" vector-effect="non-scaling-stroke" d="
  M 30.83 195.25
  Q 32.99 195.20 62.25 197.10
  Q 108.78 200.12 136.24 201.03
  Q 169.91 202.16 174.63 202.32
  C 191.62 202.93 206.27 204.56 222.99 205.28
  Q 225.62 205.39 227.37 205.00
  A 1.06 1.04 -83.7 0 0 228.11 204.40
  C 240.36 177.58 249.64 158.18 258.72 134.06
  Q 264.16 119.61 272.68 100.94
  Q 273.23 99.75 274.00 97.58
  A 0.71 0.71 0.0 0 0 273.47 96.65
  Q 266.23 95.21 259.94 94.35
  Q 236.44 91.15 213.50 88.84
  Q 198.69 87.36 155.50 84.05
  Q 117.11 81.11 79.44 82.67
  A 0.75 0.74 9.8 0 0 78.78 83.13
  Q 75.52 90.82 75.29 91.35
  C 64.12 116.08 52.91 140.23 42.80 165.16
  Q 37.62 177.93 31.89 190.68
  Q 30.76 193.18 30.41 194.73
  A 0.43 0.42 -84.1 0 0 30.83 195.25"
/>
<path stroke="#808080" vector-effect="non-scaling-stroke" d="
  M 46.41 144.53
  L 73.46 84.77
  A 0.32 0.31 12.0 0 0 73.17 84.33
  Q 70.55 84.30 67.89 84.95
  Q 57.16 87.55 48.11 91.58
  C 39.04 95.62 29.94 103.37 23.49 111.88
  Q 18.75 118.14 16.94 123.39
  C 14.64 130.07 14.97 138.92 20.69 144.30
  Q 23.97 147.38 28.78 149.66
  Q 35.76 152.95 42.74 150.11
  A 3.49 3.47 -1.4 0 0 44.71 148.05
  Q 45.43 146.01 46.36 144.63
  A 0.75 0.47 -31.7 0 0 46.41 144.53"
/>
<path stroke="#6d6d6d" vector-effect="non-scaling-stroke" d="
  M 275.61 105.34
  C 273.24 111.33 270.41 116.76 267.72 123.63
  Q 259.01 145.82 255.41 154.64
  Q 251.04 165.31 232.81 204.45
  A 3.44 3.39 61.7 0 0 232.54 205.37
  Q 232.29 207.01 232.46 209.01
  Q 232.49 209.30 234.45 225.38
  A 0.22 0.22 0.0 0 0 234.87 225.44
  Q 244.30 203.11 253.91 183.28
  C 262.32 165.92 267.88 151.65 275.51 134.25
  Q 276.55 131.88 276.45 128.50
  Q 275.94 111.75 275.88 105.39
  A 0.14 0.14 0.0 0 0 275.61 105.34"
/>
<path stroke="#6d6d6d" vector-effect="non-scaling-stroke" d="
  M 230.40 227.20
  L 227.82 209.71
  A 0.46 0.46 0.0 0 0 227.19 209.35
  L 225.73 209.96
  A 2.36 2.34 35.3 0 1 224.71 210.13
  Q 204.21 208.69 192.85 207.78
  Q 183.17 207.00 161.14 206.36
  Q 120.23 205.17 89.94 203.24
  Q 64.95 201.65 45.70 200.41
  C 40.80 200.10 36.00 199.48 31.09 199.25
  A 0.53 0.52 -89.0 0 0 30.55 199.78
  C 30.59 205.93 32.30 212.20 32.64 217.33
  A 0.68 0.68 0.0 0 0 33.30 217.97
  C 50.64 218.51 67.98 220.15 86.91 220.76
  Q 126.01 222.02 167.50 223.43
  C 187.35 224.11 216.77 226.68 229.87 227.76
  A 0.49 0.49 0.0 0 0 230.40 227.20"
/>
<path stroke="#808080" vector-effect="non-scaling-stroke" d="
  M 194.48 143.19
  A 1.81 1.79 -57.2 0 0 191.75 143.80
  C 190.46 146.33 192.92 151.44 194.09 153.49
  C 197.99 160.30 204.68 168.53 212.13 169.93
  C 223.91 172.15 232.23 168.71 239.11 158.85
  Q 248.13 145.92 246.97 130.24
  Q 246.19 119.73 240.87 111.84
  C 235.19 103.40 225.88 95.10 215.05 95.79
  A 2.22 2.07 -9.4 0 0 213.01 98.43
  Q 213.25 99.26 214.71 99.58
  Q 218.04 100.33 221.08 101.04
  A 9.96 9.89 -24.9 0 1 223.32 101.85
  C 231.96 106.27 239.76 115.66 241.57 125.51
  C 243.22 134.48 242.43 143.67 237.92 151.79
  C 232.44 161.64 226.41 167.26 214.75 165.62
  C 204.78 164.21 198.14 152.44 195.16 143.91
  Q 195.08 143.68 194.48 143.19"
/>
<path stroke="#ececec" vector-effect="non-scaling-stroke" d="
  M 104.67 134.48
  A 7.51 4.48 -29.4 0 0 103.92 130.80"
/>
<path stroke="#808080" vector-effect="non-scaling-stroke" d="
  M 103.92 130.80
  A 7.54 4.50 -29.6 0 0 98.51 130.27
  A 7.52 4.48 -29.7 0 0 94.35 132.38
  A 7.52 4.43 -29.4 0 0 91.58 135.69
  A 7.52 4.49 -29.5 0 0 93.32 140.40
  A 7.52 4.49 -29.5 0 0 99.15 139.75
  A 7.51 4.49 -29.6 0 0 104.09 135.66
  A 7.20 4.46 -28.2 0 0 104.67 134.48"
/>
<path stroke="#6d6d6d" vector-effect="non-scaling-stroke" d="
  M 103.92 130.80
  L 104.67 134.48"
/>
<path stroke="#808080" vector-effect="non-scaling-stroke" d="
  M 166.63 168.51
  L 166.68 168.46
  A 3.65 3.65 0.0 0 0 167.23 164.45
  Q 161.85 153.29 153.87 147.14
  Q 145.75 140.88 135.27 137.16
  C 132.83 136.30 129.96 136.07 127.95 135.56
  Q 125.98 135.04 122.38 135.14
  Q 116.23 135.31 114.76 135.42
  C 108.66 135.89 103.87 138.87 98.95 142.60
  C 92.65 147.38 88.26 154.62 85.29 161.98
  A 3.09 3.09 0.0 0 0 86.01 165.37
  L 86.04 165.39
  A 1.64 1.63 -54.0 0 0 88.62 164.98
  Q 92.31 158.00 93.80 155.56
  Q 97.79 149.02 105.27 144.12
  C 110.67 140.59 117.05 139.63 123.36 140.08
  Q 132.18 140.70 138.94 143.82
  Q 147.06 147.57 152.28 151.94
  Q 158.70 157.31 163.92 168.14
  A 1.64 1.64 0.0 0 0 166.63 168.51"
/>
<path stroke="#808080" vector-effect="non-scaling-stroke" d="
  M 159.5961 137.1972
  A 7.94 4.95 -141.5 0 0 162.7286 146.0139
  A 7.94 4.95 -141.5 0 0 172.0239 147.0828
  A 7.94 4.95 -141.5 0 0 168.8914 138.2661
  A 7.94 4.95 -141.5 0 0 159.5961 137.1972"
/>
<path stroke="#808080" vector-effect="non-scaling-stroke" d="
  M 111.70 146.03
  C 109.32 150.44 114.75 157.14 119.67 155.62
  Q 122.91 154.62 126.84 151.19
  A 2.09 2.05 -14.6 0 0 127.49 150.11
  C 128.87 144.22 115.46 144.87 112.47 145.47
  A 1.12 1.11 8.6 0 0 111.70 146.03"
/>
<path stroke="#808080" vector-effect="non-scaling-stroke" d="
  M 98.4661 132.9907
  A 1.86 1.55 -162.5 0 0 99.7739 135.0283
  A 1.86 1.55 -162.5 0 0 102.0139 134.1093
  A 1.86 1.55 -162.5 0 0 100.7061 132.0717
  A 1.86 1.55 -162.5 0 0 98.4661 132.9907"
/>
<path stroke="#808080" vector-effect="non-scaling-stroke" d="
  M 164.8085 139.1738
  A 1.85 1.53 -6.4 0 0 162.7995 137.8595
  A 1.85 1.53 -6.4 0 0 161.1315 139.5862
  A 1.85 1.53 -6.4 0 0 163.1405 140.9005
  A 1.85 1.53 -6.4 0 0 164.8085 139.1738"
/>
</g>
<path fill="#000000" d="
  M 40.89 155.74
  Q 33.98 156.68 30.15 155.30
  Q 20.49 151.83 15.29 145.20
  C 9.61 137.97 10.08 126.54 14.00 118.41
  Q 16.72 112.77 22.00 106.34
  C 33.15 92.76 47.55 85.23 64.56 81.04
  Q 71.28 79.39 74.49 79.81
  A 1.29 1.27 -56.7 0 0 75.33 79.63
  L 76.51 78.87
  A 1.38 1.36 -60.0 0 1 77.27 78.66
  C 83.80 78.85 94.54 77.85 101.84 77.78
  Q 128.90 77.54 156.25 79.61
  Q 199.47 82.87 222.50 85.21
  Q 231.58 86.14 263.83 90.29
  C 266.66 90.65 270.02 91.41 273.58 91.86
  A 7.63 7.52 60.2 0 1 275.79 92.48
  L 277.99 93.47
  A 3.57 3.57 0.0 0 1 280.08 96.61
  L 281.16 131.86
  A 2.51 2.33 -38.7 0 1 281.04 132.67
  Q 279.52 137.06 278.26 139.71
  C 273.42 149.92 269.23 160.45 264.91 170.51
  C 261.88 177.57 257.55 185.27 254.73 191.67
  Q 249.84 202.78 248.83 204.74
  C 245.40 211.36 241.94 220.50 238.39 227.47
  C 237.42 229.37 236.37 230.75 234.92 231.91
  A 2.40 2.34 27.5 0 1 233.27 232.41
  C 204.04 229.95 180.62 228.14 151.54 227.16
  Q 123.90 226.24 92.26 225.13
  C 70.95 224.38 52.13 223.01 33.24 221.83
  Q 29.07 221.57 28.18 217.35
  Q 27.83 215.69 26.55 206.59
  C 26.10 203.40 26.56 200.20 25.76 197.50
  A 4.68 4.64 45.5 0 1 25.77 194.81
  Q 27.27 189.85 27.83 188.60
  Q 35.31 171.74 41.34 156.32
  A 0.43 0.42 -83.0 0 0 40.89 155.74
  Z
  M 30.83 195.25
  Q 32.99 195.20 62.25 197.10
  Q 108.78 200.12 136.24 201.03
  Q 169.91 202.16 174.63 202.32
  C 191.62 202.93 206.27 204.56 222.99 205.28
  Q 225.62 205.39 227.37 205.00
  A 1.06 1.04 -83.7 0 0 228.11 204.40
  C 240.36 177.58 249.64 158.18 258.72 134.06
  Q 264.16 119.61 272.68 100.94
  Q 273.23 99.75 274.00 97.58
  A 0.71 0.71 0.0 0 0 273.47 96.65
  Q 266.23 95.21 259.94 94.35
  Q 236.44 91.15 213.50 88.84
  Q 198.69 87.36 155.50 84.05
  Q 117.11 81.11 79.44 82.67
  A 0.75 0.74 9.8 0 0 78.78 83.13
  Q 75.52 90.82 75.29 91.35
  C 64.12 116.08 52.91 140.23 42.80 165.16
  Q 37.62 177.93 31.89 190.68
  Q 30.76 193.18 30.41 194.73
  A 0.43 0.42 -84.1 0 0 30.83 195.25
  Z
  M 46.41 144.53
  L 73.46 84.77
  A 0.32 0.31 12.0 0 0 73.17 84.33
  Q 70.55 84.30 67.89 84.95
  Q 57.16 87.55 48.11 91.58
  C 39.04 95.62 29.94 103.37 23.49 111.88
  Q 18.75 118.14 16.94 123.39
  C 14.64 130.07 14.97 138.92 20.69 144.30
  Q 23.97 147.38 28.78 149.66
  Q 35.76 152.95 42.74 150.11
  A 3.49 3.47 -1.4 0 0 44.71 148.05
  Q 45.43 146.01 46.36 144.63
  A 0.75 0.47 -31.7 0 0 46.41 144.53
  Z
  M 275.61 105.34
  C 273.24 111.33 270.41 116.76 267.72 123.63
  Q 259.01 145.82 255.41 154.64
  Q 251.04 165.31 232.81 204.45
  A 3.44 3.39 61.7 0 0 232.54 205.37
  Q 232.29 207.01 232.46 209.01
  Q 232.49 209.30 234.45 225.38
  A 0.22 0.22 0.0 0 0 234.87 225.44
  Q 244.30 203.11 253.91 183.28
  C 262.32 165.92 267.88 151.65 275.51 134.25
  Q 276.55 131.88 276.45 128.50
  Q 275.94 111.75 275.88 105.39
  A 0.14 0.14 0.0 0 0 275.61 105.34
  Z
  M 230.40 227.20
  L 227.82 209.71
  A 0.46 0.46 0.0 0 0 227.19 209.35
  L 225.73 209.96
  A 2.36 2.34 35.3 0 1 224.71 210.13
  Q 204.21 208.69 192.85 207.78
  Q 183.17 207.00 161.14 206.36
  Q 120.23 205.17 89.94 203.24
  Q 64.95 201.65 45.70 200.41
  C 40.80 200.10 36.00 199.48 31.09 199.25
  A 0.53 0.52 -89.0 0 0 30.55 199.78
  C 30.59 205.93 32.30 212.20 32.64 217.33
  A 0.68 0.68 0.0 0 0 33.30 217.97
  C 50.64 218.51 67.98 220.15 86.91 220.76
  Q 126.01 222.02 167.50 223.43
  C 187.35 224.11 216.77 226.68 229.87 227.76
  A 0.49 0.49 0.0 0 0 230.40 227.20
  Z"
/>
<path fill="#ffffff" d="
  M 30.41 194.73
  Q 30.76 193.18 31.89 190.68
  Q 37.62 177.93 42.80 165.16
  C 52.91 140.23 64.12 116.08 75.29 91.35
  Q 75.52 90.82 78.78 83.13
  A 0.75 0.74 9.8 0 1 79.44 82.67
  Q 117.11 81.11 155.50 84.05
  Q 198.69 87.36 213.50 88.84
  Q 236.44 91.15 259.94 94.35
  Q 266.23 95.21 273.47 96.65
  A 0.71 0.71 0.0 0 1 274.00 97.58
  Q 273.23 99.75 272.68 100.94
  Q 264.16 119.61 258.72 134.06
  C 249.64 158.18 240.36 177.58 228.11 204.40
  A 1.06 1.04 -83.7 0 1 227.37 205.00
  Q 225.62 205.39 222.99 205.28
  C 206.27 204.56 191.62 202.93 174.63 202.32
  Q 169.91 202.16 136.24 201.03
  Q 108.78 200.12 62.25 197.10
  Q 32.99 195.20 30.83 195.25
  A 0.43 0.42 -84.1 0 1 30.41 194.73
  Z
  M 194.48 143.19
  A 1.81 1.79 -57.2 0 0 191.75 143.80
  C 190.46 146.33 192.92 151.44 194.09 153.49
  C 197.99 160.30 204.68 168.53 212.13 169.93
  C 223.91 172.15 232.23 168.71 239.11 158.85
  Q 248.13 145.92 246.97 130.24
  Q 246.19 119.73 240.87 111.84
  C 235.19 103.40 225.88 95.10 215.05 95.79
  A 2.22 2.07 -9.4 0 0 213.01 98.43
  Q 213.25 99.26 214.71 99.58
  Q 218.04 100.33 221.08 101.04
  A 9.96 9.89 -24.9 0 1 223.32 101.85
  C 231.96 106.27 239.76 115.66 241.57 125.51
  C 243.22 134.48 242.43 143.67 237.92 151.79
  C 232.44 161.64 226.41 167.26 214.75 165.62
  C 204.78 164.21 198.14 152.44 195.16 143.91
  Q 195.08 143.68 194.48 143.19
  Z
  M 104.67 134.48
  A 7.51 4.48 -29.4 0 0 103.92 130.80
  A 7.54 4.50 -29.6 0 0 98.51 130.27
  A 7.52 4.48 -29.7 0 0 94.35 132.38
  A 7.52 4.43 -29.4 0 0 91.58 135.69
  A 7.52 4.49 -29.5 0 0 93.32 140.40
  A 7.52 4.49 -29.5 0 0 99.15 139.75
  A 7.51 4.49 -29.6 0 0 104.09 135.66
  A 7.20 4.46 -28.2 0 0 104.67 134.48
  Z
  M 166.63 168.51
  L 166.68 168.46
  A 3.65 3.65 0.0 0 0 167.23 164.45
  Q 161.85 153.29 153.87 147.14
  Q 145.75 140.88 135.27 137.16
  C 132.83 136.30 129.96 136.07 127.95 135.56
  Q 125.98 135.04 122.38 135.14
  Q 116.23 135.31 114.76 135.42
  C 108.66 135.89 103.87 138.87 98.95 142.60
  C 92.65 147.38 88.26 154.62 85.29 161.98
  A 3.09 3.09 0.0 0 0 86.01 165.37
  L 86.04 165.39
  A 1.64 1.63 -54.0 0 0 88.62 164.98
  Q 92.31 158.00 93.80 155.56
  Q 97.79 149.02 105.27 144.12
  C 110.67 140.59 117.05 139.63 123.36 140.08
  Q 132.18 140.70 138.94 143.82
  Q 147.06 147.57 152.28 151.94
  Q 158.70 157.31 163.92 168.14
  A 1.64 1.64 0.0 0 0 166.63 168.51
  Z
  M 159.5961 137.1972
  A 7.94 4.95 -141.5 0 0 162.7286 146.0139
  A 7.94 4.95 -141.5 0 0 172.0239 147.0828
  A 7.94 4.95 -141.5 0 0 168.8914 138.2661
  A 7.94 4.95 -141.5 0 0 159.5961 137.1972
  Z
  M 111.70 146.03
  C 109.32 150.44 114.75 157.14 119.67 155.62
  Q 122.91 154.62 126.84 151.19
  A 2.09 2.05 -14.6 0 0 127.49 150.11
  C 128.87 144.22 115.46 144.87 112.47 145.47
  A 1.12 1.11 8.6 0 0 111.70 146.03
  Z"
/>
<path fill="#ffffff" d="
  M 46.36 144.63
  Q 45.43 146.01 44.71 148.05
  A 3.49 3.47 -1.4 0 1 42.74 150.11
  Q 35.76 152.95 28.78 149.66
  Q 23.97 147.38 20.69 144.30
  C 14.97 138.92 14.64 130.07 16.94 123.39
  Q 18.75 118.14 23.49 111.88
  C 29.94 103.37 39.04 95.62 48.11 91.58
  Q 57.16 87.55 67.89 84.95
  Q 70.55 84.30 73.17 84.33
  A 0.32 0.31 12.0 0 1 73.46 84.77
  L 46.41 144.53
  A 0.75 0.47 -31.7 0 1 46.36 144.63
  Z"
/>
<path fill="#000000" d="
  M 194.48 143.19
  Q 195.08 143.68 195.16 143.91
  C 198.14 152.44 204.78 164.21 214.75 165.62
  C 226.41 167.26 232.44 161.64 237.92 151.79
  C 242.43 143.67 243.22 134.48 241.57 125.51
  C 239.76 115.66 231.96 106.27 223.32 101.85
  A 9.96 9.89 -24.9 0 0 221.08 101.04
  Q 218.04 100.33 214.71 99.58
  Q 213.25 99.26 213.01 98.43
  A 2.22 2.07 -9.4 0 1 215.05 95.79
  C 225.88 95.10 235.19 103.40 240.87 111.84
  Q 246.19 119.73 246.97 130.24
  Q 248.13 145.92 239.11 158.85
  C 232.23 168.71 223.91 172.15 212.13 169.93
  C 204.68 168.53 197.99 160.30 194.09 153.49
  C 192.92 151.44 190.46 146.33 191.75 143.80
  A 1.81 1.79 -57.2 0 1 194.48 143.19
  Z"
/>
<path fill="#d9d9d9" d="
  M 275.88 105.39
  Q 275.94 111.75 276.45 128.50
  Q 276.55 131.88 275.51 134.25
  C 267.88 151.65 262.32 165.92 253.91 183.28
  Q 244.30 203.11 234.87 225.44
  A 0.22 0.22 0.0 0 1 234.45 225.38
  Q 232.49 209.30 232.46 209.01
  Q 232.29 207.01 232.54 205.37
  A 3.44 3.39 61.7 0 1 232.81 204.45
  Q 251.04 165.31 255.41 154.64
  Q 259.01 145.82 267.72 123.63
  C 270.41 116.76 273.24 111.33 275.61 105.34
  A 0.14 0.14 0.0 0 1 275.88 105.39
  Z"
/>
<path fill="#000000" d="
  M 103.92 130.80
  L 104.67 134.48
  A 7.20 4.46 -28.2 0 1 104.09 135.66
  A 7.51 4.49 -29.6 0 1 99.15 139.75
  A 7.52 4.49 -29.5 0 1 93.32 140.40
  A 7.52 4.49 -29.5 0 1 91.58 135.69
  A 7.52 4.43 -29.4 0 1 94.35 132.38
  A 7.52 4.48 -29.7 0 1 98.51 130.27
  A 7.54 4.50 -29.6 0 1 103.92 130.80
  Z
  M 98.4661 132.9907
  A 1.86 1.55 -162.5 0 0 99.7739 135.0283
  A 1.86 1.55 -162.5 0 0 102.0139 134.1093
  A 1.86 1.55 -162.5 0 0 100.7061 132.0717
  A 1.86 1.55 -162.5 0 0 98.4661 132.9907
  Z"
/>
<path fill="#d9d9d9" d="
  M 104.67 134.48
  L 103.92 130.80
  A 7.51 4.48 -29.4 0 1 104.67 134.48
  Z"
/>
<ellipse fill="#ffffff" cx="0.00" cy="0.00" transform="translate(100.24,133.55) rotate(-162.5)" rx="1.86" ry="1.55"/>
<path fill="#000000" d="
  M 166.63 168.51
  A 1.64 1.64 0.0 0 1 163.92 168.14
  Q 158.70 157.31 152.28 151.94
  Q 147.06 147.57 138.94 143.82
  Q 132.18 140.70 123.36 140.08
  C 117.05 139.63 110.67 140.59 105.27 144.12
  Q 97.79 149.02 93.80 155.56
  Q 92.31 158.00 88.62 164.98
  A 1.64 1.63 -54.0 0 1 86.04 165.39
  L 86.01 165.37
  A 3.09 3.09 0.0 0 1 85.29 161.98
  C 88.26 154.62 92.65 147.38 98.95 142.60
  C 103.87 138.87 108.66 135.89 114.76 135.42
  Q 116.23 135.31 122.38 135.14
  Q 125.98 135.04 127.95 135.56
  C 129.96 136.07 132.83 136.30 135.27 137.16
  Q 145.75 140.88 153.87 147.14
  Q 161.85 153.29 167.23 164.45
  A 3.65 3.65 0.0 0 1 166.68 168.46
  L 166.63 168.51
  Z"
/>
<path fill="#000000" d="
  M 159.5961 137.1972
  A 7.94 4.95 -141.5 0 1 168.8914 138.2661
  A 7.94 4.95 -141.5 0 1 172.0239 147.0828
  A 7.94 4.95 -141.5 0 1 162.7286 146.0139
  A 7.94 4.95 -141.5 0 1 159.5961 137.1972
  Z
  M 164.8085 139.1738
  A 1.85 1.53 -6.4 0 0 162.7995 137.8595
  A 1.85 1.53 -6.4 0 0 161.1315 139.5862
  A 1.85 1.53 -6.4 0 0 163.1405 140.9005
  A 1.85 1.53 -6.4 0 0 164.8085 139.1738
  Z"
/>
<ellipse fill="#ffffff" cx="0.00" cy="0.00" transform="translate(162.97,139.38) rotate(-6.4)" rx="1.85" ry="1.53"/>
<path fill="#000000" d="
  M 112.47 145.47
  C 115.46 144.87 128.87 144.22 127.49 150.11
  A 2.09 2.05 -14.6 0 1 126.84 151.19
  Q 122.91 154.62 119.67 155.62
  C 114.75 157.14 109.32 150.44 111.70 146.03
  A 1.12 1.11 8.6 0 1 112.47 145.47
  Z"
/>
<path fill="#d9d9d9" d="
  M 229.87 227.76
  C 216.77 226.68 187.35 224.11 167.50 223.43
  Q 126.01 222.02 86.91 220.76
  C 67.98 220.15 50.64 218.51 33.30 217.97
  A 0.68 0.68 0.0 0 1 32.64 217.33
  C 32.30 212.20 30.59 205.93 30.55 199.78
  A 0.53 0.52 -89.0 0 1 31.09 199.25
  C 36.00 199.48 40.80 200.10 45.70 200.41
  Q 64.95 201.65 89.94 203.24
  Q 120.23 205.17 161.14 206.36
  Q 183.17 207.00 192.85 207.78
  Q 204.21 208.69 224.71 210.13
  A 2.36 2.34 35.3 0 0 225.73 209.96
  L 227.19 209.35
  A 0.46 0.46 0.0 0 1 227.82 209.71
  L 230.40 227.20
  A 0.49 0.49 0.0 0 1 229.87 227.76
  Z"
/>
</svg>
