<?xml version="1.0" encoding="UTF-8"?>
<!DOCTYPE svg PUBLIC "-//W3C//DTD SVG 1.1//EN" "http://www.w3.org/Graphics/SVG/1.1/DTD/svg11.dtd">
<svg xmlns="http://www.w3.org/2000/svg" version="1.1" width="300px" height="300px" style="shape-rendering:geometricPrecision; text-rendering:geometricPrecision; image-rendering:optimizeQuality; fill-rule:evenodd; clip-rule:evenodd" xmlns:xlink="http://www.w3.org/1999/xlink">
<g><path style="opacity:0.862" fill="#111111" d="M 89.5,76.5 C 151.497,77.083 213.163,81.9164 274.5,91C 276.081,91.7065 277.581,92.5399 279,93.5C 280.597,106.409 281.264,119.409 281,132.5C 266.767,166.13 251.6,199.297 235.5,232C 177.901,228.422 120.234,225.755 62.5,224C 52.1693,223.292 41.836,222.625 31.5,222C 30.0692,221.535 28.9025,220.701 28,219.5C 25.5838,210.666 24.5838,201.666 25,192.5C 29.8333,180.833 34.6667,169.167 39.5,157.5C 27.4275,156.883 18.2608,151.55 12,141.5C 8.09475,128.943 10.4281,117.61 19,107.5C 37.7669,86.4107 61.2669,76.0774 89.5,76.5 Z"/></g>
<g><path style="opacity:1" fill="#484848" d="M 124.5,81.5 C 137.74,81.3258 150.74,82.3258 163.5,84.5C 150.328,83.8011 137.328,82.8011 124.5,81.5 Z"/></g>
<g><path style="opacity:1" fill="#fcfcfc" d="M 124.5,81.5 C 137.328,82.8011 150.328,83.8011 163.5,84.5C 179.493,85.6663 195.493,86.833 211.5,88C 232.387,90.0848 253.053,93.0848 273.5,97C 259.241,132.936 243.908,168.436 227.5,203.5C 219.521,204.665 211.521,204.832 203.5,204C 148.479,201.568 93.4791,198.735 38.5,195.5C 35.8333,194.833 33.1667,194.167 30.5,193.5C 45.2362,156.028 61.0696,119.028 78,82.5C 93.4221,81.509 108.922,81.1756 124.5,81.5 Z"/></g>
<g><path style="opacity:1" fill="#fbfbfb" d="M 68.5,83.5 C 70.288,83.2148 71.9547,83.5481 73.5,84.5C 62.8622,105.444 53.0288,126.777 44,148.5C 32.5596,152.951 23.5596,149.951 17,139.5C 13.8991,129.555 15.5658,120.555 22,112.5C 34.0687,97.252 49.5687,87.5853 68.5,83.5 Z"/></g>
<g><path style="opacity:1" fill="#171717" d="M 212.5,95.5 C 225.697,95.8417 235.53,101.842 242,113.5C 250.472,133.438 246.972,150.938 231.5,166C 214,173.67 201.166,168.836 193,151.5C 191.851,148.607 191.351,145.607 191.5,142.5C 192.822,142.33 193.989,142.663 195,143.5C 197.916,152.737 203.416,159.904 211.5,165C 217.922,166.301 223.922,165.301 229.5,162C 241.698,149.206 244.865,134.373 239,117.5C 233.538,107.023 225.038,100.857 213.5,99C 212.663,97.9887 212.33,96.8221 212.5,95.5 Z"/></g>
<g><path style="opacity:1" fill="#f5f5f5" d="M 274.5,105.5 C 275.658,114.657 275.824,123.991 275,133.5C 261.591,163.982 247.924,194.316 234,224.5C 232.301,216.125 232.301,207.791 234,199.5C 248.815,168.495 262.315,137.162 274.5,105.5 Z"/></g>
<g><path style="opacity:1" fill="#171717" d="M 96.5,129.5 C 98.9892,129.298 101.323,129.798 103.5,131C 104.554,132.388 104.72,133.888 104,135.5C 100.703,138.572 96.8697,140.072 92.5,140C 90.7888,138.867 90.2888,137.367 91,135.5C 92.3597,132.977 94.193,130.977 96.5,129.5 Z"/></g>
<g><path style="opacity:1" fill="#d6d6d6" d="M 97.5,131.5 C 98.8333,131.5 100.167,131.5 101.5,131.5C 101.5,132.5 101.5,133.5 101.5,134.5C 99.0274,134.912 97.6941,133.912 97.5,131.5 Z"/></g>
<g><path style="opacity:1" fill="#1a1a1a" d="M 112.5,134.5 C 136.648,133.32 154.815,142.986 167,163.5C 168.254,167.111 167.088,168.611 163.5,168C 154.69,150.386 140.357,140.886 120.5,139.5C 110.951,138.859 103.118,142.192 97,149.5C 93.7484,154.334 90.7484,159.334 88,164.5C 87.2825,165.451 86.4491,165.617 85.5,165C 84.4464,163.612 84.2797,162.112 85,160.5C 90.5346,147.794 99.7013,139.127 112.5,134.5 Z"/></g>
<g><path style="opacity:1" fill="#0f0f0f" d="M 160.5,135.5 C 165.971,135.156 169.805,137.489 172,142.5C 172.834,145.814 171.501,147.481 168,147.5C 160.042,146.447 157.542,142.447 160.5,135.5 Z"/></g>
<g><path style="opacity:1" fill="#d1d1d1" d="M 160.5,137.5 C 161.978,137.238 163.311,137.571 164.5,138.5C 163.68,140.111 162.346,140.778 160.5,140.5C 160.5,139.5 160.5,138.5 160.5,137.5 Z"/></g>
<g><path style="opacity:1" fill="#151515" d="M 111.5,144.5 C 115.182,144.335 118.848,144.501 122.5,145C 124.555,145.687 126.221,146.854 127.5,148.5C 124.663,153.081 120.663,155.248 115.5,155C 110.98,152.665 109.647,149.165 111.5,144.5 Z"/></g>
<g><path style="opacity:1" fill="#757575" d="M 30.5,193.5 C 33.1667,194.167 35.8333,194.833 38.5,195.5C 35.4281,195.817 32.4281,195.484 29.5,194.5C 29.6236,193.893 29.9569,193.56 30.5,193.5 Z"/></g>
<g><path style="opacity:1" fill="#5e5e5e" d="M 38.5,199.5 C 35.8333,199.5 33.1667,199.5 30.5,199.5C 30.5,200.833 30.5,202.167 30.5,203.5C 29.5489,202.081 29.2155,200.415 29.5,198.5C 32.7131,198.19 35.7131,198.523 38.5,199.5 Z"/></g>
<g><path style="opacity:1" fill="#fafafa" d="M 38.5,199.5 C 39.5,199.5 40.5,199.5 41.5,199.5C 53.6587,200.822 65.9921,201.822 78.5,202.5C 125.034,204.142 171.534,206.475 218,209.5C 220.889,209.453 223.722,209.12 226.5,208.5C 228.473,214.673 229.473,221.007 229.5,227.5C 215.201,226.003 200.867,224.837 186.5,224C 135.135,222.439 83.8018,220.272 32.5,217.5C 32.0496,212.798 31.383,208.132 30.5,203.5C 30.5,202.167 30.5,200.833 30.5,199.5C 33.1667,199.5 35.8333,199.5 38.5,199.5 Z"/></g>
<g><path style="opacity:1" fill="#4f4f4f" d="M 41.5,199.5 C 54.08,199.326 66.4133,200.326 78.5,202.5C 65.9921,201.822 53.6587,200.822 41.5,199.5 Z"/></g>
</svg>
