<?xml version="1.0" standalone="no"?>
<!DOCTYPE svg PUBLIC "-//W3C//DTD SVG 20010904//EN"
 "http://www.w3.org/TR/2001/REC-SVG-20010904/DTD/svg10.dtd">
<svg version="1.0" xmlns="http://www.w3.org/2000/svg"
 width="364.000000pt" height="166.000000pt" viewBox="0 0 364.000000 166.000000"
 preserveAspectRatio="xMidYMid meet">

<g transform="translate(0.000000,166.000000) scale(0.100000,-0.100000)"
fill="#000000" stroke="none">
<path d="M2915 1634 c-135 -21 -258 -84 -355 -183 -68 -69 -122 -152 -107
-167 3 -3 24 8 48 25 23 17 53 31 66 31 38 0 79 -48 92 -108 15 -74 14 -82
-15 -125 l-25 -38 -282 7 c-248 6 -290 5 -352 -10 -207 -51 -389 -215 -372
-336 5 -38 4 -39 -26 -42 -27 -3 -36 -11 -60 -59 -18 -35 -31 -78 -34 -115 -4
-50 -2 -64 19 -94 12 -19 42 -44 65 -55 30 -14 41 -24 36 -35 -3 -8 -7 -35
-10 -60 -9 -95 64 -173 175 -187 46 -5 50 -7 58 -42 7 -27 15 -37 32 -39 23
-3 23 -3 7 33 -8 21 -15 39 -15 40 0 2 20 10 45 18 92 32 154 106 155 185 0
29 3 32 33 32 17 0 61 -5 96 -10 50 -7 70 -6 91 5 36 18 60 57 60 95 0 29 -2
30 -45 30 -25 0 -45 3 -45 6 0 20 45 74 73 87 71 33 72 32 83 -28 9 -52 8 -57
-13 -77 -63 -59 -93 -191 -58 -258 33 -64 133 -110 241 -110 47 0 52 -2 58
-25 4 -17 13 -25 27 -25 16 0 19 4 14 18 -19 45 -17 49 19 56 19 4 59 25 88
46 45 35 59 40 105 40 28 0 55 5 58 10 4 6 15 0 26 -14 41 -53 132 -53 211 -1
68 45 124 202 100 282 -14 46 -66 111 -99 124 -30 11 -21 29 15 29 45 0 124
44 170 94 52 57 76 108 97 207 14 65 14 75 1 85 -13 9 -12 16 7 55 18 37 22
61 22 149 0 92 -3 112 -26 160 -58 122 -181 234 -296 270 -65 20 -201 32 -258
24z m220 -50 c81 -21 134 -53 206 -127 107 -110 147 -233 115 -357 -19 -73
-43 -110 -91 -140 -19 -12 -35 -29 -35 -37 0 -13 9 -15 51 -10 l51 6 -6 -42
c-16 -103 -93 -203 -184 -237 -29 -11 -52 -18 -52 -15 0 3 11 28 25 56 24 47
26 58 23 174 -3 113 -5 125 -23 134 -21 9 -354 56 -482 67 l-73 7 20 32 c39
64 17 201 -42 250 -19 16 -42 25 -64 25 -19 0 -34 4 -34 8 0 5 26 34 58 64 65
62 173 121 260 142 77 19 205 19 277 0z m-733 -544 c142 -5 315 -17 385 -25
192 -22 393 -51 399 -58 3 -3 -10 -36 -29 -73 -19 -38 -64 -134 -100 -214
-174 -386 -184 -401 -213 -318 -20 60 -62 105 -120 134 -46 23 -64 26 -112 21
-31 -3 -77 -12 -102 -21 -25 -9 -49 -18 -55 -19 -5 -1 -14 21 -20 50 -5 29
-15 57 -20 62 -6 6 -66 19 -134 30 -68 11 -125 22 -128 25 -3 3 16 19 43 35
39 25 59 31 103 31 79 0 151 -36 193 -94 17 -26 35 -46 38 -46 33 0 7 62 -46
109 -46 40 -131 71 -195 71 -44 -1 -105 -29 -152 -69 l-36 -32 -135 17 -135
18 65 128 c36 70 83 155 106 188 l40 60 51 0 c29 0 168 -5 309 -10z m-434 -27
c-1 -5 -33 -64 -70 -133 -36 -69 -75 -142 -85 -164 l-18 -38 -64 5 c-68 5 -81
14 -81 60 0 75 94 182 212 240 69 34 114 47 106 30z m1171 -401 c-40 -75 -100
-190 -133 -254 -34 -65 -64 -118 -67 -118 -4 0 -9 13 -12 30 -7 30 0 45 221
514 l47 99 8 -67 8 -66 -72 -138z m-1329 27 c63 -6 201 -24 305 -40 105 -16
195 -29 200 -29 6 0 -5 -10 -23 -21 -18 -12 -44 -41 -59 -66 -22 -38 -25 -52
-20 -99 5 -48 4 -54 -11 -50 -19 6 -322 31 -497 42 -107 7 -111 8 -142 39 -29
29 -33 39 -33 87 0 35 8 70 24 104 l24 51 58 -4 c33 -2 111 -8 174 -14z m1349
-142 c-18 -61 7 -119 64 -149 19 -10 25 -17 15 -18 -9 0 -26 -12 -38 -27 -17
-22 -20 -36 -16 -65 6 -34 3 -38 -30 -59 -20 -12 -55 -24 -79 -27 -39 -4 -48
-1 -75 26 l-31 31 52 103 c87 174 119 227 134 222 10 -4 11 -13 4 -37z m70
-31 c12 -18 21 -47 21 -65 0 -28 -2 -30 -19 -19 -25 15 -41 51 -41 88 0 39 14
38 39 -4z m-560 4 c34 0 109 -60 130 -104 59 -121 -2 -230 -153 -271 -60 -16
-69 -16 -138 -1 -74 17 -125 44 -100 53 24 9 13 33 -17 33 -45 0 -59 53 -16
64 30 8 34 36 5 36 -28 0 -25 20 13 76 23 35 47 57 87 77 56 28 134 48 158 41
8 -2 21 -4 31 -4z m-369 -83 c0 -22 -26 -51 -38 -43 -7 4 -12 18 -12 32 0 19
5 24 25 24 14 0 25 -6 25 -13z m-440 -58 c80 -5 149 -14 154 -19 6 -6 -5 -15
-27 -25 -47 -20 -48 -39 -2 -33 40 5 42 -2 18 -43 -66 -112 -293 -125 -348
-19 -17 33 -20 102 -5 131 12 22 15 22 210 8z m1036 -76 c3 -16 8 -36 11 -45
3 -15 -2 -18 -30 -18 l-34 0 10 45 c12 51 33 59 43 18z"/>
<path d="M2820 956 c0 -8 9 -17 20 -21 26 -8 77 -59 96 -96 37 -72 34 -172 -6
-229 -52 -73 -157 -77 -222 -9 -20 21 -40 39 -43 39 -11 0 -5 -31 11 -55 28
-43 75 -65 140 -65 103 0 171 67 181 178 6 70 -7 124 -48 185 -43 66 -129 114
-129 73z"/>
<path d="M2102 754 c-26 -18 -27 -57 -1 -62 9 -1 27 6 40 17 19 16 22 23 13
37 -15 25 -26 27 -52 8z m38 -14 c0 -5 -4 -10 -10 -10 -5 0 -10 5 -10 10 0 6
5 10 10 10 6 0 10 -4 10 -10z"/>
<path d="M2505 720 c-8 -13 11 -47 35 -60 14 -8 26 -8 40 0 24 13 25 19 4 48
-16 23 -67 31 -79 12z m45 -10 c0 -5 -4 -10 -10 -10 -5 0 -10 5 -10 10 0 6 5
10 10 10 6 0 10 -4 10 -10z"/>
<path d="M2244 665 c-4 -9 0 -24 9 -33 22 -22 72 -6 72 23 0 27 -72 35 -81 10z"/>
<path d="M369 1170 c-42 -4 -82 -11 -88 -14 -6 -4 -11 -32 -11 -63 0 -52 -3
-59 -36 -90 -40 -37 -37 -50 17 -79 24 -12 28 -21 31 -61 l3 -48 130 -11 c134
-12 756 -11 786 1 15 5 18 30 21 168 3 111 1 166 -7 175 -23 25 -640 42 -846
22z"/>
<path d="M555 541 l-50 -6 -3 -126 -3 -126 317 -6 c174 -4 320 -4 325 -1 5 3
12 23 15 45 5 32 14 46 41 62 44 29 40 54 -12 81 -30 16 -40 26 -37 40 9 42
-17 46 -287 44 -141 0 -278 -4 -306 -7z m558 -51 c5 -20 17 -35 42 -48 l36
-18 -36 -32 c-22 -20 -35 -42 -35 -57 l0 -24 -287 4 -288 5 -3 94 -3 95 113 4
c62 1 190 4 284 5 l172 2 5 -30z"/>
</g>
</svg>
