<?xml version="1.0" encoding="UTF-8" standalone="no"?>
<!DOCTYPE svg PUBLIC "-//W3C//DTD SVG 1.1//EN" "http://www.w3.org/Graphics/SVG/1.1/DTD/svg11.dtd">
<svg xmlns="http://www.w3.org/2000/svg" version="1.1" viewBox="0.00 0.00 364.00 166.00" width="364.00" height="166.00">
<g stroke-width="2.00" fill="none" stroke-linecap="butt">
<path stroke="#6e6e6e" vector-effect="non-scaling-stroke" d="
  M 328.89 127.56
  Q 328.16 133.24 326.34 139.07
  C 323.36 148.59 314.60 155.67 304.32 154.42
  Q 298.14 153.67 295.94 148.85
  A 0.62 0.61 61.0 0 0 295.04 148.59
  C 291.76 150.80 289.22 150.24 283.30 150.47
  A 2.16 2.12 20.7 0 0 281.89 151.09
  Q 275.29 157.75 265.95 159.48
  A 0.53 0.52 -13.5 0 0 265.54 160.14
  Q 265.99 161.70 267.10 163.02"
/>
<path stroke="#6e6e6e" vector-effect="non-scaling-stroke" d="
  M 264.78 166.00
  L 262.35 161.03
  A 0.72 0.72 0.0 0 0 261.63 160.63
  Q 253.71 161.53 245.55 159.11
  Q 242.11 158.09 240.25 156.83
  C 237.24 154.80 233.38 151.66 232.51 148.29
  C 230.06 138.83 233.93 128.17 241.76 122.24
  A 0.77 0.76 -32.0 0 0 241.99 121.28
  Q 240.07 117.44 239.73 111.61
  A 0.57 0.57 0.0 0 0 239.03 111.09
  C 232.32 112.79 227.60 115.37 224.90 121.98
  A 0.42 0.42 0.0 0 0 225.28 122.56
  L 232.03 122.72
  A 2.12 2.12 0.0 0 1 234.08 124.62
  Q 234.52 129.17 231.60 132.62
  C 230.02 134.49 227.36 136.97 224.60 136.62
  Q 214.38 135.33 205.92 134.56
  A 0.46 0.46 0.0 0 0 205.42 135.09
  C 206.42 141.69 205.26 146.12 200.35 150.89
  Q 194.40 156.68 185.86 157.73
  A 0.28 0.28 0.0 0 0 185.64 158.12
  L 188.93 166.00"
/>
<path stroke="#818181" vector-effect="non-scaling-stroke" d="
  M 266.33 59.73
  Q 288.15 61.84 299.47 63.62
  Q 312.83 65.73 319.77 66.40
  Q 321.27 66.55 323.53 68.28
  A 0.79 0.79 0.0 0 1 323.80 69.15
  Q 323.26 70.90 323.30 72.75
  Q 323.48 82.16 324.14 90.39
  A 5.34 5.22 55.8 0 1 323.67 93.03
  L 318.93 103.24
  A 0.25 0.25 0.0 0 0 319.19 103.59
  C 330.81 101.92 338.73 92.87 341.80 81.87
  Q 343.43 76.07 343.79 73.97
  A 0.43 0.43 0.0 0 0 343.24 73.49
  Q 337.92 75.18 333.84 74.77
  A 1.10 1.10 0.0 0 1 333.06 73.03
  Q 333.80 72.02 334.38 71.66
  C 341.22 67.49 344.66 62.71 346.14 54.64
  C 348.88 39.74 342.50 27.82 331.96 17.81
  C 325.08 11.26 317.81 7.75 308.24 6.33
  C 287.56 3.28 266.58 11.74 253.54 28.16
  A 0.37 0.37 0.0 0 0 253.87 28.75
  Q 264.26 27.50 267.91 37.37
  C 270.08 43.24 272.10 50.37 268.17 56.19
  Q 267.07 57.80 266.09 59.21
  A 0.33 0.33 0.0 0 0 266.33 59.73"
/>
<path stroke="#818181" vector-effect="non-scaling-stroke" d="
  M 214.70 103.19
  Q 227.90 104.99 235.06 106.16
  Q 239.00 106.80 241.09 107.48
  A 2.23 2.22 -86.2 0 1 242.58 109.19
  L 244.41 119.10
  A 0.70 0.69 72.6 0 0 245.38 119.61
  C 252.21 116.53 257.65 114.20 264.44 114.60
  Q 268.55 114.85 273.28 117.50
  Q 283.19 123.05 285.56 134.65
  A 0.66 0.66 0.0 0 0 286.18 135.18
  Q 288.58 135.24 289.85 133.71
  A 2.35 2.12 -17.6 0 0 290.22 133.08
  Q 292.41 127.33 295.27 121.57
  C 305.12 101.72 311.31 85.25 319.69 70.22
  A 0.32 0.32 0.0 0 0 319.44 69.74
  Q 309.38 68.66 298.24 66.86
  Q 285.60 64.82 261.26 62.76
  Q 253.72 62.12 213.00 61.25
  Q 208.56 61.15 204.80 61.34
  A 1.35 1.34 -71.8 0 0 203.82 61.84
  L 199.80 66.72
  A 3.72 3.61 -12.2 0 0 199.34 67.41
  L 183.27 98.30
  A 0.45 0.44 16.3 0 0 183.63 98.95
  Q 196.98 100.03 210.51 102.47
  Q 211.54 102.66 211.60 101.31
  A 1.38 1.36 69.2 0 1 212.01 100.38
  C 216.81 95.72 222.41 92.14 229.55 92.13
  Q 237.56 92.13 244.48 95.74
  Q 251.77 99.54 254.73 107.79
  A 1.94 1.93 69.0 0 1 253.65 110.23
  L 253.55 110.27
  A 1.86 1.86 0.0 0 1 251.11 109.22
  Q 248.26 101.81 241.89 98.89
  C 234.53 95.52 227.41 93.82 220.10 98.59
  Q 216.21 101.13 214.52 102.59
  A 0.34 0.34 0.0 0 0 214.70 103.19"
/>
<path stroke="#818181" vector-effect="non-scaling-stroke" d="
  M 180.27 97.72
  Q 180.16 97.02 180.39 96.52
  Q 188.36 79.23 197.74 63.72
  A 0.24 0.24 0.0 0 0 197.51 63.36
  Q 194.90 63.69 191.56 65.07
  C 181.74 69.14 173.00 74.92 167.31 83.82
  C 164.63 88.02 163.12 92.51 166.56 96.82
  A 1.19 1.18 -16.1 0 0 167.37 97.26
  L 179.57 98.47
  A 0.65 0.65 0.0 0 0 180.27 97.72"
/>
<path stroke="#6e6e6e" vector-effect="non-scaling-stroke" d="
  M 320.08 76.74
  A 0.20 0.19 56.6 0 0 319.71 76.66
  L 292.77 134.78
  A 5.18 5.15 52.3 0 0 292.38 137.89
  L 292.87 140.59
  A 1.15 1.15 0.0 0 0 295.02 140.91
  L 320.69 92.05
  A 1.54 1.52 -33.0 0 0 320.87 91.22
  L 320.08 76.74"
/>
<path stroke="#6e6e6e" vector-effect="non-scaling-stroke" d="
  M 153.57 109.74
  Q 152.64 112.19 152.48 114.76
  C 151.93 123.74 157.60 128.27 166.10 128.28
  Q 167.16 128.28 192.27 129.96
  Q 203.84 130.74 221.94 132.75
  A 0.32 0.32 0.0 0 0 222.27 132.32
  Q 219.77 125.87 221.97 119.79"
/>
<path stroke="#818181" vector-effect="non-scaling-stroke" d="
  M 221.97 119.79
  Q 225.45 112.56 232.49 109.41
  A 0.18 0.18 0.0 0 0 232.44 109.07
  Q 216.18 106.90 198.98 104.07
  C 190.51 102.67 183.46 102.20 172.24 101.02
  C 167.73 100.56 162.97 100.55 158.39 100.43
  A 1.04 1.03 -72.3 0 0 157.49 100.90
  Q 154.74 105.12 153.57 109.74"
/>
<path stroke="#ececec" vector-effect="non-scaling-stroke" d="
  M 221.97 119.79
  Q 211.41 120.95 200.50 120.09
  Q 186.99 119.02 180.53 118.57
  C 173.47 118.08 166.88 117.12 159.53 116.19
  Q 154.26 115.53 153.57 109.74"
/>
<path stroke="#818181" vector-effect="non-scaling-stroke" d="
  M 322.30 132.13
  A 0.44 0.44 0.0 0 0 322.38 131.30
  C 315.36 128.05 314.04 120.69 316.71 113.56
  A 0.75 0.75 0.0 0 0 316.03 112.55
  L 314.56 112.52
  A 1.28 1.27 -75.3 0 0 313.40 113.20
  L 297.53 143.40
  A 1.63 1.61 44.1 0 0 297.56 144.97
  L 299.41 148.16
  A 0.98 0.98 0.0 0 0 299.81 148.56
  Q 308.52 153.32 316.51 147.44
  A 0.71 0.70 -27.8 0 0 316.76 146.64
  C 314.83 140.98 315.36 133.89 322.30 132.13"
/>
<path stroke="#6e6e6e" vector-effect="non-scaling-stroke" d="
  M 325.30 128.63
  Q 325.85 121.09 320.04 115.45
  A 0.37 0.37 0.0 0 0 319.43 115.61
  Q 316.71 125.16 324.94 128.85
  A 0.26 0.26 0.0 0 0 325.30 128.63"
/>
<path stroke="#818181" vector-effect="non-scaling-stroke" d="
  M 271.98 153.88
  Q 277.12 150.98 279.20 148.40
  Q 281.25 145.86 282.19 139.73
  Q 282.73 136.23 281.04 131.67
  Q 278.12 123.78 270.32 120.19
  Q 265.75 118.08 260.48 118.71
  C 248.37 120.15 239.00 125.86 235.52 137.90
  A 0.42 0.42 0.0 0 0 235.97 138.43
  C 236.91 138.32 239.23 137.65 240.17 138.65
  A 1.67 1.54 -28.1 0 1 239.26 141.26
  Q 236.64 141.95 235.58 141.75
  A 0.71 0.70 -89.8 0 0 234.76 142.57
  L 235.68 147.57
  A 1.09 1.09 0.0 0 0 237.05 148.42
  Q 238.80 147.92 240.52 147.68
  A 1.75 1.49 -3.2 0 1 242.52 149.20
  C 242.42 150.82 240.37 150.72 239.62 151.32
  A 0.52 0.51 43.8 0 0 239.64 152.14
  Q 243.38 154.88 244.94 155.33
  Q 247.90 156.19 256.79 158.04
  A 3.31 3.28 45.2 0 0 258.01 158.05
  Q 267.91 156.18 271.98 153.88"
/>
<path stroke="#6e6e6e" vector-effect="non-scaling-stroke" d="
  M 224.57 126.32
  Q 224.61 129.18 226.04 131.86
  A 0.75 0.75 0.0 0 0 227.17 132.09
  Q 229.95 129.82 230.72 126.42
  A 0.23 0.23 0.0 0 0 230.50 126.13
  L 224.90 126.00
  A 0.32 0.32 0.0 0 0 224.57 126.32"
/>
<path stroke="#818181" vector-effect="non-scaling-stroke" d="
  M 201.77 140.05
  L 197.38 141.46
  A 1.92 1.92 0.0 0 1 195.16 140.64
  L 195.13 140.59
  A 1.23 1.23 0.0 0 1 195.66 138.68
  L 201.38 136.51
  A 1.06 1.06 0.0 0 0 201.47 134.57
  Q 200.42 134.05 199.74 133.99
  Q 188.36 133.03 166.47 131.73
  A 0.86 0.84 -72.0 0 0 165.70 132.13
  C 161.62 138.74 163.12 148.14 170.35 151.87
  Q 177.63 155.62 186.44 154.10
  C 192.99 152.97 201.08 147.65 202.31 140.51
  A 0.42 0.41 -4.0 0 0 201.77 140.05"
/>
<path stroke="#6e6e6e" vector-effect="non-scaling-stroke" d="
  M 319.61 143.96
  A 0.26 0.26 0.0 0 0 320.02 144.11
  Q 323.74 141.26 323.87 136.87
  A 1.00 1.00 0.0 0 0 322.37 135.97
  L 320.84 136.85
  A 2.41 2.39 79.6 0 0 319.68 138.55
  Q 319.15 142.02 319.61 143.96"
/>
<path stroke="#6e6e6e" vector-effect="non-scaling-stroke" d="
  M 284.38 147.17
  L 290.19 146.85
  A 0.61 0.60 -6.7 0 0 290.76 146.14
  L 289.39 138.74
  A 0.87 0.86 -10.3 0 0 288.38 138.05
  L 286.27 138.44
  A 0.75 0.75 0.0 0 0 285.66 139.15
  Q 285.56 142.79 284.09 146.77
  A 0.30 0.30 0.0 0 0 284.38 147.17"
/>
<path stroke="#293d7b" vector-effect="non-scaling-stroke" d="
  M 24.76 68.64
  A 0.42 0.42 0.0 0 0 24.86 69.33
  L 29.06 71.28
  A 3.45 3.43 13.2 0 1 31.05 74.47
  L 30.89 81.38
  A 0.75 0.75 0.0 0 0 31.66 82.15
  Q 39.69 82.00 44.98 82.55
  Q 53.66 83.45 58.18 83.20
  Q 62.41 82.98 76.90 83.36
  C 90.36 83.72 105.58 82.61 117.78 82.58
  A 0.71 0.71 0.0 0 0 118.48 81.88
  L 119.14 54.08
  A 0.65 0.65 0.0 0 0 118.51 53.42
  C 114.69 53.34 111.34 52.45 107.71 52.46
  Q 102.36 52.48 84.57 51.61
  C 66.41 50.72 48.72 50.97 31.25 53.06
  A 1.03 1.03 0.0 0 0 30.34 54.12
  C 30.41 56.08 30.80 59.78 29.96 62.16
  C 28.61 65.99 26.57 67.07 24.76 68.64"
/>
<path stroke="#818181" vector-effect="non-scaling-stroke" d="
  M 266.35 105.64
  Q 270.41 113.15 279.77 115.00
  Q 280.97 115.24 285.21 114.68
  A 4.42 4.33 28.1 0 0 286.47 114.31
  Q 303.10 106.47 299.33 87.69
  Q 296.90 75.54 285.31 68.87
  A 2.80 2.79 -49.8 0 0 282.13 69.14
  L 282.08 69.18
  A 1.28 1.27 38.6 0 0 282.32 71.30
  Q 296.07 78.27 296.45 93.53
  Q 296.66 101.84 291.11 106.99
  Q 284.51 113.11 275.20 109.51
  Q 272.43 108.44 267.66 102.32
  A 0.80 0.80 0.0 0 0 266.23 102.73
  L 266.08 104.29
  A 2.38 2.34 -56.8 0 0 266.35 105.64"
/>
<path stroke="#818181" vector-effect="non-scaling-stroke" d="
  M 215.2957 90.3619
  A 4.50 3.20 -37.8 0 0 209.7787 90.5915
  A 4.50 3.20 -37.8 0 0 208.1843 95.8781
  A 4.50 3.20 -37.8 0 0 213.7013 95.6485
  A 4.50 3.20 -37.8 0 0 215.2957 90.3619"
/>
<path stroke="#818181" vector-effect="non-scaling-stroke" d="
  M 250.7805 93.7210
  A 5.18 3.54 -146.5 0 0 253.1461 99.5320
  A 5.18 3.54 -146.5 0 0 259.4195 99.4390
  A 5.18 3.54 -146.5 0 0 257.0539 93.6280
  A 5.18 3.54 -146.5 0 0 250.7805 93.7210"
/>
<path stroke="#818181" vector-effect="non-scaling-stroke" d="
  M 225.41 103.09
  Q 228.76 105.14 232.50 102.25
  A 2.12 1.98 -33.5 0 0 233.12 99.65
  C 231.87 97.38 227.02 97.61 225.32 98.16
  A 2.41 2.10 -11.1 0 0 223.63 100.33
  Q 223.70 102.05 225.41 103.09"
/>
<path stroke="#818181" vector-effect="non-scaling-stroke" d="
  M 212.3319 91.2361
  A 1.10 0.97 -127.4 0 0 212.2294 92.6992
  A 1.10 0.97 -127.4 0 0 213.6681 92.9839
  A 1.10 0.97 -127.4 0 0 213.7706 91.5208
  A 1.10 0.97 -127.4 0 0 212.3319 91.2361"
/>
<path stroke="#818181" vector-effect="non-scaling-stroke" d="
  M 254.9601 94.8621
  A 1.26 1.04 -7.2 0 0 253.5797 93.9882
  A 1.26 1.04 -7.2 0 0 252.4599 95.1779
  A 1.26 1.04 -7.2 0 0 253.8403 96.0518
  A 1.26 1.04 -7.2 0 0 254.9601 94.8621"
/>
<path stroke="#818181" vector-effect="non-scaling-stroke" d="
  M 226.25 99.13
  A 0.67 0.59 38.2 0 0 226.46 100.29
  Q 227.32 100.54 227.78 100.21
  A 0.60 0.56 -53.2 0 0 227.67 99.17
  Q 226.77 98.90 226.25 99.13"
/>
<path stroke="#818181" vector-effect="non-scaling-stroke" d="
  M 110.71 114.30
  Q 72.89 114.44 72.52 114.44
  Q 61.78 114.53 54.30 115.26
  A 0.84 0.84 0.0 0 0 53.54 116.14
  L 54.50 133.54
  A 1.09 1.08 -1.6 0 0 55.60 134.57
  C 71.34 134.46 84.16 134.05 98.01 134.94
  Q 104.98 135.39 111.14 135.26
  A 0.37 0.36 -89.1 0 0 111.49 134.91
  Q 111.64 132.21 113.00 128.94
  A 0.94 0.87 -11.0 0 1 113.24 128.61
  L 118.60 123.87
  A 0.52 0.51 35.5 0 0 118.45 123.01
  C 114.83 121.49 110.53 120.31 111.43 115.16
  A 0.73 0.73 0.0 0 0 110.71 114.30"
/>
</g>
<path fill="#020202" d="
  M 328.89 127.56
  Q 328.16 133.24 326.34 139.07
  C 323.36 148.59 314.60 155.67 304.32 154.42
  Q 298.14 153.67 295.94 148.85
  A 0.62 0.61 61.0 0 0 295.04 148.59
  C 291.76 150.80 289.22 150.24 283.30 150.47
  A 2.16 2.12 20.7 0 0 281.89 151.09
  Q 275.29 157.75 265.95 159.48
  A 0.53 0.52 -13.5 0 0 265.54 160.14
  Q 265.99 161.70 267.10 163.02
  L 268.61 166.00
  L 264.78 166.00
  L 262.35 161.03
  A 0.72 0.72 0.0 0 0 261.63 160.63
  Q 253.71 161.53 245.55 159.11
  Q 242.11 158.09 240.25 156.83
  C 237.24 154.80 233.38 151.66 232.51 148.29
  C 230.06 138.83 233.93 128.17 241.76 122.24
  A 0.77 0.76 -32.0 0 0 241.99 121.28
  Q 240.07 117.44 239.73 111.61
  A 0.57 0.57 0.0 0 0 239.03 111.09
  C 232.32 112.79 227.60 115.37 224.90 121.98
  A 0.42 0.42 0.0 0 0 225.28 122.56
  L 232.03 122.72
  A 2.12 2.12 0.0 0 1 234.08 124.62
  Q 234.52 129.17 231.60 132.62
  C 230.02 134.49 227.36 136.97 224.60 136.62
  Q 214.38 135.33 205.92 134.56
  A 0.46 0.46 0.0 0 0 205.42 135.09
  C 206.42 141.69 205.26 146.12 200.35 150.89
  Q 194.40 156.68 185.86 157.73
  A 0.28 0.28 0.0 0 0 185.64 158.12
  L 188.93 166.00
  L 185.60 166.00
  Q 183.29 163.00 182.54 158.65
  A 0.62 0.62 0.0 0 0 181.92 158.13
  Q 173.25 158.23 165.65 153.10
  A 3.87 3.60 -2.0 0 1 165.05 152.58
  Q 156.73 143.66 161.84 132.11
  A 0.62 0.62 0.0 0 0 161.53 131.30
  Q 161.21 131.16 160.61 131.21
  A 1.35 1.32 57.5 0 1 159.84 131.03
  C 155.00 128.19 152.39 127.32 149.93 122.46
  A 3.79 3.70 27.9 0 1 149.58 121.37
  Q 147.67 109.57 154.17 100.34
  Q 154.67 99.64 154.96 98.44
  Q 155.25 97.28 156.74 97.28
  Q 159.51 97.29 161.98 97.33
  A 0.46 0.46 0.0 0 0 162.40 96.67
  C 156.68 85.06 172.26 71.38 181.20 66.17
  C 186.83 62.89 194.14 59.53 201.27 59.38
  Q 201.96 59.37 202.51 58.32
  A 1.19 1.15 5.1 0 1 203.23 57.74
  C 204.30 57.43 205.38 57.92 206.52 57.87
  Q 210.33 57.68 211.50 57.70
  Q 238.87 58.09 260.96 59.34
  A 1.05 1.03 20.0 0 0 261.84 58.94
  C 264.66 55.29 267.32 52.89 266.73 47.28
  C 266.11 41.35 263.86 32.32 256.65 32.16
  C 252.77 32.08 248.80 35.52 246.51 38.45
  A 0.75 0.75 0.0 0 1 245.19 38.19
  C 244.20 34.66 250.27 26.52 252.74 23.70
  C 266.94 7.52 288.28 -0.27 309.42 3.02
  Q 318.53 4.44 324.58 7.96
  C 333.10 12.91 340.71 20.87 345.34 29.14
  C 352.18 41.37 352.31 57.98 343.10 69.14
  A 0.24 0.24 0.0 0 0 343.38 69.52
  Q 344.29 69.15 345.15 68.32
  A 1.61 1.61 0.0 0 1 347.86 69.75
  Q 347.17 73.73 346.04 79.05
  C 344.26 87.47 340.32 95.08 334.80 100.11
  Q 329.44 104.99 321.05 106.85
  Q 318.90 107.32 318.10 107.16
  A 1.62 1.61 21.6 0 0 316.31 107.93
  L 315.95 108.58
  A 0.61 0.61 0.0 0 0 316.44 109.48
  Q 318.65 109.65 320.32 110.90
  Q 328.50 117.01 328.89 127.56
  Z
  M 266.33 59.73
  Q 288.15 61.84 299.47 63.62
  Q 312.83 65.73 319.77 66.40
  Q 321.27 66.55 323.53 68.28
  A 0.79 0.79 0.0 0 1 323.80 69.15
  Q 323.26 70.90 323.30 72.75
  Q 323.48 82.16 324.14 90.39
  A 5.34 5.22 55.8 0 1 323.67 93.03
  L 318.93 103.24
  A 0.25 0.25 0.0 0 0 319.19 103.59
  C 330.81 101.92 338.73 92.87 341.80 81.87
  Q 343.43 76.07 343.79 73.97
  A 0.43 0.43 0.0 0 0 343.24 73.49
  Q 337.92 75.18 333.84 74.77
  A 1.10 1.10 0.0 0 1 333.06 73.03
  Q 333.80 72.02 334.38 71.66
  C 341.22 67.49 344.66 62.71 346.14 54.64
  C 348.88 39.74 342.50 27.82 331.96 17.81
  C 325.08 11.26 317.81 7.75 308.24 6.33
  C 287.56 3.28 266.58 11.74 253.54 28.16
  A 0.37 0.37 0.0 0 0 253.87 28.75
  Q 264.26 27.50 267.91 37.37
  C 270.08 43.24 272.10 50.37 268.17 56.19
  Q 267.07 57.80 266.09 59.21
  A 0.33 0.33 0.0 0 0 266.33 59.73
  Z
  M 214.70 103.19
  Q 227.90 104.99 235.06 106.16
  Q 239.00 106.80 241.09 107.48
  A 2.23 2.22 -86.2 0 1 242.58 109.19
  L 244.41 119.10
  A 0.70 0.69 72.6 0 0 245.38 119.61
  C 252.21 116.53 257.65 114.20 264.44 114.60
  Q 268.55 114.85 273.28 117.50
  Q 283.19 123.05 285.56 134.65
  A 0.66 0.66 0.0 0 0 286.18 135.18
  Q 288.58 135.24 289.85 133.71
  A 2.35 2.12 -17.6 0 0 290.22 133.08
  Q 292.41 127.33 295.27 121.57
  C 305.12 101.72 311.31 85.25 319.69 70.22
  A 0.32 0.32 0.0 0 0 319.44 69.74
  Q 309.38 68.66 298.24 66.86
  Q 285.60 64.82 261.26 62.76
  Q 253.72 62.12 213.00 61.25
  Q 208.56 61.15 204.80 61.34
  A 1.35 1.34 -71.8 0 0 203.82 61.84
  L 199.80 66.72
  A 3.72 3.61 -12.2 0 0 199.34 67.41
  L 183.27 98.30
  A 0.45 0.44 16.3 0 0 183.63 98.95
  Q 196.98 100.03 210.51 102.47
  Q 211.54 102.66 211.60 101.31
  A 1.38 1.36 69.2 0 1 212.01 100.38
  C 216.81 95.72 222.41 92.14 229.55 92.13
  Q 237.56 92.13 244.48 95.74
  Q 251.77 99.54 254.73 107.79
  A 1.94 1.93 69.0 0 1 253.65 110.23
  L 253.55 110.27
  A 1.86 1.86 0.0 0 1 251.11 109.22
  Q 248.26 101.81 241.89 98.89
  C 234.53 95.52 227.41 93.82 220.10 98.59
  Q 216.21 101.13 214.52 102.59
  A 0.34 0.34 0.0 0 0 214.70 103.19
  Z
  M 180.27 97.72
  Q 180.16 97.02 180.39 96.52
  Q 188.36 79.23 197.74 63.72
  A 0.24 0.24 0.0 0 0 197.51 63.36
  Q 194.90 63.69 191.56 65.07
  C 181.74 69.14 173.00 74.92 167.31 83.82
  C 164.63 88.02 163.12 92.51 166.56 96.82
  A 1.19 1.18 -16.1 0 0 167.37 97.26
  L 179.57 98.47
  A 0.65 0.65 0.0 0 0 180.27 97.72
  Z
  M 320.08 76.74
  A 0.20 0.19 56.6 0 0 319.71 76.66
  L 292.77 134.78
  A 5.18 5.15 52.3 0 0 292.38 137.89
  L 292.87 140.59
  A 1.15 1.15 0.0 0 0 295.02 140.91
  L 320.69 92.05
  A 1.54 1.52 -33.0 0 0 320.87 91.22
  L 320.08 76.74
  Z
  M 153.57 109.74
  Q 152.64 112.19 152.48 114.76
  C 151.93 123.74 157.60 128.27 166.10 128.28
  Q 167.16 128.28 192.27 129.96
  Q 203.84 130.74 221.94 132.75
  A 0.32 0.32 0.0 0 0 222.27 132.32
  Q 219.77 125.87 221.97 119.79
  Q 225.45 112.56 232.49 109.41
  A 0.18 0.18 0.0 0 0 232.44 109.07
  Q 216.18 106.90 198.98 104.07
  C 190.51 102.67 183.46 102.20 172.24 101.02
  C 167.73 100.56 162.97 100.55 158.39 100.43
  A 1.04 1.03 -72.3 0 0 157.49 100.90
  Q 154.74 105.12 153.57 109.74
  Z
  M 322.30 132.13
  A 0.44 0.44 0.0 0 0 322.38 131.30
  C 315.36 128.05 314.04 120.69 316.71 113.56
  A 0.75 0.75 0.0 0 0 316.03 112.55
  L 314.56 112.52
  A 1.28 1.27 -75.3 0 0 313.40 113.20
  L 297.53 143.40
  A 1.63 1.61 44.1 0 0 297.56 144.97
  L 299.41 148.16
  A 0.98 0.98 0.0 0 0 299.81 148.56
  Q 308.52 153.32 316.51 147.44
  A 0.71 0.70 -27.8 0 0 316.76 146.64
  C 314.83 140.98 315.36 133.89 322.30 132.13
  Z
  M 325.30 128.63
  Q 325.85 121.09 320.04 115.45
  A 0.37 0.37 0.0 0 0 319.43 115.61
  Q 316.71 125.16 324.94 128.85
  A 0.26 0.26 0.0 0 0 325.30 128.63
  Z
  M 271.98 153.88
  Q 277.12 150.98 279.20 148.40
  Q 281.25 145.86 282.19 139.73
  Q 282.73 136.23 281.04 131.67
  Q 278.12 123.78 270.32 120.19
  Q 265.75 118.08 260.48 118.71
  C 248.37 120.15 239.00 125.86 235.52 137.90
  A 0.42 0.42 0.0 0 0 235.97 138.43
  C 236.91 138.32 239.23 137.65 240.17 138.65
  A 1.67 1.54 -28.1 0 1 239.26 141.26
  Q 236.64 141.95 235.58 141.75
  A 0.71 0.70 -89.8 0 0 234.76 142.57
  L 235.68 147.57
  A 1.09 1.09 0.0 0 0 237.05 148.42
  Q 238.80 147.92 240.52 147.68
  A 1.75 1.49 -3.2 0 1 242.52 149.20
  C 242.42 150.82 240.37 150.72 239.62 151.32
  A 0.52 0.51 43.8 0 0 239.64 152.14
  Q 243.38 154.88 244.94 155.33
  Q 247.90 156.19 256.79 158.04
  A 3.31 3.28 45.2 0 0 258.01 158.05
  Q 267.91 156.18 271.98 153.88
  Z
  M 224.57 126.32
  Q 224.61 129.18 226.04 131.86
  A 0.75 0.75 0.0 0 0 227.17 132.09
  Q 229.95 129.82 230.72 126.42
  A 0.23 0.23 0.0 0 0 230.50 126.13
  L 224.90 126.00
  A 0.32 0.32 0.0 0 0 224.57 126.32
  Z
  M 201.77 140.05
  L 197.38 141.46
  A 1.92 1.92 0.0 0 1 195.16 140.64
  L 195.13 140.59
  A 1.23 1.23 0.0 0 1 195.66 138.68
  L 201.38 136.51
  A 1.06 1.06 0.0 0 0 201.47 134.57
  Q 200.42 134.05 199.74 133.99
  Q 188.36 133.03 166.47 131.73
  A 0.86 0.84 -72.0 0 0 165.70 132.13
  C 161.62 138.74 163.12 148.14 170.35 151.87
  Q 177.63 155.62 186.44 154.10
  C 192.99 152.97 201.08 147.65 202.31 140.51
  A 0.42 0.41 -4.0 0 0 201.77 140.05
  Z
  M 319.61 143.96
  A 0.26 0.26 0.0 0 0 320.02 144.11
  Q 323.74 141.26 323.87 136.87
  A 1.00 1.00 0.0 0 0 322.37 135.97
  L 320.84 136.85
  A 2.41 2.39 79.6 0 0 319.68 138.55
  Q 319.15 142.02 319.61 143.96
  Z
  M 284.38 147.17
  L 290.19 146.85
  A 0.61 0.60 -6.7 0 0 290.76 146.14
  L 289.39 138.74
  A 0.87 0.86 -10.3 0 0 288.38 138.05
  L 286.27 138.44
  A 0.75 0.75 0.0 0 0 285.66 139.15
  Q 285.56 142.79 284.09 146.77
  A 0.30 0.30 0.0 0 0 284.38 147.17
  Z"
/>
<path fill="#ffffff" d="
  M 266.09 59.21
  Q 267.07 57.80 268.17 56.19
  C 272.10 50.37 270.08 43.24 267.91 37.37
  Q 264.26 27.50 253.87 28.75
  A 0.37 0.37 0.0 0 1 253.54 28.16
  C 266.58 11.74 287.56 3.28 308.24 6.33
  C 317.81 7.75 325.08 11.26 331.96 17.81
  C 342.50 27.82 348.88 39.74 346.14 54.64
  C 344.66 62.71 341.22 67.49 334.38 71.66
  Q 333.80 72.02 333.06 73.03
  A 1.10 1.10 0.0 0 0 333.84 74.77
  Q 337.92 75.18 343.24 73.49
  A 0.43 0.43 0.0 0 1 343.79 73.97
  Q 343.43 76.07 341.80 81.87
  C 338.73 92.87 330.81 101.92 319.19 103.59
  A 0.25 0.25 0.0 0 1 318.93 103.24
  L 323.67 93.03
  A 5.34 5.22 55.8 0 0 324.14 90.39
  Q 323.48 82.16 323.30 72.75
  Q 323.26 70.90 323.80 69.15
  A 0.79 0.79 0.0 0 0 323.53 68.28
  Q 321.27 66.55 319.77 66.40
  Q 312.83 65.73 299.47 63.62
  Q 288.15 61.84 266.33 59.73
  A 0.33 0.33 0.0 0 1 266.09 59.21
  Z"
/>
<path fill="#020202" d="
  M 27.87 75.02
  A 0.63 0.61 -78.4 0 0 27.49 74.43
  Q 23.83 72.85 21.92 71.61
  C 17.60 68.81 24.32 64.63 26.49 63.13
  A 1.45 1.45 0.0 0 0 27.11 61.92
  Q 27.10 60.69 26.99 53.05
  Q 26.97 51.51 27.91 50.66
  Q 28.56 50.07 30.32 49.87
  Q 54.78 47.16 71.26 47.74
  Q 83.59 48.18 107.40 49.17
  Q 112.10 49.37 113.59 49.58
  Q 117.65 50.17 119.75 50.17
  C 122.08 50.17 122.34 51.22 122.59 53.26
  Q 122.69 54.12 122.30 59.92
  Q 122.05 63.46 122.14 66.60
  Q 122.40 76.19 121.72 83.98
  A 1.56 1.55 -89.6 0 1 120.29 85.39
  C 118.04 85.56 115.93 86.10 113.53 86.07
  C 106.10 85.98 98.41 86.65 91.49 86.69
  Q 78.74 86.78 66.00 86.42
  C 60.56 86.27 54.40 86.82 48.36 86.09
  Q 41.04 85.19 30.02 85.20
  A 2.33 2.32 0.7 0 1 27.69 82.82
  L 27.87 75.02
  Z
  M 24.76 68.64
  A 0.42 0.42 0.0 0 0 24.86 69.33
  L 29.06 71.28
  A 3.45 3.43 13.2 0 1 31.05 74.47
  L 30.89 81.38
  A 0.75 0.75 0.0 0 0 31.66 82.15
  Q 39.69 82.00 44.98 82.55
  Q 53.66 83.45 58.18 83.20
  Q 62.41 82.98 76.90 83.36
  C 90.36 83.72 105.58 82.61 117.78 82.58
  A 0.71 0.71 0.0 0 0 118.48 81.88
  L 119.14 54.08
  A 0.65 0.65 0.0 0 0 118.51 53.42
  C 114.69 53.34 111.34 52.45 107.71 52.46
  Q 102.36 52.48 84.57 51.61
  C 66.41 50.72 48.72 50.97 31.25 53.06
  A 1.03 1.03 0.0 0 0 30.34 54.12
  C 30.41 56.08 30.80 59.78 29.96 62.16
  C 28.61 65.99 26.57 67.07 24.76 68.64
  Z"
/>
<path fill="#4f77f3" d="
  M 24.76 68.64
  C 26.57 67.07 28.61 65.99 29.96 62.16
  C 30.80 59.78 30.41 56.08 30.34 54.12
  A 1.03 1.03 0.0 0 1 31.25 53.06
  C 48.72 50.97 66.41 50.72 84.57 51.61
  Q 102.36 52.48 107.71 52.46
  C 111.34 52.45 114.69 53.34 118.51 53.42
  A 0.65 0.65 0.0 0 1 119.14 54.08
  L 118.48 81.88
  A 0.71 0.71 0.0 0 1 117.78 82.58
  C 105.58 82.61 90.36 83.72 76.90 83.36
  Q 62.41 82.98 58.18 83.20
  Q 53.66 83.45 44.98 82.55
  Q 39.69 82.00 31.66 82.15
  A 0.75 0.75 0.0 0 1 30.89 81.38
  L 31.05 74.47
  A 3.45 3.43 13.2 0 0 29.06 71.28
  L 24.86 69.33
  A 0.42 0.42 0.0 0 1 24.76 68.64
  Z"
/>
<path fill="#ffffff" d="
  M 214.52 102.59
  Q 216.21 101.13 220.10 98.59
  C 227.41 93.82 234.53 95.52 241.89 98.89
  Q 248.26 101.81 251.11 109.22
  A 1.86 1.86 0.0 0 0 253.55 110.27
  L 253.65 110.23
  A 1.94 1.93 69.0 0 0 254.73 107.79
  Q 251.77 99.54 244.48 95.74
  Q 237.56 92.13 229.55 92.13
  C 222.41 92.14 216.81 95.72 212.01 100.38
  A 1.38 1.36 69.2 0 0 211.60 101.31
  Q 211.54 102.66 210.51 102.47
  Q 196.98 100.03 183.63 98.95
  A 0.45 0.44 16.3 0 1 183.27 98.30
  L 199.34 67.41
  A 3.72 3.61 -12.2 0 1 199.80 66.72
  L 203.82 61.84
  A 1.35 1.34 -71.8 0 1 204.80 61.34
  Q 208.56 61.15 213.00 61.25
  Q 253.72 62.12 261.26 62.76
  Q 285.60 64.82 298.24 66.86
  Q 309.38 68.66 319.44 69.74
  A 0.32 0.32 0.0 0 1 319.69 70.22
  C 311.31 85.25 305.12 101.72 295.27 121.57
  Q 292.41 127.33 290.22 133.08
  A 2.35 2.12 -17.6 0 1 289.85 133.71
  Q 288.58 135.24 286.18 135.18
  A 0.66 0.66 0.0 0 1 285.56 134.65
  Q 283.19 123.05 273.28 117.50
  Q 268.55 114.85 264.44 114.60
  C 257.65 114.20 252.21 116.53 245.38 119.61
  A 0.70 0.69 72.6 0 1 244.41 119.10
  L 242.58 109.19
  A 2.23 2.22 -86.2 0 0 241.09 107.48
  Q 239.00 106.80 235.06 106.16
  Q 227.90 104.99 214.70 103.19
  A 0.34 0.34 0.0 0 1 214.52 102.59
  Z
  M 266.35 105.64
  Q 270.41 113.15 279.77 115.00
  Q 280.97 115.24 285.21 114.68
  A 4.42 4.33 28.1 0 0 286.47 114.31
  Q 303.10 106.47 299.33 87.69
  Q 296.90 75.54 285.31 68.87
  A 2.80 2.79 -49.8 0 0 282.13 69.14
  L 282.08 69.18
  A 1.28 1.27 38.6 0 0 282.32 71.30
  Q 296.07 78.27 296.45 93.53
  Q 296.66 101.84 291.11 106.99
  Q 284.51 113.11 275.20 109.51
  Q 272.43 108.44 267.66 102.32
  A 0.80 0.80 0.0 0 0 266.23 102.73
  L 266.08 104.29
  A 2.38 2.34 -56.8 0 0 266.35 105.64
  Z
  M 215.2957 90.3619
  A 4.50 3.20 -37.8 0 0 209.7787 90.5915
  A 4.50 3.20 -37.8 0 0 208.1843 95.8781
  A 4.50 3.20 -37.8 0 0 213.7013 95.6485
  A 4.50 3.20 -37.8 0 0 215.2957 90.3619
  Z
  M 250.7805 93.7210
  A 5.18 3.54 -146.5 0 0 253.1461 99.5320
  A 5.18 3.54 -146.5 0 0 259.4195 99.4390
  A 5.18 3.54 -146.5 0 0 257.0539 93.6280
  A 5.18 3.54 -146.5 0 0 250.7805 93.7210
  Z
  M 225.41 103.09
  Q 228.76 105.14 232.50 102.25
  A 2.12 1.98 -33.5 0 0 233.12 99.65
  C 231.87 97.38 227.02 97.61 225.32 98.16
  A 2.41 2.10 -11.1 0 0 223.63 100.33
  Q 223.70 102.05 225.41 103.09
  Z"
/>
<path fill="#ffffff" d="
  M 180.27 97.72
  A 0.65 0.65 0.0 0 1 179.57 98.47
  L 167.37 97.26
  A 1.19 1.18 -16.1 0 1 166.56 96.82
  C 163.12 92.51 164.63 88.02 167.31 83.82
  C 173.00 74.92 181.74 69.14 191.56 65.07
  Q 194.90 63.69 197.51 63.36
  A 0.24 0.24 0.0 0 1 197.74 63.72
  Q 188.36 79.23 180.39 96.52
  Q 180.16 97.02 180.27 97.72
  Z"
/>
<path fill="#020202" d="
  M 266.35 105.64
  A 2.38 2.34 -56.8 0 1 266.08 104.29
  L 266.23 102.73
  A 0.80 0.80 0.0 0 1 267.66 102.32
  Q 272.43 108.44 275.20 109.51
  Q 284.51 113.11 291.11 106.99
  Q 296.66 101.84 296.45 93.53
  Q 296.07 78.27 282.32 71.30
  A 1.28 1.27 38.6 0 1 282.08 69.18
  L 282.13 69.14
  A 2.80 2.79 -49.8 0 1 285.31 68.87
  Q 296.90 75.54 299.33 87.69
  Q 303.10 106.47 286.47 114.31
  A 4.42 4.33 28.1 0 1 285.21 114.68
  Q 280.97 115.24 279.77 115.00
  Q 270.41 113.15 266.35 105.64
  Z"
/>
<path fill="#d9d9d9" d="
  M 320.08 76.74
  L 320.87 91.22
  A 1.54 1.52 -33.0 0 1 320.69 92.05
  L 295.02 140.91
  A 1.15 1.15 0.0 0 1 292.87 140.59
  L 292.38 137.89
  A 5.18 5.15 52.3 0 1 292.77 134.78
  L 319.71 76.66
  A 0.20 0.19 56.6 0 1 320.08 76.74
  Z"
/>
<path fill="#020202" d="
  M 215.2957 90.3619
  A 4.50 3.20 -37.8 0 1 213.7013 95.6485
  A 4.50 3.20 -37.8 0 1 208.1843 95.8781
  A 4.50 3.20 -37.8 0 1 209.7787 90.5915
  A 4.50 3.20 -37.8 0 1 215.2957 90.3619
  Z
  M 212.3319 91.2361
  A 1.10 0.97 -127.4 0 0 212.2294 92.6992
  A 1.10 0.97 -127.4 0 0 213.6681 92.9839
  A 1.10 0.97 -127.4 0 0 213.7706 91.5208
  A 1.10 0.97 -127.4 0 0 212.3319 91.2361
  Z"
/>
<ellipse fill="#ffffff" cx="0.00" cy="0.00" transform="translate(213.00,92.11) rotate(-127.4)" rx="1.10" ry="0.97"/>
<path fill="#020202" d="
  M 250.7805 93.7210
  A 5.18 3.54 -146.5 0 1 257.0539 93.6280
  A 5.18 3.54 -146.5 0 1 259.4195 99.4390
  A 5.18 3.54 -146.5 0 1 253.1461 99.5320
  A 5.18 3.54 -146.5 0 1 250.7805 93.7210
  Z
  M 254.9601 94.8621
  A 1.26 1.04 -7.2 0 0 253.5797 93.9882
  A 1.26 1.04 -7.2 0 0 252.4599 95.1779
  A 1.26 1.04 -7.2 0 0 253.8403 96.0518
  A 1.26 1.04 -7.2 0 0 254.9601 94.8621
  Z"
/>
<ellipse fill="#ffffff" cx="0.00" cy="0.00" transform="translate(253.71,95.02) rotate(-7.2)" rx="1.26" ry="1.04"/>
<path fill="#020202" d="
  M 225.41 103.09
  Q 223.70 102.05 223.63 100.33
  A 2.41 2.10 -11.1 0 1 225.32 98.16
  C 227.02 97.61 231.87 97.38 233.12 99.65
  A 2.12 1.98 -33.5 0 1 232.50 102.25
  Q 228.76 105.14 225.41 103.09
  Z
  M 226.25 99.13
  A 0.67 0.59 38.2 0 0 226.46 100.29
  Q 227.32 100.54 227.78 100.21
  A 0.60 0.56 -53.2 0 0 227.67 99.17
  Q 226.77 98.90 226.25 99.13
  Z"
/>
<path fill="#ffffff" d="
  M 226.25 99.13
  Q 226.77 98.90 227.67 99.17
  A 0.60 0.56 -53.2 0 1 227.78 100.21
  Q 227.32 100.54 226.46 100.29
  A 0.67 0.59 38.2 0 1 226.25 99.13
  Z"
/>
<path fill="#ffffff" d="
  M 221.97 119.79
  Q 211.41 120.95 200.50 120.09
  Q 186.99 119.02 180.53 118.57
  C 173.47 118.08 166.88 117.12 159.53 116.19
  Q 154.26 115.53 153.57 109.74
  Q 154.74 105.12 157.49 100.90
  A 1.04 1.03 -72.3 0 1 158.39 100.43
  C 162.97 100.55 167.73 100.56 172.24 101.02
  C 183.46 102.20 190.51 102.67 198.98 104.07
  Q 216.18 106.90 232.44 109.07
  A 0.18 0.18 0.0 0 1 232.49 109.41
  Q 225.45 112.56 221.97 119.79
  Z"
/>
<path fill="#d9d9d9" d="
  M 221.97 119.79
  Q 219.77 125.87 222.27 132.32
  A 0.32 0.32 0.0 0 1 221.94 132.75
  Q 203.84 130.74 192.27 129.96
  Q 167.16 128.28 166.10 128.28
  C 157.60 128.27 151.93 123.74 152.48 114.76
  Q 152.64 112.19 153.57 109.74
  Q 154.26 115.53 159.53 116.19
  C 166.88 117.12 173.47 118.08 180.53 118.57
  Q 186.99 119.02 200.50 120.09
  Q 211.41 120.95 221.97 119.79
  Z"
/>
<path fill="#020202" d="
  M 114.77 118.27
  C 117.66 118.88 121.75 120.51 123.34 123.04
  A 1.94 1.63 -34.3 0 1 122.68 125.39
  Q 118.34 128.57 116.52 129.56
  A 1.12 1.11 81.6 0 0 115.95 130.34
  Q 115.56 132.29 115.37 135.79
  C 115.28 137.44 114.64 139.02 112.62 138.85
  Q 108.97 138.54 98.98 138.80
  C 94.13 138.92 86.44 137.62 81.54 137.87
  Q 64.12 138.75 51.53 138.13
  A 1.69 1.69 0.0 0 1 49.92 136.42
  Q 50.15 122.27 50.23 121.51
  C 50.44 119.51 49.87 116.49 49.91 114.48
  Q 49.96 112.40 52.14 112.12
  Q 56.44 111.57 61.75 111.40
  Q 86.62 110.63 112.50 111.52
  A 2.08 2.06 83.9 0 1 114.44 113.10
  Q 114.88 114.92 114.39 117.71
  A 0.49 0.48 -79.6 0 0 114.77 118.27
  Z
  M 110.71 114.30
  Q 72.89 114.44 72.52 114.44
  Q 61.78 114.53 54.30 115.26
  A 0.84 0.84 0.0 0 0 53.54 116.14
  L 54.50 133.54
  A 1.09 1.08 -1.6 0 0 55.60 134.57
  C 71.34 134.46 84.16 134.05 98.01 134.94
  Q 104.98 135.39 111.14 135.26
  A 0.37 0.36 -89.1 0 0 111.49 134.91
  Q 111.64 132.21 113.00 128.94
  A 0.94 0.87 -11.0 0 1 113.24 128.61
  L 118.60 123.87
  A 0.52 0.51 35.5 0 0 118.45 123.01
  C 114.83 121.49 110.53 120.31 111.43 115.16
  A 0.73 0.73 0.0 0 0 110.71 114.30
  Z"
/>
<path fill="#d9d9d9" d="
  M 264.78 166.00
  L 188.93 166.00
  L 185.64 158.12
  A 0.28 0.28 0.0 0 1 185.86 157.73
  Q 194.40 156.68 200.35 150.89
  C 205.26 146.12 206.42 141.69 205.42 135.09
  A 0.46 0.46 0.0 0 1 205.92 134.56
  Q 214.38 135.33 224.60 136.62
  C 227.36 136.97 230.02 134.49 231.60 132.62
  Q 234.52 129.17 234.08 124.62
  A 2.12 2.12 0.0 0 0 232.03 122.72
  L 225.28 122.56
  A 0.42 0.42 0.0 0 1 224.90 121.98
  C 227.60 115.37 232.32 112.79 239.03 111.09
  A 0.57 0.57 0.0 0 1 239.73 111.61
  Q 240.07 117.44 241.99 121.28
  A 0.77 0.76 -32.0 0 1 241.76 122.24
  C 233.93 128.17 230.06 138.83 232.51 148.29
  C 233.38 151.66 237.24 154.80 240.25 156.83
  Q 242.11 158.09 245.55 159.11
  Q 253.71 161.53 261.63 160.63
  A 0.72 0.72 0.0 0 1 262.35 161.03
  L 264.78 166.00
  Z"
/>
<path fill="#ffffff" d="
  M 322.30 132.13
  C 315.36 133.89 314.83 140.98 316.76 146.64
  A 0.71 0.70 -27.8 0 1 316.51 147.44
  Q 308.52 153.32 299.81 148.56
  A 0.98 0.98 0.0 0 1 299.41 148.16
  L 297.56 144.97
  A 1.63 1.61 44.1 0 1 297.53 143.40
  L 313.40 113.20
  A 1.28 1.27 -75.3 0 1 314.56 112.52
  L 316.03 112.55
  A 0.75 0.75 0.0 0 1 316.71 113.56
  C 314.04 120.69 315.36 128.05 322.38 131.30
  A 0.44 0.44 0.0 0 1 322.30 132.13
  Z"
/>
<path fill="#ffffff" d="
  M 111.43 115.16
  C 110.53 120.31 114.83 121.49 118.45 123.01
  A 0.52 0.51 35.5 0 1 118.60 123.87
  L 113.24 128.61
  A 0.94 0.87 -11.0 0 0 113.00 128.94
  Q 111.64 132.21 111.49 134.91
  A 0.37 0.36 -89.1 0 1 111.14 135.26
  Q 104.98 135.39 98.01 134.94
  C 84.16 134.05 71.34 134.46 55.60 134.57
  A 1.09 1.08 -1.6 0 1 54.50 133.54
  L 53.54 116.14
  A 0.84 0.84 0.0 0 1 54.30 115.26
  Q 61.78 114.53 72.52 114.44
  Q 72.89 114.44 110.71 114.30
  A 0.73 0.73 0.0 0 1 111.43 115.16
  Z"
/>
<path fill="#d9d9d9" d="
  M 325.30 128.63
  A 0.26 0.26 0.0 0 1 324.94 128.85
  Q 316.71 125.16 319.43 115.61
  A 0.37 0.37 0.0 0 1 320.04 115.45
  Q 325.85 121.09 325.30 128.63
  Z"
/>
<path fill="#ffffff" d="
  M 271.98 153.88
  Q 267.91 156.18 258.01 158.05
  A 3.31 3.28 45.2 0 1 256.79 158.04
  Q 247.90 156.19 244.94 155.33
  Q 243.38 154.88 239.64 152.14
  A 0.52 0.51 43.8 0 1 239.62 151.32
  C 240.37 150.72 242.42 150.82 242.52 149.20
  A 1.75 1.49 -3.2 0 0 240.52 147.68
  Q 238.80 147.92 237.05 148.42
  A 1.09 1.09 0.0 0 1 235.68 147.57
  L 234.76 142.57
  A 0.71 0.70 -89.8 0 1 235.58 141.75
  Q 236.64 141.95 239.26 141.26
  A 1.67 1.54 -28.1 0 0 240.17 138.65
  C 239.23 137.65 236.91 138.32 235.97 138.43
  A 0.42 0.42 0.0 0 1 235.52 137.90
  C 239.00 125.86 248.37 120.15 260.48 118.71
  Q 265.75 118.08 270.32 120.19
  Q 278.12 123.78 281.04 131.67
  Q 282.73 136.23 282.19 139.73
  Q 281.25 145.86 279.20 148.40
  Q 277.12 150.98 271.98 153.88
  Z"
/>
<path fill="#d9d9d9" d="
  M 224.57 126.32
  A 0.32 0.32 0.0 0 1 224.90 126.00
  L 230.50 126.13
  A 0.23 0.23 0.0 0 1 230.72 126.42
  Q 229.95 129.82 227.17 132.09
  A 0.75 0.75 0.0 0 1 226.04 131.86
  Q 224.61 129.18 224.57 126.32
  Z"
/>
<path fill="#d9d9d9" d="
  M 267.10 163.02
  Q 265.99 161.70 265.54 160.14
  A 0.53 0.52 -13.5 0 1 265.95 159.48
  Q 275.29 157.75 281.89 151.09
  A 2.16 2.12 20.7 0 1 283.30 150.47
  C 289.22 150.24 291.76 150.80 295.04 148.59
  A 0.62 0.61 61.0 0 1 295.94 148.85
  Q 298.14 153.67 304.32 154.42
  C 314.60 155.67 323.36 148.59 326.34 139.07
  Q 328.16 133.24 328.89 127.56
  C 332.00 129.01 336.27 130.94 338.65 134.37
  Q 343.80 141.80 338.45 149.24
  Q 332.89 156.99 323.31 159.79
  Q 305.13 165.09 284.43 164.05
  Q 272.39 163.44 267.10 163.02
  Z"
/>
<path fill="#ffffff" d="
  M 201.77 140.05
  A 0.42 0.41 -4.0 0 1 202.31 140.51
  C 201.08 147.65 192.99 152.97 186.44 154.10
  Q 177.63 155.62 170.35 151.87
  C 163.12 148.14 161.62 138.74 165.70 132.13
  A 0.86 0.84 -72.0 0 1 166.47 131.73
  Q 188.36 133.03 199.74 133.99
  Q 200.42 134.05 201.47 134.57
  A 1.06 1.06 0.0 0 1 201.38 136.51
  L 195.66 138.68
  A 1.23 1.23 0.0 0 0 195.13 140.59
  L 195.16 140.64
  A 1.92 1.92 0.0 0 0 197.38 141.46
  L 201.77 140.05
  Z"
/>
<path fill="#d9d9d9" d="
  M 319.61 143.96
  Q 319.15 142.02 319.68 138.55
  A 2.41 2.39 79.6 0 1 320.84 136.85
  L 322.37 135.97
  A 1.00 1.00 0.0 0 1 323.87 136.87
  Q 323.74 141.26 320.02 144.11
  A 0.26 0.26 0.0 0 1 319.61 143.96
  Z"
/>
<path fill="#d9d9d9" d="
  M 284.38 147.17
  A 0.30 0.30 0.0 0 1 284.09 146.77
  Q 285.56 142.79 285.66 139.15
  A 0.75 0.75 0.0 0 1 286.27 138.44
  L 288.38 138.05
  A 0.87 0.86 -10.3 0 1 289.39 138.74
  L 290.76 146.14
  A 0.61 0.60 -6.7 0 1 290.19 146.85
  L 284.38 147.17
  Z"
/>
</svg>
