<?xml version="1.0" standalone="no"?>
<!DOCTYPE svg PUBLIC "-//W3C//DTD SVG 20010904//EN"
 "http://www.w3.org/TR/2001/REC-SVG-20010904/DTD/svg10.dtd">
<svg version="1.0" xmlns="http://www.w3.org/2000/svg"
 width="300.000000pt" height="300.000000pt" viewBox="0 0 300.000000 300.000000"
 preserveAspectRatio="xMidYMid meet">

<g transform="translate(0.000000,300.000000) scale(0.100000,-0.100000)"
fill="#000000" stroke="none">
<path d="M653 2329 c-173 -29 -358 -163 -443 -321 -41 -76 -70 -195 -70 -286
0 -65 -2 -73 -15 -62 -8 7 -22 10 -30 6 -12 -4 -15 -28 -15 -126 0 -240 70
-416 228 -577 77 -79 131 -114 222 -148 91 -34 214 -39 268 -13 30 16 33 15
42 -2 8 -16 4 -28 -23 -63 -48 -63 -81 -172 -74 -245 10 -115 88 -217 188
-246 107 -32 193 -15 245 48 15 17 32 31 38 32 6 0 18 2 27 2 9 1 32 13 52 26
l35 24 39 -19 c87 -43 201 -43 295 -1 111 50 228 203 228 298 l0 42 208 115
c114 63 234 129 268 146 l61 32 42 -17 c76 -30 203 1 321 78 49 32 109 111
128 167 37 107 -15 228 -122 283 -43 23 -122 29 -186 15 l-36 -7 -38 72 c-22
40 -54 99 -74 131 -19 32 -33 60 -31 61 2 2 21 11 42 21 46 21 87 86 87 138 0
61 -36 141 -85 185 -76 71 -223 132 -316 132 -24 0 -39 5 -43 15 -3 8 -17 15
-31 15 -49 0 -398 -186 -795 -424 -129 -78 -238 -142 -242 -144 -11 -5 -39 44
-48 85 -12 52 -2 89 32 124 36 36 81 39 115 7 21 -19 25 -20 38 -7 8 8 18 36
21 61 9 63 -25 133 -103 215 -111 117 -267 163 -450 132z m293 -73 c99 -45
214 -175 214 -243 0 -30 -2 -33 -19 -23 -49 26 -119 -1 -165 -63 -32 -43 -30
-163 3 -207 12 -18 19 -35 15 -40 -5 -4 -52 -36 -104 -71 -125 -83 -273 -189
-282 -203 -4 -6 -8 -64 -8 -128 l0 -117 101 -152 c67 -101 97 -155 90 -162
-19 -19 -144 -21 -206 -2 -101 29 -156 63 -245 154 -96 97 -154 195 -190 321
-20 74 -40 270 -26 270 4 0 21 -7 38 -16 42 -22 54 -7 37 43 -34 98 2 300 71
405 46 70 157 169 231 206 101 51 150 62 274 59 96 -2 118 -6 171 -31z m1174
-68 c17 -29 64 -105 105 -168 84 -129 224 -361 278 -461 l35 -67 -44 -31 c-70
-51 -153 -191 -154 -261 0 -21 -15 -33 -103 -79 -56 -30 -183 -101 -282 -159
l-180 -106 -81 3 c-205 7 -388 -97 -444 -251 -5 -16 -13 -28 -18 -28 -13 0
-176 225 -271 373 -45 70 -131 199 -191 287 l-108 160 111 78 c172 121 513
331 842 517 127 73 455 244 467 245 3 0 20 -24 38 -52z m225 -37 c96 -47 137
-88 160 -163 16 -48 16 -57 2 -90 -15 -36 -43 -60 -84 -72 -19 -6 -28 3 -70
69 -26 42 -81 126 -120 188 -40 61 -73 113 -73 115 0 16 115 -14 185 -47z
m432 -692 c120 -58 138 -209 38 -327 -50 -60 -243 -140 -301 -126 -30 8 -30
10 4 39 22 21 25 26 12 34 -10 7 -26 3 -53 -12 l-39 -22 -19 25 c-17 23 -17
26 -2 35 9 6 28 20 42 32 24 20 25 22 7 29 -12 5 -30 1 -48 -9 -25 -14 -30
-15 -35 -2 -3 9 0 36 6 62 50 197 238 314 388 242z m-2025 -271 c53 -79 139
-210 192 -292 83 -126 154 -225 239 -330 14 -18 17 -36 15 -92 l-3 -69 -62 75
c-93 113 -223 294 -360 500 l-123 184 0 83 c0 46 2 83 4 83 2 0 46 -64 98
-142z m1612 -111 c11 -23 21 -45 23 -48 2 -4 -38 -29 -89 -56 -51 -28 -151
-83 -223 -123 -204 -116 -207 -117 -212 -102 -3 8 -18 29 -34 47 l-29 32 148
84 c221 125 376 209 387 209 6 0 19 -19 29 -43z m-605 -283 l23 -17 -48 -26
c-83 -45 -63 -70 25 -31 24 11 46 20 50 20 13 0 34 -54 22 -58 -22 -7 -61 -44
-61 -58 0 -17 14 -18 42 -3 30 16 32 4 8 -47 -46 -94 -144 -174 -230 -189 -69
-12 -156 -8 -187 9 -32 16 -85 70 -102 103 -29 58 -1 143 68 206 47 43 86 64
161 88 73 24 197 25 229 3z m-642 -361 c60 -69 60 -78 2 -127 -38 -33 -64 -39
-113 -29 -31 7 -40 14 -43 33 -9 58 -54 89 -108 76 -27 -7 -35 8 -9 18 21 8
51 80 59 142 8 55 -6 116 -33 146 -12 14 -12 21 -3 32 11 13 27 -5 103 -107
50 -67 115 -150 145 -184z m-269 212 c23 -50 10 -157 -23 -200 -13 -17 -16
-18 -25 -5 -15 23 -12 122 7 179 9 28 19 51 23 51 4 0 12 -11 18 -25z m421
-187 c19 -39 19 -43 4 -60 -9 -10 -18 -16 -20 -14 -6 6 -14 116 -9 116 2 0 13
-19 25 -42z m-364 -128 c10 -11 16 -23 12 -26 -7 -7 -57 25 -57 37 0 16 26 9
45 -11z"/>
<path d="M2086 1634 c-22 -21 -20 -40 6 -58 30 -21 61 -20 82 3 41 45 -45 98
-88 55z m34 -12 c0 -13 -12 -22 -22 -16 -10 6 -1 24 13 24 5 0 9 -4 9 -8z"/>
<path d="M967 1530 c-79 -69 -117 -235 -83 -354 32 -107 134 -186 226 -173 72
9 150 90 154 159 2 48 -21 45 -45 -6 -31 -66 -80 -106 -130 -106 -104 0 -169
89 -169 231 0 91 30 172 83 222 31 31 37 41 26 48 -21 13 -25 12 -62 -21z"/>
<path d="M1885 1521 c-179 -64 -325 -267 -325 -451 0 -36 5 -62 13 -69 20 -16
27 -3 27 54 0 206 186 422 382 442 100 10 155 -18 247 -127 24 -28 32 -32 42
-23 10 10 10 18 -2 40 -26 51 -102 119 -154 136 -63 22 -167 21 -230 -2z"/>
<path d="M1894 1435 c-93 -46 -102 -73 -42 -118 24 -18 27 -18 56 -3 41 21 89
102 75 125 -16 25 -33 24 -89 -4z m56 -4 c0 -10 -30 -24 -37 -17 -3 3 -2 9 2
15 8 13 35 15 35 2z"/>
<path d="M1481 1326 c-17 -20 -10 -77 12 -90 22 -14 47 1 66 39 9 20 11 33 4
44 -13 21 -66 26 -82 7z m50 -19 c-13 -13 -26 -3 -16 12 3 6 11 8 17 5 6 -4 6
-10 -1 -17z"/>
</g>
</svg>
