<?xml version="1.0" encoding="UTF-8" standalone="no"?>
<!DOCTYPE svg PUBLIC "-//W3C//DTD SVG 1.1//EN" "http://www.w3.org/Graphics/SVG/1.1/DTD/svg11.dtd">
<svg xmlns="http://www.w3.org/2000/svg" version="1.1" viewBox="0.00 0.00 300.00 300.00" width="300.00" height="300.00">
<g stroke-width="2.00" fill="none" stroke-linecap="butt">
<path stroke="#6d6d6d" vector-effect="non-scaling-stroke" d="
  M 194.10 227.38
  L 189.05 230.17
  A 0.67 0.67 0.0 0 0 188.72 230.89
  C 190.40 238.52 185.49 247.44 180.48 253.16
  C 178.17 255.80 175.82 257.27 173.49 259.49
  C 164.51 268.04 148.62 270.00 137.58 264.81
  C 136.08 264.10 134.39 262.52 133.55 262.18
  A 0.88 0.86 32.5 0 0 132.60 262.38
  Q 130.68 264.38 124.37 267.14
  Q 122.07 268.14 120.76 267.50
  A 0.70 0.70 0.0 0 0 119.87 267.74
  C 116.71 272.46 110.94 277.40 105.02 277.28
  C 96.07 277.11 87.52 275.21 81.56 268.19
  Q 73.10 258.22 74.09 245.33"
/>
<path stroke="#808080" vector-effect="non-scaling-stroke" d="
  M 80.06 214.27
  Q 70.41 199.78 64.28 190.49
  C 61.53 186.31 59.96 183.98 60.00 180.25
  Q 60.20 164.37 60.18 162.74
  C 60.14 159.65 60.85 158.84 63.43 156.95
  Q 83.61 142.23 99.91 131.88
  A 0.51 0.51 0.0 0 0 100.02 131.11
  C 93.83 124.00 92.62 112.78 99.17 105.25
  C 103.08 100.77 110.23 98.04 115.46 101.92
  A 0.43 0.42 -68.7 0 0 116.13 101.62
  C 116.92 94.81 112.60 89.74 108.16 84.46
  C 92.01 65.22 62.65 67.78 43.66 80.98
  Q 32.84 88.49 26.81 98.05
  Q 17.55 112.75 18.45 131.94
  A 15.09 14.89 -55.7 0 0 19.19 135.99
  Q 20.35 139.53 20.90 141.53
  A 1.97 1.86 72.9 0 1 19.74 143.88
  Q 19.38 144.00 19.09 143.89
  Q 15.18 142.41 12.34 140.63
  A 0.21 0.21 0.0 0 0 12.01 140.81
  C 12.00 148.50 12.09 155.29 13.46 162.23
  Q 18.96 190.00 42.32 208.11
  Q 48.64 213.00 59.52 215.86
  Q 70.55 218.75 79.79 215.14
  A 0.58 0.58 0.0 0 0 80.06 214.27"
/>
<path stroke="#808080" vector-effect="non-scaling-stroke" d="
  M 66.07 160.33
  Q 68.76 163.75 70.88 166.86
  Q 88.50 192.68 104.39 217.57
  Q 106.66 221.13 117.49 235.51
  C 119.08 237.62 120.52 240.12 121.97 242.00
  A 1.31 1.27 56.4 0 0 123.61 242.36
  Q 124.20 242.03 124.38 241.35
  C 129.40 221.92 152.86 212.72 170.75 214.09
  C 172.63 214.24 174.15 214.86 175.59 214.87
  A 2.29 2.22 29.2 0 0 176.72 214.57
  Q 193.16 205.16 208.79 196.04
  Q 220.14 189.42 232.59 183.51
  A 2.07 2.06 -9.9 0 0 233.76 181.86
  C 235.05 169.71 243.00 156.74 253.52 151.11
  A 0.74 0.74 0.0 0 0 253.86 150.18
  C 253.50 149.30 252.51 148.47 251.96 147.41
  Q 244.60 132.96 233.15 114.60
  Q 219.20 92.23 211.61 81.03
  C 210.86 79.92 209.80 77.83 208.94 76.25
  A 0.73 0.72 62.9 0 0 207.98 75.94
  Q 173.91 92.66 139.12 113.37
  Q 106.70 132.68 93.19 141.31
  C 85.20 146.42 74.30 154.46 66.15 159.84
  A 0.34 0.34 0.0 0 0 66.07 160.33"
/>
<path stroke="#808080" vector-effect="non-scaling-stroke" d="
  M 215.69 79.53
  A 0.14 0.13 73.0 0 0 215.58 79.74
  L 239.93 117.69
  A 0.53 0.53 0.0 0 0 240.44 117.93
  Q 247.63 117.21 250.74 110.55
  C 252.87 105.99 250.82 100.39 248.57 96.09
  C 243.68 86.70 225.63 79.58 215.69 79.53"
/>
<path stroke="#808080" vector-effect="non-scaling-stroke" d="
  M 239.05 186.07
  L 244.01 182.88
  A 2.50 2.49 -37.8 0 1 247.19 183.28
  L 247.27 183.37
  A 1.82 1.82 0.0 0 1 246.85 186.04
  L 240.68 190.06
  A 0.95 0.94 -39.0 0 0 240.52 191.52
  L 244.03 195.03
  A 1.08 1.07 -43.6 0 0 245.51 195.06
  Q 247.59 193.16 250.65 191.73
  A 2.65 1.92 -29.2 0 1 253.56 192.07
  C 255.18 194.23 250.49 196.92 248.89 197.87
  A 0.54 0.53 -51.0 0 0 248.99 198.84
  C 254.83 200.81 262.61 198.18 268.02 195.59
  C 275.44 192.03 280.24 189.67 284.49 183.01
  Q 289.24 175.55 288.25 167.99
  C 286.95 158.02 277.43 151.23 267.82 151.71
  C 255.52 152.33 246.41 160.45 241.25 171.51
  Q 237.75 179.02 238.47 185.80
  A 0.38 0.37 -19.6 0 0 239.05 186.07"
/>
<path stroke="#6d6d6d" vector-effect="non-scaling-stroke" d="
  M 64.57 165.65
  L 64.57 181.06
  A 4.54 4.47 32.3 0 0 65.03 183.04
  Q 66.40 185.82 69.11 189.90
  Q 71.92 194.11 82.41 209.85
  Q 99.80 235.97 119.90 260.24
  A 0.34 0.33 -66.6 0 0 120.49 260.00
  L 119.81 245.33
  A 2.44 2.44 0.0 0 0 119.11 243.72
  Q 115.58 240.11 114.37 238.62
  Q 105.28 227.37 95.91 212.74
  C 83.74 193.72 77.10 184.26 64.90 165.55
  A 0.18 0.18 0.0 0 0 64.57 165.65"
/>
<path stroke="#6d6d6d" vector-effect="non-scaling-stroke" d="
  M 179.55 217.54
  C 180.26 218.59 182.46 220.05 183.41 221.12
  Q 185.14 223.06 186.99 226.44
  A 0.57 0.57 0.0 0 0 187.81 226.64
  Q 193.65 222.72 200.31 219.07
  C 213.65 211.76 225.78 204.64 239.31 197.72
  A 0.52 0.52 0.0 0 0 239.44 196.88
  Q 235.64 193.15 234.67 187.96
  A 0.50 0.50 0.0 0 0 233.96 187.60
  Q 222.59 193.06 210.49 200.00
  Q 185.69 214.23 185.05 214.55
  Q 180.61 216.75 179.81 216.91
  A 0.41 0.40 67.8 0 0 179.55 217.54"
/>
<path stroke="#808080" vector-effect="non-scaling-stroke" d="
  M 183.73 236.65
  L 179.95 238.81
  A 2.08 2.08 0.0 0 1 177.24 238.24
  L 177.21 238.20
  A 2.10 2.08 56.7 0 1 177.82 235.21
  L 183.53 231.71
  A 1.20 1.20 0.0 0 0 183.92 230.04
  L 181.68 226.56
  A 1.26 1.25 -29.7 0 0 180.05 226.12
  Q 174.82 228.80 170.60 230.09
  Q 169.47 230.44 168.59 229.75
  A 1.40 1.33 37.6 0 1 168.30 227.85
  C 170.03 225.61 174.74 223.93 177.61 222.72
  A 0.48 0.47 -37.6 0 0 177.72 221.91
  C 174.81 219.66 173.10 218.69 169.16 218.54
  Q 161.76 218.26 155.60 219.97
  C 144.24 223.12 131.27 229.99 128.77 242.69
  Q 127.66 248.35 131.28 252.51
  C 135.78 257.67 138.91 261.93 146.27 262.45
  Q 151.85 262.84 158.39 261.69
  Q 164.63 260.59 169.47 257.20
  Q 180.00 249.83 184.38 237.18
  A 0.45 0.44 -5.4 0 0 183.73 236.65"
/>
<path stroke="#808080" vector-effect="non-scaling-stroke" d="
  M 85.59 229.32
  Q 87.40 230.40 88.43 232.35
  C 91.60 238.35 90.98 244.08 89.50 250.70
  C 88.39 255.66 86.77 258.01 82.66 261.21
  A 0.72 0.72 0.0 0 0 82.50 262.18
  L 82.51 262.20
  A 0.69 0.69 0.0 0 0 83.45 262.41
  Q 89.68 258.65 94.25 263.99
  Q 97.08 267.28 96.21 271.24
  A 0.52 0.52 0.0 0 0 96.61 271.86
  Q 100.41 272.62 104.75 272.70
  C 109.95 272.81 114.74 267.81 117.06 263.56
  A 0.85 0.84 -53.8 0 0 116.91 262.56
  Q 112.37 258.06 106.54 250.52
  Q 95.38 236.10 88.63 226.54
  A 0.70 0.70 0.0 0 0 87.56 226.45
  L 85.49 228.51
  A 0.52 0.52 0.0 0 0 85.59 229.32"
/>
<path stroke="#6d6d6d" vector-effect="non-scaling-stroke" d="
  M 82.62 233.17
  C 78.99 240.45 77.15 248.95 79.97 256.83
  A 0.75 0.75 0.0 0 0 81.20 257.11
  C 84.68 253.70 85.46 249.16 86.12 244.38
  Q 86.96 238.22 83.66 233.12
  A 0.60 0.60 0.0 0 0 82.62 233.17"
/>
<path stroke="#6d6d6d" vector-effect="non-scaling-stroke" d="
  M 124.07 246.99
  A 0.11 0.10 -7.2 0 0 123.99 247.09
  L 124.68 261.70
  A 0.60 0.60 0.0 0 0 125.70 262.10
  L 128.96 258.84
  A 0.71 0.71 0.0 0 0 129.03 257.92
  Q 125.66 253.27 124.30 247.15
  A 0.20 0.20 0.0 0 0 124.07 246.99"
/>
<path stroke="#6d6d6d" vector-effect="non-scaling-stroke" d="
  M 85.80 266.20
  L 91.54 270.70
  A 0.13 0.13 0.0 0 0 91.73 270.68
  L 91.77 270.63
  A 3.63 2.32 38.1 0 0 90.35 266.56
  L 90.11 266.38
  A 3.63 2.32 38.1 0 0 85.82 265.96
  L 85.78 266.02
  A 0.13 0.13 0.0 0 0 85.80 266.20"
/>
<path stroke="#808080" vector-effect="non-scaling-stroke" d="
  M 207.1989 138.6085
  A 5.76 4.55 -171.8 0 0 212.2510 143.9335
  A 5.76 4.55 -171.8 0 0 218.6011 140.2515
  A 5.76 4.55 -171.8 0 0 213.5490 134.9265
  A 5.76 4.55 -171.8 0 0 207.1989 138.6085"
/>
<path stroke="#808080" vector-effect="non-scaling-stroke" d="
  M 103.56 145.31
  Q 100.95 143.12 98.13 145.31
  C 93.10 149.22 90.64 154.86 88.56 160.87
  Q 86.26 167.53 87.40 177.55
  C 88.59 187.98 95.00 197.48 105.60 199.55
  C 116.85 201.75 124.78 192.64 127.25 182.76
  A 2.20 2.19 17.6 0 0 125.91 180.18
  L 125.84 180.15
  A 1.96 1.95 -68.2 0 0 123.32 181.23
  C 119.96 189.41 115.19 197.90 105.01 194.77
  C 98.90 192.89 94.40 187.46 92.80 181.37
  Q 88.64 165.51 97.83 151.59
  Q 99.85 148.53 103.26 147.18
  A 1.11 1.10 -36.0 0 0 103.56 145.31"
/>
<path stroke="#808080" vector-effect="non-scaling-stroke" d="
  M 159.63 200.10
  Q 160.30 199.31 160.21 198.21
  Q 159.36 187.42 163.36 178.66
  C 167.08 170.53 172.80 162.28 180.15 157.21
  C 191.20 149.59 204.94 146.91 216.12 155.26
  C 219.54 157.81 221.32 161.37 223.86 164.92
  A 2.53 2.52 -28.1 0 0 226.82 165.81
  L 226.90 165.78
  A 1.81 1.81 0.0 0 0 227.84 163.22
  C 223.26 154.84 218.35 149.31 208.81 146.64
  C 195.18 142.83 179.82 149.49 170.51 159.66
  Q 161.14 169.90 157.13 182.84
  C 155.51 188.07 154.67 194.66 156.96 199.73
  A 1.59 1.59 0.0 0 0 159.63 200.10"
/>
<path stroke="#808080" vector-effect="non-scaling-stroke" d="
  M 181.09 164.35
  C 181.85 166.14 183.68 167.84 185.39 168.84
  C 191.47 172.39 196.95 162.81 198.86 158.09
  A 1.77 1.76 -41.8 0 0 198.93 156.95
  Q 198.31 154.64 195.95 154.22
  A 2.33 2.31 -45.3 0 0 195.07 154.23
  Q 186.90 155.78 181.35 162.54
  A 1.79 1.78 -37.0 0 0 181.09 164.35"
/>
<path stroke="#808080" vector-effect="non-scaling-stroke" d="
  M 154.0691 165.7965
  A 5.83 4.82 -65.7 0 0 147.2770 169.1265
  A 5.83 4.82 -65.7 0 0 149.2709 176.4235
  A 5.83 4.82 -65.7 0 0 156.0630 173.0935
  A 5.83 4.82 -65.7 0 0 154.0691 165.7965"
/>
<path stroke="#808080" vector-effect="non-scaling-stroke" d="
  M 212.05 138.20
  A 1.39 1.39 0.0 0 0 210.66 136.81
  A 1.39 1.39 0.0 0 0 209.27 138.20
  A 1.39 1.39 0.0 0 0 210.66 139.59
  A 1.39 1.39 0.0 0 0 212.05 138.20"
/>
<path stroke="#808080" vector-effect="non-scaling-stroke" d="
  M 195.5822 156.1193
  A 2.62 1.10 -24.6 0 0 192.7421 156.2098
  A 2.62 1.10 -24.6 0 0 190.8178 158.3007
  A 2.62 1.10 -24.6 0 0 193.6579 158.2102
  A 2.62 1.10 -24.6 0 0 195.5822 156.1193"
/>
<path stroke="#808080" vector-effect="non-scaling-stroke" d="
  M 153.59 168.60
  A 1.39 1.39 0.0 0 0 152.20 167.21
  A 1.39 1.39 0.0 0 0 150.81 168.60
  A 1.39 1.39 0.0 0 0 152.20 169.99
  A 1.39 1.39 0.0 0 0 153.59 168.60"
/>
</g>
<path fill="#000000" d="
  M 194.10 227.38
  L 189.05 230.17
  A 0.67 0.67 0.0 0 0 188.72 230.89
  C 190.40 238.52 185.49 247.44 180.48 253.16
  C 178.17 255.80 175.82 257.27 173.49 259.49
  C 164.51 268.04 148.62 270.00 137.58 264.81
  C 136.08 264.10 134.39 262.52 133.55 262.18
  A 0.88 0.86 32.5 0 0 132.60 262.38
  Q 130.68 264.38 124.37 267.14
  Q 122.07 268.14 120.76 267.50
  A 0.70 0.70 0.0 0 0 119.87 267.74
  C 116.71 272.46 110.94 277.40 105.02 277.28
  C 96.07 277.11 87.52 275.21 81.56 268.19
  Q 73.10 258.22 74.09 245.33
  C 75.39 237.50 78.43 228.33 84.92 223.06
  A 1.10 1.10 0.0 0 0 85.16 221.61
  L 83.42 218.91
  A 0.97 0.97 0.0 0 0 82.02 218.66
  Q 80.26 219.99 78.81 220.37
  Q 66.56 223.58 53.05 218.71
  Q 42.34 214.85 35.04 208.19
  Q 4.79 180.56 7.79 138.93
  Q 7.80 138.80 7.87 137.05
  C 7.97 134.89 9.72 130.80 12.41 133.91
  Q 13.36 135.00 13.96 135.51
  A 0.35 0.35 0.0 0 0 14.53 135.28
  Q 14.55 135.10 13.95 131.10
  Q 13.62 128.94 13.70 126.91
  Q 14.40 108.84 23.87 94.13
  Q 27.14 89.06 34.69 82.21
  Q 48.89 69.32 68.51 66.57
  C 82.71 64.58 99.19 68.10 109.18 78.78
  Q 114.22 84.17 117.80 89.71
  C 120.92 94.55 122.23 103.08 118.54 108.35
  A 1.95 1.94 46.0 0 1 115.32 108.29
  Q 111.39 102.27 105.11 106.21
  C 97.10 111.25 98.05 122.49 103.98 128.62
  A 0.98 0.97 52.0 0 0 105.20 128.77
  Q 139.66 107.27 172.95 88.98
  Q 192.58 78.19 203.37 73.39
  Q 205.63 72.38 207.79 71.67
  A 3.29 2.88 66.3 0 1 211.42 73.37
  Q 211.96 74.41 212.59 74.95
  A 1.89 1.85 63.4 0 0 213.87 75.39
  Q 220.14 75.17 221.75 75.51
  Q 234.06 78.14 244.25 85.05
  C 251.48 89.95 254.66 96.38 256.13 104.35
  C 257.55 112.08 251.07 120.88 243.24 121.79
  A 0.45 0.45 0.0 0 0 242.90 122.45
  L 257.25 148.30
  A 1.29 1.29 0.0 0 0 258.80 148.90
  Q 274.44 143.59 286.14 154.26
  C 294.31 161.71 294.87 174.75 289.15 183.88
  C 285.60 189.53 283.06 192.73 277.14 196.09
  Q 268.34 201.10 260.57 203.15
  C 257.51 203.96 252.51 204.73 250.16 203.84
  Q 246.63 202.50 243.38 201.15
  A 1.57 1.54 -46.6 0 0 242.11 201.20
  Q 228.63 207.94 216.25 214.92
  Q 205.23 221.13 194.10 227.38
  Z
  M 80.06 214.27
  Q 70.41 199.78 64.28 190.49
  C 61.53 186.31 59.96 183.98 60.00 180.25
  Q 60.20 164.37 60.18 162.74
  C 60.14 159.65 60.85 158.84 63.43 156.95
  Q 83.61 142.23 99.91 131.88
  A 0.51 0.51 0.0 0 0 100.02 131.11
  C 93.83 124.00 92.62 112.78 99.17 105.25
  C 103.08 100.77 110.23 98.04 115.46 101.92
  A 0.43 0.42 -68.7 0 0 116.13 101.62
  C 116.92 94.81 112.60 89.74 108.16 84.46
  C 92.01 65.22 62.65 67.78 43.66 80.98
  Q 32.84 88.49 26.81 98.05
  Q 17.55 112.75 18.45 131.94
  A 15.09 14.89 -55.7 0 0 19.19 135.99
  Q 20.35 139.53 20.90 141.53
  A 1.97 1.86 72.9 0 1 19.74 143.88
  Q 19.38 144.00 19.09 143.89
  Q 15.18 142.41 12.34 140.63
  A 0.21 0.21 0.0 0 0 12.01 140.81
  C 12.00 148.50 12.09 155.29 13.46 162.23
  Q 18.96 190.00 42.32 208.11
  Q 48.64 213.00 59.52 215.86
  Q 70.55 218.75 79.79 215.14
  A 0.58 0.58 0.0 0 0 80.06 214.27
  Z
  M 66.07 160.33
  Q 68.76 163.75 70.88 166.86
  Q 88.50 192.68 104.39 217.57
  Q 106.66 221.13 117.49 235.51
  C 119.08 237.62 120.52 240.12 121.97 242.00
  A 1.31 1.27 56.4 0 0 123.61 242.36
  Q 124.20 242.03 124.38 241.35
  C 129.40 221.92 152.86 212.72 170.75 214.09
  C 172.63 214.24 174.15 214.86 175.59 214.87
  A 2.29 2.22 29.2 0 0 176.72 214.57
  Q 193.16 205.16 208.79 196.04
  Q 220.14 189.42 232.59 183.51
  A 2.07 2.06 -9.9 0 0 233.76 181.86
  C 235.05 169.71 243.00 156.74 253.52 151.11
  A 0.74 0.74 0.0 0 0 253.86 150.18
  C 253.50 149.30 252.51 148.47 251.96 147.41
  Q 244.60 132.96 233.15 114.60
  Q 219.20 92.23 211.61 81.03
  C 210.86 79.92 209.80 77.83 208.94 76.25
  A 0.73 0.72 62.9 0 0 207.98 75.94
  Q 173.91 92.66 139.12 113.37
  Q 106.70 132.68 93.19 141.31
  C 85.20 146.42 74.30 154.46 66.15 159.84
  A 0.34 0.34 0.0 0 0 66.07 160.33
  Z
  M 215.69 79.53
  A 0.14 0.13 73.0 0 0 215.58 79.74
  L 239.93 117.69
  A 0.53 0.53 0.0 0 0 240.44 117.93
  Q 247.63 117.21 250.74 110.55
  C 252.87 105.99 250.82 100.39 248.57 96.09
  C 243.68 86.70 225.63 79.58 215.69 79.53
  Z
  M 239.05 186.07
  L 244.01 182.88
  A 2.50 2.49 -37.8 0 1 247.19 183.28
  L 247.27 183.37
  A 1.82 1.82 0.0 0 1 246.85 186.04
  L 240.68 190.06
  A 0.95 0.94 -39.0 0 0 240.52 191.52
  L 244.03 195.03
  A 1.08 1.07 -43.6 0 0 245.51 195.06
  Q 247.59 193.16 250.65 191.73
  A 2.65 1.92 -29.2 0 1 253.56 192.07
  C 255.18 194.23 250.49 196.92 248.89 197.87
  A 0.54 0.53 -51.0 0 0 248.99 198.84
  C 254.83 200.81 262.61 198.18 268.02 195.59
  C 275.44 192.03 280.24 189.67 284.49 183.01
  Q 289.24 175.55 288.25 167.99
  C 286.95 158.02 277.43 151.23 267.82 151.71
  C 255.52 152.33 246.41 160.45 241.25 171.51
  Q 237.75 179.02 238.47 185.80
  A 0.38 0.37 -19.6 0 0 239.05 186.07
  Z
  M 64.57 165.65
  L 64.57 181.06
  A 4.54 4.47 32.3 0 0 65.03 183.04
  Q 66.40 185.82 69.11 189.90
  Q 71.92 194.11 82.41 209.85
  Q 99.80 235.97 119.90 260.24
  A 0.34 0.33 -66.6 0 0 120.49 260.00
  L 119.81 245.33
  A 2.44 2.44 0.0 0 0 119.11 243.72
  Q 115.58 240.11 114.37 238.62
  Q 105.28 227.37 95.91 212.74
  C 83.74 193.72 77.10 184.26 64.90 165.55
  A 0.18 0.18 0.0 0 0 64.57 165.65
  Z
  M 179.55 217.54
  C 180.26 218.59 182.46 220.05 183.41 221.12
  Q 185.14 223.06 186.99 226.44
  A 0.57 0.57 0.0 0 0 187.81 226.64
  Q 193.65 222.72 200.31 219.07
  C 213.65 211.76 225.78 204.64 239.31 197.72
  A 0.52 0.52 0.0 0 0 239.44 196.88
  Q 235.64 193.15 234.67 187.96
  A 0.50 0.50 0.0 0 0 233.96 187.60
  Q 222.59 193.06 210.49 200.00
  Q 185.69 214.23 185.05 214.55
  Q 180.61 216.75 179.81 216.91
  A 0.41 0.40 67.8 0 0 179.55 217.54
  Z
  M 183.73 236.65
  L 179.95 238.81
  A 2.08 2.08 0.0 0 1 177.24 238.24
  L 177.21 238.20
  A 2.10 2.08 56.7 0 1 177.82 235.21
  L 183.53 231.71
  A 1.20 1.20 0.0 0 0 183.92 230.04
  L 181.68 226.56
  A 1.26 1.25 -29.7 0 0 180.05 226.12
  Q 174.82 228.80 170.60 230.09
  Q 169.47 230.44 168.59 229.75
  A 1.40 1.33 37.6 0 1 168.30 227.85
  C 170.03 225.61 174.74 223.93 177.61 222.72
  A 0.48 0.47 -37.6 0 0 177.72 221.91
  C 174.81 219.66 173.10 218.69 169.16 218.54
  Q 161.76 218.26 155.60 219.97
  C 144.24 223.12 131.27 229.99 128.77 242.69
  Q 127.66 248.35 131.28 252.51
  C 135.78 257.67 138.91 261.93 146.27 262.45
  Q 151.85 262.84 158.39 261.69
  Q 164.63 260.59 169.47 257.20
  Q 180.00 249.83 184.38 237.18
  A 0.45 0.44 -5.4 0 0 183.73 236.65
  Z
  M 85.59 229.32
  Q 87.40 230.40 88.43 232.35
  C 91.60 238.35 90.98 244.08 89.50 250.70
  C 88.39 255.66 86.77 258.01 82.66 261.21
  A 0.72 0.72 0.0 0 0 82.50 262.18
  L 82.51 262.20
  A 0.69 0.69 0.0 0 0 83.45 262.41
  Q 89.68 258.65 94.25 263.99
  Q 97.08 267.28 96.21 271.24
  A 0.52 0.52 0.0 0 0 96.61 271.86
  Q 100.41 272.62 104.75 272.70
  C 109.95 272.81 114.74 267.81 117.06 263.56
  A 0.85 0.84 -53.8 0 0 116.91 262.56
  Q 112.37 258.06 106.54 250.52
  Q 95.38 236.10 88.63 226.54
  A 0.70 0.70 0.0 0 0 87.56 226.45
  L 85.49 228.51
  A 0.52 0.52 0.0 0 0 85.59 229.32
  Z
  M 82.62 233.17
  C 78.99 240.45 77.15 248.95 79.97 256.83
  A 0.75 0.75 0.0 0 0 81.20 257.11
  C 84.68 253.70 85.46 249.16 86.12 244.38
  Q 86.96 238.22 83.66 233.12
  A 0.60 0.60 0.0 0 0 82.62 233.17
  Z
  M 124.07 246.99
  A 0.11 0.10 -7.2 0 0 123.99 247.09
  L 124.68 261.70
  A 0.60 0.60 0.0 0 0 125.70 262.10
  L 128.96 258.84
  A 0.71 0.71 0.0 0 0 129.03 257.92
  Q 125.66 253.27 124.30 247.15
  A 0.20 0.20 0.0 0 0 124.07 246.99
  Z
  M 85.80 266.20
  L 91.54 270.70
  A 0.13 0.13 0.0 0 0 91.73 270.68
  L 91.77 270.63
  A 3.63 2.32 38.1 0 0 90.35 266.56
  L 90.11 266.38
  A 3.63 2.32 38.1 0 0 85.82 265.96
  L 85.78 266.02
  A 0.13 0.13 0.0 0 0 85.80 266.20
  Z"
/>
<path fill="#ffffff" d="
  M 79.79 215.14
  Q 70.55 218.75 59.52 215.86
  Q 48.64 213.00 42.32 208.11
  Q 18.96 190.00 13.46 162.23
  C 12.09 155.29 12.00 148.50 12.01 140.81
  A 0.21 0.21 0.0 0 1 12.34 140.63
  Q 15.18 142.41 19.09 143.89
  Q 19.38 144.00 19.74 143.88
  A 1.97 1.86 72.9 0 0 20.90 141.53
  Q 20.35 139.53 19.19 135.99
  A 15.09 14.89 -55.7 0 1 18.45 131.94
  Q 17.55 112.75 26.81 98.05
  Q 32.84 88.49 43.66 80.98
  C 62.65 67.78 92.01 65.22 108.16 84.46
  C 112.60 89.74 116.92 94.81 116.13 101.62
  A 0.43 0.42 -68.7 0 1 115.46 101.92
  C 110.23 98.04 103.08 100.77 99.17 105.25
  C 92.62 112.78 93.83 124.00 100.02 131.11
  A 0.51 0.51 0.0 0 1 99.91 131.88
  Q 83.61 142.23 63.43 156.95
  C 60.85 158.84 60.14 159.65 60.18 162.74
  Q 60.20 164.37 60.00 180.25
  C 59.96 183.98 61.53 186.31 64.28 190.49
  Q 70.41 199.78 80.06 214.27
  A 0.58 0.58 0.0 0 1 79.79 215.14
  Z"
/>
<path fill="#ffffff" d="
  M 66.07 160.33
  A 0.34 0.34 0.0 0 1 66.15 159.84
  C 74.30 154.46 85.20 146.42 93.19 141.31
  Q 106.70 132.68 139.12 113.37
  Q 173.91 92.66 207.98 75.94
  A 0.73 0.72 62.9 0 1 208.94 76.25
  C 209.80 77.83 210.86 79.92 211.61 81.03
  Q 219.20 92.23 233.15 114.60
  Q 244.60 132.96 251.96 147.41
  C 252.51 148.47 253.50 149.30 253.86 150.18
  A 0.74 0.74 0.0 0 1 253.52 151.11
  C 243.00 156.74 235.05 169.71 233.76 181.86
  A 2.07 2.06 -9.9 0 1 232.59 183.51
  Q 220.14 189.42 208.79 196.04
  Q 193.16 205.16 176.72 214.57
  A 2.29 2.22 29.2 0 1 175.59 214.87
  C 174.15 214.86 172.63 214.24 170.75 214.09
  C 152.86 212.72 129.40 221.92 124.38 241.35
  Q 124.20 242.03 123.61 242.36
  A 1.31 1.27 56.4 0 1 121.97 242.00
  C 120.52 240.12 119.08 237.62 117.49 235.51
  Q 106.66 221.13 104.39 217.57
  Q 88.50 192.68 70.88 166.86
  Q 68.76 163.75 66.07 160.33
  Z
  M 207.1989 138.6085
  A 5.76 4.55 -171.8 0 0 212.2510 143.9335
  A 5.76 4.55 -171.8 0 0 218.6011 140.2515
  A 5.76 4.55 -171.8 0 0 213.5490 134.9265
  A 5.76 4.55 -171.8 0 0 207.1989 138.6085
  Z
  M 103.56 145.31
  Q 100.95 143.12 98.13 145.31
  C 93.10 149.22 90.64 154.86 88.56 160.87
  Q 86.26 167.53 87.40 177.55
  C 88.59 187.98 95.00 197.48 105.60 199.55
  C 116.85 201.75 124.78 192.64 127.25 182.76
  A 2.20 2.19 17.6 0 0 125.91 180.18
  L 125.84 180.15
  A 1.96 1.95 -68.2 0 0 123.32 181.23
  C 119.96 189.41 115.19 197.90 105.01 194.77
  C 98.90 192.89 94.40 187.46 92.80 181.37
  Q 88.64 165.51 97.83 151.59
  Q 99.85 148.53 103.26 147.18
  A 1.11 1.10 -36.0 0 0 103.56 145.31
  Z
  M 159.63 200.10
  Q 160.30 199.31 160.21 198.21
  Q 159.36 187.42 163.36 178.66
  C 167.08 170.53 172.80 162.28 180.15 157.21
  C 191.20 149.59 204.94 146.91 216.12 155.26
  C 219.54 157.81 221.32 161.37 223.86 164.92
  A 2.53 2.52 -28.1 0 0 226.82 165.81
  L 226.90 165.78
  A 1.81 1.81 0.0 0 0 227.84 163.22
  C 223.26 154.84 218.35 149.31 208.81 146.64
  C 195.18 142.83 179.82 149.49 170.51 159.66
  Q 161.14 169.90 157.13 182.84
  C 155.51 188.07 154.67 194.66 156.96 199.73
  A 1.59 1.59 0.0 0 0 159.63 200.10
  Z
  M 181.09 164.35
  C 181.85 166.14 183.68 167.84 185.39 168.84
  C 191.47 172.39 196.95 162.81 198.86 158.09
  A 1.77 1.76 -41.8 0 0 198.93 156.95
  Q 198.31 154.64 195.95 154.22
  A 2.33 2.31 -45.3 0 0 195.07 154.23
  Q 186.90 155.78 181.35 162.54
  A 1.79 1.78 -37.0 0 0 181.09 164.35
  Z
  M 154.0691 165.7965
  A 5.83 4.82 -65.7 0 0 147.2770 169.1265
  A 5.83 4.82 -65.7 0 0 149.2709 176.4235
  A 5.83 4.82 -65.7 0 0 156.0630 173.0935
  A 5.83 4.82 -65.7 0 0 154.0691 165.7965
  Z"
/>
<path fill="#ffffff" d="
  M 215.69 79.53
  C 225.63 79.58 243.68 86.70 248.57 96.09
  C 250.82 100.39 252.87 105.99 250.74 110.55
  Q 247.63 117.21 240.44 117.93
  A 0.53 0.53 0.0 0 1 239.93 117.69
  L 215.58 79.74
  A 0.14 0.13 73.0 0 1 215.69 79.53
  Z"
/>
<path fill="#000000" d="
  M 207.1989 138.6085
  A 5.76 4.55 -171.8 0 1 213.5490 134.9265
  A 5.76 4.55 -171.8 0 1 218.6011 140.2515
  A 5.76 4.55 -171.8 0 1 212.2510 143.9335
  A 5.76 4.55 -171.8 0 1 207.1989 138.6085
  Z
  M 212.05 138.20
  A 1.39 1.39 0.0 0 0 210.66 136.81
  A 1.39 1.39 0.0 0 0 209.27 138.20
  A 1.39 1.39 0.0 0 0 210.66 139.59
  A 1.39 1.39 0.0 0 0 212.05 138.20
  Z"
/>
<circle fill="#ffffff" cx="210.66" cy="138.20" r="1.39"/>
<path fill="#000000" d="
  M 103.56 145.31
  A 1.11 1.10 -36.0 0 1 103.26 147.18
  Q 99.85 148.53 97.83 151.59
  Q 88.64 165.51 92.80 181.37
  C 94.40 187.46 98.90 192.89 105.01 194.77
  C 115.19 197.90 119.96 189.41 123.32 181.23
  A 1.96 1.95 -68.2 0 1 125.84 180.15
  L 125.91 180.18
  A 2.20 2.19 17.6 0 1 127.25 182.76
  C 124.78 192.64 116.85 201.75 105.60 199.55
  C 95.00 197.48 88.59 187.98 87.40 177.55
  Q 86.26 167.53 88.56 160.87
  C 90.64 154.86 93.10 149.22 98.13 145.31
  Q 100.95 143.12 103.56 145.31
  Z"
/>
<path fill="#000000" d="
  M 159.63 200.10
  A 1.59 1.59 0.0 0 1 156.96 199.73
  C 154.67 194.66 155.51 188.07 157.13 182.84
  Q 161.14 169.90 170.51 159.66
  C 179.82 149.49 195.18 142.83 208.81 146.64
  C 218.35 149.31 223.26 154.84 227.84 163.22
  A 1.81 1.81 0.0 0 1 226.90 165.78
  L 226.82 165.81
  A 2.53 2.52 -28.1 0 1 223.86 164.92
  C 221.32 161.37 219.54 157.81 216.12 155.26
  C 204.94 146.91 191.20 149.59 180.15 157.21
  C 172.80 162.28 167.08 170.53 163.36 178.66
  Q 159.36 187.42 160.21 198.21
  Q 160.30 199.31 159.63 200.10
  Z"
/>
<path fill="#ffffff" d="
  M 238.47 185.80
  Q 237.75 179.02 241.25 171.51
  C 246.41 160.45 255.52 152.33 267.82 151.71
  C 277.43 151.23 286.95 158.02 288.25 167.99
  Q 289.24 175.55 284.49 183.01
  C 280.24 189.67 275.44 192.03 268.02 195.59
  C 262.61 198.18 254.83 200.81 248.99 198.84
  A 0.54 0.53 -51.0 0 1 248.89 197.87
  C 250.49 196.92 255.18 194.23 253.56 192.07
  A 2.65 1.92 -29.2 0 0 250.65 191.73
  Q 247.59 193.16 245.51 195.06
  A 1.08 1.07 -43.6 0 1 244.03 195.03
  L 240.52 191.52
  A 0.95 0.94 -39.0 0 1 240.68 190.06
  L 246.85 186.04
  A 1.82 1.82 0.0 0 0 247.27 183.37
  L 247.19 183.28
  A 2.50 2.49 -37.8 0 0 244.01 182.88
  L 239.05 186.07
  A 0.38 0.37 -19.6 0 1 238.47 185.80
  Z"
/>
<path fill="#000000" d="
  M 181.09 164.35
  A 1.79 1.78 -37.0 0 1 181.35 162.54
  Q 186.90 155.78 195.07 154.23
  A 2.33 2.31 -45.3 0 1 195.95 154.22
  Q 198.31 154.64 198.93 156.95
  A 1.77 1.76 -41.8 0 1 198.86 158.09
  C 196.95 162.81 191.47 172.39 185.39 168.84
  C 183.68 167.84 181.85 166.14 181.09 164.35
  Z
  M 195.5822 156.1193
  A 2.62 1.10 -24.6 0 0 192.7421 156.2098
  A 2.62 1.10 -24.6 0 0 190.8178 158.3007
  A 2.62 1.10 -24.6 0 0 193.6579 158.2102
  A 2.62 1.10 -24.6 0 0 195.5822 156.1193
  Z"
/>
<ellipse fill="#ffffff" cx="0.00" cy="0.00" transform="translate(193.20,157.21) rotate(-24.6)" rx="2.62" ry="1.10"/>
<path fill="#d9d9d9" d="
  M 64.90 165.55
  C 77.10 184.26 83.74 193.72 95.91 212.74
  Q 105.28 227.37 114.37 238.62
  Q 115.58 240.11 119.11 243.72
  A 2.44 2.44 0.0 0 1 119.81 245.33
  L 120.49 260.00
  A 0.34 0.33 -66.6 0 1 119.90 260.24
  Q 99.80 235.97 82.41 209.85
  Q 71.92 194.11 69.11 189.90
  Q 66.40 185.82 65.03 183.04
  A 4.54 4.47 32.3 0 1 64.57 181.06
  L 64.57 165.65
  A 0.18 0.18 0.0 0 1 64.90 165.55
  Z"
/>
<path fill="#000000" d="
  M 154.0691 165.7965
  A 5.83 4.82 -65.7 0 1 156.0630 173.0935
  A 5.83 4.82 -65.7 0 1 149.2709 176.4235
  A 5.83 4.82 -65.7 0 1 147.2770 169.1265
  A 5.83 4.82 -65.7 0 1 154.0691 165.7965
  Z
  M 153.59 168.60
  A 1.39 1.39 0.0 0 0 152.20 167.21
  A 1.39 1.39 0.0 0 0 150.81 168.60
  A 1.39 1.39 0.0 0 0 152.20 169.99
  A 1.39 1.39 0.0 0 0 153.59 168.60
  Z"
/>
<circle fill="#ffffff" cx="152.20" cy="168.60" r="1.39"/>
<path fill="#d9d9d9" d="
  M 179.81 216.91
  Q 180.61 216.75 185.05 214.55
  Q 185.69 214.23 210.49 200.00
  Q 222.59 193.06 233.96 187.60
  A 0.50 0.50 0.0 0 1 234.67 187.96
  Q 235.64 193.15 239.44 196.88
  A 0.52 0.52 0.0 0 1 239.31 197.72
  C 225.78 204.64 213.65 211.76 200.31 219.07
  Q 193.65 222.72 187.81 226.64
  A 0.57 0.57 0.0 0 1 186.99 226.44
  Q 185.14 223.06 183.41 221.12
  C 182.46 220.05 180.26 218.59 179.55 217.54
  A 0.41 0.40 67.8 0 1 179.81 216.91
  Z"
/>
<path fill="#ffffff" d="
  M 183.73 236.65
  A 0.45 0.44 -5.4 0 1 184.38 237.18
  Q 180.00 249.83 169.47 257.20
  Q 164.63 260.59 158.39 261.69
  Q 151.85 262.84 146.27 262.45
  C 138.91 261.93 135.78 257.67 131.28 252.51
  Q 127.66 248.35 128.77 242.69
  C 131.27 229.99 144.24 223.12 155.60 219.97
  Q 161.76 218.26 169.16 218.54
  C 173.10 218.69 174.81 219.66 177.72 221.91
  A 0.48 0.47 -37.6 0 1 177.61 222.72
  C 174.74 223.93 170.03 225.61 168.30 227.85
  A 1.40 1.33 37.6 0 0 168.59 229.75
  Q 169.47 230.44 170.60 230.09
  Q 174.82 228.80 180.05 226.12
  A 1.26 1.25 -29.7 0 1 181.68 226.56
  L 183.92 230.04
  A 1.20 1.20 0.0 0 1 183.53 231.71
  L 177.82 235.21
  A 2.10 2.08 56.7 0 0 177.21 238.20
  L 177.24 238.24
  A 2.08 2.08 0.0 0 0 179.95 238.81
  L 183.73 236.65
  Z"
/>
<path fill="#ffffff" d="
  M 85.49 228.51
  L 87.56 226.45
  A 0.70 0.70 0.0 0 1 88.63 226.54
  Q 95.38 236.10 106.54 250.52
  Q 112.37 258.06 116.91 262.56
  A 0.85 0.84 -53.8 0 1 117.06 263.56
  C 114.74 267.81 109.95 272.81 104.75 272.70
  Q 100.41 272.62 96.61 271.86
  A 0.52 0.52 0.0 0 1 96.21 271.24
  Q 97.08 267.28 94.25 263.99
  Q 89.68 258.65 83.45 262.41
  A 0.69 0.69 0.0 0 1 82.51 262.20
  L 82.50 262.18
  A 0.72 0.72 0.0 0 1 82.66 261.21
  C 86.77 258.01 88.39 255.66 89.50 250.70
  C 90.98 244.08 91.60 238.35 88.43 232.35
  Q 87.40 230.40 85.59 229.32
  A 0.52 0.52 0.0 0 1 85.49 228.51
  Z"
/>
<path fill="#d9d9d9" d="
  M 74.09 245.33
  Q 73.10 258.22 81.56 268.19
  C 87.52 275.21 96.07 277.11 105.02 277.28
  C 110.94 277.40 116.71 272.46 119.87 267.74
  A 0.70 0.70 0.0 0 1 120.76 267.50
  Q 122.07 268.14 124.37 267.14
  Q 130.68 264.38 132.60 262.38
  A 0.88 0.86 32.5 0 1 133.55 262.18
  C 134.39 262.52 136.08 264.10 137.58 264.81
  C 148.62 270.00 164.51 268.04 173.49 259.49
  C 175.82 257.27 178.17 255.80 180.48 253.16
  C 185.49 247.44 190.40 238.52 188.72 230.89
  A 0.67 0.67 0.0 0 1 189.05 230.17
  L 194.10 227.38
  Q 211.09 228.57 225.09 234.89
  Q 231.96 237.99 239.19 244.77
  A 7.33 7.20 -81.4 0 1 240.83 247.04
  Q 243.00 251.77 243.01 251.80
  Q 244.61 257.95 241.46 263.44
  Q 236.83 271.51 230.00 275.69
  C 221.90 280.63 212.72 283.82 201.48 285.52
  Q 178.34 289.01 171.94 289.40
  C 151.70 290.63 132.38 289.53 111.63 288.81
  C 106.81 288.64 102.03 287.95 98.25 287.50
  C 86.65 286.12 70.56 280.14 65.42 268.41
  A 3.65 3.60 29.4 0 1 65.17 267.54
  C 64.67 264.37 63.48 261.31 64.88 258.10
  Q 68.08 250.75 74.09 245.33
  Z"
/>
<path fill="#d9d9d9" d="
  M 82.62 233.17
  A 0.60 0.60 0.0 0 1 83.66 233.12
  Q 86.96 238.22 86.12 244.38
  C 85.46 249.16 84.68 253.70 81.20 257.11
  A 0.75 0.75 0.0 0 1 79.97 256.83
  C 77.15 248.95 78.99 240.45 82.62 233.17
  Z"
/>
<path fill="#d9d9d9" d="
  M 124.30 247.15
  Q 125.66 253.27 129.03 257.92
  A 0.71 0.71 0.0 0 1 128.96 258.84
  L 125.70 262.10
  A 0.60 0.60 0.0 0 1 124.68 261.70
  L 123.99 247.09
  A 0.11 0.10 -7.2 0 1 124.07 246.99
  A 0.20 0.20 0.0 0 1 124.30 247.15
  Z"
/>
<path fill="#d9d9d9" d="
  M 85.80 266.20
  A 0.13 0.13 0.0 0 1 85.78 266.02
  L 85.82 265.96
  A 3.63 2.32 38.1 0 1 90.11 266.38
  L 90.35 266.56
  A 3.63 2.32 38.1 0 1 91.77 270.63
  L 91.73 270.68
  A 0.13 0.13 0.0 0 1 91.54 270.70
  L 85.80 266.20
  Z"
/>
</svg>
