<?xml version="1.0" encoding="UTF-8" standalone="no"?>
<!DOCTYPE svg PUBLIC "-//W3C//DTD SVG 1.1//EN" "http://www.w3.org/Graphics/SVG/1.1/DTD/svg11.dtd">
<svg xmlns="http://www.w3.org/2000/svg" version="1.1" viewBox="0.00 0.00 300.00 300.00" width="300.00" height="300.00">
<g stroke-width="2.00" fill="none" stroke-linecap="butt">
<path stroke="#6d6d6d" vector-effect="non-scaling-stroke" d="
  M 225.98 245.40
  Q 226.79 261.99 215.04 271.58
  Q 211.02 274.86 203.95 276.28
  C 196.94 277.69 191.47 278.25 185.77 273.74
  Q 181.69 270.50 180.21 267.75
  A 0.67 0.67 0.0 0 0 179.42 267.42
  C 178.36 267.72 177.72 267.89 176.73 267.53
  Q 170.96 265.44 167.37 262.38
  A 0.80 0.78 -41.9 0 0 166.40 262.34
  Q 157.39 268.81 144.56 267.37
  Q 137.04 266.52 131.54 263.28
  C 128.52 261.51 126.33 259.12 124.08 257.42
  C 116.89 251.99 109.36 240.34 111.27 231.10
  A 0.90 0.90 0.0 0 0 110.82 230.12
  L 105.89 227.41"
/>
<path stroke="#808080" vector-effect="non-scaling-stroke" d="
  M 287.33 140.93
  L 281.24 143.80
  A 1.55 1.55 0.0 0 1 279.04 142.21
  Q 279.21 140.85 279.31 140.58
  C 283.88 129.15 281.34 116.11 276.89 105.03
  Q 274.15 98.19 268.00 91.31
  Q 253.18 74.69 232.29 71.25
  C 220.50 69.31 207.43 71.44 197.85 78.55
  C 194.00 81.41 190.04 86.46 186.97 90.73
  Q 183.40 95.68 183.75 101.64
  A 0.35 0.35 0.0 0 0 184.27 101.92
  C 193.95 96.52 204.05 104.93 205.03 114.47
  Q 206.01 124.17 199.92 131.09
  A 0.50 0.50 0.0 0 0 200.02 131.84
  Q 217.64 143.08 238.02 158.02
  A 4.30 4.29 -72.3 0 1 239.78 161.45
  Q 239.94 175.93 239.99 179.16
  C 240.05 183.08 239.11 185.33 236.92 188.66
  Q 225.58 205.89 219.89 214.27
  A 0.63 0.62 -63.6 0 0 220.20 215.21
  Q 229.83 218.53 239.19 216.17
  C 247.95 213.96 254.09 211.35 261.18 205.23
  Q 289.74 180.57 287.88 141.26
  A 0.39 0.39 0.0 0 0 287.33 140.93"
/>
<path stroke="#808080" vector-effect="non-scaling-stroke" d="
  M 46.26 150.93
  C 47.01 151.66 48.90 152.46 49.77 153.15
  Q 63.89 164.21 66.39 182.09
  A 1.77 1.77 0.0 0 0 67.39 183.45
  Q 78.54 188.76 88.82 194.71
  Q 102.31 202.53 123.26 214.58
  A 2.16 2.11 -29.6 0 0 124.32 214.86
  C 125.65 214.87 127.01 214.29 128.49 214.16
  C 146.95 212.49 170.55 221.80 175.72 241.56
  A 1.31 1.30 65.5 0 0 177.72 242.31
  Q 178.09 242.06 178.27 241.76
  C 182.12 235.54 187.64 228.87 191.96 222.77
  C 199.88 211.61 208.74 196.68 216.66 185.35
  Q 219.76 180.91 230.29 165.07
  Q 231.28 163.57 233.88 160.41
  A 0.40 0.39 -53.4 0 0 233.80 159.83
  Q 221.71 151.45 214.53 146.60
  Q 201.11 137.55 181.93 125.94
  Q 145.92 104.13 116.92 88.61
  Q 102.28 80.76 91.82 75.91
  A 0.48 0.48 0.0 0 0 91.20 76.10
  Q 89.00 79.88 88.95 79.96
  C 75.47 100.48 60.45 123.84 47.90 147.61
  C 47.53 148.30 46.85 149.14 46.18 150.07
  A 0.66 0.65 -50.7 0 0 46.26 150.93"
/>
<path stroke="#808080" vector-effect="non-scaling-stroke" d="
  M 84.16 79.53
  C 74.15 79.67 56.57 86.59 51.47 96.08
  C 47.72 103.05 46.36 110.16 53.34 115.70
  Q 55.25 117.22 59.57 117.95
  A 0.46 0.45 20.7 0 0 60.03 117.75
  L 84.35 79.87
  A 0.22 0.22 0.0 0 0 84.16 79.53"
/>
<path stroke="#808080" vector-effect="non-scaling-stroke" d="
  M 61.50 185.70
  Q 61.59 179.87 61.45 179.31
  Q 59.13 169.83 52.69 162.06
  C 46.17 154.20 33.89 149.00 24.11 153.06
  C 11.54 158.28 8.52 170.07 14.66 181.68
  Q 18.31 188.59 26.41 192.86
  C 34.17 196.95 43.66 201.22 50.99 198.85
  A 0.56 0.56 0.0 0 0 51.11 197.84
  C 49.34 196.74 45.97 194.88 46.06 193.07
  A 2.02 1.84 12.6 0 1 48.78 191.52
  Q 52.07 192.78 54.51 195.13
  A 1.00 0.99 44.0 0 0 55.90 195.11
  L 59.46 191.55
  A 1.03 1.02 38.0 0 0 59.26 189.94
  Q 57.13 188.68 53.96 186.64
  Q 52.58 185.74 52.38 184.74
  A 1.90 1.85 -2.0 0 1 54.48 182.54
  C 56.86 182.83 58.89 184.86 60.89 186.04
  A 0.41 0.40 -73.9 0 0 61.50 185.70"
/>
<path stroke="#6d6d6d" vector-effect="non-scaling-stroke" d="
  M 235.10 165.32
  Q 229.64 174.16 218.30 190.86
  C 211.40 201.02 203.79 213.65 197.08 223.34
  Q 192.81 229.49 185.20 239.16
  C 182.49 242.60 179.85 243.28 179.85 248.66
  Q 179.84 253.65 179.59 260.38
  A 0.17 0.16 66.2 0 0 179.88 260.50
  Q 203.41 232.08 223.65 200.75
  C 227.77 194.38 231.28 189.66 234.84 183.48
  A 4.45 4.37 60.5 0 0 235.43 181.27
  L 235.43 165.41
  A 0.18 0.18 0.0 0 0 235.10 165.32"
/>
<path stroke="#6d6d6d" vector-effect="non-scaling-stroke" d="
  M 120.22 216.96
  Q 118.45 216.41 116.57 215.41
  Q 110.89 212.38 91.89 201.37
  Q 78.56 193.64 66.05 187.62
  A 0.49 0.49 0.0 0 0 65.36 187.95
  Q 64.02 193.76 60.59 196.74
  A 0.53 0.53 0.0 0 0 60.69 197.61
  Q 76.88 206.13 102.06 220.45
  Q 107.26 223.41 112.10 226.57
  A 0.74 0.74 0.0 0 0 113.18 226.27
  Q 115.59 221.26 120.36 217.80
  A 0.48 0.47 35.6 0 0 120.22 216.96"
/>
<path stroke="#808080" vector-effect="non-scaling-stroke" d="
  M 115.70 237.17
  Q 120.52 251.89 134.32 259.47
  Q 135.83 260.30 138.47 260.96
  Q 147.48 263.22 155.21 262.25
  C 161.79 261.42 164.35 257.11 168.46 252.94
  C 170.06 251.31 171.80 247.43 171.51 244.73
  C 170.60 236.28 164.73 229.50 157.65 225.39
  Q 145.10 218.10 130.89 218.51
  C 127.08 218.62 124.85 219.83 122.19 221.93
  A 0.43 0.43 0.0 0 0 122.29 222.66
  Q 126.01 224.22 129.97 226.33
  Q 131.43 227.11 131.79 228.11
  A 1.80 1.62 0.9 0 1 129.47 230.14
  Q 124.96 228.65 119.71 226.04
  A 1.11 1.11 0.0 0 0 118.26 226.48
  L 116.01 230.35
  A 0.97 0.97 0.0 0 0 116.46 231.73
  Q 116.78 231.88 121.82 234.96
  A 2.78 2.58 22.1 0 1 123.12 237.74
  Q 122.93 238.73 121.38 239.01
  Q 120.65 239.15 119.27 238.36
  Q 117.44 237.31 116.23 236.71
  A 0.38 0.38 0.0 0 0 115.70 237.17"
/>
<path stroke="#808080" vector-effect="non-scaling-stroke" d="
  M 212.34 226.34
  A 0.53 0.52 41.0 0 0 211.55 226.39
  C 199.74 242.47 193.49 251.53 183.11 262.62
  A 0.83 0.81 -37.7 0 0 182.98 263.56
  Q 186.18 269.64 192.38 272.40
  A 2.75 2.73 55.7 0 0 193.57 272.63
  L 202.74 272.26
  A 0.93 0.92 -3.0 0 0 203.63 271.28
  Q 203.19 264.86 208.15 261.93
  Q 212.14 259.57 216.58 262.45
  A 0.56 0.56 0.0 0 0 217.44 262.09
  L 217.46 261.96
  A 1.27 1.26 -69.4 0 0 216.86 260.63
  Q 213.58 258.73 212.27 255.78
  C 208.81 248.01 207.00 235.30 214.34 229.15
  A 0.53 0.52 -42.5 0 0 214.38 228.38
  L 212.34 226.34"
/>
<path stroke="#6d6d6d" vector-effect="non-scaling-stroke" d="
  M 217.44 233.25
  A 0.62 0.62 0.0 0 0 216.36 233.17
  Q 213.02 238.16 213.88 244.36
  C 214.54 249.15 215.48 254.12 218.85 257.15
  A 0.73 0.72 -59.4 0 0 220.02 256.85
  C 222.82 248.82 220.97 240.67 217.44 233.25"
/>
<path stroke="#6d6d6d" vector-effect="non-scaling-stroke" d="
  M 175.30 261.70
  L 176.05 247.07
  A 0.07 0.06 -85.3 0 0 176.00 247.00
  L 175.94 246.98
  A 0.27 0.27 0.0 0 0 175.63 247.20
  Q 174.48 253.12 170.97 257.80
  A 0.78 0.77 -49.3 0 0 171.04 258.81
  L 174.32 262.08
  A 0.58 0.57 -66.0 0 0 175.30 261.70"
/>
<path stroke="#6d6d6d" vector-effect="non-scaling-stroke" d="
  M 208.45 270.70
  L 214.29 266.18
  A 0.13 0.13 0.0 0 0 214.31 266.00
  L 214.26 265.94
  A 3.67 2.37 -37.7 0 0 209.91 266.31
  L 209.67 266.49
  A 3.67 2.37 -37.7 0 0 208.22 270.61
  L 208.27 270.67
  A 0.13 0.13 0.0 0 0 208.45 270.70"
/>
<path stroke="#808080" vector-effect="non-scaling-stroke" d="
  M 92.8136 138.5472
  A 5.77 4.55 -8.7 0 0 86.4218 134.9224
  A 5.77 4.55 -8.7 0 0 81.4064 140.2928
  A 5.77 4.55 -8.7 0 0 87.7982 143.9176
  A 5.77 4.55 -8.7 0 0 92.8136 138.5472"
/>
<path stroke="#808080" vector-effect="non-scaling-stroke" d="
  M 174.11 180.20
  A 2.20 2.19 -17.2 0 0 172.73 182.80
  C 175.12 192.20 182.65 201.18 193.26 199.78
  C 202.71 198.53 209.74 190.68 211.85 181.56
  Q 216.13 163.11 204.90 148.12
  Q 203.37 146.08 200.92 144.74
  A 3.71 3.69 46.4 0 0 197.58 144.65
  L 196.71 145.06
  A 1.12 1.12 0.0 0 0 196.79 147.12
  Q 200.16 148.42 202.36 151.88
  Q 210.61 164.79 207.77 179.03
  C 206.66 184.62 203.58 190.30 198.93 192.96
  C 187.11 199.73 180.69 191.54 176.78 181.38
  A 2.05 2.05 0.0 0 0 174.16 180.18
  L 174.11 180.20"
/>
<path stroke="#808080" vector-effect="non-scaling-stroke" d="
  M 142.02 200.56
  Q 143.07 200.27 143.48 198.86
  C 147.26 185.57 138.38 169.73 129.90 160.09
  C 117.10 145.53 93.14 139.00 77.91 154.53
  C 75.97 156.51 73.94 160.16 72.23 162.96
  Q 71.54 164.07 72.22 165.14
  A 2.08 1.98 58.0 0 0 75.00 165.85
  Q 76.47 164.92 77.53 162.99
  C 88.46 143.01 114.17 148.94 126.69 163.27
  Q 136.33 174.31 139.26 186.76
  C 140.25 190.97 139.61 195.59 139.84 198.73
  A 1.97 1.71 80.9 0 0 142.02 200.56"
/>
<path stroke="#808080" vector-effect="non-scaling-stroke" d="
  M 118.91 164.28
  A 1.72 1.71 37.0 0 0 118.65 162.46
  C 115.89 159.26 104.95 150.31 101.25 156.27
  A 2.03 2.01 49.3 0 0 101.12 158.15
  C 103.29 163.09 108.61 172.23 114.39 168.94
  Q 117.62 167.10 118.91 164.28"
/>
<path stroke="#808080" vector-effect="non-scaling-stroke" d="
  M 145.9540 165.7808
  A 5.84 4.82 -113.9 0 0 143.9133 173.0728
  A 5.84 4.82 -113.9 0 0 150.6860 176.4592
  A 5.84 4.82 -113.9 0 0 152.7267 169.1672
  A 5.84 4.82 -113.9 0 0 145.9540 165.7808"
/>
<path stroke="#808080" vector-effect="non-scaling-stroke" d="
  M 90.72 138.19
  A 1.41 1.41 0.0 0 0 89.31 136.78
  A 1.41 1.41 0.0 0 0 87.90 138.19
  A 1.41 1.41 0.0 0 0 89.31 139.60
  A 1.41 1.41 0.0 0 0 90.72 138.19"
/>
<path stroke="#808080" vector-effect="non-scaling-stroke" d="
  M 104.4532 156.0656
  A 2.62 1.11 -154.1 0 0 106.3252 158.2085
  A 2.62 1.11 -154.1 0 0 109.1668 158.3544
  A 2.62 1.11 -154.1 0 0 107.2948 156.2115
  A 2.62 1.11 -154.1 0 0 104.4532 156.0656"
/>
<path stroke="#808080" vector-effect="non-scaling-stroke" d="
  M 149.19 168.60
  A 1.40 1.40 0.0 0 0 147.79 167.20
  A 1.40 1.40 0.0 0 0 146.39 168.60
  A 1.40 1.40 0.0 0 0 147.79 170.00
  A 1.40 1.40 0.0 0 0 149.19 168.60"
/>
</g>
<path fill="#000000" d="
  M 225.98 245.40
  Q 226.79 261.99 215.04 271.58
  Q 211.02 274.86 203.95 276.28
  C 196.94 277.69 191.47 278.25 185.77 273.74
  Q 181.69 270.50 180.21 267.75
  A 0.67 0.67 0.0 0 0 179.42 267.42
  C 178.36 267.72 177.72 267.89 176.73 267.53
  Q 170.96 265.44 167.37 262.38
  A 0.80 0.78 -41.9 0 0 166.40 262.34
  Q 157.39 268.81 144.56 267.37
  Q 137.04 266.52 131.54 263.28
  C 128.52 261.51 126.33 259.12 124.08 257.42
  C 116.89 251.99 109.36 240.34 111.27 231.10
  A 0.90 0.90 0.0 0 0 110.82 230.12
  L 105.89 227.41
  L 58.47 201.45
  A 2.45 2.39 -35.9 0 0 56.85 201.21
  C 54.38 201.73 51.71 203.62 49.22 203.98
  C 40.63 205.21 30.02 200.26 21.76 195.50
  C 16.78 192.62 14.11 188.88 11.00 184.05
  C 4.33 173.70 6.09 160.08 15.88 152.49
  Q 24.36 145.91 35.75 147.48
  C 37.77 147.76 40.23 148.71 41.57 148.96
  A 0.91 0.91 0.0 0 0 42.60 148.52
  L 57.05 122.44
  A 0.43 0.43 0.0 0 0 56.73 121.81
  C 48.15 120.74 42.22 111.30 44.07 103.08
  C 46.00 94.52 49.67 88.75 57.29 84.00
  Q 66.80 78.07 78.24 75.50
  Q 79.94 75.11 86.17 75.40
  A 1.44 1.43 27.8 0 0 87.12 75.11
  C 88.24 74.28 89.03 72.11 90.48 71.79
  Q 92.32 71.39 94.06 72.19
  Q 106.10 77.76 111.75 80.77
  Q 154.94 103.74 194.36 128.53
  A 1.43 1.43 0.0 0 0 196.00 128.44
  C 200.56 124.89 202.11 115.24 198.96 110.37
  C 196.02 105.82 189.95 101.89 185.58 107.20
  Q 184.21 108.86 183.32 109.11
  Q 181.69 109.56 180.93 107.75
  C 177.39 99.28 179.67 92.40 185.25 85.37
  C 189.19 80.42 192.48 76.38 197.58 73.12
  Q 205.19 68.27 215.59 66.71
  C 235.05 63.78 254.09 70.99 268.30 84.94
  Q 277.57 94.03 281.56 104.43
  C 284.85 112.97 287.29 123.53 285.89 132.04
  Q 285.34 135.43 285.36 135.55
  A 0.41 0.41 0.0 0 0 286.07 135.73
  C 287.12 134.46 288.53 132.47 289.94 132.88
  C 291.85 133.44 292.15 136.85 292.28 138.75
  Q 295.10 181.32 264.87 208.12
  C 255.96 216.01 246.07 220.03 234.78 221.61
  C 230.76 222.18 222.47 221.48 218.31 218.94
  A 1.13 1.12 -51.5 0 0 216.93 219.10
  L 214.75 221.28
  A 1.14 1.14 0.0 0 0 214.87 222.99
  Q 218.90 226.01 220.96 230.08
  Q 224.47 237.02 225.98 245.40
  Z
  M 287.33 140.93
  L 281.24 143.80
  A 1.55 1.55 0.0 0 1 279.04 142.21
  Q 279.21 140.85 279.31 140.58
  C 283.88 129.15 281.34 116.11 276.89 105.03
  Q 274.15 98.19 268.00 91.31
  Q 253.18 74.69 232.29 71.25
  C 220.50 69.31 207.43 71.44 197.85 78.55
  C 194.00 81.41 190.04 86.46 186.97 90.73
  Q 183.40 95.68 183.75 101.64
  A 0.35 0.35 0.0 0 0 184.27 101.92
  C 193.95 96.52 204.05 104.93 205.03 114.47
  Q 206.01 124.17 199.92 131.09
  A 0.50 0.50 0.0 0 0 200.02 131.84
  Q 217.64 143.08 238.02 158.02
  A 4.30 4.29 -72.3 0 1 239.78 161.45
  Q 239.94 175.93 239.99 179.16
  C 240.05 183.08 239.11 185.33 236.92 188.66
  Q 225.58 205.89 219.89 214.27
  A 0.63 0.62 -63.6 0 0 220.20 215.21
  Q 229.83 218.53 239.19 216.17
  C 247.95 213.96 254.09 211.35 261.18 205.23
  Q 289.74 180.57 287.88 141.26
  A 0.39 0.39 0.0 0 0 287.33 140.93
  Z
  M 46.26 150.93
  C 47.01 151.66 48.90 152.46 49.77 153.15
  Q 63.89 164.21 66.39 182.09
  A 1.77 1.77 0.0 0 0 67.39 183.45
  Q 78.54 188.76 88.82 194.71
  Q 102.31 202.53 123.26 214.58
  A 2.16 2.11 -29.6 0 0 124.32 214.86
  C 125.65 214.87 127.01 214.29 128.49 214.16
  C 146.95 212.49 170.55 221.80 175.72 241.56
  A 1.31 1.30 65.5 0 0 177.72 242.31
  Q 178.09 242.06 178.27 241.76
  C 182.12 235.54 187.64 228.87 191.96 222.77
  C 199.88 211.61 208.74 196.68 216.66 185.35
  Q 219.76 180.91 230.29 165.07
  Q 231.28 163.57 233.88 160.41
  A 0.40 0.39 -53.4 0 0 233.80 159.83
  Q 221.71 151.45 214.53 146.60
  Q 201.11 137.55 181.93 125.94
  Q 145.92 104.13 116.92 88.61
  Q 102.28 80.76 91.82 75.91
  A 0.48 0.48 0.0 0 0 91.20 76.10
  Q 89.00 79.88 88.95 79.96
  C 75.47 100.48 60.45 123.84 47.90 147.61
  C 47.53 148.30 46.85 149.14 46.18 150.07
  A 0.66 0.65 -50.7 0 0 46.26 150.93
  Z
  M 84.16 79.53
  C 74.15 79.67 56.57 86.59 51.47 96.08
  C 47.72 103.05 46.36 110.16 53.34 115.70
  Q 55.25 117.22 59.57 117.95
  A 0.46 0.45 20.7 0 0 60.03 117.75
  L 84.35 79.87
  A 0.22 0.22 0.0 0 0 84.16 79.53
  Z
  M 61.50 185.70
  Q 61.59 179.87 61.45 179.31
  Q 59.13 169.83 52.69 162.06
  C 46.17 154.20 33.89 149.00 24.11 153.06
  C 11.54 158.28 8.52 170.07 14.66 181.68
  Q 18.31 188.59 26.41 192.86
  C 34.17 196.95 43.66 201.22 50.99 198.85
  A 0.56 0.56 0.0 0 0 51.11 197.84
  C 49.34 196.74 45.97 194.88 46.06 193.07
  A 2.02 1.84 12.6 0 1 48.78 191.52
  Q 52.07 192.78 54.51 195.13
  A 1.00 0.99 44.0 0 0 55.90 195.11
  L 59.46 191.55
  A 1.03 1.02 38.0 0 0 59.26 189.94
  Q 57.13 188.68 53.96 186.64
  Q 52.58 185.74 52.38 184.74
  A 1.90 1.85 -2.0 0 1 54.48 182.54
  C 56.86 182.83 58.89 184.86 60.89 186.04
  A 0.41 0.40 -73.9 0 0 61.50 185.70
  Z
  M 235.10 165.32
  Q 229.64 174.16 218.30 190.86
  C 211.40 201.02 203.79 213.65 197.08 223.34
  Q 192.81 229.49 185.20 239.16
  C 182.49 242.60 179.85 243.28 179.85 248.66
  Q 179.84 253.65 179.59 260.38
  A 0.17 0.16 66.2 0 0 179.88 260.50
  Q 203.41 232.08 223.65 200.75
  C 227.77 194.38 231.28 189.66 234.84 183.48
  A 4.45 4.37 60.5 0 0 235.43 181.27
  L 235.43 165.41
  A 0.18 0.18 0.0 0 0 235.10 165.32
  Z
  M 120.22 216.96
  Q 118.45 216.41 116.57 215.41
  Q 110.89 212.38 91.89 201.37
  Q 78.56 193.64 66.05 187.62
  A 0.49 0.49 0.0 0 0 65.36 187.95
  Q 64.02 193.76 60.59 196.74
  A 0.53 0.53 0.0 0 0 60.69 197.61
  Q 76.88 206.13 102.06 220.45
  Q 107.26 223.41 112.10 226.57
  A 0.74 0.74 0.0 0 0 113.18 226.27
  Q 115.59 221.26 120.36 217.80
  A 0.48 0.47 35.6 0 0 120.22 216.96
  Z
  M 115.70 237.17
  Q 120.52 251.89 134.32 259.47
  Q 135.83 260.30 138.47 260.96
  Q 147.48 263.22 155.21 262.25
  C 161.79 261.42 164.35 257.11 168.46 252.94
  C 170.06 251.31 171.80 247.43 171.51 244.73
  C 170.60 236.28 164.73 229.50 157.65 225.39
  Q 145.10 218.10 130.89 218.51
  C 127.08 218.62 124.85 219.83 122.19 221.93
  A 0.43 0.43 0.0 0 0 122.29 222.66
  Q 126.01 224.22 129.97 226.33
  Q 131.43 227.11 131.79 228.11
  A 1.80 1.62 0.9 0 1 129.47 230.14
  Q 124.96 228.65 119.71 226.04
  A 1.11 1.11 0.0 0 0 118.26 226.48
  L 116.01 230.35
  A 0.97 0.97 0.0 0 0 116.46 231.73
  Q 116.78 231.88 121.82 234.96
  A 2.78 2.58 22.1 0 1 123.12 237.74
  Q 122.93 238.73 121.38 239.01
  Q 120.65 239.15 119.27 238.36
  Q 117.44 237.31 116.23 236.71
  A 0.38 0.38 0.0 0 0 115.70 237.17
  Z
  M 212.34 226.34
  A 0.53 0.52 41.0 0 0 211.55 226.39
  C 199.74 242.47 193.49 251.53 183.11 262.62
  A 0.83 0.81 -37.7 0 0 182.98 263.56
  Q 186.18 269.64 192.38 272.40
  A 2.75 2.73 55.7 0 0 193.57 272.63
  L 202.74 272.26
  A 0.93 0.92 -3.0 0 0 203.63 271.28
  Q 203.19 264.86 208.15 261.93
  Q 212.14 259.57 216.58 262.45
  A 0.56 0.56 0.0 0 0 217.44 262.09
  L 217.46 261.96
  A 1.27 1.26 -69.4 0 0 216.86 260.63
  Q 213.58 258.73 212.27 255.78
  C 208.81 248.01 207.00 235.30 214.34 229.15
  A 0.53 0.52 -42.5 0 0 214.38 228.38
  L 212.34 226.34
  Z
  M 217.44 233.25
  A 0.62 0.62 0.0 0 0 216.36 233.17
  Q 213.02 238.16 213.88 244.36
  C 214.54 249.15 215.48 254.12 218.85 257.15
  A 0.73 0.72 -59.4 0 0 220.02 256.85
  C 222.82 248.82 220.97 240.67 217.44 233.25
  Z
  M 175.30 261.70
  L 176.05 247.07
  A 0.07 0.06 -85.3 0 0 176.00 247.00
  L 175.94 246.98
  A 0.27 0.27 0.0 0 0 175.63 247.20
  Q 174.48 253.12 170.97 257.80
  A 0.78 0.77 -49.3 0 0 171.04 258.81
  L 174.32 262.08
  A 0.58 0.57 -66.0 0 0 175.30 261.70
  Z
  M 208.45 270.70
  L 214.29 266.18
  A 0.13 0.13 0.0 0 0 214.31 266.00
  L 214.26 265.94
  A 3.67 2.37 -37.7 0 0 209.91 266.31
  L 209.67 266.49
  A 3.67 2.37 -37.7 0 0 208.22 270.61
  L 208.27 270.67
  A 0.13 0.13 0.0 0 0 208.45 270.70
  Z"
/>
<path fill="#ffffff" d="
  M 287.88 141.26
  Q 289.74 180.57 261.18 205.23
  C 254.09 211.35 247.95 213.96 239.19 216.17
  Q 229.83 218.53 220.20 215.21
  A 0.63 0.62 -63.6 0 1 219.89 214.27
  Q 225.58 205.89 236.92 188.66
  C 239.11 185.33 240.05 183.08 239.99 179.16
  Q 239.94 175.93 239.78 161.45
  A 4.30 4.29 -72.3 0 0 238.02 158.02
  Q 217.64 143.08 200.02 131.84
  A 0.50 0.50 0.0 0 1 199.92 131.09
  Q 206.01 124.17 205.03 114.47
  C 204.05 104.93 193.95 96.52 184.27 101.92
  A 0.35 0.35 0.0 0 1 183.75 101.64
  Q 183.40 95.68 186.97 90.73
  C 190.04 86.46 194.00 81.41 197.85 78.55
  C 207.43 71.44 220.50 69.31 232.29 71.25
  Q 253.18 74.69 268.00 91.31
  Q 274.15 98.19 276.89 105.03
  C 281.34 116.11 283.88 129.15 279.31 140.58
  Q 279.21 140.85 279.04 142.21
  A 1.55 1.55 0.0 0 0 281.24 143.80
  L 287.33 140.93
  A 0.39 0.39 0.0 0 1 287.88 141.26
  Z"
/>
<path fill="#ffffff" d="
  M 46.18 150.07
  C 46.85 149.14 47.53 148.30 47.90 147.61
  C 60.45 123.84 75.47 100.48 88.95 79.96
  Q 89.00 79.88 91.20 76.10
  A 0.48 0.48 0.0 0 1 91.82 75.91
  Q 102.28 80.76 116.92 88.61
  Q 145.92 104.13 181.93 125.94
  Q 201.11 137.55 214.53 146.60
  Q 221.71 151.45 233.80 159.83
  A 0.40 0.39 -53.4 0 1 233.88 160.41
  Q 231.28 163.57 230.29 165.07
  Q 219.76 180.91 216.66 185.35
  C 208.74 196.68 199.88 211.61 191.96 222.77
  C 187.64 228.87 182.12 235.54 178.27 241.76
  Q 178.09 242.06 177.72 242.31
  A 1.31 1.30 65.5 0 1 175.72 241.56
  C 170.55 221.80 146.95 212.49 128.49 214.16
  C 127.01 214.29 125.65 214.87 124.32 214.86
  A 2.16 2.11 -29.6 0 1 123.26 214.58
  Q 102.31 202.53 88.82 194.71
  Q 78.54 188.76 67.39 183.45
  A 1.77 1.77 0.0 0 1 66.39 182.09
  Q 63.89 164.21 49.77 153.15
  C 48.90 152.46 47.01 151.66 46.26 150.93
  A 0.66 0.65 -50.7 0 1 46.18 150.07
  Z
  M 92.8136 138.5472
  A 5.77 4.55 -8.7 0 0 86.4218 134.9224
  A 5.77 4.55 -8.7 0 0 81.4064 140.2928
  A 5.77 4.55 -8.7 0 0 87.7982 143.9176
  A 5.77 4.55 -8.7 0 0 92.8136 138.5472
  Z
  M 174.11 180.20
  A 2.20 2.19 -17.2 0 0 172.73 182.80
  C 175.12 192.20 182.65 201.18 193.26 199.78
  C 202.71 198.53 209.74 190.68 211.85 181.56
  Q 216.13 163.11 204.90 148.12
  Q 203.37 146.08 200.92 144.74
  A 3.71 3.69 46.4 0 0 197.58 144.65
  L 196.71 145.06
  A 1.12 1.12 0.0 0 0 196.79 147.12
  Q 200.16 148.42 202.36 151.88
  Q 210.61 164.79 207.77 179.03
  C 206.66 184.62 203.58 190.30 198.93 192.96
  C 187.11 199.73 180.69 191.54 176.78 181.38
  A 2.05 2.05 0.0 0 0 174.16 180.18
  L 174.11 180.20
  Z
  M 142.02 200.56
  Q 143.07 200.27 143.48 198.86
  C 147.26 185.57 138.38 169.73 129.90 160.09
  C 117.10 145.53 93.14 139.00 77.91 154.53
  C 75.97 156.51 73.94 160.16 72.23 162.96
  Q 71.54 164.07 72.22 165.14
  A 2.08 1.98 58.0 0 0 75.00 165.85
  Q 76.47 164.92 77.53 162.99
  C 88.46 143.01 114.17 148.94 126.69 163.27
  Q 136.33 174.31 139.26 186.76
  C 140.25 190.97 139.61 195.59 139.84 198.73
  A 1.97 1.71 80.9 0 0 142.02 200.56
  Z
  M 118.91 164.28
  A 1.72 1.71 37.0 0 0 118.65 162.46
  C 115.89 159.26 104.95 150.31 101.25 156.27
  A 2.03 2.01 49.3 0 0 101.12 158.15
  C 103.29 163.09 108.61 172.23 114.39 168.94
  Q 117.62 167.10 118.91 164.28
  Z
  M 145.9540 165.7808
  A 5.84 4.82 -113.9 0 0 143.9133 173.0728
  A 5.84 4.82 -113.9 0 0 150.6860 176.4592
  A 5.84 4.82 -113.9 0 0 152.7267 169.1672
  A 5.84 4.82 -113.9 0 0 145.9540 165.7808
  Z"
/>
<path fill="#ffffff" d="
  M 84.16 79.53
  A 0.22 0.22 0.0 0 1 84.35 79.87
  L 60.03 117.75
  A 0.46 0.45 20.7 0 1 59.57 117.95
  Q 55.25 117.22 53.34 115.70
  C 46.36 110.16 47.72 103.05 51.47 96.08
  C 56.57 86.59 74.15 79.67 84.16 79.53
  Z"
/>
<path fill="#000000" d="
  M 92.8136 138.5472
  A 5.77 4.55 -8.7 0 1 87.7982 143.9176
  A 5.77 4.55 -8.7 0 1 81.4064 140.2928
  A 5.77 4.55 -8.7 0 1 86.4218 134.9224
  A 5.77 4.55 -8.7 0 1 92.8136 138.5472
  Z
  M 90.72 138.19
  A 1.41 1.41 0.0 0 0 89.31 136.78
  A 1.41 1.41 0.0 0 0 87.90 138.19
  A 1.41 1.41 0.0 0 0 89.31 139.60
  A 1.41 1.41 0.0 0 0 90.72 138.19
  Z"
/>
<circle fill="#ffffff" cx="89.31" cy="138.19" r="1.41"/>
<path fill="#000000" d="
  M 174.11 180.20
  L 174.16 180.18
  A 2.05 2.05 0.0 0 1 176.78 181.38
  C 180.69 191.54 187.11 199.73 198.93 192.96
  C 203.58 190.30 206.66 184.62 207.77 179.03
  Q 210.61 164.79 202.36 151.88
  Q 200.16 148.42 196.79 147.12
  A 1.12 1.12 0.0 0 1 196.71 145.06
  L 197.58 144.65
  A 3.71 3.69 46.4 0 1 200.92 144.74
  Q 203.37 146.08 204.90 148.12
  Q 216.13 163.11 211.85 181.56
  C 209.74 190.68 202.71 198.53 193.26 199.78
  C 182.65 201.18 175.12 192.20 172.73 182.80
  A 2.20 2.19 -17.2 0 1 174.11 180.20
  Z"
/>
<path fill="#000000" d="
  M 142.02 200.56
  A 1.97 1.71 80.9 0 1 139.84 198.73
  C 139.61 195.59 140.25 190.97 139.26 186.76
  Q 136.33 174.31 126.69 163.27
  C 114.17 148.94 88.46 143.01 77.53 162.99
  Q 76.47 164.92 75.00 165.85
  A 2.08 1.98 58.0 0 1 72.22 165.14
  Q 71.54 164.07 72.23 162.96
  C 73.94 160.16 75.97 156.51 77.91 154.53
  C 93.14 139.00 117.10 145.53 129.90 160.09
  C 138.38 169.73 147.26 185.57 143.48 198.86
  Q 143.07 200.27 142.02 200.56
  Z"
/>
<path fill="#ffffff" d="
  M 60.89 186.04
  C 58.89 184.86 56.86 182.83 54.48 182.54
  A 1.90 1.85 -2.0 0 0 52.38 184.74
  Q 52.58 185.74 53.96 186.64
  Q 57.13 188.68 59.26 189.94
  A 1.03 1.02 38.0 0 1 59.46 191.55
  L 55.90 195.11
  A 1.00 0.99 44.0 0 1 54.51 195.13
  Q 52.07 192.78 48.78 191.52
  A 2.02 1.84 12.6 0 0 46.06 193.07
  C 45.97 194.88 49.34 196.74 51.11 197.84
  A 0.56 0.56 0.0 0 1 50.99 198.85
  C 43.66 201.22 34.17 196.95 26.41 192.86
  Q 18.31 188.59 14.66 181.68
  C 8.52 170.07 11.54 158.28 24.11 153.06
  C 33.89 149.00 46.17 154.20 52.69 162.06
  Q 59.13 169.83 61.45 179.31
  Q 61.59 179.87 61.50 185.70
  A 0.41 0.40 -73.9 0 1 60.89 186.04
  Z"
/>
<path fill="#000000" d="
  M 118.91 164.28
  Q 117.62 167.10 114.39 168.94
  C 108.61 172.23 103.29 163.09 101.12 158.15
  A 2.03 2.01 49.3 0 1 101.25 156.27
  C 104.95 150.31 115.89 159.26 118.65 162.46
  A 1.72 1.71 37.0 0 1 118.91 164.28
  Z
  M 104.4532 156.0656
  A 2.62 1.11 -154.1 0 0 106.3252 158.2085
  A 2.62 1.11 -154.1 0 0 109.1668 158.3544
  A 2.62 1.11 -154.1 0 0 107.2948 156.2115
  A 2.62 1.11 -154.1 0 0 104.4532 156.0656
  Z"
/>
<ellipse fill="#ffffff" cx="0.00" cy="0.00" transform="translate(106.81,157.21) rotate(-154.1)" rx="2.62" ry="1.11"/>
<path fill="#d9d9d9" d="
  M 235.43 165.41
  L 235.43 181.27
  A 4.45 4.37 60.5 0 1 234.84 183.48
  C 231.28 189.66 227.77 194.38 223.65 200.75
  Q 203.41 232.08 179.88 260.50
  A 0.17 0.16 66.2 0 1 179.59 260.38
  Q 179.84 253.65 179.85 248.66
  C 179.85 243.28 182.49 242.60 185.20 239.16
  Q 192.81 229.49 197.08 223.34
  C 203.79 213.65 211.40 201.02 218.30 190.86
  Q 229.64 174.16 235.10 165.32
  A 0.18 0.18 0.0 0 1 235.43 165.41
  Z"
/>
<path fill="#000000" d="
  M 145.9540 165.7808
  A 5.84 4.82 -113.9 0 1 152.7267 169.1672
  A 5.84 4.82 -113.9 0 1 150.6860 176.4592
  A 5.84 4.82 -113.9 0 1 143.9133 173.0728
  A 5.84 4.82 -113.9 0 1 145.9540 165.7808
  Z
  M 149.19 168.60
  A 1.40 1.40 0.0 0 0 147.79 167.20
  A 1.40 1.40 0.0 0 0 146.39 168.60
  A 1.40 1.40 0.0 0 0 147.79 170.00
  A 1.40 1.40 0.0 0 0 149.19 168.60
  Z"
/>
<circle fill="#ffffff" cx="147.79" cy="168.60" r="1.40"/>
<path fill="#d9d9d9" d="
  M 120.22 216.96
  A 0.48 0.47 35.6 0 1 120.36 217.80
  Q 115.59 221.26 113.18 226.27
  A 0.74 0.74 0.0 0 1 112.10 226.57
  Q 107.26 223.41 102.06 220.45
  Q 76.88 206.13 60.69 197.61
  A 0.53 0.53 0.0 0 1 60.59 196.74
  Q 64.02 193.76 65.36 187.95
  A 0.49 0.49 0.0 0 1 66.05 187.62
  Q 78.56 193.64 91.89 201.37
  Q 110.89 212.38 116.57 215.41
  Q 118.45 216.41 120.22 216.96
  Z"
/>
<path fill="#ffffff" d="
  M 116.23 236.71
  Q 117.44 237.31 119.27 238.36
  Q 120.65 239.15 121.38 239.01
  Q 122.93 238.73 123.12 237.74
  A 2.78 2.58 22.1 0 0 121.82 234.96
  Q 116.78 231.88 116.46 231.73
  A 0.97 0.97 0.0 0 1 116.01 230.35
  L 118.26 226.48
  A 1.11 1.11 0.0 0 1 119.71 226.04
  Q 124.96 228.65 129.47 230.14
  A 1.80 1.62 0.9 0 0 131.79 228.11
  Q 131.43 227.11 129.97 226.33
  Q 126.01 224.22 122.29 222.66
  A 0.43 0.43 0.0 0 1 122.19 221.93
  C 124.85 219.83 127.08 218.62 130.89 218.51
  Q 145.10 218.10 157.65 225.39
  C 164.73 229.50 170.60 236.28 171.51 244.73
  C 171.80 247.43 170.06 251.31 168.46 252.94
  C 164.35 257.11 161.79 261.42 155.21 262.25
  Q 147.48 263.22 138.47 260.96
  Q 135.83 260.30 134.32 259.47
  Q 120.52 251.89 115.70 237.17
  A 0.38 0.38 0.0 0 1 116.23 236.71
  Z"
/>
<path fill="#ffffff" d="
  M 214.34 229.15
  C 207.00 235.30 208.81 248.01 212.27 255.78
  Q 213.58 258.73 216.86 260.63
  A 1.27 1.26 -69.4 0 1 217.46 261.96
  L 217.44 262.09
  A 0.56 0.56 0.0 0 1 216.58 262.45
  Q 212.14 259.57 208.15 261.93
  Q 203.19 264.86 203.63 271.28
  A 0.93 0.92 -3.0 0 1 202.74 272.26
  L 193.57 272.63
  A 2.75 2.73 55.7 0 1 192.38 272.40
  Q 186.18 269.64 182.98 263.56
  A 0.83 0.81 -37.7 0 1 183.11 262.62
  C 193.49 251.53 199.74 242.47 211.55 226.39
  A 0.53 0.52 41.0 0 1 212.34 226.34
  L 214.38 228.38
  A 0.53 0.52 -42.5 0 1 214.34 229.15
  Z"
/>
<path fill="#d9d9d9" d="
  M 105.89 227.41
  L 110.82 230.12
  A 0.90 0.90 0.0 0 1 111.27 231.10
  C 109.36 240.34 116.89 251.99 124.08 257.42
  C 126.33 259.12 128.52 261.51 131.54 263.28
  Q 137.04 266.52 144.56 267.37
  Q 157.39 268.81 166.40 262.34
  A 0.80 0.78 -41.9 0 1 167.37 262.38
  Q 170.96 265.44 176.73 267.53
  C 177.72 267.89 178.36 267.72 179.42 267.42
  A 0.67 0.67 0.0 0 1 180.21 267.75
  Q 181.69 270.50 185.77 273.74
  C 191.47 278.25 196.94 277.69 203.95 276.28
  Q 211.02 274.86 215.04 271.58
  Q 226.79 261.99 225.98 245.40
  Q 232.00 250.91 235.13 258.10
  C 236.54 261.32 235.29 264.48 234.85 267.50
  A 3.58 3.43 63.4 0 1 234.55 268.47
  Q 231.47 274.62 227.77 277.29
  C 215.63 286.04 202.49 288.23 187.29 288.83
  C 158.82 289.95 140.78 291.22 119.01 288.45
  Q 104.44 286.60 92.74 284.50
  Q 86.05 283.30 80.20 280.75
  Q 72.23 277.27 68.54 274.76
  Q 63.06 271.04 58.58 263.45
  C 55.31 257.91 56.06 252.87 58.94 247.43
  Q 60.07 245.31 62.61 243.05
  Q 70.36 236.14 80.96 232.52
  Q 93.54 228.22 105.89 227.41
  Z"
/>
<path fill="#d9d9d9" d="
  M 217.44 233.25
  C 220.97 240.67 222.82 248.82 220.02 256.85
  A 0.73 0.72 -59.4 0 1 218.85 257.15
  C 215.48 254.12 214.54 249.15 213.88 244.36
  Q 213.02 238.16 216.36 233.17
  A 0.62 0.62 0.0 0 1 217.44 233.25
  Z"
/>
<path fill="#d9d9d9" d="
  M 174.32 262.08
  L 171.04 258.81
  A 0.78 0.77 -49.3 0 1 170.97 257.80
  Q 174.48 253.12 175.63 247.20
  A 0.27 0.27 0.0 0 1 175.94 246.98
  L 176.00 247.00
  A 0.07 0.06 -85.3 0 1 176.05 247.07
  L 175.30 261.70
  A 0.58 0.57 -66.0 0 1 174.32 262.08
  Z"
/>
<path fill="#d9d9d9" d="
  M 208.45 270.70
  A 0.13 0.13 0.0 0 1 208.27 270.67
  L 208.22 270.61
  A 3.67 2.37 -37.7 0 1 209.67 266.49
  L 209.91 266.31
  A 3.67 2.37 -37.7 0 1 214.26 265.94
  L 214.31 266.00
  A 0.13 0.13 0.0 0 1 214.29 266.18
  L 208.45 270.70
  Z"
/>
</svg>
