<?xml version="1.0" standalone="no"?>
<!DOCTYPE svg PUBLIC "-//W3C//DTD SVG 20010904//EN"
 "http://www.w3.org/TR/2001/REC-SVG-20010904/DTD/svg10.dtd">
<svg version="1.0" xmlns="http://www.w3.org/2000/svg"
 width="300.000000pt" height="300.000000pt" viewBox="0 0 300.000000 300.000000"
 preserveAspectRatio="xMidYMid meet">

<g transform="translate(0.000000,300.000000) scale(0.100000,-0.100000)"
fill="#000000" stroke="none">
<path d="M2118 2325 c-91 -23 -158 -62 -221 -128 -78 -82 -112 -152 -103 -215
3 -25 13 -53 21 -61 13 -13 17 -12 38 7 34 32 79 29 115 -7 34 -35 44 -72 32
-124 -9 -41 -37 -90 -48 -85 -4 2 -113 66 -242 144 -397 238 -746 424 -795
424 -14 0 -28 -7 -31 -15 -4 -10 -19 -15 -43 -15 -93 0 -240 -61 -316 -132
-49 -44 -85 -124 -85 -185 0 -52 41 -117 87 -138 21 -10 40 -19 42 -21 2 -1
-12 -29 -31 -61 -20 -32 -52 -91 -74 -131 l-38 -72 -36 7 c-19 5 -60 8 -90 7
-155 -2 -268 -160 -218 -305 19 -56 79 -135 128 -167 118 -77 245 -108 321
-78 l42 17 61 -32 c34 -17 154 -83 269 -146 l207 -115 0 -42 c0 -95 117 -248
228 -298 94 -42 208 -42 295 1 l39 19 35 -24 c20 -13 43 -25 52 -26 9 0 21 -2
27 -2 6 -1 23 -15 38 -32 52 -63 138 -80 245 -48 100 29 178 131 188 246 7 73
-26 182 -74 245 -27 35 -31 47 -23 63 9 17 12 18 42 2 54 -26 177 -21 268 13
91 34 145 69 222 148 158 161 228 337 228 577 0 98 -3 122 -15 126 -8 4 -22 1
-30 -6 -13 -11 -15 -3 -15 62 0 93 -29 210 -72 291 -67 125 -225 253 -368 298
-86 26 -228 33 -302 14z m262 -50 c128 -34 275 -140 350 -253 69 -105 105
-307 71 -405 -17 -50 -5 -65 37 -43 17 9 34 16 38 16 14 0 -6 -196 -26 -270
-36 -126 -94 -224 -190 -321 -89 -91 -144 -125 -245 -154 -62 -19 -187 -17
-206 2 -7 7 23 61 90 162 l101 152 0 117 c0 64 -4 122 -8 128 -9 14 -157 120
-282 203 -52 35 -99 67 -104 71 -4 5 3 22 15 40 33 44 35 164 3 207 -46 62
-116 89 -165 63 -17 -10 -19 -7 -19 23 0 40 31 91 98 160 49 51 99 81 167 103
55 17 208 17 275 -1z m-1339 -96 c327 -164 921 -515 1186 -701 l111 -78 -108
-160 c-60 -88 -146 -217 -191 -287 -95 -148 -258 -373 -271 -373 -5 0 -13 12
-18 28 -20 53 -35 77 -77 119 -83 84 -229 136 -367 132 l-81 -3 -180 106 c-99
58 -226 129 -282 159 -88 46 -103 58 -103 79 -1 70 -84 210 -154 261 l-44 31
35 67 c54 100 194 332 278 461 41 63 88 139 105 168 18 28 33 52 36 52 2 0 59
-27 125 -61z m-201 18 c0 -2 -33 -53 -72 -114 -40 -62 -95 -146 -121 -188 -42
-66 -51 -75 -70 -69 -41 12 -69 36 -84 72 -14 33 -14 42 2 90 28 88 94 144
228 193 44 16 117 26 117 16z m-415 -741 c56 -26 123 -93 154 -154 25 -49 45
-127 38 -147 -5 -13 -10 -12 -35 2 -18 10 -36 14 -48 9 -18 -7 -17 -9 7 -29
14 -12 33 -26 42 -32 15 -9 15 -12 -2 -35 l-19 -25 -39 22 c-27 15 -43 19 -53
12 -13 -8 -10 -13 13 -34 33 -29 33 -31 3 -39 -58 -14 -251 66 -301 126 -72
85 -86 201 -32 271 58 76 174 99 272 53z m1925 -209 l0 -83 -123 -184 c-137
-206 -267 -387 -360 -500 l-62 -75 -3 69 c-2 56 1 74 15 92 85 105 156 204
239 330 145 223 286 434 290 434 2 0 4 -37 4 -83z m-1637 -148 c23 -12 142
-78 264 -146 l223 -126 -29 -32 c-16 -18 -31 -39 -34 -47 -5 -15 -8 -14 -212
102 -71 40 -172 95 -223 123 -51 27 -91 52 -89 56 2 3 12 25 23 48 10 24 23
43 27 43 4 0 27 -9 50 -21z m748 -305 c74 -22 122 -48 170 -91 69 -63 98 -148
68 -206 -17 -33 -70 -87 -102 -103 -31 -17 -118 -21 -187 -9 -86 15 -184 95
-230 189 -24 51 -22 63 8 47 28 -15 42 -14 42 3 0 14 -39 51 -61 58 -12 4 9
58 22 58 4 0 26 -9 50 -20 88 -39 108 -14 25 31 l-48 26 23 17 c31 21 147 21
220 0z m667 -101 c-27 -31 -41 -92 -33 -147 8 -62 38 -134 59 -142 26 -10 18
-25 -9 -18 -54 13 -99 -18 -108 -76 -3 -19 -12 -26 -43 -33 -49 -10 -75 -4
-113 29 -59 49 -58 56 11 138 35 40 99 123 143 184 68 94 82 108 94 96 13 -12
13 -16 -1 -31z m65 -74 c19 -57 22 -156 7 -179 -9 -13 -12 -12 -25 5 -33 43
-46 150 -23 200 6 14 14 25 18 25 4 0 14 -23 23 -51z m-437 -175 c-2 -30 -6
-57 -9 -60 -2 -2 -11 4 -20 14 -15 17 -15 21 4 60 12 23 23 42 25 42 2 0 2
-25 0 -56z m384 -103 c0 -12 -50 -44 -57 -37 -9 8 27 46 44 46 7 0 13 -4 13
-9z"/>
<path d="M842 1643 c-7 -2 -17 -14 -23 -25 -13 -24 13 -58 45 -58 27 0 66 27
66 45 0 33 -48 54 -88 38z m59 -26 c-1 -12 -15 -9 -19 4 -3 6 1 10 8 8 6 -3
11 -8 11 -12z"/>
<path d="M1971 1551 c-11 -7 -5 -17 26 -48 53 -50 83 -131 83 -222 0 -142 -65
-231 -169 -231 -50 0 -99 40 -130 106 -24 51 -47 54 -45 6 4 -69 82 -150 154
-159 92 -13 194 66 226 173 34 119 -4 285 -83 354 -37 33 -41 34 -62 21z"/>
<path d="M881 1523 c-47 -17 -126 -88 -150 -136 -12 -22 -12 -30 -2 -40 10 -9
18 -5 42 23 92 109 147 137 247 127 196 -20 382 -236 382 -442 0 -57 7 -70 27
-54 20 17 16 117 -7 192 -39 125 -151 258 -265 312 -75 36 -203 44 -274 18z"/>
<path d="M1020 1445 c-12 -15 -11 -23 10 -62 21 -40 69 -83 92 -83 4 0 22 13
40 29 40 36 34 52 -33 93 -60 37 -92 43 -109 23z m65 -16 c4 -6 5 -12 2 -15
-7 -7 -37 7 -37 17 0 13 27 11 35 -2z"/>
<path d="M1440 1325 c-7 -8 -9 -24 -5 -37 23 -75 95 -77 95 -3 0 17 -5 36 -12
43 -17 17 -63 15 -78 -3z m47 -21 c-9 -9 -28 6 -21 18 4 6 10 6 17 -1 6 -6 8
-13 4 -17z"/>
</g>
</svg>
